<?xml version="1.0" standalone="no"?>
<!DOCTYPE svg PUBLIC "-//W3C//DTD SVG 1.1//EN" "http://www.w3.org/Graphics/SVG/1.1/DTD/svg11.dtd" >
<svg xmlns="http://www.w3.org/2000/svg" xmlns:xlink="http://www.w3.org/1999/xlink" version="1.1">
<metadata>
Created by FontForge 20160407 at Thu Aug 11 13:02:36 2016
 By Jimmy Warting
EzPat Snyder, 1797 Ross Inlet, Coos Bay, OR 97420 Shware $10
</metadata>
<defs>
<font id="MarkerFeltThin-PlainRegular" horiz-adv-x="432" >
  <font-face 
    font-family="MarkerFeltThin-Plain"
    font-weight="500"
    font-stretch="normal"
    units-per-em="1000"
    panose-1="0 0 0 0 0 0 0 0 0 0"
    ascent="800"
    descent="-200"
    x-height="566"
    cap-height="809"
    bbox="-66 -219 973 868"
    underline-thickness="20"
    underline-position="-143"
    unicode-range="U+0020-2122"
  />
<missing-glyph horiz-adv-x="800" 
d="M50 0v800h700v-800h-700zM700 50v700h-600v-700h600z" />
    <glyph glyph-name=".notdef" horiz-adv-x="800" 
d="M50 0v800h700v-800h-700zM700 50v700h-600v-700h600z" />
    <glyph glyph-name=".null" unicode="&#xd7;" horiz-adv-x="0" 
 />
    <glyph glyph-name=".null" unicode="&#x141;" horiz-adv-x="0" 
 />
    <glyph glyph-name=".null" unicode="&#xfd;" horiz-adv-x="0" 
 />
    <glyph glyph-name="nonmarkingreturn" horiz-adv-x="250" 
 />
    <glyph glyph-name="space" unicode=" " horiz-adv-x="250" 
 />
    <glyph glyph-name="space" unicode="&#xa0;" horiz-adv-x="250" 
 />
    <glyph glyph-name="exclam" unicode="!" horiz-adv-x="204" 
d="M168 -12q-12 -18 -42 -18q-23 0 -43.5 9t-31.5 23.5t-11 37.5q0 11 2 39.5t2 34.5t-2 16t-2 15q0 3 2.5 11.5t15.5 13.5t29 5q26 0 52 -11.5t32.5 -27t6.5 -27.5q0 -9 -3 -29t-3 -32q0 -10 1 -19t2 -17q0 -13 -7 -24zM162 246q-16 -12 -41 -12q-23 0 -45 10t-32.5 23.5
t-10.5 31.5q0 8 1.5 23t1.5 16q0 72 -1.5 167t-2.5 153q0 56 2 89t10.5 42.5t48.5 9.5q31 0 53.5 -9t26 -23.5t3.5 -18.5q0 -10 -7 -31.5t-7 -30.5v-332q0 -14 7.5 -42t7.5 -36q0 -19 -15 -30z" />
    <glyph glyph-name="quotedbl" unicode="&#x22;" horiz-adv-x="306" 
d="M126 570q-10 -16 -34 -16q-22 0 -42.5 13t-25.5 33q-2 11 2 26t4 22v78l-12 48q15 27 55 27q20 0 36.5 -8.5t21 -21t4.5 -20.5q-3 -19 -3 -31l-6 -90q0 -9 2.5 -24t2.5 -17q0 -11 -5 -19zM270 546q-10 -16 -34 -16q-22 0 -42.5 13t-25.5 33q-2 11 2 26t4 22v78l-12 48
q15 27 55 27q20 0 36.5 -8.5t21 -21t4.5 -20.5q-3 -19 -3 -31l-6 -90q0 -9 2.5 -24t2.5 -17q0 -11 -5 -19z" />
    <glyph glyph-name="numbersign" unicode="#" horiz-adv-x="480" 
d="M222 262q-12 -14 -36 -14q-29 0 -40 13.5t-11 27.5q0 8 3 17l-48 -6q-4 0 -11.5 -8t-14.5 -6q-17 5 -30.5 27t-13.5 40q0 9 4 13.5t12 4.5q18 -3 36 -5l60 12v10t1 16q0 26 -3 46q-1 0 -17.5 -9t-28.5 -9q-19 0 -36.5 16.5t-17.5 33.5q0 8 6 15t20.5 9t21.5 4l54 18
q0 31 -6 57t-12 54q0 18 21.5 26.5t44.5 8.5q20 0 34 -7.5t14 -24.5q0 -8 -9 -18t-9 -18v-54l72 18v42q-2 16 -2 24t2.5 14.5t13.5 11.5t23 5q18 0 33.5 -8.5t18.5 -20.5t3 -15q0 -19 -14 -35q8 1 28.5 9t27.5 8q10 0 22.5 -9.5t12.5 -39.5q0 -34 -25 -40q-6 -1 -17.5 3.5
t-18.5 2.5l-24 -6l6 -78q15 4 24.5 6t17.5 0q15 -4 26 -19.5t11 -31.5q0 -13 -9 -24t-31 -11q-16 0 -27 8v-90q0 -7 3 -19t3 -17q0 -8 -7.5 -17t-20.5 -9q-14 0 -29.5 10t-24.5 21.5t-9 35.5v17.5t1 19.5q0 6 -1 14t-1 12l-84 -18q0 -21 6 -37t6 -17q0 -5 -4 -10zM208 396
l80 24v72l-80 -24v-72z" />
    <glyph glyph-name="dollar" unicode="$" horiz-adv-x="306" 
d="M138 242q8 6 25 6q19 0 37 -6.5t19.5 -13t1.5 -14.5q0 -33 -35 -46q-11 -4 -35.5 7.5t-24.5 20.5v25q2 13 12 21zM156 268q-42 0 -80 38t-38 67q0 11 9 16t22 5q25 0 38 -7t20.5 -17t13.5 -10q10 0 29.5 32t19.5 50q0 7 -4 10q-5 3 -46.5 -10t-60.5 -13q-23 0 -40.5 11
t-28.5 38q-12 30 51 129t111 99q32 0 65 -30t31 -44q-3 -25 -17 -38.5t-33 -13.5q-4 0 -12 1.5t-18.5 17t-19.5 15.5q-14 0 -46 -47t-24 -53q4 -3 62.5 13.5t83.5 16.5q21 0 34 -6.5t16.5 -18t3.5 -24.5q0 -60 -49.5 -143.5t-92.5 -83.5zM116 734q-3 9 -3 20q0 19 9 25t21 6
q15 0 32.5 -5t25 -12.5t7.5 -19.5q0 -17 -12 -24.5t-29 -7.5t-33 6t-18 12z" />
    <glyph glyph-name="percent" unicode="%" horiz-adv-x="702" 
d="M220 54q-11 -3 -22 -3q-28 0 -47 19t-19 54q0 24 14.5 37t27.5 25l318 480l-214 -66q4 -19 4 -41q0 -71 -45 -126t-111 -55q-51 0 -74.5 22.5t-23.5 61.5q0 54 39.5 119.5t74.5 87t63.5 23.5t34.5 4l288 84q12 3 35 17.5t37 14.5q4 0 29 -6.5t41.5 -19t16.5 -33.5
q0 -6 -1.5 -13.5t-5.5 -19.5t-26 -31t-24 -23l-336 -492q-8 -12 -27.5 -62t-46.5 -58zM134 478q8 -5 19.5 7.5t16 25.5t8 25t3.5 22q0 13 -9 16q-10 4 -26 -30t-16 -55q0 -8 4 -11zM356 92q-1 6 -1 17q0 57 45 99t104 42q49 0 94.5 -35.5t45.5 -66.5q0 -82 -40.5 -128
t-87.5 -46q-54 0 -103.5 32t-56.5 86zM478 76q4 -4 10 -4q8 0 16 7t18.5 20.5t16 24.5t5.5 17q0 8 -8 11q-9 4 -17 -1t-26.5 -22t-18.5 -42q0 -7 4 -11z" />
    <glyph glyph-name="ampersand" unicode="&#x26;" horiz-adv-x="558" 
d="M456 246q-41 -73 -78.5 -127.5t-90.5 -99.5t-107 -45q-32 0 -63 17.5t-62.5 56.5t-31.5 87q0 59 34 113t75 112q-6 -1 -16 -1t-21.5 3t-22.5 6t-27 15.5t-21 34.5q-7 32 42 123t115 168t107 77q33 0 56 -20t41 -50t26.5 -59t8.5 -52q0 -20 -6 -29t-18 -14t-27 -5
q-25 0 -40 12.5t-25 45.5t-22 33q-21 0 -82.5 -91.5t-49.5 -100.5q7 -6 20 -6q20 0 70 30t66 30q25 0 43 -13.5t18 -38.5q0 -27 -25 -62q-21 -12 -36 -20t-20 -18q-52 -35 -96 -116t-44 -131q0 -14 5.5 -25t22.5 -11q31 0 74 42.5t58 86.5q-12 -2 -16 -2q-19 0 -31.5 9
t-20 23t-7.5 26q0 6 7.5 20t144.5 56t163 36q19 -4 32 -21.5t13 -37.5q0 -18 -9 -27.5t-34 -11t-37 -4.5t-26 -9t-29 -15z" />
    <glyph glyph-name="quotesingle" unicode="'" horiz-adv-x="156" 
d="M126 570q-10 -16 -34 -16q-22 0 -42.5 13t-25.5 33q-2 11 2 26t4 22v78l-12 48q15 27 55 27q20 0 36.5 -8.5t21 -21t4.5 -20.5q-3 -19 -3 -31l-6 -90q0 -9 2.5 -24t2.5 -17q0 -11 -5 -19z" />
    <glyph glyph-name="parenleft" unicode="(" horiz-adv-x="264" 
d="M238 30q-5 -22 -24.5 -33.5t-46.5 -11.5q-50 0 -69.5 23.5t-22 45t-3.5 30.5q-23 85 -32.5 177.5t-9.5 162.5q0 53 16.5 156t43.5 170q5 35 9.5 44.5t15 18.5t32.5 9q33 0 65 -20t32 -51q0 -10 -1.5 -14t-20.5 -28.5t-22 -40.5q-17 -28 -30.5 -116.5t-13.5 -133.5
q0 -67 11 -155.5t35 -146.5q2 -14 21 -40.5t15 -45.5z" />
    <glyph glyph-name="parenright" unicode=")" horiz-adv-x="264" 
d="M30 780q5 22 24.5 33.5t46.5 11.5q50 0 69.5 -23.5t22 -45t3.5 -30.5q23 -85 32.5 -177.5t9.5 -162.5q0 -53 -16.5 -156t-43.5 -170q-5 -35 -9.5 -44.5t-15 -18.5t-32.5 -9q-33 0 -65 20t-32 51q0 10 1.5 14t20.5 28.5t22 40.5q17 28 30.5 116.5t13.5 133.5
q0 67 -11 155.5t-35 146.5q-2 14 -21 40.5t-15 45.5z" />
    <glyph glyph-name="asterisk" unicode="*" horiz-adv-x="384" 
d="M249 485q-11 -25 -38 -25q-23 0 -33.5 12.5t-10.5 28.5q0 8 2 31t2 37q-19 -14 -54 -31q-9 -7 -14 -11.5t-18 -5.5q-20 -2 -41 7.5t-21 25.5l2 8q3 9 20.5 14.5t19.5 6.5l75 41l-53 26q-16 5 -31 11q-4 5 -4 14q0 18 22.5 36t45.5 18q5 0 12.5 -2t16.5 -16t22 -22l2 48
q-2 14 -2 20t2.5 9.5t15.5 7t26 3.5q14 0 23.5 -3.5t13 -11t3.5 -13.5q0 -7 -3 -31t-3 -36l28 14q12 10 18.5 14.5t12.5 4.5q17 0 32 -13t15 -29q0 -8 -4 -13.5t-15 -8t-16 -5.5l-41 -29l53 -29q3 -2 12.5 -5.5t14 -9t4.5 -14.5q0 -16 -16.5 -28.5t-38.5 -12.5
q-15 0 -27.5 7t-37.5 34v-41q0 -5 4.5 -15.5t1.5 -17.5z" />
    <glyph glyph-name="plus" unicode="+" horiz-adv-x="444" 
d="M294 264q-6 -15 -25.5 -23.5t-42.5 -8.5q-18 0 -29 3.5t-22 16t-16.5 57t-8.5 63.5l-42 -18q-16 -6 -36 -6q-23 2 -37.5 25t-14.5 51q0 34 15 42.5t20 8.5q17 -4 35 -7l50 8l-10 82q-1 7 -5.5 18.5t-4.5 15.5t6 12.5t31.5 16.5t51.5 8q18 0 32.5 -4t20.5 -11t6 -13
q0 -5 -5 -17t-5 -20l6 -72l44 8q11 2 29 8t27 6q10 0 23.5 -6t26.5 -25.5t13 -39.5q0 -19 -11.5 -30t-30.5 -11q-15 1 -22 1q-10 0 -15 -1l-72 -12l8 -64q6 -26 12 -51q0 -7 -2 -11z" />
    <glyph glyph-name="comma" unicode="," horiz-adv-x="192" 
d="M37 -132q-22 0 -46 22t-19 46q0 1 33 34t41 60q5 6 7 25.5t8 25.5t20 6q23 0 50.5 -12.5t30 -25.5t2.5 -18q0 -13 -6 -23q-11 -14 -18 -22q-40 -56 -63 -87t-40 -31z" />
    <glyph glyph-name="hyphen" unicode="-" horiz-adv-x="396" 
d="M90 258q-42 20 -42 66q0 19 8 28.5t40 10.5t42 3l114 30q20 6 32 9t24 3q11 0 24 -7t21 -25.5t8 -39.5q0 -25 -10.5 -34t-22.5 -9q-4 0 -22 3.5t-28 1.5l-108 -26q-11 -2 -30.5 -10.5t-29.5 -8.5q-11 0 -20 5z" />
    <glyph glyph-name="hyphen" unicode="&#xad;" horiz-adv-x="396" 
d="M90 258q-42 20 -42 66q0 19 8 28.5t40 10.5t42 3l114 30q20 6 32 9t24 3q11 0 24 -7t21 -25.5t8 -39.5q0 -25 -10.5 -34t-22.5 -9q-4 0 -22 3.5t-28 1.5l-108 -26q-11 -2 -30.5 -10.5t-29.5 -8.5q-11 0 -20 5z" />
    <glyph glyph-name="period" unicode="." horiz-adv-x="186" 
d="M137 -4q-5 -5 -15 -8t-24 -3q-28 0 -51 12t-23 33q0 9 5.5 22.5t7 19.5t1.5 19q-1 15 -1 22q0 9 2 16.5t11 16.5t36 9q26 0 48.5 -11.5t26.5 -30.5q2 -13 -2.5 -27.5t-8.5 -28.5q-2 -23 -2.5 -36.5t-10.5 -24.5z" />
    <glyph glyph-name="slash" unicode="/" horiz-adv-x="522" 
d="M102 -14q-24 -5 -63 17.5t-39 56.5q0 16 16.5 35.5t19.5 24.5l330 618q9 34 14.5 49.5t14 20.5t14 6t12.5 1q31 0 60 -23t29 -54q0 -10 -24 -34t-26 -28l-308 -584q-5 -9 -20 -56t-30 -50z" />
    <glyph glyph-name="zero" unicode="0" horiz-adv-x="480" 
d="M234 -36q-119 0 -167.5 128t-48.5 304q0 150 58.5 276.5t111.5 132.5t65 6q105 0 157 -128.5t52 -286.5q0 -171 -55 -301.5t-173 -130.5zM234 96q29 0 56.5 102t27.5 198q0 129 -13 202.5t-65 73.5q-30 0 -54 -92t-24 -184q0 -105 19.5 -202.5t52.5 -97.5z" />
    <glyph glyph-name="one" unicode="1" horiz-adv-x="318" 
d="M116 132l-18 444q0 23 -45 46t-45 56q31 65 68.5 101.5t69.5 36.5q5 1 9 1q39 0 68 -26t29 -65q0 -11 -11 -27t-11 -27l16 -528q0 -21 17.5 -52t17.5 -45q0 -13 -1.5 -20t-7.5 -21.5t-24.5 -22.5t-42.5 -8q-50 0 -92.5 26t-36.5 63q2 14 21 34t19 34z" />
    <glyph glyph-name="two" unicode="2" horiz-adv-x="546" 
d="M72 107q16 17 82 150t123 260t51 132q-11 8 -41 -15.5t-39 -38.5q-12 -8 -19 -37.5t-23 -35.5t-25 -6q-31 0 -64 24.5t-37 56.5q-2 16 29 46t71 56q52 53 99.5 89.5t92.5 36.5q48 0 83.5 -28t42.5 -74q4 -24 -23.5 -88t-106 -230.5t-126.5 -279.5q26 3 71.5 12.5t74.5 16
t39.5 9.5t22.5 3q19 0 36 -9t34.5 -32.5t17.5 -44.5q0 -25 -20 -42.5t-38 -21.5t-27 -4q-14 0 -42.5 8t-34.5 7q-6 1 -20 1q-35 0 -127.5 -33.5t-104.5 -33.5q-30 0 -71 26t-41 56q0 20 27 36t33 28z" />
    <glyph glyph-name="three" unicode="3" horiz-adv-x="486" 
d="M177 138q13 0 79.5 89t66.5 121q0 9 -8 13.5t-16 4.5q-13 0 -31 -12.5t-34 -23.5q-13 -5 -31.5 -21.5t-34.5 -16.5q-30 0 -63 33t-33 71q0 26 45.5 41t69.5 33.5t73.5 87.5t49.5 101q0 9 -4 13q-6 6 -45 -26.5t-71 -67.5q-10 -8 -25.5 -33.5t-30.5 -31t-27 -5.5
q-31 0 -58.5 24t-36.5 54q-4 15 61 72t144.5 107.5t118.5 50.5q50 0 79 -35t29 -85q0 -80 -21 -120.5t-81 -107.5q53 -14 83 -34.5t37.5 -45t7.5 -29.5q0 -69 -112.5 -218t-179.5 -161q-34 -6 -100 55t-72 91q-4 24 15 42t45 18q31 0 62 -24t49 -24z" />
    <glyph glyph-name="four" unicode="4" horiz-adv-x="570" 
d="M272 152l-2 106q-29 -8 -63.5 -13.5t-52.5 -9t-34.5 -15.5t-29.5 -10q-26 4 -53 37t-27 67q0 21 12 31q19 13 38 27l204 366q6 11 6 28v17q0 9 1 15t10.5 17t32.5 11q35 0 76.5 -33.5t48.5 -58t7 -29.5q0 -12 -24 -65.5t-24 -79.5v-158q35 13 52.5 18.5t29.5 5.5
q33 0 61.5 -22t28.5 -56q0 -25 -16.5 -42.5t-31.5 -21t-18.5 -3.5h-4.5q-4 0 -19.5 3.5t-25.5 3.5l-54 -4v-80v-37q0 -29 -2 -37q0 -18 13.5 -54t13.5 -46q0 -17 -12.5 -32t-31.5 -24t-28 -9q-34 0 -74.5 38.5t-40.5 74.5q0 11 17 32t17 42zM270 378l6 156l-90 -174z" />
    <glyph glyph-name="five" unicode="5" horiz-adv-x="522" 
d="M4 146q6 21 24.5 31t44.5 10q11 0 24.5 -2t42.5 -27.5t52 -25.5q26 0 76 108.5t50 157.5q0 13 -6 16q-14 8 -79 -40.5t-89 -43.5q-17 4 -29.5 20t-24.5 32q-22 17 -36 28.5t-14 30.5q0 14 22 33t22 36v116q0 13 -7 55.5t-7 52.5q0 15 7 26.5t83.5 13t105.5 5t63 8.5
t58.5 9.5t42.5 7t28 2.5q30 0 47 -18t17 -68q0 -24 -19.5 -42.5t-46.5 -23.5q-15 -3 -37 8t-35 10l-162 -22v-76.5v-67.5q31 22 61 31t71 9q49 0 84.5 -31t35.5 -83q0 -78 -50 -192.5t-113 -205.5t-87 -88q-47 6 -137.5 88.5t-82.5 111.5z" />
    <glyph glyph-name="six" unicode="6" horiz-adv-x="486" 
d="M242 818q58 0 99 -31.5t73 -92.5q23 -16 38 -34.5t15 -39.5q0 -9 -4.5 -22.5t-28.5 -24t-54 -10.5q-55 0 -68.5 16t-15.5 23t-2 14q2 19 2 28q0 15 -10 24q-6 30 -32 30q-22 0 -50 -73.5t-28 -146.5q31 46 84 46q84 0 138 -69.5t54 -164.5q0 -81 -50.5 -196.5
t-123.5 -115.5q-115 0 -183.5 96.5t-68.5 263.5q0 207 61 343.5t155 136.5zM272 410q-22 6 -45 -41.5t-30.5 -88.5t-7.5 -75q0 -39 6.5 -65t22.5 -30q27 -8 53.5 36t33 78.5t8.5 50.5t2 34q0 42 -10 69t-33 32z" />
    <glyph glyph-name="seven" unicode="7" horiz-adv-x="480" 
d="M76 152l230 514l-120 -42q-12 -4 -35.5 -17.5t-38.5 -13.5q-7 0 -21 3t-35.5 34.5t-21.5 64.5q0 22 10 34t18.5 16.5t25.5 4.5h15q14 -2 29 -3q12 0 24 3q55 8 161.5 41.5t108.5 32.5q38 -10 59.5 -37t21.5 -63q0 -12 -4 -29t-34 -36t-37 -35l-216 -486q-8 -17 -10.5 -85
t-29.5 -78.5t-45 -10.5q-44 0 -81.5 31.5t-37.5 68.5q0 28 29 51.5t35 36.5z" />
    <glyph glyph-name="eight" unicode="8" horiz-adv-x="444" 
d="M188 -28q-42 0 -105 58t-63 112q0 58 53 139t71 109q-114 62 -114 198q0 61 59.5 133.5t108.5 83.5t72 11q70 0 107 -48.5t37 -119.5q0 -68 -24.5 -107.5t-77.5 -114.5q59 -59 86.5 -105.5t27.5 -110.5t-89 -151t-149 -87zM212 506q25 46 48.5 90.5t23.5 62.5
q0 8 -5.5 12t-11.5 4q-17 0 -37.5 -17t-35 -45.5t-14.5 -52.5q0 -32 32 -54zM250 286q-63 -86 -79 -112.5t-16 -43.5q0 -10 6.5 -15t12.5 -5q14 0 35 17t36.5 36.5t21.5 38t6 37.5q0 38 -23 47z" />
    <glyph glyph-name="nine" unicode="9" horiz-adv-x="492" 
d="M252 -24q-58 0 -99 31.5t-73 92.5q-23 16 -38 34.5t-15 39.5q0 9 4.5 22.5t28.5 24t54 10.5q55 0 68.5 -16t15.5 -23t2 -14q0 -5 -1 -14.5t-1 -13.5q0 -14 10 -24q6 -30 32 -30q22 0 50 73.5t28 146.5q-31 -46 -84 -46q-84 0 -138 69.5t-54 164.5q0 81 50.5 196.5
t123.5 115.5q115 0 183.5 -96.5t68.5 -263.5q0 -207 -61 -343.5t-155 -136.5zM222 384q22 -6 45 41.5t30.5 88.5t7.5 75q0 39 -6.5 65t-22.5 30q-27 8 -53.5 -36t-33 -78.5t-8.5 -50.5t-2 -34q0 -42 10 -69t33 -32z" />
    <glyph glyph-name="colon" unicode=":" horiz-adv-x="228" 
d="M137 -4q-5 -5 -15 -8t-24 -3q-28 0 -51 12t-23 33q0 9 5.5 22.5t7 19.5t1.5 19q-1 15 -1 22q0 9 2 16.5t11 16.5t36 9q26 0 48.5 -11.5t26.5 -30.5q2 -13 -2.5 -27.5t-8.5 -28.5q-2 -23 -2.5 -36.5t-10.5 -24.5zM167 386q-5 -5 -15 -8t-24 -3q-28 0 -51 12t-23 33
q0 9 5.5 22.5t7 19.5t1.5 19q-1 15 -1 22q0 9 2 16.5t11 16.5t36 9q26 0 48.5 -11.5t26.5 -30.5q2 -13 -2.5 -27.5t-8.5 -28.5q-2 -23 -2.5 -36.5t-10.5 -24.5z" />
    <glyph glyph-name="semicolon" unicode=";" horiz-adv-x="192" 
d="M25 -120q-25 0 -53.5 16.5t-23.5 39.5q0 1 33 34t41 60q5 6 7 25.5t7.5 25t15.5 5.5q25 0 59.5 -17t37 -27.5t2.5 -13.5v-5q0 -12 -9.5 -22t-19.5 -21l-54 -70q-25 -30 -43 -30zM143 386q-5 -5 -15 -8t-24 -3q-28 0 -51 12t-23 33q0 9 5.5 22.5t7 19.5t1.5 19
q-1 15 -1 22q0 9 2 16.5t11 16.5t36 9q26 0 48.5 -11.5t26.5 -30.5q2 -13 -2.5 -27.5t-8.5 -28.5q-2 -23 -2.5 -36.5t-10.5 -24.5z" />
    <glyph glyph-name="less" unicode="&#x3c;" horiz-adv-x="582" 
d="M141 370q-63 0 -95 57.5t-32 138.5q0 72 23.5 131t52 67.5t51.5 8.5t45.5 -8.5t42 -28.5t31 -61.5t11.5 -92.5q0 -86 -33 -149t-97 -63zM141 436q19 -3 35 51.5t16 114.5q0 46 -10 74t-33 30q-22 0 -37.5 -41.5t-15.5 -85.5q0 -65 7.5 -101.5t37.5 -41.5zM423 370
q-63 0 -95 57.5t-32 138.5q0 72 23.5 131t52 67.5t51.5 8.5t45.5 -8.5t42 -28.5t31 -61.5t11.5 -92.5q0 -86 -33 -149t-97 -63zM423 436q19 -3 35 51.5t16 114.5q0 46 -10 74t-33 30q-22 0 -37.5 -41.5t-15.5 -85.5q0 -65 7.5 -101.5t37.5 -41.5zM143 234q-13 4 -21 18
t-8 29q0 13 6 21.5t13 11t18 2.5h30l225 23q8 1 25.5 8.5t29.5 4.5q42 -10 42 -44q0 -8 -4 -16.5t-13 -15.5q-2 -2 -18.5 -1t-28.5 1h-10l-216 -24l-58 -20q-4 0 -12 2z" />
    <glyph glyph-name="equal" unicode="=" horiz-adv-x="396" 
d="M90 258q-42 20 -42 66q0 19 8 28.5t40 10.5t42 3l114 30q20 6 32 9t24 3q11 0 24 -7t21 -25.5t8 -39.5q0 -25 -10.5 -34t-22.5 -9q-4 0 -22 3.5t-28 1.5l-108 -26q-11 -2 -30.5 -10.5t-29.5 -8.5q-11 0 -20 5zM102 416q-42 20 -42 66q0 19 8 28.5t40 10.5t42 3l114 30
q20 6 32 9t24 3q11 0 24 -7t21 -25.5t8 -39.5q0 -25 -10.5 -34t-22.5 -9q-4 0 -22 3.5t-28 1.5l-108 -26q-11 -2 -30.5 -10.5t-29.5 -8.5q-11 0 -20 5z" />
    <glyph glyph-name="greater" unicode="&#x3e;" horiz-adv-x="486" 
d="M146 384q-37 0 -53 9q-17 14 -31 23q-15 5 -20.5 12t-5.5 16q0 17 17.5 32.5t34.5 11.5q6 -1 13.5 -11.5t14.5 -10.5q11 0 15 20t5 24q-12 -2 -17 -2q-44 0 -68.5 43.5t-24.5 96.5q0 56 25 100t71 44q56 0 82 -56t26 -130q0 -78 -23.5 -150t-60.5 -72zM124 578
q9 0 17.5 22t8.5 44q0 26 -6.5 49t-19.5 23q-9 0 -13.5 -22t-4.5 -48q0 -32 3 -50t15 -18zM378 384q-37 0 -53 9q-17 14 -31 23q-15 5 -20.5 12t-5.5 16q0 17 17.5 32.5t34.5 11.5q6 -1 13.5 -11.5t14.5 -10.5q11 0 15 20t5 24q-12 -2 -17 -2q-44 0 -68.5 43.5t-24.5 96.5
q0 56 25 100t71 44q56 0 82 -56t26 -130q0 -78 -23.5 -150t-60.5 -72zM356 578q9 0 17.5 22t8.5 44q0 26 -6.5 49t-19.5 23q-9 0 -13.5 -22t-4.5 -48q0 -32 3 -50t15 -18zM74 246q-13 4 -21 18t-8 29q0 13 6 21.5t13 11t18 2.5h30l225 23q8 1 25.5 8.5t29.5 4.5
q42 -10 42 -44q0 -8 -4 -16.5t-13 -15.5q-2 -2 -18.5 -1t-28.5 1h-10l-216 -24l-58 -20q-4 0 -12 2z" />
    <glyph glyph-name="question" unicode="?" horiz-adv-x="414" 
d="M278 -16q-7 -12 -16 -17t-22 -5q-22 0 -46.5 17t-33.5 33t-11 26t-2 21q1 17 1 27q0 9 -5 25t-5 22q0 8 6.5 17.5t39.5 9.5q26 0 48 -8t29.5 -21t9.5 -22.5t2 -19.5q-1 -18 -1 -29q1 -12 6 -30t5 -26q0 -11 -5 -20zM226 214q-10 -7 -25 -7q-31 0 -63 28t-32 61
q0 34 39.5 112.5t80 159t40.5 115.5q0 15 -8 25q-11 12 -47.5 -25t-68.5 -83q-6 -5 -14.5 -23.5t-20.5 -25t-28 -6.5q-28 0 -50.5 17.5t-22.5 43.5q0 20 13.5 35t34.5 23q70 85 115 114t86 29q22 0 43.5 -7.5t60 -38.5t38.5 -91q0 -42 -23 -88.5t-70 -126.5t-59 -112.5
t-12 -40.5q1 -7 2.5 -12t0.5 -12q0 -10 1 -19l2 -18q0 -10 -2.5 -16t-10.5 -11z" />
    <glyph glyph-name="at" unicode="@" horiz-adv-x="612" 
d="M440 76q-6 -23 -24 -33t-50 -13q-59 -23 -118 -23q-88 0 -145.5 58.5t-57.5 192.5q0 129 92.5 225.5t212.5 96.5q117 0 178 -69.5t61 -164.5q0 -83 -43 -143t-114 -60q-31 0 -55.5 22.5t-32.5 62.5q-30 -58 -53.5 -89t-60.5 -31q-42 0 -62.5 28t-20.5 73q0 71 42.5 148.5
t74.5 90.5t40 13q17 0 31.5 -10.5t14.5 -24.5q0 -2 -2.5 -8t-17.5 -9t-18 -11q-35 -19 -63.5 -85t-28.5 -105q0 -16 7 -16q5 0 15 10.5t23 26.5t18.5 32t10 30.5t2.5 30.5l-4 34q3 13 13 18.5t27 5.5q25 0 48 -13.5t28 -79t24 -65.5q32 0 56 41.5t24 94.5q0 62 -39.5 106
t-124.5 44q-91 0 -161 -93t-70 -192q0 -64 36 -104.5t111 -40.5q22 0 38.5 5.5t43.5 20.5q8 2 21.5 14t24.5 12q17 0 33 -14t16 -31q0 -6 -1 -9z" />
    <glyph glyph-name="A" unicode="A" horiz-adv-x="619" 
d="M50 92q36 181 81 340.5t101 289.5q-2 16 -2 25q0 23 8 40t24 24.5t39 7.5q26 0 52 -8.5t39.5 -21.5t13.5 -38q0 -32 -18 -59q11 -100 32 -195t50 -197q20 4 42 10t31 6q12 0 34 -17t22 -55q0 -21 -9.5 -37t-28 -18.5t-47.5 -2.5q3 -21 17.5 -51.5t34.5 -60.5
q26 -18 26 -50q0 -18 -9.5 -31t-21.5 -16t-19 -3h-11q-23 0 -45 8t-31 21t-10 30.5t-1 20.5q-6 6 -22 42.5t-32 73.5q-56 -9 -116 -18t-86 -16q-1 -3 -13.5 -36.5t-12.5 -47.5q2 -5 2 -10v-10q0 -26 -18.5 -40.5t-43.5 -14.5q-9 0 -23.5 3t-33 23.5t-18.5 43.5q0 13 5 23.5
t18 21.5zM210 256l138 24q-12 47 -27 111t-27 131q-31 -67 -55 -145.5t-29 -120.5z" />
    <glyph glyph-name="B" unicode="B" horiz-adv-x="492" 
d="M80 105q-10 58 -18 272t-8 299q-9 14 -15 31.5t-6 36.5q0 27 12.5 40t35.5 13t47.5 -11.5t39.5 -29.5q60 22 93.5 29t64.5 7q32 0 56 -10.5t37.5 -36.5t13.5 -59q0 -50 -30.5 -108t-82.5 -112l92 -28q42 -16 55.5 -43.5t13.5 -57.5q0 -72 -82 -159t-113 -120l-36 -68
q-23 -35 -53 -35q-6 1 -9 1q-67 8 -98 50t-31 61q0 22 21 38zM196 154q46 36 94.5 86.5t48.5 82.5q0 8 -7 17.5t-30 9.5q-25 0 -56 -12.5t-54 -31.5zM180 500q40 34 73.5 81.5t33.5 70.5q0 7 -4.5 11.5t-14.5 4.5q-17 0 -36.5 -10.5t-55.5 -33.5z" />
    <glyph glyph-name="C" unicode="C" horiz-adv-x="453" 
d="M420 211q-34 -85 -84 -162t-106 -77q-115 0 -162.5 106t-47.5 255q0 170 48 318.5t97 154t65 5.5q83 0 122.5 -65t61.5 -187q5 -15 11 -30.5t6 -29.5q0 -16 -9 -28.5t-24.5 -19.5t-29.5 -7q-27 0 -57 15.5t-38.5 29.5t-8.5 22q0 10 4.5 20t9.5 19q0 44 -14.5 83t-33.5 44
q-29 7 -50 -104.5t-21 -222.5q0 -97 13 -175t42 -83q18 -4 42.5 42.5t40.5 106.5q-2 14 -2 19q0 29 19.5 44.5t52.5 15.5q7 0 12 -0.5t25.5 -5t32 -17t11.5 -30.5q0 -16 -7.5 -30.5t-20.5 -25.5z" />
    <glyph glyph-name="D" unicode="D" horiz-adv-x="486" 
d="M74 78q0 118 -3.5 254.5t-6 219t-2.5 112.5q-11 18 -16 28.5t-5 22.5q0 15 9 25q26 34 68 34q23 0 40 -14q66 26 108 38.5t65 12.5t51 -14t61 -57t33 -88q0 -91 -52 -253.5t-122 -292.5t-99.5 -139t-40.5 -9q-35 0 -66 30t-31 62q0 18 9 28zM198 188q53 126 99.5 275
t46.5 200q0 15 -6.5 23t-23.5 8q-22 0 -48 -17t-74 -55q0 -29 -1 -100.5t-1 -111.5q0 -72 1 -116.5t7 -105.5z" />
    <glyph glyph-name="E" unicode="E" horiz-adv-x="426" 
d="M56 102q0 106 -2 321.5t-2 298.5q-7 10 -7 20q0 16 19 27t42 15q13 2 33 -7q12 -7 25 -13q33 11 75.5 24t51 17.5t19 10.5t26.5 6q4 0 22.5 -3t40.5 -33.5t22 -57.5q0 -18 -17 -31.5t-52 -13.5q-16 0 -36 3q-34 -11 -71.5 -25t-54.5 -29v-238q3 2 13.5 4t16.5 4
q12 21 42 21q8 0 28 -6.5t48.5 -29.5t28.5 -47q0 -6 -6.5 -22.5t-23.5 -25t-41 -8.5q-8 0 -17 0.5t-20 1.5q-7 0 -17 -3t-25 -11t-27 -14q0 -36 0.5 -65t5.5 -51q19 5 34.5 10t35.5 14q6 10 16 16t30 6q27 0 57.5 -30.5t30.5 -61.5q0 -17 -10.5 -30.5t-31 -16.5t-58.5 -3
l-94 -48q-3 -1 -24.5 -19t-37.5 -13q-30 9 -52.5 30t-34.5 40t-12 26q0 6 5 21.5t6 18.5z" />
    <glyph glyph-name="F" unicode="F" horiz-adv-x="420" 
d="M66 80v644q-1 12 -1 18q0 24 13.5 37.5t50.5 13.5q15 0 30.5 -2t22.5 -6q7 -8 14 -15q12 3 29.5 9.5t27.5 10t25.5 13.5t39.5 10q29 0 63.5 -25t34.5 -54q0 -45 -33 -53t-58 -8q-28 0 -40.5 -6t-35 -16t-45.5 -19q-6 -54 -6 -117q0 -41 1 -70t3 -51q4 4 17 12t23 15
q8 9 18.5 18t21.5 9q34 0 67 -30.5t33 -65.5q0 -12 -8.5 -29t-55.5 -19t-64 -16q-14 -4 -28 -19t-22 -23q-3 -26 -3 -68q0 -38 1 -66.5t2 -53.5q5 -11 5 -25q0 -33 -24 -45.5t-42 -12.5q-32 0 -60.5 20t-34.5 51q-3 14 3 21q10 8 15 13z" />
    <glyph glyph-name="G" unicode="G" horiz-adv-x="480" 
d="M260 -22q-8 -3 -17 -3q-65 0 -144 108.5t-79 262.5q0 174 52.5 322t151.5 148q73 0 113.5 -80.5t54.5 -189.5q16 -20 16 -44q0 -42 -23.5 -49.5t-33.5 -7.5q-26 0 -56.5 13.5t-38.5 27t-8 22.5q0 7 3.5 19t4.5 19q-8 63 -13 89.5t-19 26.5q-16 0 -42 -113.5t-26 -200.5
q0 -63 21 -142.5t35 -79.5q13 0 24 35.5t18 82.5q-28 13 -57.5 39.5t-29.5 52.5q0 18 20 37t165 19q26 13 38.5 17.5t22.5 4.5q5 0 25 -5t42.5 -30t22.5 -52q0 -19 -10 -31.5t-19 -16t-25 -3.5h-25q-21 0 -34 -2q-13 -103 -50 -190.5t-80 -105.5z" />
    <glyph glyph-name="H" unicode="H" horiz-adv-x="492" 
d="M64 32l-2 264q-3 7 -19 34t-16 43q0 6 1.5 12.5t11.5 14t20 14.5q0 99 1 176t1 146q-3 7 -6 14.5t-3 14.5q0 11 6.5 20t22.5 16t39 7q33 0 59.5 -10t32.5 -25t6 -22q0 -14 -17.5 -43t-17.5 -44q0 -31 -1 -125.5t-1 -112.5q27 5 71.5 13.5t58.5 12.5q0 37 1 128.5t1 157.5
q-9 24 -9 41q0 30 22 41.5t38 11.5q36 0 71.5 -18.5t35.5 -49.5q0 -13 -18 -36t-18 -36q1 -50 1.5 -112.5t0.5 -129.5q18 -15 36 -43.5t12 -42.5t-20.5 -20.5t-27.5 -11.5q0 -53 0.5 -115.5t1.5 -114.5q0 -9 6.5 -29t6.5 -25q0 -13 -9 -20.5t-20.5 -12t-21.5 -4.5
q-29 0 -64 15t-42.5 29.5t-7.5 24.5q0 13 9 33t19 41v172l-134 -28l2 -228q0 -12 6.5 -39t6.5 -34q0 -12 -2.5 -18.5t-13 -17t-35.5 -10.5t-49 13t-32.5 27t-8.5 20q0 4 3.5 10.5t4.5 10.5z" />
    <glyph glyph-name="I" unicode="I" horiz-adv-x="240" 
d="M60 90l-18 612q0 12 -8 29t-8 26q0 8 5.5 18t19 22t44.5 12q34 0 68.5 -16t40 -30.5t5.5 -20.5q0 -12 -7 -26.5t-14 -27.5l10 -606q0 -12 9 -31t9 -29q0 -9 -3.5 -18.5t-17.5 -15.5t-33 -6h-13q-9 2 -35 6t-46 14.5t-25.5 25t-5.5 20.5q0 10 6.5 21t16.5 21z" />
    <glyph glyph-name="J" unicode="J" 
d="M41 198q-20 14 -30 23.5t-10 38.5q0 18 39.5 28t80.5 10q26 0 37 -9t14.5 -42t10.5 -45q7 -24 16 -48t24 -24q16 0 22.5 105.5t6.5 249.5q0 95 -0.5 139t-2.5 84q0 9 -2 27t-2 26q0 22 11 35.5t43 19.5q23 5 71.5 -24t48.5 -60q0 -21 -16 -34t-16 -24q-3 -6 -4 -149
t-4.5 -283.5t-12 -182.5t-40 -67t-66.5 -25q-7 1 -11 1q-32 4 -64 33.5t-58.5 67t-85.5 129.5z" />
    <glyph glyph-name="K" unicode="K" horiz-adv-x="554" 
d="M68 114l-26 590q0 13 -9.5 32t-9.5 27q0 9 5.5 19t16 18.5t35.5 8.5q37 0 68.5 -9.5t40.5 -26.5t9 -26q0 -10 -9 -28t-9 -29v-244l168 298q11 32 18.5 51.5t23 23.5t23.5 4q32 0 67 -24.5t30 -54.5q-3 -22 -20.5 -32t-21.5 -16l-202 -352l232 -176q29 -18 47.5 -29.5
t23 -27t4.5 -27.5q0 -40 -33 -77t-72 -37q-13 0 -35 8.5t-35 57.5t-32 64l-180 140l12 -120q9 -38 19 -75q0 -20 -14.5 -35t-26.5 -19t-27 -4q-33 0 -63.5 21.5t-35 36t-4.5 22.5q0 10 11 23t11 24z" />
    <glyph glyph-name="L" unicode="L" horiz-adv-x="420" 
d="M84 126l-42 606q-4 8 -12.5 20t-8.5 23q0 13 18.5 29.5t56.5 16.5q34 0 63.5 -13.5t35 -25.5t7 -17.5t1.5 -10.5q0 -9 -8.5 -18.5t-8.5 -15.5l36 -552l60 24q26 12 41.5 19t29.5 7q18 0 34 -14t35 -50q6 -14 6 -28q0 -25 -15.5 -47.5t-31 -28.5t-32.5 -8t-28 -2h-22
h-16.5t-23 -4.5t-34.5 -28.5t-67 -31q-30 -5 -59.5 19.5t-36 44.5t-6.5 24v6q0 13 14 29t14 27z" />
    <glyph glyph-name="M" unicode="M" horiz-adv-x="924" 
d="M90 108l-22 562q0 12 -9.5 35.5t-9.5 32.5t3.5 17t13 18.5t26 15.5t37.5 5q66 0 92 -21.5t30.5 -30.5t4.5 -19q-1 -12 -1 -18q0 -7 3 -15l198 -480l222 510q4 9 4 21q-1 16 -1 24q0 13 4 21t19 19.5t43 11.5q42 0 82.5 -26t40.5 -59q0 -16 -14 -27t-14 -19l42 -590
q0 -10 15 -35t15 -39q0 -12 -9 -25t-27 -21t-38 -8q-40 0 -80.5 25t-44 41t-3.5 21q0 16 14 36t12 35l-30 336l-172 -388q-3 -6 -3 -20q0 -8 2.5 -26t2.5 -23q0 -16 -4 -23.5t-15.5 -15t-27 -11.5t-32.5 -4q-36 0 -64.5 17.5t-32 36t-4 24t-0.5 7.5q0 6 2 16t2 15l-2 11
l-144 384l24 -354q0 -14 6 -40t6 -38q0 -19 -11 -32.5t-31 -21t-29 -7.5q-31 0 -67 23t-42 45.5t-6 25.5q0 11 12 23t12 22z" />
    <glyph glyph-name="N" unicode="N" horiz-adv-x="600" 
d="M78 108l-30 612q0 6 -2 16t-2 14q0 8 3 13.5t15.5 12.5t41.5 7q30 0 60.5 -10.5t40.5 -22.5t12 -18t2 -12q0 -5 -2.5 -18.5t-0.5 -17.5q10 -48 58.5 -147t99.5 -190t52 -91l-12 488q0 9 -7 20t-7 17t4 13t16 19.5t35 12.5q37 0 76 -25.5t39 -56.5q0 -19 -16 -30.5
t-16 -21.5l14 -548q0 -15 14 -38t14 -34q0 -35 -23.5 -59.5t-58.5 -24.5q-83 0 -116 84l-16 78q-17 26 -47 75.5t-69 119t-64 129.5q0 -69 5 -178t11 -206q0 -4 10 -28t10 -34t-2.5 -17t-14.5 -23t-46 -16q-36 0 -70.5 23t-38.5 53q-3 25 12.5 38t15.5 22z" />
    <glyph glyph-name="O" unicode="O" horiz-adv-x="540" 
d="M260 -18q-118 14 -172.5 142t-54.5 296q0 114 38.5 237t63.5 140t38 17q9 0 28.5 -5.5t27.5 -5.5q13 0 46.5 5.5t43.5 5.5q14 0 61.5 -19.5t90 -129t42.5 -245.5q0 -137 -50.5 -278t-85.5 -152.5t-43 -12.5t-19 -1t-26 2t-29 4zM270 90q31 0 69.5 116t38.5 214
q0 106 -26.5 200t-82.5 94q-12 0 -17.5 -1.5t-18.5 -8t-40.5 -107t-27.5 -177.5q0 -104 35.5 -217t69.5 -113z" />
    <glyph glyph-name="P" unicode="P" 
d="M60 88l-18 648q0 3 -3 12t-3 14q0 9 5.5 15.5t17.5 11t24 7t21 2.5q11 0 24.5 -2t31.5 -4q44 16 83 29t69 13q38 0 73 -17.5t57.5 -49t22.5 -72.5q0 -105 -93.5 -268.5t-125.5 -176t-39 -12.5q-15 0 -23 18q-3 -26 -3 -58q0 -45 2 -77.5t5 -60.5q0 -8 5 -23t5 -23
q0 -10 -5.5 -18.5t-20 -15t-32.5 -6.5q-33 0 -63.5 16t-34 31t-3.5 18.5v4.5q0 16 10.5 29t10.5 15zM178 402q43 32 95 132t52 151q0 23 -9.5 27t-14.5 4q-24 0 -60.5 -25t-66.5 -59z" />
    <glyph glyph-name="Q" unicode="Q" horiz-adv-x="576" 
d="M388 36q-28 -28 -46 -42t-62 -14q-131 0 -190.5 124t-59.5 292q0 134 68.5 271t135.5 137q12 0 28 -5t26 -5q11 0 36 5t42 5q76 0 122 -108.5t46 -233.5q0 -106 -12.5 -183.5t-59.5 -158.5l96 -86q18 -8 33 -14.5t19 -31.5q5 -32 -17.5 -53.5t-56.5 -21.5q-7 1 -10 1
q-30 4 -72 53t-66 69zM258 164q-16 8 -24.5 13t-11.5 23q-4 25 23.5 47.5t54.5 22.5q11 0 16 -3t7 -11t5 -10l34 -28q21 54 27.5 103t6.5 117q0 99 -21 177.5t-67 78.5q-39 0 -83.5 -101.5t-44.5 -196.5q0 -115 22.5 -209.5t71.5 -94.5q14 0 20.5 10t13.5 20z" />
    <glyph glyph-name="R" unicode="R" horiz-adv-x="570" 
d="M78 102l-32 570q0 13 -10.5 35.5t-10.5 31.5q0 7 6 19.5t31.5 23.5t53.5 11q21 0 34 -5t17.5 -16.5t12.5 -11.5q40 15 91 31.5t91 16.5q37 0 68.5 -12t51 -34t19.5 -50q0 -74 -81.5 -202.5t-167.5 -203.5l258 -180q1 -1 39.5 -19t42 -31.5t3.5 -21.5q0 -29 -35.5 -50
t-73.5 -21q-22 0 -33 7.5t-20 26t-17 23.5l-221 148l9 -92q0 -7 14.5 -29.5t14.5 -36.5q0 -11 -5.5 -21t-22.5 -21.5t-43 -11.5q-36 0 -69.5 21t-37.5 38t-4 24q0 12 13.5 23.5t13.5 19.5zM180 397q63 69 112.5 151.5t49.5 119.5q0 11 -5.5 15t-10.5 4q-22 0 -55 -28
t-89 -83z" />
    <glyph glyph-name="S" unicode="S" horiz-adv-x="483" 
d="M84 111q-27 18 -51 40.5t-24 42.5q0 9 4 15t21 15t36 14.5t35 5.5q43 0 67 -29.5t32 -58.5q17 -34 28 -53t32 -19q36 0 47 27t11 67v20q0 56 -18 68.5t-94.5 44.5t-116 96.5t-39.5 132.5q0 108 56 195t142 87q101 0 140.5 -67t39.5 -137q4 -14 7.5 -33t3.5 -36
q0 -20 -10 -45t-54 -25q-34 0 -62 24.5t-35 72.5q-3 17 7.5 33.5t6.5 20.5q4 14 -3.5 26t-30.5 12q-34 0 -51 -40t-17 -90q0 -48 30 -80t99 -64t109 -79t40 -149q0 -78 -49.5 -137t-122.5 -59q-98 0 -144 44.5t-72 96.5z" />
    <glyph glyph-name="T" unicode="T" horiz-adv-x="480" 
d="M156 100q-1 46 -1.5 119.5t-1 173.5t-1.5 199q-7 -2 -26.5 -9.5t-30.5 -7.5q-15 0 -30.5 12t-35 30t-19.5 43q0 4 2 15.5t74 34t147.5 45.5t90.5 33q9 3 23.5 18.5t33.5 15.5q20 0 57.5 -32.5t37.5 -68.5q0 -11 -1.5 -16.5t-7 -16t-19.5 -15t-31 -4.5q-18 1 -27 1
q-15 0 -24 -4l-86 -36q0 -107 1.5 -204t3.5 -198t3 -144q0 -14 10.5 -37t10.5 -33t-9.5 -24.5t-27 -22t-38.5 -7.5q-38 0 -72.5 21t-39.5 49q-2 14 16 35.5t18 34.5z" />
    <glyph glyph-name="U" unicode="U" horiz-adv-x="540" 
d="M272 -37q-96 0 -148.5 99t-70.5 232t-18 268q0 54 1 73.5t3 46.5q-10 30 -10 52q0 30 17 48.5t50 18.5q39 0 72.5 -19.5t33.5 -52.5q0 -17 -11 -36t-9 -32q-1 -2 -1 -20q0 -127 22 -330.5t56 -203.5q45 0 72 188.5t27 333.5q0 24 -2 38q2 12 -15 39.5t-17 40.5
q0 17 17.5 42t73.5 25q31 0 55 -11t36 -33t12 -34q0 -7 -4 -17t-8 -19v-39.5t1 -37.5q0 -153 -14.5 -292.5t-67 -253.5t-153.5 -114z" />
    <glyph glyph-name="V" unicode="V" horiz-adv-x="540" 
d="M156 126l-114 570q-2 8 -21 23t-19 31q0 22 25 33.5t60 11.5q38 0 68 -12t34.5 -27.5t4.5 -18.5q0 -9 -8 -25.5t-6 -27.5l72 -376l102 400q2 8 2 23q-1 15 -1 21q0 16 5.5 28t18 20.5t25 11.5t24.5 3q40 0 75 -21.5t35 -50.5q0 -9 -4 -17.5t-21.5 -19t-20.5 -22.5
l-162 -588q-1 -3 -1 -10q0 -9 2.5 -28t2.5 -24q0 -15 -3.5 -26.5t-17.5 -26.5t-39 -15q-37 0 -75 34t-49 74q-3 10 2 27t4 25z" />
    <glyph glyph-name="W" unicode="W" horiz-adv-x="942" 
d="M174 56l-144 622q-11 29 -21 58q0 6 6 20.5t29.5 27t51.5 12.5q32 0 52 -15t23 -43q1 -27 3 -54l72 -386l114 416q2 8 -2.5 22.5t-4.5 19.5q0 13 10 26t30 20t41 7q28 0 50.5 -8.5t33 -21.5t13 -20t2.5 -15q0 -7 -3 -21t-3 -22q0 -7 1 -11l112 -392l122 410q4 14 4 50
t26.5 57t71.5 21q22 0 38.5 -7.5t27 -24.5t10.5 -31q0 -13 -12.5 -34t-15.5 -33l-148 -486q-4 -13 -5 -24t-1 -28q0 -18 1 -35t2 -33q0 -30 -7 -48t-37 -36.5t-70 -18.5q-54 0 -81.5 26t-33 40.5t-5.5 32.5q0 8 3.5 34t3.5 39q0 18 -4 31l-86 304l-102 -354
q-3 -12 10.5 -29.5t13.5 -26.5q0 -80 -31 -117t-68 -37q-24 0 -46 11t-32.5 27.5t-11.5 42t-3 35.5z" />
    <glyph glyph-name="X" unicode="X" horiz-adv-x="606" 
d="M40 88l170 332l-162 300q-3 5 -19.5 12t-16.5 23q0 24 43.5 46t84.5 22q14 0 28 -6.5t17.5 -28t6.5 -38.5l100 -200l82 182q4 9 8 34t17.5 38t47.5 13q39 0 70 -21t31 -57q0 -23 -22.5 -32t-27.5 -19l-130 -268l190 -318q3 -5 23.5 -19t20.5 -33q0 -45 -22 -65t-57 -20
q-31 0 -63.5 14.5t-43 29t-10.5 25.5q0 8 5.5 21t5.5 18t-3 11l-120 206l-114 -236q-2 -4 -3 -9.5t-1 -9.5q0 -6 2 -15t2 -13q0 -11 -13 -24t-48 -13q-40 0 -78 20.5t-38 48.5q0 7 3.5 16.5t16.5 17.5t17 15z" />
    <glyph glyph-name="Y" unicode="Y" horiz-adv-x="582" 
d="M220 142l-10 110l-148 438q-5 14 -23 41.5t-18 41.5q0 7 6 19.5t30.5 18.5t51.5 6q41 0 63 -14t25.5 -43.5t6.5 -57.5l94 -292l122 316q15 41 23.5 57.5t27.5 25.5t42 9q37 0 66 -20t29 -50q0 -24 -35.5 -63t-36.5 -43l-190 -478l10 -102q0 -8 1.5 -22.5t1.5 -15.5
q0 -18 -7 -29t-27 -18t-40 -7q-40 0 -72 20.5t-32 53.5q0 7 2 17t19.5 36t17.5 45z" />
    <glyph glyph-name="Z" unicode="Z" horiz-adv-x="600" 
d="M72 176l302 500l-164 -22q-12 -1 -29 -9.5t-26 -8.5t-27 8.5t-29.5 32.5t-11.5 51q0 31 14 45t32 14q29 -4 59 -7l270 24q12 0 29 15t31 15q25 0 53.5 -36.5t28.5 -68.5q0 -12 -8 -23.5t-39.5 -20.5t-40.5 -25l-326 -534h176q13 0 33.5 16t36.5 16q44 0 73 -30t29 -68
q0 -42 -36 -66q-11 -6 -21 -6q-11 0 -39 10t-46 10h-264q-11 0 -32 -8.5t-30 -7.5q-31 6 -50.5 39.5t-19.5 68.5q0 18 6.5 32t32 22.5t33.5 21.5z" />
    <glyph glyph-name="a" unicode="a" horiz-adv-x="454" 
d="M294 133q0 -55 -57 -112t-116 -57q-34 0 -61.5 23.5t-39.5 67t-12 76.5q0 92 95 158q78 45 157 91q2 6 3 14t1 19q0 15 -3.5 24.5t-11 11.5t-16.5 4t-16 2q-20 0 -33.5 -13.5l-25.5 -25.5q-13 -8 -29.5 -34t-34.5 -28q-26 -4 -47 17.5t-21 49.5q0 17 15.5 42t73.5 60
t163 35q90 0 106.5 -142.5t25 -223t23.5 -101t15 -35.5q0 -4 -4.5 -21t-26 -30t-45.5 -13q-19 0 -33 9t-23.5 54.5t-21.5 77.5zM140 90q10 -14 22 -14q25 0 56 59t54 153q-31 -17 -60 -33t-49.5 -39.5t-30.5 -40t-10 -35.5q0 -24 18 -50z" />
    <glyph glyph-name="b" unicode="b" 
d="M160 492q22 34 39 50t45 16q74 0 121 -90.5t47 -197.5q0 -115 -33.5 -198.5t-116.5 -83.5q-34 0 -60 17t-48 49q1 -9 6 -23.5t5 -21.5q0 -9 -9 -20t-49 -11q-25 0 -46 7.5t-26 18.5t-5 20t8 25t8 26v570q0 13 -6.5 33.5t-6.5 27.5q0 11 8 35t58 24q27 0 49 -11.5
t30 -28.5t8 -26q0 -10 -13 -37.5t-13 -40.5v-129zM232 444q-19 0 -39.5 -64.5t-20.5 -109.5q0 -60 18.5 -123t41.5 -63q30 0 39.5 30.5t9.5 86.5q0 17 -0.5 34.5t-0.5 34.5q0 63 -12 118.5t-36 55.5z" />
    <glyph glyph-name="c" unicode="c" horiz-adv-x="376" 
d="M184 -26q-79 0 -120.5 77t-41.5 189q0 126 50.5 225t134.5 99q65 0 103 -68t38 -140q0 -20 -3 -35.5t-19.5 -25t-37.5 -9.5q-40 0 -53 14.5t-15 29t-2 33.5v25.5t1 25.5q0 27 -2.5 38t-13.5 11q-17 0 -36 -97.5t-19 -184.5q0 -49 6.5 -75t23.5 -26q20 0 35 19t23 44
q7 9 8 34t12 33q14 8 36 8q31 0 54 -13t23 -39q0 -22 -23.5 -50.5t-31.5 -44.5q-30 -46 -60 -71.5t-70 -25.5z" />
    <glyph glyph-name="d" unicode="d" 
d="M270 621q0 16 -13 42t-13 37q0 8 7.5 24t31 28.5t48.5 12.5q50 0 58 -24t8 -35q0 -12 -6.5 -31.5t-6.5 -29.5v-570q0 -10 8 -26t8 -25t-5 -20t-26 -18.5t-47 -7.5q-20 0 -32 3.5t-18.5 11t-6.5 16.5q0 7 5 21.5t6 23.5q-23 -33 -48 -49.5t-60 -16.5q-83 0 -116.5 82.5
t-33.5 199.5q0 106 47 197t121 91q27 0 44.5 -16t39.5 -50v129zM150 270q0 -17 -0.5 -34.5t-0.5 -35.5q0 -55 9.5 -85.5t39.5 -30.5q23 0 41.5 62.5t18.5 123.5q0 48 -20 111t-40 63q-23 0 -35.5 -54.5t-12.5 -119.5z" />
    <glyph glyph-name="e" unicode="e" horiz-adv-x="378" 
d="M186 -24q-75 0 -116 77.5t-41 188.5q0 120 46.5 215t91.5 102t54 7h14q57 0 94 -35t37 -103q0 -75 -59 -158.5t-158 -117.5q11 -41 20.5 -59t34.5 -18q22 0 47 16.5t32 30.5q4 2 8 22.5t15.5 26.5t19.5 6q21 0 43 -20t22 -43q0 -6 -3.5 -21.5t-15.5 -31t-36 -37.5
q-7 -11 -57.5 -29.5t-92.5 -18.5zM141 250q46 14 86.5 69.5t40.5 97.5q0 25 -12 32.5t-23 7.5q-19 0 -37 -17t-30.5 -45.5t-18.5 -69.5t-6 -75z" />
    <glyph glyph-name="f" unicode="f" horiz-adv-x="354" 
d="M120 12q-4 15 -5 29.5t-1 36.5v312q-14 -7 -31 -7q-7 0 -23.5 2.5t-36.5 17.5t-20 37q0 13 7.5 27t45.5 20t52 11q0 148 29.5 227t80.5 95t62 16q28 0 58 -18t28 -32q-4 -21 -39 -32t-58.5 -40t-33 -71.5t-9.5 -112.5l98 22q24 0 46 -20t22 -44q0 -10 -5.5 -25t-33 -18
t-53.5 -5l-72 -20l-1 -325q0 -26 19 -49.5t19 -34.5q0 -7 -5 -20t-21 -21.5t-37 -8.5q-28 0 -52.5 14.5t-29.5 36.5z" />
    <glyph glyph-name="g" unicode="g" horiz-adv-x="420" 
d="M144 -143q-31 9 -43 16.5t-17 31.5t17.5 35.5t56.5 11.5q20 0 36.5 -4t33.5 -25t33 -21q15 0 20 18.5t5 62.5v12q0 20 -0.5 42.5t-0.5 48.5v16q-36 -62 -60 -88t-69 -26q-62 0 -98.5 84t-36.5 197q0 118 39 202t114 84q40 0 60 -16q18 -18 36 -35q-5 15 -5 26q0 17 12 28
t32 11q23 0 42.5 -10t26.5 -28q0 -120 2 -239t5 -251q0 -131 -19 -176t-81 -50q-43 0 -77 9t-64 33zM174 108q22 0 53 57t31 111q0 63 -17 115.5t-49 52.5q-26 0 -46 -55t-20 -113q0 -63 11.5 -115.5t36.5 -52.5z" />
    <glyph glyph-name="h" unicode="h" horiz-adv-x="474" 
d="M162 78q-3 -6 -3 -13q0 -10 8 -28t8 -23q0 -10 -17.5 -34.5t-43.5 -24.5q-15 0 -28 11.5t-23.5 29t-13.5 90t-3 187.5q0 64 0.5 157t1.5 171.5t2 152.5q0 5 -1 15t-1 15q0 15 8.5 31t44.5 16q33 0 59.5 -17t19.5 -40q-1 -4 -9.5 -14t-8.5 -16v-322q28 64 68 100t100 36
t94.5 -90t34.5 -214q0 -93 -21 -170q2 -14 3.5 -22.5t1.5 -9.5q0 -11 -4.5 -19t-24 -18.5t-47.5 -10.5q-20 0 -34 7.5t-18.5 18.5t-6 17.5t-1.5 11.5q0 12 11.5 27.5t11.5 27.5q6 26 9 66t3 84q0 72 -6.5 122.5t-17.5 51.5q-29 4 -92.5 -125.5t-63.5 -234.5z" />
    <glyph glyph-name="i" unicode="i" horiz-adv-x="204" 
d="M44 682q2 12 2 17t-1 16.5t-1 16.5q0 15 12.5 25.5t55.5 10.5q19 0 36 -4.5t23 -10.5t6 -14q0 -9 -7 -34.5t-8 -32.5q-1 -8 0 -20.5t2 -23.5q0 -20 -12.5 -27t-31.5 -7q-30 0 -56 11t-32 29q-3 10 4 25t8 23zM54 -8q-12 20 -16.5 69.5t-4.5 128.5q0 56 1 114l2 116
q0 13 -3 36t-3 33q0 17 4.5 29.5t17 25t40.5 12.5q26 0 53 -8.5t34.5 -19.5t7.5 -23q0 -13 -15.5 -43t-15.5 -48v-294q0 -20 11 -60t11 -47q0 -20 -21.5 -33.5t-49.5 -13.5q-37 0 -53 26z" />
    <glyph glyph-name="j" unicode="j" horiz-adv-x="209" 
d="M49 -172q-40 0 -77.5 16t-37.5 38q0 8 7.5 17.5t22.5 9.5q4 0 15 -2t17 -2q10 0 22 8.5t18 122.5t6 293v133q0 8 -6 31t-6 34t6 19q15 16 50 16q23 0 41.5 -5.5t28 -15.5t14 -24t4.5 -30t-2 -25.5t-2.5 -13t-1 -23t-0.5 -31.5q0 -18 1 -73.5t1 -90.5q0 -113 -8.5 -197.5
t-35 -144.5t-77.5 -60zM72 738q16 16 42 16q35 0 47 -18t12 -29q-6 -30 -11 -59q0 -7 4.5 -18t4.5 -16t-5 -17.5t-37 -12.5q-20 0 -39 7.5t-25.5 17.5t-6.5 17q0 6 3 17t3 15q0 6 -2 21t-2 24q0 12 2.5 20t9.5 15z" />
    <glyph glyph-name="k" unicode="k" horiz-adv-x="480" 
d="M168 0q-24 -27 -72 -27q-21 0 -36 7.5t-20.5 21.5t-5.5 23q0 4 2 17t2 26v658q-1 17 -1 27q0 12 4.5 25.5t19.5 18.5t37 5q26 0 47.5 -6t29.5 -17t8 -25q0 -11 -7.5 -34.5t-7.5 -35.5v-215v-112q41 44 85.5 85t58 54.5t28 38t29.5 28.5t21 4q30 0 60 -22t30 -47
q0 -14 -20.5 -34t-39.5 -38l-166 -172l178 -128q2 -1 32 -12.5t32.5 -26t2.5 -23.5q0 -28 -19 -50t-39.5 -29t-31.5 -7q-18 0 -36.5 21t-24.5 25l-180 126v-84q0 -9 5.5 -23t5.5 -19q0 -12 -11 -24z" />
    <glyph glyph-name="l" unicode="l" horiz-adv-x="204" 
d="M38 84l-4 646q0 7 -1 19t-1 17q0 11 2.5 21t26.5 18.5t54 8.5q21 0 33.5 -3.5t21 -14.5t8.5 -28q0 -10 -8 -38t-8 -40v-600q0 -14 8.5 -41t8.5 -34q0 -12 -7.5 -25.5t-28 -23.5t-44.5 -10q-50 0 -62.5 22t-12.5 35q0 10 7 34.5t7 36.5z" />
    <glyph glyph-name="m" unicode="m" horiz-adv-x="720" 
d="M66 92q-10 17 -14.5 75t-4.5 142v82t1 83q-1 9 -8 28t-7 27q0 9 5 17t25 14t41 6q29 0 50 -7.5t26 -20t5 -19.5q0 -9 -9.5 -26t-9.5 -27v-114q10 20 37.5 77t41.5 83q5 12 11.5 26t17.5 23.5t36 9.5q42 0 82 -17.5t40 -43.5q0 -27 -8 -40t-8 -22l-2 -216
q18 41 54.5 156.5t56 129.5t63.5 14q33 0 57.5 -12t24.5 -34v-408q0 -11 20 -26t20 -33q0 -10 -5.5 -24t-21.5 -23.5t-37 -9.5q-24 0 -48.5 12t-34.5 27t-13.5 58t-3.5 102v88v16v13q0 47 -6 50q-21 -48 -41 -95q-34 -96 -48.5 -144t-15.5 -83t-17.5 -44t-33.5 -9
q-28 0 -55 19t-33 40.5t-7 67.5t-1 70v109v20v17q0 62 -6 64q-27 -44 -54 -100t-33 -113q-3 -7 -3 -21q0 -6 2 -23.5t2 -18.5q0 -16 -12.5 -26t-33.5 -10q-25 0 -48.5 13t-35.5 31z" />
    <glyph glyph-name="n" unicode="n" horiz-adv-x="492" 
d="M164 -34q-18 -15 -40 -15q-19 0 -38 10.5t-32 22.5t-16 71.5t-3 144.5v128.5t1 137.5q0 8 -1.5 20t-2.5 27q0 17 8.5 30t18 17t22.5 4q26 0 55 -16.5t34.5 -29.5t5.5 -22q0 -10 -8 -30t-8 -28v-138q43 91 69.5 137t65 77.5t89.5 31.5q46 0 61.5 -77.5t15.5 -208.5v-19
v-17v-15v-13q0 -21 -0.5 -41.5t-0.5 -40.5q3 -8 11.5 -21.5t8.5 -28.5q0 -22 -27 -37.5t-61 -15.5q-23 0 -40.5 7.5t-27.5 23.5q1 20 1.5 47t0.5 64q0 92 -4 146t-16 55q-13 2 -52.5 -93.5t-69.5 -182.5v-14q1 -22 1 -33q0 -25 -4 -39.5t-17 -25.5z" />
    <glyph glyph-name="o" unicode="o" horiz-adv-x="414" 
d="M204 -26q-92 0 -139 84t-47 204q0 107 34.5 193t77.5 98.5t74 12.5q35 0 68 -12t61.5 -41.5t46 -90.5t17.5 -135q0 -125 -50 -219t-143 -94zM204 72q28 -4 51.5 74.5t23.5 168.5q0 67 -14.5 110t-44.5 43q-36 0 -59 -60t-23 -126q0 -98 10.5 -150.5t55.5 -59.5z" />
    <glyph glyph-name="p" unicode="p" 
d="M160 -75q0 -16 13 -42t13 -37q0 -8 -7.5 -24t-31 -28.5t-48.5 -12.5q-50 0 -58 24t-8 35q0 12 6.5 31.5t6.5 29.5v570q0 10 -8 26t-8 25t5 20t26 18.5t47 7.5q20 0 32 -3.5t18.5 -11t6.5 -16.5q0 -7 -5 -21.5t-6 -23.5q23 33 48 49.5t60 16.5q83 0 116.5 -82.5
t33.5 -199.5q0 -106 -47 -197t-121 -91q-27 0 -44.5 16t-39.5 50v-129zM286 276v37q0 89 -13.5 119t-40.5 30q-23 0 -41.5 -62.5t-18.5 -123.5q0 -48 20 -111t40 -63q24 0 39 56t15 118z" />
    <glyph glyph-name="q" unicode="q" 
d="M276 54q-22 -34 -39 -50t-45 -16q-74 0 -121 90.5t-47 197.5q0 115 33.5 198.5t116.5 83.5q34 0 60 -17t48 -49q-1 9 -6 23.5t-5 21.5q0 9 9 20t49 11q25 0 46 -7.5t26 -18.5t5 -20t-8 -25t-8 -26v-570q0 -13 6.5 -33.5t6.5 -27.5q0 -11 -8 -35t-58 -24q-27 0 -49 11.5
t-30 28.5t-8 26q0 10 13 37.5t13 40.5v129zM204 102q19 0 39.5 64.5t20.5 109.5q0 60 -18.5 123t-41.5 63q-30 0 -39.5 -30.5t-9.5 -86.5v-35t1 -34q0 -63 12 -118.5t36 -55.5z" />
    <glyph glyph-name="r" unicode="r" horiz-adv-x="380" 
d="M48 -4q-14 15 -14 39q0 8 2 29.5t2 25.5v374q0 9 -8 22t-8 21q0 6 5 15t29 16t51 7q25 0 40.5 -5.5t19 -18.5t3.5 -19q0 -10 -8 -16t-8 -12l2 -36l86 91q15 17 31 35q19 18 42 18q34 0 64 -16.5t30 -45.5q0 -6 -2.5 -18.5t-39.5 -21.5t-48 -22l-163 -188v-152
q0 -21 12.5 -48t12.5 -31q0 -12 -8 -29t-27 -27t-42 -10q-36 0 -56 23z" />
    <glyph glyph-name="s" unicode="s" horiz-adv-x="366" 
d="M186 -36q-63 0 -123 77t-53 99q5 11 26 18t44 7q24 0 42 -10t20 -30.5t12 -28.5q8 -11 17 -21.5t21 -10.5t23.5 18t11.5 42v16l-4 12q-79 53 -130 103t-51 121q0 76 43.5 132t112.5 56t102.5 -48t29.5 -92q5 -5 8.5 -18t3.5 -23q0 -13 -5.5 -26t-22 -29t-39.5 -16
q-16 0 -31 10.5t-25 28t-10 38.5q0 12 1 23.5t2 23.5q0 28 -20 28q-13 0 -21 -16t-8 -41q0 -27 8.5 -51t25 -38.5t87 -53t70.5 -130.5q0 -69 -49.5 -119.5t-118.5 -50.5z" />
    <glyph glyph-name="t" unicode="t" horiz-adv-x="354" 
d="M197 -43q-25 0 -43.5 11t-26.5 29.5t-9 63.5t-1 74q0 67 1 134.5t2 132.5q-7 -2 -21 -13t-27 -11t-38 8.5t-43 18.5t-18 27q0 5 5 16.5t29 15t33.5 7.5t21.5 9.5t60 32.5v87q0 10 -5.5 27.5t-5.5 23.5q0 7 9 22.5t27 25t40 9.5q21 0 41.5 -11t29 -27.5t8.5 -28.5
q0 -11 -12 -24t-12 -24v-49q17 8 36.5 24.5t32.5 16.5l11 -2q30 -8 46.5 -30t16.5 -46q0 -34 -16.5 -43.5t-25.5 -9.5q-7 0 -25 6.5t-26 6.5q-7 0 -13 -3l-37 -19v-342q0 -19 20.5 -49t16.5 -48q-6 -23 -29.5 -36t-52.5 -13z" />
    <glyph glyph-name="u" unicode="u" horiz-adv-x="414" 
d="M210 -38q-98 0 -136.5 93t-38.5 232q0 48 3.5 88.5t9.5 88.5q-7 25 -7 41q0 30 18 48t49 18q25 0 46 -10t24.5 -20t3.5 -20q0 -13 -11 -41.5t-9 -45.5q-10 -58 -10 -141q0 -89 12 -149t38 -60q42 0 52 108.5t10 259.5q0 14 -2 26t-4 30q0 25 13.5 32t33.5 7
q33 0 63 -15.5t34 -43.5q2 -16 -7.5 -37t-10.5 -29v-65q0 -113 -10.5 -193t-49.5 -141t-114 -61z" />
    <glyph glyph-name="v" unicode="v" horiz-adv-x="444" 
d="M198 -36q-49 0 -62 15t-13 47v17q0 20 -3 29l-102 366q-3 13 -24.5 36.5t-17.5 41.5q5 22 26 33.5t47 11.5q12 0 37 -5.5t59.5 -130.5t66.5 -245l104 320q7 23 14.5 36t24.5 22t41 9q45 0 56.5 -21.5t11.5 -34.5q0 -23 -20.5 -55.5t-39.5 -85.5t-48 -136t-51 -140
q-13 -66 -35.5 -98t-71.5 -32z" />
    <glyph glyph-name="w" unicode="w" horiz-adv-x="714" 
d="M126 -28q-19 12 -23.5 39.5t-8.5 54.5l-88 342q-4 16 -17 46.5t-13 47.5q0 14 4.5 27t26 20t46.5 7q35 0 45.5 -8.5t14 -21t3.5 -26.5v-24t2 -20l60 -240l84 246q2 4 2 8v6q0 7 -2.5 19.5t-2.5 15.5q0 5 5 16.5t22.5 20t40.5 8.5q33 0 58 -18t27.5 -49.5t5.5 -62.5
l60 -240l96 288q2 10 2 14q0 6 -3 20t-3 21q0 9 5.5 19.5t28 17.5t49.5 7q28 0 47 -6.5t23 -17.5t4 -18q0 -14 -21.5 -45t-23.5 -36l-110 -332q-3 -9 -4 -18t-1 -20v-21.5t1 -20.5q0 -26 -5.5 -36.5t-25 -24.5t-52.5 -14q-47 0 -67.5 23.5t-24 34t-3.5 21.5q1 13 1 20
q0 10 -3 22l-60 222l-58 -200q-3 -10 -5 -38.5t-15 -50t-37.5 -39t-51.5 -17.5q-18 0 -35 11z" />
    <glyph glyph-name="x" unicode="x" horiz-adv-x="414" 
d="M94 -10q-8 -2 -13 -2q-29 0 -57.5 22t-23.5 50q2 12 14 25.5t14 16.5l88 160l-62 194q-3 10 -20.5 24.5t-17.5 30.5q0 22 28 37.5t60 15.5q17 0 33.5 -10t22.5 -31q4 -22 8 -43l30 -94l66 118q9 19 19.5 38.5t26 26t28.5 6.5q26 0 50 -14t26 -31q2 -14 -15.5 -29
l-38.5 -33l-114 -198l96 -186q10 -16 21.5 -32.5t11.5 -29.5q0 -7 -6 -23t-23 -26.5t-37 -10.5q-19 0 -40.5 9.5t-24 27t-4.5 35.5l-54 134l-60 -120q-8 -24 -13 -38.5t-19 -19.5z" />
    <glyph glyph-name="y" unicode="y" horiz-adv-x="468" 
d="M124 -146q-4 11 -4 19q0 9 8.5 21.5t9.5 21.5l24 126l-144 414q-3 8 -14.5 29.5t-11.5 34.5q0 4 4 18.5t23 23t45 8.5q35 0 59.5 -14.5t26 -59.5t6.5 -60l66 -208l102 258q0 1 7 34.5t20.5 41.5t25.5 8q29 0 58 -21.5t33 -50.5q3 -21 -15 -51.5t-42 -88t-51 -123.5
t-51 -130t-37 -114.5t-16.5 -76.5t-3.5 -32q0 -7 1 -16t1 -10q0 -13 -11.5 -29t-45.5 -16q-24 0 -45 11.5t-28 31.5z" />
    <glyph glyph-name="z" unicode="z" horiz-adv-x="480" 
d="M104 -40q-36 0 -64.5 24.5t-28.5 57.5q0 8 2.5 22t23.5 32.5t23 21.5l224 310l-108 -14q-22 -6 -43 -11q-7 0 -41.5 15.5t-34.5 59.5q0 24 13 39t21.5 18.5t19.5 3.5q31 -3 63 -5l156 18l66 16q4 0 21.5 -4t38 -34t16.5 -56q-2 -18 -15 -32q-23 -21 -45 -42l-220 -298
l150 24q13 2 32 10.5t29 8.5q7 0 21.5 -3.5t30.5 -26.5t16 -50q0 -24 -14 -39.5t-35 -15.5q-11 0 -29 2.5t-21 2.5q-7 -1 -10 -1l-186 -30q-7 -1 -33 -12.5t-39 -11.5z" />
    <glyph glyph-name="Adieresis" unicode="&#xc4;" horiz-adv-x="495" 
d="M40 74q29 147 65 274t81 230q-2 14 -2 21q0 18 6.5 31t15.5 17.5t16 6t18 1.5q22 0 42.5 -6.5t31.5 -17t11 -30.5q0 -26 -15 -47q9 -81 26 -157t40 -157q14 3 33 8t26 5q8 0 16 -5q28 -22 28 -53q0 -17 -7 -29t-18 -14.5t-30 -2.5h-13q3 -21 17 -48t25 -42q21 -16 21 -40
q0 -31 -21.5 -35.5t-27.5 -4.5q-20 0 -37 6.5t-23 15.5t-7.5 19.5t-2.5 22.5q-5 5 -17.5 34t-25.5 59q-45 -7 -91 -13.5t-71 -13.5q-8 -23 -14 -41.5t-6 -25.5q2 -12 2 -16q0 -22 -15.5 -33.5t-35.5 -11.5q-7 0 -18 2.5t-26 19t-15 34.5q0 22 18 37zM168 205l110 19
q-6 21 -18.5 73t-24.5 121q-25 -55 -44 -116t-23 -97zM240 685q-8 -8 -28 -8q-19 0 -36.5 9t-17.5 25q0 6 4 16t5.5 13.5t1.5 13.5q-1 12 -1 18q0 12 7.5 19.5t27.5 7.5q18 0 34.5 -8.5t19.5 -21.5q2 -11 -1.5 -22t-5.5 -17.5t-3 -22t-7 -22.5zM378 664q-8 -8 -28 -8
t-36.5 9t-16.5 24q0 7 4 17t5 14t1 13q-1 11 -1 17q0 12 8.5 20.5t27.5 8.5q18 0 34 -8t19 -22q2 -9 -1 -20t-5 -17.5t-4 -23.5t-7 -24z" />
    <glyph glyph-name="Aring" unicode="&#xc5;" horiz-adv-x="495" 
d="M40 74q29 147 65 274t81 230q-2 14 -2 21q0 18 6.5 31t15.5 17.5t16 6t18 1.5q22 0 42.5 -6.5t31.5 -17t11 -30.5q0 -26 -15 -47q9 -81 26 -157t40 -157q14 3 33 8t26 5q8 0 16 -5q28 -22 28 -53q0 -17 -7 -29t-18 -14.5t-30 -2.5h-13q3 -21 17 -48t25 -42q21 -16 21 -40
q0 -31 -21.5 -35.5t-27.5 -4.5q-20 0 -37 6.5t-23 15.5t-7.5 19.5t-2.5 22.5q-5 5 -17.5 34t-25.5 59q-45 -7 -91 -13.5t-71 -13.5q-8 -23 -14 -41.5t-6 -25.5q2 -12 2 -16q0 -22 -15.5 -33.5t-35.5 -11.5q-7 0 -18 2.5t-26 19t-15 34.5q0 22 18 37zM168 205l110 19
q-6 21 -18.5 73t-24.5 121q-25 -55 -44 -116t-23 -97zM195 820q32 34 75 34q31 0 51.5 -21.5t20.5 -51.5q0 -40 -32 -72t-72 -32q-30 0 -51 20.5t-21 53.5q0 19 7 36t22 33zM233 781q-9 -9 -16.5 -21t-7.5 -21t5.5 -16.5t17.5 -7.5t26.5 9.5t22.5 19.5t12.5 19.5t4.5 18.5
t-7 16t-16 7t-21 -8t-21 -16z" />
    <glyph glyph-name="Ccedilla" unicode="&#xc7;" horiz-adv-x="453" 
d="M420 211q-20 -49 -90.5 -139t-85.5 -86t-51 -84.5t-44 -85.5q-21 6 -41 12q-30 14 -40 48q-3 9 29 64t29 57q-51 47 -78.5 144.5t-27.5 191.5q0 170 48 318.5t97 154t65 5.5q83 0 122.5 -65t61.5 -187q5 -15 11 -30.5t6 -29.5q0 -16 -9 -28.5t-24.5 -19.5t-29.5 -7
q-27 0 -57 15.5t-38.5 29.5t-8.5 22q0 10 4.5 20t9.5 19q0 44 -14.5 83t-33.5 44q-29 7 -50 -104.5t-21 -222.5q0 -97 13 -175t42 -83q18 -4 42.5 42.5t40.5 106.5q-2 14 -2 19q0 29 19.5 44.5t52.5 15.5q7 0 12 -0.5t25.5 -5t32 -17t11.5 -30.5q0 -16 -7.5 -30.5
t-20.5 -25.5z" />
    <glyph glyph-name="Eacute" unicode="&#xc9;" horiz-adv-x="354" 
d="M45 82q0 76 -0.5 151.5t-1.5 174.5t-1 170q-6 9 -6 16q0 13 15 21.5t34 11.5q11 2 23.5 -4.5t22.5 -11.5l96 31l21 10.5t22 4.5q9 0 20 -2.5t29 -27t18 -44.5q0 -13 -14 -25t-42 -12q-13 0 -28 3q-27 -9 -57 -19.5t-44 -23.5v-191q1 1 10 3t14 4q9 16 33 16q5 0 22 -5
t39.5 -23t22.5 -38q0 -7 -5 -19t-19 -19t-33 -7q-6 0 -16 1t-13 1q-4 0 -11.5 -2.5t-23.5 -10.5l-20 -10q0 -21 0.5 -48t4.5 -44q16 4 26.5 7.5t29.5 11.5q4 6 10 12.5t27 4.5q22 0 46 -24t24 -49q0 -15 -7.5 -24.5t-19.5 -13t-31 -3.5q-15 0 -22 1l-75 -39q-2 -1 -19.5 -15
t-30.5 -10q-24 7 -42 23.5t-35 43.5q-2 4 -1 11.5t8 30.5zM192 669q-8 -3 -17 -3q-17 0 -31 9t-17 27q-3 24 12 53t36 41t34 12q17 0 31.5 -9t16.5 -23q2 -15 -16 -36t-24 -34t-11.5 -23.5t-13.5 -13.5z" />
    <glyph glyph-name="Ntilde" unicode="&#xd1;" horiz-adv-x="480" 
d="M62 86l-24 490q0 7 -1 12.5t-2 11.5q0 11 12 18.5t37 7.5q23 0 47.5 -8t34 -20.5t9.5 -22.5q-1 -10 -2 -18t0 -10q7 -38 44.5 -114.5t80 -152t43.5 -75.5l-10 390q0 8 -5.5 17t-5.5 13q0 10 12.5 22.5t31.5 12.5q30 0 61 -20.5t31 -44.5q0 -15 -13 -24t-13 -17l12 -439
q0 -11 11 -28t11 -29q0 -29 -18.5 -48.5t-47.5 -19.5q-67 0 -92 68q-4 8 -5 29t-8 33q-1 0 -30 47t-60.5 104t-53.5 108q0 -62 4 -145.5t9 -161.5q0 -3 8 -23t8 -27q0 -14 -8.5 -25t-19 -15t-23.5 -4q-29 0 -56.5 18.5t-30.5 41.5q-3 20 9.5 30.5t12.5 17.5zM126 660
q-19 6 -31 21t-12 34t10 30t32.5 24t42.5 13q4 0 12 -2l108 -30q16 -4 42 21.5t36 20.5q12 -6 19 -22t7 -35t-8 -33q-15 -11 -34 -20.5t-36 -5.5l-102 22q-19 4 -45.5 -19t-40.5 -19z" />
    <glyph glyph-name="Odieresis" unicode="&#xd6;" 
d="M208 -14q-95 11 -138.5 112.5t-43.5 237.5q0 91 30.5 189.5t51 112t29.5 13.5t25 -4.5t21 -4.5q11 0 38 4.5t35 4.5q10 0 48.5 -15.5t72 -102t33.5 -197.5q0 -110 -40 -222.5t-71 -122.5t-48 -10q-13 0 -22.5 1.5t-20.5 3.5zM216 72q25 0 56 83t31 158q0 16 -1 23
q0 85 -20.5 160t-66.5 75q-12 0 -25.5 -6t-35.5 -86t-22 -143q0 -83 28.5 -173.5t55.5 -90.5zM186 697q-8 -8 -28 -8q-19 0 -36.5 9t-17.5 25q0 6 4 16t5.5 13.5t1.5 13.5q-1 12 -1 18q0 12 7.5 19.5t27.5 7.5q18 0 34.5 -8.5t19.5 -21.5q2 -11 -1.5 -22t-5.5 -17.5t-3 -22
t-7 -22.5zM324 676q-8 -8 -28 -8t-36.5 9t-16.5 24q0 7 4 17t5 14t1 13q-1 11 -1 17q0 12 8.5 20.5t27.5 8.5q18 0 34 -8t19 -22q2 -9 -1 -20t-5 -17.5t-4 -23.5t-7 -24z" />
    <glyph glyph-name="Udieresis" unicode="&#xdc;" 
d="M218 -30q-77 0 -119 79t-56.5 187t-14.5 216q0 37 1 60.5t2 33.5q-7 25 -7 41q0 25 15 43q11 11 37 11q32 0 59 -15t27 -43q0 -11 -9 -28t-7 -26q-1 -2 -1 -8v-9q0 -104 17.5 -265t44.5 -161q36 0 57.5 152t21.5 266q0 24 -1 30q2 10 -11.5 30t-13.5 34q0 15 13.5 34.5
t58.5 19.5q23 0 44 -9.5t29.5 -26t8.5 -27.5q0 -6 -3 -14t-6 -15v-26t1 -33q0 -120 -11.5 -233.5t-53.5 -205.5t-123 -92zM180 697q-8 -8 -28 -8q-19 0 -36.5 9t-17.5 25q0 6 4 16t5.5 13.5t1.5 13.5q-1 12 -1 18q0 12 7.5 19.5t27.5 7.5q18 0 34.5 -8.5t19.5 -21.5
q2 -11 -1.5 -22t-5.5 -17.5t-3 -22t-7 -22.5zM318 676q-8 -8 -28 -8t-36.5 9t-16.5 24q0 7 4 17t5 14t1 13q-1 11 -1 17q0 12 8.5 20.5t27.5 8.5q18 0 34 -8t19 -22q2 -9 -1 -20t-5 -17.5t-4 -23.5t-7 -24z" />
    <glyph glyph-name="aacute" unicode="&#xe1;" horiz-adv-x="454" 
d="M294 133q0 -55 -57 -112t-116 -57q-34 0 -61.5 23.5t-39.5 67t-12 76.5q0 92 95 158q78 45 157 91q2 6 3 14t1 19q0 15 -3.5 24.5t-11 11.5t-16.5 4t-16 2q-20 0 -33.5 -13.5l-25.5 -25.5q-13 -8 -29.5 -34t-34.5 -28q-26 -4 -47 17.5t-21 49.5q0 17 15.5 42t73.5 60
t163 35q90 0 106.5 -142.5t25 -223t23.5 -101t15 -35.5q0 -4 -4.5 -21t-26 -30t-45.5 -13q-19 0 -33 9t-23.5 54.5t-21.5 77.5zM140 90q10 -14 22 -14q25 0 56 59t54 153q-31 -17 -60 -33t-49.5 -39.5t-30.5 -40t-10 -35.5q0 -24 18 -50zM276 597q-13 -5 -25 -5
q-22 0 -39 10.5t-17 26.5q0 3 2 11q11 28 35 64t49 62.5t41 26.5q19 0 35 -9.5t16 -23.5q0 -26 -24.5 -53t-31.5 -39q-11 -25 -20 -45.5t-21 -25.5z" />
    <glyph glyph-name="agrave" unicode="&#xe0;" horiz-adv-x="454" 
d="M285 628q2 -8 2 -11q0 -16 -17 -26.5t-40 -10.5q-12 0 -23.5 5t-22 28t-16.5 35.5t-32.5 44t-26.5 55.5q0 13 16.5 23t34.5 10q16 0 41 -26t49.5 -63t34.5 -64zM446 42q-7 -24 -28.5 -37t-45.5 -13q-19 0 -33 9t-23.5 54.5t-21.5 77.5q0 -55 -57 -112t-116 -57
q-34 0 -61.5 23.5t-39.5 67t-12 76.5q0 92 95 158q78 45 157 91q2 6 3 14t1 19q0 15 -3.5 24.5t-11 11.5t-16.5 4t-16 2q-20 0 -33.5 -13.5l-25.5 -25.5q-13 -8 -29.5 -34t-34.5 -28q-26 -4 -47 17.5t-21 49.5q0 17 15.5 42t73.5 60t163 35q90 0 106.5 -142.5t25 -223
t23.5 -101t15 -35.5q0 -4 -2 -14zM272 288q-31 -17 -60 -33t-49.5 -39.5t-30.5 -40t-10 -35.5q0 -24 14 -44t26 -20q25 0 56 59t54 153z" />
    <glyph glyph-name="acircumflex" unicode="&#xe2;" horiz-adv-x="454" 
d="M365 642q-11 -28 -45 -28q-9 0 -15.5 2.5t-9.5 3t-24 23.5l-49 55q-26 -22 -42.5 -55t-29.5 -33q-19 -2 -40 11.5t-21 31.5q0 13 18 33t37 38q18 29 33 50.5t33 21.5q28 0 46 -19t33 -35q43 -37 60.5 -57.5t17.5 -33.5q0 -3 -2 -9zM446 42q-7 -24 -28.5 -37t-45.5 -13
q-19 0 -33 9t-23.5 54.5t-21.5 77.5q0 -55 -57 -112t-116 -57q-34 0 -61.5 23.5t-39.5 67t-12 76.5q0 92 95 158q78 45 157 91q2 6 3 14t1 19q0 15 -3.5 24.5t-11 11.5t-16.5 4t-16 2q-20 0 -33.5 -13.5l-25.5 -25.5q-13 -8 -29.5 -34t-34.5 -28q-26 -4 -47 17.5t-21 49.5
q0 17 15.5 42t73.5 60t163 35q90 0 106.5 -142.5t25 -223t23.5 -101t15 -35.5q0 -4 -2 -14zM272 288q-31 -17 -60 -33t-49.5 -39.5t-30.5 -40t-10 -35.5q0 -24 14 -44t26 -20q25 0 56 59t54 153z" />
    <glyph glyph-name="adieresis" unicode="&#xe4;" horiz-adv-x="454" 
d="M294 133q0 -55 -57 -112t-116 -57q-34 0 -61.5 23.5t-39.5 67t-12 76.5q0 92 95 158q78 45 157 91q2 6 3 14t1 19q0 15 -3.5 24.5t-11 11.5t-16.5 4t-16 2q-20 0 -33.5 -13.5l-25.5 -25.5q-13 -8 -29.5 -34t-34.5 -28q-26 -4 -47 17.5t-21 49.5q0 17 15.5 42t73.5 60
t163 35q90 0 106.5 -142.5t25 -223t23.5 -101t15 -35.5q0 -4 -4.5 -21t-26 -30t-45.5 -13q-19 0 -33 9t-23.5 54.5t-21.5 77.5zM140 90q10 -14 22 -14q25 0 56 59t54 153q-31 -17 -60 -33t-49.5 -39.5t-30.5 -40t-10 -35.5q0 -24 18 -50zM194 614q-8 -9 -32 -9
q-23 0 -41 9.5t-18 26.5q0 6 3 14t7 19q2 10 2 15q-1 14 -1 21t1.5 12t9.5 12t27 7q20 0 38.5 -9.5t22.5 -24.5q2 -12 -2 -24l-6 -18t-3 -24.5t-8 -26.5zM347 604q-8 -9 -32 -9q-22 0 -40 9.5t-18 26.5q0 8 4 19t5.5 15.5t1.5 15.5q-1 11 -1 17q0 15 9.5 24.5t30.5 9.5
q20 0 38 -9.5t21 -24.5q2 -10 -1.5 -22t-6.5 -23q-2 -18 -2.5 -29t-8.5 -20z" />
    <glyph glyph-name="atilde" unicode="&#xe3;" horiz-adv-x="454" 
d="M294 133q0 -55 -57 -112t-116 -57q-34 0 -61.5 23.5t-39.5 67t-12 76.5q0 92 95 158q78 45 157 91q2 6 3 14t1 19q0 15 -3.5 24.5t-11 11.5t-16.5 4t-16 2q-20 0 -33.5 -13.5l-25.5 -25.5q-13 -8 -29.5 -34t-34.5 -28q-26 -4 -47 17.5t-21 49.5q0 17 15.5 42t73.5 60
t163 35q90 0 106.5 -142.5t25 -223t23.5 -101t15 -35.5q0 -4 -4.5 -21t-26 -30t-45.5 -13q-19 0 -33 9t-23.5 54.5t-21.5 77.5zM140 90q10 -14 22 -14q25 0 56 59t54 153q-31 -17 -60 -33t-49.5 -39.5t-30.5 -40t-10 -35.5q0 -24 18 -50zM126 624q-19 6 -31 24t-12 40t10 33
t32.5 24t42.5 13q4 0 12 -2l108 -30q17 -5 42 20t36 22t18.5 -22.5t7.5 -41.5q0 -24 -8 -38q-15 -11 -34 -20.5t-36 -5.5l-102 22q-19 4 -45.5 -19t-40.5 -19z" />
    <glyph glyph-name="aring" unicode="&#xe5;" horiz-adv-x="454" 
d="M294 133q0 -55 -57 -112t-116 -57q-34 0 -61.5 23.5t-39.5 67t-12 76.5q0 92 95 158q78 45 157 91q2 6 3 14t1 19q0 15 -3.5 24.5t-11 11.5t-16.5 4t-16 2q-20 0 -33.5 -13.5l-25.5 -25.5q-13 -8 -29.5 -34t-34.5 -28q-26 -4 -47 17.5t-21 49.5q0 17 15.5 42t73.5 60
t163 35q90 0 106.5 -142.5t25 -223t23.5 -101t15 -35.5q0 -4 -4.5 -21t-26 -30t-45.5 -13q-19 0 -33 9t-23.5 54.5t-21.5 77.5zM140 90q10 -14 22 -14q25 0 56 59t54 153q-31 -17 -60 -33t-49.5 -39.5t-30.5 -40t-10 -35.5q0 -24 18 -50zM171 774q39 42 93 42
q40 0 65.5 -26.5t25.5 -63.5q0 -50 -40 -90t-90 -40q-20 0 -34.5 5.5t-35 26t-20.5 59.5q0 48 36 87zM219 726q-14 -14 -22 -26.5t-8 -26.5q0 -10 7 -20t22 -10t32.5 11.5t27.5 24.5t15.5 25t5.5 22q0 13 -8.5 21.5t-19.5 8.5q-12 0 -24.5 -8t-27.5 -22z" />
    <glyph glyph-name="ccedilla" unicode="&#xe7;" horiz-adv-x="376" 
d="M85 -185q-16 0 -40.5 30.5t-30.5 34.5q24 30 62 73.5t35 46.5q-42 44 -63 111t-21 146q0 123 49 215t131 92q65 0 103 -68t38 -140q0 -20 -3 -35.5t-19.5 -25t-37.5 -9.5q-40 0 -53 14.5t-15 29t-2 33.5v25.5t1 25.5q0 27 -2.5 38t-13.5 11q-17 0 -36 -97.5t-19 -184.5
q0 -49 6.5 -75t23.5 -26q20 0 35 19t23 44q7 9 8 34t12 33q14 8 36 8q31 0 54 -13t23 -39q0 -22 -23.5 -50.5t-31.5 -44.5q-23 -36 -46 -59t-39.5 -28.5t-77 -87t-66.5 -81.5z" />
    <glyph glyph-name="eacute" unicode="&#xe9;" horiz-adv-x="378" 
d="M186 -24q-75 0 -116 77.5t-41 188.5q0 120 46.5 215t91.5 102t54 7h14q57 0 94 -35t37 -103q0 -75 -59 -158.5t-158 -117.5q11 -41 20.5 -59t34.5 -18q22 0 47 16.5t32 30.5q4 2 8 22.5t15.5 26.5t19.5 6q21 0 43 -20t22 -43q0 -6 -3.5 -21.5t-15.5 -31t-36 -37.5
q-7 -11 -57.5 -29.5t-92.5 -18.5zM141 250q46 14 86.5 69.5t40.5 97.5q0 25 -12 32.5t-23 7.5q-19 0 -37 -17t-30.5 -45.5t-18.5 -69.5t-6 -75zM276 597q-13 -5 -25 -5q-22 0 -39 10.5t-17 26.5q0 3 2 11q11 28 35 64t49 62.5t41 26.5q19 0 35 -9.5t16 -23.5
q0 -26 -24.5 -53t-31.5 -39q-11 -25 -20 -45.5t-21 -25.5z" />
    <glyph glyph-name="egrave" unicode="&#xe8;" horiz-adv-x="378" 
d="M186 -24q-75 0 -116 77.5t-41 188.5q0 120 46.5 215t91.5 102t54 7h14q57 0 94 -35t37 -103q0 -75 -59 -158.5t-158 -117.5q11 -41 20.5 -59t34.5 -18q22 0 47 16.5t32 30.5q4 2 8 22.5t15.5 26.5t19.5 6q21 0 43 -20t22 -43q0 -6 -3.5 -21.5t-15.5 -31t-36 -37.5
q-7 -11 -57.5 -29.5t-92.5 -18.5zM141 250q46 14 86.5 69.5t40.5 97.5q0 25 -12 32.5t-23 7.5q-19 0 -37 -17t-30.5 -45.5t-18.5 -69.5t-6 -75zM285 628q2 -8 2 -11q0 -16 -17 -26.5t-40 -10.5q-12 0 -23.5 5t-22 28t-16.5 35.5t-32.5 44t-26.5 55.5q0 13 16.5 23t34.5 10
q16 0 41 -26t49.5 -63t34.5 -64z" />
    <glyph glyph-name="ecircumflex" unicode="&#xea;" horiz-adv-x="378" 
d="M186 -24q-75 0 -116 77.5t-41 188.5q0 120 46.5 215t91.5 102t54 7h14q57 0 94 -35t37 -103q0 -75 -59 -158.5t-158 -117.5q11 -41 20.5 -59t34.5 -18q22 0 47 16.5t32 30.5q4 2 8 22.5t15.5 26.5t19.5 6q21 0 43 -20t22 -43q0 -6 -3.5 -21.5t-15.5 -31t-36 -37.5
q-7 -11 -57.5 -29.5t-92.5 -18.5zM141 250q46 14 86.5 69.5t40.5 97.5q0 25 -12 32.5t-23 7.5q-19 0 -37 -17t-30.5 -45.5t-18.5 -69.5t-6 -75zM365 642q-11 -28 -45 -28q-9 0 -15.5 2.5t-9.5 3t-24 23.5l-49 55q-26 -22 -42.5 -55t-29.5 -33q-19 -2 -40 11.5t-21 31.5
q0 13 18 33t37 38q18 29 33 50.5t33 21.5q28 0 46 -19t33 -35q43 -37 60.5 -57.5t17.5 -33.5q0 -3 -2 -9z" />
    <glyph glyph-name="edieresis" unicode="&#xeb;" horiz-adv-x="378" 
d="M186 -24q-75 0 -116 77.5t-41 188.5q0 120 46.5 215t91.5 102t54 7h14q57 0 94 -35t37 -103q0 -75 -59 -158.5t-158 -117.5q11 -41 20.5 -59t34.5 -18q22 0 47 16.5t32 30.5q4 2 8 22.5t15.5 26.5t19.5 6q21 0 43 -20t22 -43q0 -6 -3.5 -21.5t-15.5 -31t-36 -37.5
q-7 -11 -57.5 -29.5t-92.5 -18.5zM141 250q46 14 86.5 69.5t40.5 97.5q0 25 -12 32.5t-23 7.5q-19 0 -37 -17t-30.5 -45.5t-18.5 -69.5t-6 -75zM170 614q-8 -9 -32 -9q-23 0 -41 9.5t-18 26.5q0 6 3 14t7 19q2 10 2 15q-1 14 -1 21t1.5 12t9.5 12t27 7q20 0 38.5 -9.5
t22.5 -24.5q2 -12 -2 -24l-6 -18t-3 -24.5t-8 -26.5zM323 604q-8 -9 -32 -9q-22 0 -40 9.5t-18 26.5q0 8 4 19t5.5 15.5t1.5 15.5q-1 11 -1 17q0 15 9.5 24.5t30.5 9.5q20 0 38 -9.5t21 -24.5q2 -10 -1.5 -22t-6.5 -23q-2 -18 -2.5 -29t-8.5 -20z" />
    <glyph glyph-name="iacute" unicode="&#xed;" horiz-adv-x="210" 
d="M54 -8q-12 20 -16.5 69.5t-4.5 128.5q0 56 1 114l2 116q0 13 -3 36t-3 33q0 17 4.5 29.5t17 25t40.5 12.5q26 0 53 -8.5t34.5 -19.5t7.5 -23q0 -13 -15.5 -43t-15.5 -48v-294q0 -20 11 -60t11 -47q0 -20 -21.5 -33.5t-49.5 -13.5q-37 0 -53 26zM114 597q-13 -5 -25 -5
q-22 0 -39 10.5t-17 26.5q0 3 2 11q11 28 35 64t49 62.5t41 26.5q19 0 35 -9.5t16 -23.5q0 -26 -24.5 -53t-31.5 -39q-11 -25 -20 -45.5t-21 -25.5z" />
    <glyph glyph-name="igrave" unicode="&#xec;" horiz-adv-x="204" 
d="M54 -8q-12 20 -16.5 69.5t-4.5 128.5q0 56 1 114l2 116q0 13 -3 36t-3 33q0 17 4.5 29.5t17 25t40.5 12.5q26 0 53 -8.5t34.5 -19.5t7.5 -23q0 -13 -15.5 -43t-15.5 -48v-294q0 -20 11 -60t11 -47q0 -20 -21.5 -33.5t-49.5 -13.5q-37 0 -53 26zM183 640q2 -8 2 -11
q0 -16 -17 -26.5t-40 -10.5q-12 0 -23.5 5t-22 28t-16.5 35.5t-32.5 44t-26.5 55.5q0 13 16.5 23t34.5 10q16 0 41 -26t49.5 -63t34.5 -64z" />
    <glyph glyph-name="icircumflex" unicode="&#xee;" horiz-adv-x="343" 
d="M131 6q-12 20 -16.5 69.5t-4.5 128.5q0 56 1 114l2 116q0 13 -3 36t-3 33q0 17 4.5 29.5t17 25t40.5 12.5q26 0 53 -8.5t34.5 -19.5t7.5 -23q0 -13 -15.5 -43t-15.5 -48v-294q0 -20 11 -60t11 -47q0 -20 -21.5 -33.5t-49.5 -13.5q-37 0 -53 26zM316 649q-11 -28 -45 -28
q-9 0 -15.5 2.5t-9.5 3t-24 23.5l-49 55q-26 -22 -42.5 -55t-29.5 -33q-19 -2 -40 11.5t-21 31.5q0 13 18 33t37 38q18 29 33 50.5t33 21.5q28 0 46 -19t33 -35q43 -37 60.5 -57.5t17.5 -33.5q0 -3 -2 -9z" />
    <glyph glyph-name="idieresis" unicode="&#xef;" horiz-adv-x="312" 
d="M102 -2q-12 20 -16.5 69.5t-4.5 128.5q0 56 1 114l2 116q0 13 -3 36t-3 33q0 17 4.5 29.5t17 25t40.5 12.5q26 0 53 -8.5t34.5 -19.5t7.5 -23q0 -13 -15.5 -43t-15.5 -48v-294q0 -20 11 -60t11 -47q0 -20 -21.5 -33.5t-49.5 -13.5q-37 0 -53 26zM116 608q-8 -9 -32 -9
q-23 0 -41 9.5t-18 26.5q0 6 3 14t7 19q2 10 2 15q-1 14 -1 21t1.5 12t9.5 12t27 7q20 0 38.5 -9.5t22.5 -24.5q2 -12 -2 -24l-6 -18t-3 -24.5t-8 -26.5zM269 598q-8 -9 -32 -9q-22 0 -40 9.5t-18 26.5q0 8 4 19t5.5 15.5t1.5 15.5q-1 11 -1 17q0 15 9.5 24.5t30.5 9.5
q20 0 38 -9.5t21 -24.5q2 -10 -1.5 -22t-6.5 -23q-2 -18 -2.5 -29t-8.5 -20z" />
    <glyph glyph-name="ntilde" unicode="&#xf1;" horiz-adv-x="492" 
d="M164 -34q-18 -15 -40 -15q-19 0 -38 10.5t-32 22.5t-16 71.5t-3 144.5v128.5t1 137.5q0 8 -1.5 20t-2.5 27q0 17 8.5 30t18 17t22.5 4q26 0 55 -16.5t34.5 -29.5t5.5 -22q0 -10 -8 -30t-8 -28v-138q43 91 69.5 137t65 77.5t89.5 31.5q46 0 61.5 -77.5t15.5 -208.5v-19
v-17v-15v-13q0 -21 -0.5 -41.5t-0.5 -40.5q3 -8 11.5 -21.5t8.5 -28.5q0 -22 -27 -37.5t-61 -15.5q-23 0 -40.5 7.5t-27.5 23.5q1 20 1.5 47t0.5 64q0 92 -4 146t-16 55q-13 2 -52.5 -93.5t-69.5 -182.5v-14q1 -22 1 -33q0 -25 -4 -39.5t-17 -25.5zM126 624q-19 6 -31 24
t-12 40t10 33t32.5 24t42.5 13q4 0 12 -2l108 -30q17 -5 42 20t36 22t18.5 -22.5t7.5 -41.5q0 -24 -8 -38q-15 -11 -34 -20.5t-36 -5.5l-102 22q-19 4 -45.5 -19t-40.5 -19z" />
    <glyph glyph-name="oacute" unicode="&#xf3;" horiz-adv-x="414" 
d="M204 -26q-92 0 -139 84t-47 204q0 107 34.5 193t77.5 98.5t74 12.5q35 0 68 -12t61.5 -41.5t46 -90.5t17.5 -135q0 -125 -50 -219t-143 -94zM204 72q28 -4 51.5 74.5t23.5 168.5q0 67 -14.5 110t-44.5 43q-36 0 -59 -60t-23 -126q0 -98 10.5 -150.5t55.5 -59.5zM240 603
q-13 -5 -25 -5q-22 0 -39 10.5t-17 26.5q0 3 2 11q11 28 35 64t49 62.5t41 26.5q19 0 35 -9.5t16 -23.5q0 -26 -24.5 -53t-31.5 -39q-11 -25 -20 -45.5t-21 -25.5z" />
    <glyph glyph-name="ograve" unicode="&#xf2;" horiz-adv-x="414" 
d="M204 -26q-92 0 -139 84t-47 204q0 107 34.5 193t77.5 98.5t74 12.5q35 0 68 -12t61.5 -41.5t46 -90.5t17.5 -135q0 -125 -50 -219t-143 -94zM204 72q28 -4 51.5 74.5t23.5 168.5q0 67 -14.5 110t-44.5 43q-36 0 -59 -60t-23 -126q0 -98 10.5 -150.5t55.5 -59.5zM285 628
q2 -8 2 -11q0 -16 -17 -26.5t-40 -10.5q-12 0 -23.5 5t-22 28t-16.5 35.5t-32.5 44t-26.5 55.5q0 13 16.5 23t34.5 10q16 0 41 -26t49.5 -63t34.5 -64z" />
    <glyph glyph-name="ocircumflex" unicode="&#xf4;" horiz-adv-x="414" 
d="M204 -26q-92 0 -139 84t-47 204q0 107 34.5 193t77.5 98.5t74 12.5q35 0 68 -12t61.5 -41.5t46 -90.5t17.5 -135q0 -125 -50 -219t-143 -94zM204 72q28 -4 51.5 74.5t23.5 168.5q0 67 -14.5 110t-44.5 43q-36 0 -59 -60t-23 -126q0 -98 10.5 -150.5t55.5 -59.5zM365 642
q-11 -28 -45 -28q-9 0 -15.5 2.5t-9.5 3t-24 23.5l-49 55q-26 -22 -42.5 -55t-29.5 -33q-19 -2 -40 11.5t-21 31.5q0 13 18 33t37 38q18 29 33 50.5t33 21.5q28 0 46 -19t33 -35q43 -37 60.5 -57.5t17.5 -33.5q0 -3 -2 -9z" />
    <glyph glyph-name="odieresis" unicode="&#xf6;" horiz-adv-x="414" 
d="M204 -26q-92 0 -139 84t-47 204q0 107 34.5 193t77.5 98.5t74 12.5q35 0 68 -12t61.5 -41.5t46 -90.5t17.5 -135q0 -125 -50 -219t-143 -94zM204 72q28 -4 51.5 74.5t23.5 168.5q0 67 -14.5 110t-44.5 43q-36 0 -59 -60t-23 -126q0 -98 10.5 -150.5t55.5 -59.5zM194 614
q-8 -9 -32 -9q-23 0 -41 9.5t-18 26.5q0 6 3 14t7 19q2 10 2 15q-1 14 -1 21t1.5 12t9.5 12t27 7q20 0 38.5 -9.5t22.5 -24.5q2 -12 -2 -24l-6 -18t-3 -24.5t-8 -26.5zM347 604q-8 -9 -32 -9q-22 0 -40 9.5t-18 26.5q0 8 4 19t5.5 15.5t1.5 15.5q-1 11 -1 17q0 15 9.5 24.5
t30.5 9.5q20 0 38 -9.5t21 -24.5q2 -10 -1.5 -22t-6.5 -23q-2 -18 -2.5 -29t-8.5 -20z" />
    <glyph glyph-name="otilde" unicode="&#xf5;" horiz-adv-x="414" 
d="M204 -26q-92 0 -139 84t-47 204q0 107 34.5 193t77.5 98.5t74 12.5q35 0 68 -12t61.5 -41.5t46 -90.5t17.5 -135q0 -125 -50 -219t-143 -94zM204 72q28 -4 51.5 74.5t23.5 168.5q0 67 -14.5 110t-44.5 43q-36 0 -59 -60t-23 -126q0 -98 10.5 -150.5t55.5 -59.5zM102 606
q-19 6 -31 24t-12 40t10 33t32.5 24t42.5 13q4 0 12 -2l108 -30q17 -5 42 20t36 22t18.5 -22.5t7.5 -41.5q0 -24 -8 -38q-15 -11 -34 -20.5t-36 -5.5l-102 22q-19 4 -45.5 -19t-40.5 -19z" />
    <glyph glyph-name="uacute" unicode="&#xfa;" horiz-adv-x="414" 
d="M210 -38q-98 0 -136.5 93t-38.5 232q0 48 3.5 88.5t9.5 88.5q-7 25 -7 41q0 30 18 48t49 18q25 0 46 -10t24.5 -20t3.5 -20q0 -13 -11 -41.5t-9 -45.5q-10 -58 -10 -141q0 -89 12 -149t38 -60q42 0 52 108.5t10 259.5q0 14 -2 26t-4 30q0 25 13.5 32t33.5 7
q33 0 63 -15.5t34 -43.5q2 -16 -7.5 -37t-10.5 -29v-65q0 -113 -10.5 -193t-49.5 -141t-114 -61zM276 597q-13 -5 -25 -5q-22 0 -39 10.5t-17 26.5q0 3 2 11q11 28 35 64t49 62.5t41 26.5q19 0 35 -9.5t16 -23.5q0 -26 -24.5 -53t-31.5 -39q-11 -25 -20 -45.5t-21 -25.5z
" />
    <glyph glyph-name="ugrave" unicode="&#xf9;" horiz-adv-x="414" 
d="M210 -38q-98 0 -136.5 93t-38.5 232q0 48 3.5 88.5t9.5 88.5q-7 25 -7 41q0 30 18 48t49 18q25 0 46 -10t24.5 -20t3.5 -20q0 -13 -11 -41.5t-9 -45.5q-10 -58 -10 -141q0 -89 12 -149t38 -60q42 0 52 108.5t10 259.5q0 14 -2 26t-4 30q0 25 13.5 32t33.5 7
q33 0 63 -15.5t34 -43.5q2 -16 -7.5 -37t-10.5 -29v-65q0 -113 -10.5 -193t-49.5 -141t-114 -61zM285 628q2 -8 2 -11q0 -16 -17 -26.5t-40 -10.5q-12 0 -23.5 5t-22 28t-16.5 35.5t-32.5 44t-26.5 55.5q0 13 16.5 23t34.5 10q16 0 41 -26t49.5 -63t34.5 -64z" />
    <glyph glyph-name="ucircumflex" unicode="&#xfb;" horiz-adv-x="414" 
d="M210 -38q-98 0 -136.5 93t-38.5 232q0 48 3.5 88.5t9.5 88.5q-7 25 -7 41q0 30 18 48t49 18q25 0 46 -10t24.5 -20t3.5 -20q0 -13 -11 -41.5t-9 -45.5q-10 -58 -10 -141q0 -89 12 -149t38 -60q42 0 52 108.5t10 259.5q0 14 -2 26t-4 30q0 25 13.5 32t33.5 7
q33 0 63 -15.5t34 -43.5q2 -16 -7.5 -37t-10.5 -29v-65q0 -113 -10.5 -193t-49.5 -141t-114 -61zM365 642q-11 -28 -45 -28q-9 0 -15.5 2.5t-9.5 3t-24 23.5l-49 55q-26 -22 -42.5 -55t-29.5 -33q-19 -2 -40 11.5t-21 31.5q0 13 18 33t37 38q18 29 33 50.5t33 21.5
q28 0 46 -19t33 -35q43 -37 60.5 -57.5t17.5 -33.5q0 -3 -2 -9z" />
    <glyph glyph-name="udieresis" unicode="&#xfc;" horiz-adv-x="414" 
d="M210 -38q-98 0 -136.5 93t-38.5 232q0 48 3.5 88.5t9.5 88.5q-7 25 -7 41q0 30 18 48t49 18q25 0 46 -10t24.5 -20t3.5 -20q0 -13 -11 -41.5t-9 -45.5q-10 -58 -10 -141q0 -89 12 -149t38 -60q42 0 52 108.5t10 259.5q0 14 -2 26t-4 30q0 25 13.5 32t33.5 7
q33 0 63 -15.5t34 -43.5q2 -16 -7.5 -37t-10.5 -29v-65q0 -113 -10.5 -193t-49.5 -141t-114 -61zM194 614q-8 -9 -32 -9q-23 0 -41 9.5t-18 26.5q0 6 3 14t7 19q2 10 2 15q-1 14 -1 21t1.5 12t9.5 12t27 7q20 0 38.5 -9.5t22.5 -24.5q2 -12 -2 -24l-6 -18t-3 -24.5t-8 -26.5
zM347 604q-8 -9 -32 -9q-22 0 -40 9.5t-18 26.5q0 8 4 19t5.5 15.5t1.5 15.5q-1 11 -1 17q0 15 9.5 24.5t30.5 9.5q20 0 38 -9.5t21 -24.5q2 -10 -1.5 -22t-6.5 -23q-2 -18 -2.5 -29t-8.5 -20z" />
    <glyph glyph-name="cent" unicode="&#xa2;" horiz-adv-x="282" 
d="M75 168q0 18 13 30t24 15.5t18 3.5q21 0 46 -15t25 -28q0 -14 -16.5 -27t-39.5 -20q-12 -4 -41 10t-29 31zM91 708q0 18 13 30t24 15.5t18 3.5q21 0 46 -15t25 -28q0 -14 -16.5 -27t-39.5 -20q-12 -4 -41 10t-29 31zM134 244q-56 0 -85.5 56t-29.5 135q0 85 30.5 150
t80.5 65q58 0 76.5 -21.5t25.5 -72.5q6 -14 11 -31t5 -29q0 -13 -6.5 -22.5t-18 -14t-28.5 -4.5q-33 0 -42 9.5t-9 21.5q0 9 1 18l2 18q0 14 -9 14q-10 0 -17.5 -33.5t-7.5 -77.5q0 -40 7.5 -69.5t21.5 -29.5q10 0 18 9q9 13 12.5 17.5t8 14.5t16.5 14.5t25 4.5
q22 0 34.5 -15.5t12.5 -38.5q0 -17 -29 -36q-13 -23 -34.5 -37.5t-71.5 -14.5z" />
    <glyph glyph-name="bullet" unicode="&#x2022;" horiz-adv-x="234" 
d="M164 270q-17 -18 -63 -18q-45 0 -81 18.5t-36 52.5q0 14 9 36t10.5 30t2.5 16.5t1 14.5q0 12 -1 26t-1 15q0 14 3.5 24t13 19.5t25.5 13.5t36 4q40 0 76 -18t40 -39t4 -25q0 -16 -9 -41t-11 -46.5t-3.5 -43.5t-15.5 -39z" />
    <glyph glyph-name="registered" unicode="&#xae;" horiz-adv-x="612" 
d="M288 12q-122 15 -194.5 121t-72.5 286q0 106 60.5 223.5t104.5 136.5q9 5 22 5q8 0 26.5 -4t24.5 -4q13 0 43.5 4.5t40.5 4.5q12 0 61.5 -14.5t115 -121t65.5 -230.5q0 -172 -68.5 -278t-110 -119.5t-49.5 -14.5t-18 -1t-24 2t-27 4zM304 69q54 0 117 85.5t63 265.5
q0 111 -55.5 210.5t-135.5 99.5h-18q-9 -3 -34 -9.5t-72 -105.5t-47 -195q0 -148 67 -249.5t115 -101.5zM216 278l-15 256q0 6 -5.5 17.5t-2.5 18.5q10 19 40 19q7 0 15 -3l14 -12q19 6 42 14t39 8q17 0 31 -5.5t23 -16.5t9 -22q0 -33 -36 -90.5t-76 -92.5l89 -72
q3 -2 19 -9.5t19 -17.5q3 -15 -13 -26t-35 -11q-12 0 -16.5 3.5t-7.5 11.5t-8 11l-72 57l3 -41q0 -3 6.5 -13t6.5 -16q0 -11 -10 -18t-21 -7q-16 0 -31.5 9.5t-18.5 22.5q-2 10 5 16t7 9zM262 412q32 33 56 76.5t14 50.5q-8 7 -26 -7.5t-43 -40.5z" />
    <glyph glyph-name="copyright" unicode="&#xa9;" horiz-adv-x="612" 
d="M288 12q-122 15 -194.5 121t-72.5 286q0 106 60.5 223.5t104.5 136.5q9 5 22 5q8 0 26.5 -4t24.5 -4q13 0 43.5 4.5t40.5 4.5q12 0 61.5 -14.5t115 -121t65.5 -230.5q0 -172 -68.5 -278t-110 -119.5t-49.5 -14.5t-18 -1t-24 2t-27 4zM304 69q54 0 117 85.5t63 265.5
q0 111 -55.5 210.5t-135.5 99.5h-18q-9 -3 -34 -9.5t-72 -105.5t-47 -195q0 -148 67 -249.5t115 -101.5zM295 204q-55 0 -84 53.5t-29 132.5q0 89 34.5 157.5t93.5 68.5q47 0 73 -47t26 -100q0 -10 -2 -22.5t-13.5 -19t-26.5 -6.5q-28 0 -37 10.5t-10.5 18.5t-1.5 24v19.5
t1 19.5q0 32 -11 32q-12 0 -25 -68t-13 -128q0 -71 21 -71q13 0 23.5 12.5t16.5 31.5q6 7 6 24t8.5 22.5t24.5 5.5q20 0 37 -9.5t17 -26.5q0 -15 -16 -35t-29 -41t-35 -39.5t-49 -18.5z" />
    <glyph glyph-name="trademark" unicode="&#x2122;" horiz-adv-x="864" 
d="M116 380q-1 71 -1.5 137t-1.5 158q-3 -1 -15.5 -5.5t-19.5 -4.5q-10 0 -20 9l-20 18t-10 25q0 5 1 10t61 24t96 31t45 21.5t20 9.5q18 0 37.5 -22t19.5 -39q0 -8 -5 -17t-13 -11.5t-21 -2.5q-22 0 -27 -2l-52 -21q0 -113 1 -188t4 -140q0 -9 6 -22t6 -19q0 -9 -8.5 -21
t-36.5 -12q-23 0 -43.5 12.5t-23.5 29.5q-1 8 10 21t11 21zM346 384l-13 338q0 9 -5.5 22t-5.5 18q0 11 11 22.5t37 11.5q40 0 58 -15.5t18 -27.5q0 -17 1 -19l119 -288l133 306q2 4 2 12q-1 10 -1 15q0 14 12 22.5t28 8.5q26 0 50 -15.5t24 -35.5q0 -10 -8.5 -16.5
t-8.5 -11.5l25 -354q0 -2 9.5 -19.5t9.5 -24.5t-5.5 -14.5t-16.5 -12.5t-23 -5q-24 0 -48.5 14.5t-27.5 28.5t6.5 28t8.5 23l-18 202l-103 -233q-2 -4 -2 -13q2 -19 2 -29q0 -14 -8 -20t-19 -9t-20 -3q-22 0 -38.5 10.5t-19 21.5t-2.5 14.5v4.5q0 12 1 25l-86 231l14 -213
q0 -7 3.5 -23t3.5 -23q0 -11 -6.5 -19.5t-19 -13t-17.5 -4.5q-18 0 -39.5 14t-27.5 36q-3 10 5 19t8 14z" />
    <glyph glyph-name="ellipsis" unicode="&#x2026;" horiz-adv-x="600" 
d="M145 -4q-5 -5 -15 -8t-24 -3q-28 0 -51 12t-23 33q0 9 5.5 22.5t7 19.5t1.5 19q-1 15 -1 22q0 9 2 16.5t11 16.5t36 9q26 0 48.5 -11.5t26.5 -30.5q2 -13 -2.5 -27.5t-8.5 -28.5q-2 -23 -2.5 -36.5t-10.5 -24.5zM545 -4q-5 -5 -15 -8t-24 -3q-28 0 -51 12t-23 33
q0 9 5.5 22.5t7 19.5t1.5 19q-1 15 -1 22q0 9 2 16.5t11 16.5t36 9q26 0 48.5 -11.5t26.5 -30.5q2 -13 -2.5 -27.5t-8.5 -28.5q-2 -23 -2.5 -36.5t-10.5 -24.5zM345 -4q-5 -5 -15 -8t-24 -3q-28 0 -51 12t-23 33q0 9 5.5 22.5t7 19.5t1.5 19q-1 15 -1 22q0 9 2 16.5t11 16.5
t36 9q26 0 48.5 -11.5t26.5 -30.5q2 -13 -2.5 -27.5t-8.5 -28.5q-2 -23 -2.5 -36.5t-10.5 -24.5z" />
    <glyph glyph-name="Agrave" unicode="&#xc0;" horiz-adv-x="495" 
d="M313 714q-3 -18 -16.5 -27t-31.5 -9q-9 0 -18.5 3.5t-18 24.5t-10.5 24t-19.5 23t-15.5 35q2 14 17 23t32 9q12 0 33 -12.5t36 -40.5t12 -53zM470 163q-5 -9 -16 -11.5t-30 -2.5h-13q3 -21 17 -48t25 -42q21 -16 21 -40q0 -31 -21.5 -35.5t-27.5 -4.5q-20 0 -37 6.5
t-23 15.5t-7.5 19.5t-2.5 22.5q-5 5 -17.5 34t-25.5 59q-45 -7 -91 -13.5t-71 -13.5q-8 -23 -14 -41.5t-6 -25.5q2 -12 2 -16q0 -22 -15.5 -33.5t-35.5 -11.5q-7 0 -18 2.5t-26 19t-15 34.5q0 22 18 37q29 147 65 274t81 230q-2 14 -2 21q0 18 6.5 31t15.5 17.5t16 6t18 1.5
q22 0 42.5 -6.5t31.5 -17t11 -30.5q0 -26 -15 -47q9 -81 26 -157t40 -157q14 3 33 8t26 5q8 0 16 -5q28 -22 28 -53q0 -17 -9 -32zM278 224q-6 21 -18.5 73t-24.5 121q-25 -55 -44 -116t-23 -97z" />
    <glyph glyph-name="Atilde" unicode="&#xc3;" horiz-adv-x="495" 
d="M40 74q29 147 65 274t81 230q-2 14 -2 21q0 18 6.5 31t15.5 17.5t16 6t18 1.5q22 0 42.5 -6.5t31.5 -17t11 -30.5q0 -26 -15 -47q9 -81 26 -157t40 -157q14 3 33 8t26 5q8 0 16 -5q28 -22 28 -53q0 -17 -7 -29t-18 -14.5t-30 -2.5h-13q3 -21 17 -48t25 -42q21 -16 21 -40
q0 -31 -21.5 -35.5t-27.5 -4.5q-20 0 -37 6.5t-23 15.5t-7.5 19.5t-2.5 22.5q-5 5 -17.5 34t-25.5 59q-45 -7 -91 -13.5t-71 -13.5q-8 -23 -14 -41.5t-6 -25.5q2 -12 2 -16q0 -22 -15.5 -33.5t-35.5 -11.5q-7 0 -18 2.5t-26 19t-15 34.5q0 22 18 37zM168 205l110 19
q-6 21 -18.5 73t-24.5 121q-25 -55 -44 -116t-23 -97zM126 660q-19 6 -31 21t-12 34t10 30t32.5 24t42.5 13q4 0 12 -2l108 -30q16 -4 42 21.5t36 20.5q12 -6 19 -22t7 -35t-8 -33q-15 -11 -34 -20.5t-36 -5.5l-102 22q-19 4 -45.5 -19t-40.5 -19z" />
    <glyph glyph-name="Otilde" unicode="&#xd5;" 
d="M208 -14q-95 11 -138.5 112.5t-43.5 237.5q0 91 30.5 189.5t51 112t29.5 13.5t25 -4.5t21 -4.5q11 0 38 4.5t35 4.5q10 0 48.5 -15.5t72 -102t33.5 -197.5q0 -110 -40 -222.5t-71 -122.5t-48 -10q-13 0 -22.5 1.5t-20.5 3.5zM216 72q25 0 56 83t31 158q0 16 -1 23
q0 85 -20.5 160t-66.5 75q-12 0 -25.5 -6t-35.5 -86t-22 -143q0 -83 28.5 -173.5t55.5 -90.5zM96 654q-19 6 -31 21t-12 34t10 30t32.5 24t42.5 13q4 0 12 -2l108 -30q16 -4 42 21.5t36 20.5q12 -6 19 -22t7 -35t-8 -33q-15 -11 -34 -20.5t-36 -5.5l-102 22q-19 4 -45.5 -19
t-40.5 -19z" />
    <glyph glyph-name="endash" unicode="&#x2013;" horiz-adv-x="500" 
d="M78 258q-42 20 -42 66q0 19 8 28.5t38.5 10.5t43.5 3l216 36q13 2 31.5 6.5t25.5 4.5q12 0 24 -6.5t20 -25t8 -39.5q0 -25 -10.5 -34t-23.5 -9q-6 0 -22.5 3.5t-26.5 1.5l-210 -32q-10 -2 -30.5 -10.5t-30.5 -8.5q-7 0 -19 5z" />
    <glyph glyph-name="emdash" unicode="&#x2014;" horiz-adv-x="1000" 
d="M78 258q-42 20 -42 66q0 19 8 29t33 11t49 2l738 84q12 1 31 6t27 5q12 0 23.5 -6.5t19.5 -25t8 -39.5q0 -25 -10.5 -34t-23.5 -9q-7 0 -23 3t-26 2l-732 -80q-11 -1 -33 -10t-29 -9q-6 0 -18 5z" />
    <glyph glyph-name="quotedblleft" unicode="&#x201c;" horiz-adv-x="378" 
d="M286 784q22 8 38 8q22 0 34.5 -10.5t12.5 -27.5q0 -8 -3 -16t-35 -31.5t-42.5 -36t-15.5 -49t-16 -48.5t-25 -12q-12 0 -25 7.5t-23.5 19.5t-10.5 34q0 41 42 96.5t69 65.5zM126 786q22 8 38 8q22 0 34.5 -10.5t12.5 -27.5q0 -8 -3 -16t-35 -31.5t-42.5 -36t-15.5 -49
t-16 -48.5t-25 -12q-12 0 -25 7.5t-23.5 19.5t-10.5 34q0 41 42 96.5t69 65.5z" />
    <glyph glyph-name="quotedblright" unicode="&#x201d;" horiz-adv-x="396" 
d="M108 558q-22 -8 -38 -8q-22 0 -34.5 10.5t-12.5 27.5q0 8 3 16t35 31.5t42.5 36t15.5 49t16 48.5t25 12q12 0 25 -7.5t23.5 -19.5t10.5 -34q0 -41 -42 -96.5t-69 -65.5zM268 556q-22 -8 -38 -8q-22 0 -34.5 10.5t-12.5 27.5q0 8 3 16t35 31.5t42.5 36t15.5 49t16 48.5
t25 12q12 0 25 -7.5t23.5 -19.5t10.5 -34q0 -41 -42 -96.5t-69 -65.5z" />
    <glyph glyph-name="quoteleft" unicode="&#x2018;" horiz-adv-x="228" 
d="M126 786q22 8 38 8q22 0 34.5 -10.5t12.5 -27.5q0 -8 -3 -16t-35 -31.5t-42.5 -36t-15.5 -49t-16 -48.5t-25 -12q-12 0 -25 7.5t-23.5 19.5t-10.5 34q0 41 42 96.5t69 65.5z" />
    <glyph glyph-name="quoteright" unicode="&#x2019;" horiz-adv-x="252" 
d="M108 558q-22 -8 -38 -8q-22 0 -34.5 10.5t-12.5 27.5q0 8 3 16t35 31.5t42.5 36t15.5 49t16 48.5t25 12q12 0 25 -7.5t23.5 -19.5t10.5 -34q0 -41 -42 -96.5t-69 -65.5z" />
    <glyph glyph-name="ydieresis" unicode="&#xff;" horiz-adv-x="468" 
d="M124 -146q-4 11 -4 19q0 9 8.5 21.5t9.5 21.5l24 126l-144 414q-3 8 -14.5 29.5t-11.5 34.5q0 4 4 18.5t23 23t45 8.5q35 0 59.5 -14.5t26 -59.5t6.5 -60l66 -208l102 258q0 1 7 34.5t20.5 41.5t25.5 8q29 0 58 -21.5t33 -50.5q3 -21 -15 -51.5t-42 -88t-51 -123.5
t-51 -130t-37 -114.5t-16.5 -76.5t-3.5 -32q0 -7 1 -16t1 -10q0 -13 -11.5 -29t-45.5 -16q-24 0 -45 11.5t-28 31.5zM194 620q-8 -9 -32 -9q-23 0 -41 9.5t-18 26.5q0 6 3 14t7 19q2 10 2 15q-1 14 -1 21t1.5 12t9.5 12t27 7q20 0 38.5 -9.5t22.5 -24.5q2 -12 -2 -24l-6 -18
t-3 -24.5t-8 -26.5zM347 610q-8 -9 -32 -9q-22 0 -40 9.5t-18 26.5q0 8 4 19t5.5 15.5t1.5 15.5q-1 11 -1 17q0 15 9.5 24.5t30.5 9.5q20 0 38 -9.5t21 -24.5q2 -10 -1.5 -22t-6.5 -23q-2 -18 -2.5 -29t-8.5 -20z" />
    <glyph glyph-name="Ydieresis" unicode="&#x178;" horiz-adv-x="466" 
d="M176 114l-8 88l-118 350q-3 8 -18 31t-15 36q0 8 4.5 16.5t24 13.5t40.5 5q36 0 53 -11.5t19.5 -35t4.5 -45.5l75 -234l98 253q10 30 17.5 44.5t23.5 21.5t33 7q30 0 53 -15.5t23 -40.5q0 -20 -28 -50.5t-29 -33.5l-152 -383l8 -81q3 -21 3 -31q0 -14 -6 -23t-21 -14
t-33 -5q-35 0 -60.5 18t-21.5 48q2 16 16 36t14 35zM234 691q-8 -8 -28 -8q-19 0 -36.5 9t-17.5 25q0 6 4 16t5.5 13.5t1.5 13.5q-1 12 -1 18q0 12 7.5 19.5t27.5 7.5q18 0 34.5 -8.5t19.5 -21.5q2 -11 -1.5 -22t-5.5 -17.5t-3 -22t-7 -22.5zM372 670q-8 -8 -28 -8t-36.5 9
t-16.5 24q0 7 4 17t5 14t1 13q-1 11 -1 17q0 12 8.5 20.5t27.5 8.5q18 0 34 -8t19 -22q2 -9 -1 -20t-5 -17.5t-4 -23.5t-7 -24z" />
    <glyph glyph-name="Acircumflex" unicode="&#xc2;" horiz-adv-x="495" 
d="M40 74q29 147 65 274t81 230q-2 14 -2 21q0 18 6.5 31t15.5 17.5t16 6t18 1.5q22 0 42.5 -6.5t31.5 -17t11 -30.5q0 -26 -15 -47q9 -81 26 -157t40 -157q14 3 33 8t26 5q8 0 16 -5q28 -22 28 -53q0 -17 -7 -29t-18 -14.5t-30 -2.5h-13q3 -21 17 -48t25 -42q21 -16 21 -40
q0 -31 -21.5 -35.5t-27.5 -4.5q-20 0 -37 6.5t-23 15.5t-7.5 19.5t-2.5 22.5q-5 5 -17.5 34t-25.5 59q-45 -7 -91 -13.5t-71 -13.5q-8 -23 -14 -41.5t-6 -25.5q2 -12 2 -16q0 -22 -15.5 -33.5t-35.5 -11.5q-7 0 -18 2.5t-26 19t-15 34.5q0 22 18 37zM168 205l110 19
q-6 21 -18.5 73t-24.5 121q-25 -55 -44 -116t-23 -97zM392 684q-5 -12 -18.5 -20t-28.5 -8q-10 0 -16.5 2.5t-9.5 3t-24 23.5l-49 55q-26 -22 -42.5 -55t-29.5 -33q-19 -2 -40 11.5t-21 31.5q0 13 18 33t37 38q18 29 33 50.5t33 21.5q28 0 46 -19t33 -35q52 -45 68.5 -65.5
t10.5 -34.5z" />
    <glyph glyph-name="Ecircumflex" unicode="&#xca;" horiz-adv-x="354" 
d="M45 82q0 76 -0.5 151.5t-1.5 174.5t-1 170q-6 9 -6 16q0 13 15 21.5t34 11.5q11 2 23.5 -4.5t22.5 -11.5l96 31l21 10.5t22 4.5q9 0 20 -2.5t29 -27t18 -44.5q0 -13 -14 -25t-42 -12q-13 0 -28 3q-27 -9 -57 -19.5t-44 -23.5v-191q1 1 10 3t14 4q9 16 33 16q5 0 22 -5
t39.5 -23t22.5 -38q0 -7 -5 -19t-19 -19t-33 -7q-6 0 -16 1t-13 1q-4 0 -11.5 -2.5t-23.5 -10.5l-20 -10q0 -21 0.5 -48t4.5 -44q16 4 26.5 7.5t29.5 11.5q4 6 10 12.5t27 4.5q22 0 46 -24t24 -49q0 -15 -7.5 -24.5t-19.5 -13t-31 -3.5q-15 0 -22 1l-75 -39q-2 -1 -19.5 -15
t-30.5 -10q-24 7 -42 23.5t-35 43.5q-2 4 -1 11.5t8 30.5zM326 714q-5 -12 -18.5 -20t-28.5 -8q-10 0 -16.5 2.5t-9.5 3t-24 23.5l-49 55q-26 -22 -42.5 -55t-29.5 -33q-19 -2 -40 11.5t-21 31.5q0 13 18 33t37 38q18 29 33 50.5t33 21.5q28 0 46 -19t33 -35
q52 -45 68.5 -65.5t10.5 -34.5z" />
    <glyph glyph-name="Aacute" unicode="&#xc1;" horiz-adv-x="495" 
d="M40 74q29 147 65 274t81 230q-2 14 -2 21q0 18 6.5 31t15.5 17.5t16 6t18 1.5q22 0 42.5 -6.5t31.5 -17t11 -30.5q0 -26 -15 -47q9 -81 26 -157t40 -157q14 3 33 8t26 5q8 0 16 -5q28 -22 28 -53q0 -17 -7 -29t-18 -14.5t-30 -2.5h-13q3 -21 17 -48t25 -42q21 -16 21 -40
q0 -31 -21.5 -35.5t-27.5 -4.5q-20 0 -37 6.5t-23 15.5t-7.5 19.5t-2.5 22.5q-5 5 -17.5 34t-25.5 59q-45 -7 -91 -13.5t-71 -13.5q-8 -23 -14 -41.5t-6 -25.5q2 -12 2 -16q0 -22 -15.5 -33.5t-35.5 -11.5q-7 0 -18 2.5t-26 19t-15 34.5q0 22 18 37zM168 205l110 19
q-6 21 -18.5 73t-24.5 121q-25 -55 -44 -116t-23 -97zM282 681q-8 -3 -17 -3q-17 0 -31 9t-17 27q-3 24 12 53t36 41t34 12q17 0 31.5 -9t16.5 -23q2 -15 -16 -36t-24 -34t-11.5 -23.5t-13.5 -13.5z" />
    <glyph glyph-name="Edieresis" unicode="&#xcb;" horiz-adv-x="354" 
d="M45 82q0 76 -0.5 151.5t-1.5 174.5t-1 170q-6 9 -6 16q0 13 15 21.5t34 11.5q11 2 23.5 -4.5t22.5 -11.5l96 31l21 10.5t22 4.5q9 0 20 -2.5t29 -27t18 -44.5q0 -13 -14 -25t-42 -12q-13 0 -28 3q-27 -9 -57 -19.5t-44 -23.5v-191q1 1 10 3t14 4q9 16 33 16q5 0 22 -5
t39.5 -23t22.5 -38q0 -7 -5 -19t-19 -19t-33 -7q-6 0 -16 1t-13 1q-4 0 -11.5 -2.5t-23.5 -10.5l-20 -10q0 -21 0.5 -48t4.5 -44q16 4 26.5 7.5t29.5 11.5q4 6 10 12.5t27 4.5q22 0 46 -24t24 -49q0 -15 -7.5 -24.5t-19.5 -13t-31 -3.5q-15 0 -22 1l-75 -39q-2 -1 -19.5 -15
t-30.5 -10q-24 7 -42 23.5t-35 43.5q-2 4 -1 11.5t8 30.5zM162 703q-8 -8 -28 -8q-19 0 -36.5 9t-17.5 25q0 6 4 16t5.5 13.5t1.5 13.5q-1 12 -1 18q0 12 7.5 19.5t27.5 7.5q18 0 34.5 -8.5t19.5 -21.5q2 -11 -1.5 -22t-5.5 -17.5t-3 -22t-7 -22.5zM300 682q-8 -8 -28 -8
t-36.5 9t-16.5 24q0 7 4 17t5 14t1 13q-1 11 -1 17q0 12 8.5 20.5t27.5 8.5q18 0 34 -8t19 -22q2 -9 -1 -20t-5 -17.5t-4 -23.5t-7 -24z" />
    <glyph glyph-name="Egrave" unicode="&#xc8;" horiz-adv-x="354" 
d="M45 82q0 76 -0.5 151.5t-1.5 174.5t-1 170q-6 9 -6 16q0 13 15 21.5t34 11.5q11 2 23.5 -4.5t22.5 -11.5l96 31l21 10.5t22 4.5q9 0 20 -2.5t29 -27t18 -44.5q0 -13 -14 -25t-42 -12q-13 0 -28 3q-27 -9 -57 -19.5t-44 -23.5v-191q1 1 10 3t14 4q9 16 33 16q5 0 22 -5
t39.5 -23t22.5 -38q0 -7 -5 -19t-19 -19t-33 -7q-6 0 -16 1t-13 1q-4 0 -11.5 -2.5t-23.5 -10.5l-20 -10q0 -21 0.5 -48t4.5 -44q16 4 26.5 7.5t29.5 11.5q4 6 10 12.5t27 4.5q22 0 46 -24t24 -49q0 -15 -7.5 -24.5t-19.5 -13t-31 -3.5q-15 0 -22 1l-75 -39q-2 -1 -19.5 -15
t-30.5 -10q-24 7 -42 23.5t-35 43.5q-2 4 -1 11.5t8 30.5zM205 684q-2 -15 -9.5 -20.5t-18.5 -5.5q-13 0 -24.5 4.5t-20 25.5t-10.5 24t-19.5 23t-15.5 35q3 23 30 23q15 0 38 -14t38 -42t12 -53z" />
    <glyph glyph-name="Iacute" unicode="&#xcd;" horiz-adv-x="210" 
d="M48 72l-14 490q0 10 -6.5 24.5t-6.5 19.5q0 13 15.5 27.5t39.5 14.5q26 0 54.5 -13t32.5 -25.5t4 -15.5q0 -9 -6 -21t-11 -23l8 -484q0 -11 7.5 -26t7.5 -23l-2 -11q-7 -21 -43 -21q-7 0 -31.5 4t-41.5 13t-21 21t-4 15q0 9 5 17.5t13 16.5zM126 681q-8 -3 -17 -3
q-17 0 -31 9t-17 27q-3 24 12 53t36 41t34 12q17 0 31.5 -9t16.5 -23q2 -15 -16 -36t-24 -34t-11.5 -23.5t-13.5 -13.5z" />
    <glyph glyph-name="Icircumflex" unicode="&#xce;" horiz-adv-x="336" 
d="M132 58l-14 490q0 10 -6.5 24.5t-6.5 19.5q0 13 15.5 27.5t39.5 14.5q26 0 54.5 -13t32.5 -25.5t4 -15.5q0 -9 -6 -21t-11 -23l8 -484q0 -11 7.5 -26t7.5 -23l-2 -11q-7 -21 -43 -21q-7 0 -31.5 4t-41.5 13t-21 21t-4 15q0 9 5 17.5t13 16.5zM308 705q-5 -12 -18.5 -20
t-28.5 -8q-10 0 -16.5 2.5t-9.5 3t-24 23.5l-49 55q-26 -22 -42.5 -55t-29.5 -33q-19 -2 -40 11.5t-21 31.5q0 13 18 33t37 38q18 29 33 50.5t33 21.5q28 0 46 -19t33 -35q52 -45 68.5 -65.5t10.5 -34.5z" />
    <glyph glyph-name="Idieresis" unicode="&#xcf;" horiz-adv-x="288" 
d="M90 72l-14 490q0 10 -6.5 24.5t-6.5 19.5q0 13 15.5 27.5t39.5 14.5q26 0 54.5 -13t32.5 -25.5t4 -15.5q0 -9 -6 -21t-11 -23l8 -484q0 -11 7.5 -26t7.5 -23l-2 -11q-7 -21 -43 -21q-7 0 -31.5 4t-41.5 13t-21 21t-4 15q0 9 5 17.5t13 16.5zM114 697q-8 -8 -28 -8
q-19 0 -36.5 9t-17.5 25q0 6 4 16t5.5 13.5t1.5 13.5q-1 12 -1 18q0 12 7.5 19.5t27.5 7.5q18 0 34.5 -8.5t19.5 -21.5q2 -11 -1.5 -22t-5.5 -17.5t-3 -22t-7 -22.5zM252 676q-8 -8 -28 -8t-36.5 9t-16.5 24q0 7 4 17t5 14t1 13q-1 11 -1 17q0 12 8.5 20.5t27.5 8.5
q18 0 34 -8t19 -22q2 -9 -1 -20t-5 -17.5t-4 -23.5t-7 -24z" />
    <glyph glyph-name="Igrave" unicode="&#xcc;" horiz-adv-x="210" 
d="M48 72l-14 490q0 10 -6.5 24.5t-6.5 19.5q0 13 15.5 27.5t39.5 14.5q26 0 54.5 -13t32.5 -25.5t4 -15.5q0 -9 -6 -21t-11 -23l8 -484q0 -11 7.5 -26t7.5 -23l-2 -11q-7 -21 -43 -21q-7 0 -31.5 4t-41.5 13t-21 21t-4 15q0 9 5 17.5t13 16.5zM163 702q-2 -15 -9.5 -20.5
t-18.5 -5.5q-13 0 -24.5 4.5t-20 25.5t-10.5 24t-19.5 23t-15.5 35q3 23 30 23q15 0 38 -14t38 -42t12 -53z" />
    <glyph glyph-name="Oacute" unicode="&#xd3;" 
d="M208 -14q-95 11 -138.5 112.5t-43.5 237.5q0 91 30.5 189.5t51 112t29.5 13.5t25 -4.5t21 -4.5q11 0 38 4.5t35 4.5q10 0 48.5 -15.5t72 -102t33.5 -197.5q0 -110 -40 -222.5t-71 -122.5t-48 -10q-13 0 -22.5 1.5t-20.5 3.5zM216 72q25 0 56 83t31 158q0 16 -1 23
q0 85 -20.5 160t-66.5 75q-12 0 -25.5 -6t-35.5 -86t-22 -143q0 -83 28.5 -173.5t55.5 -90.5zM264 675q-8 -3 -17 -3q-17 0 -31 9t-17 27q-3 24 12 53t36 41t34 12q17 0 31.5 -9t16.5 -23q2 -15 -16 -36t-24 -34t-11.5 -23.5t-13.5 -13.5z" />
    <glyph glyph-name="Ocircumflex" unicode="&#xd4;" 
d="M208 -14q-95 11 -138.5 112.5t-43.5 237.5q0 91 30.5 189.5t51 112t29.5 13.5t25 -4.5t21 -4.5q11 0 38 4.5t35 4.5q10 0 48.5 -15.5t72 -102t33.5 -197.5q0 -110 -40 -222.5t-71 -122.5t-48 -10q-13 0 -22.5 1.5t-20.5 3.5zM216 72q25 0 56 83t31 158q0 16 -1 23
q0 85 -20.5 160t-66.5 75q-12 0 -25.5 -6t-35.5 -86t-22 -143q0 -83 28.5 -173.5t55.5 -90.5zM332 699q-5 -12 -18.5 -20t-28.5 -8q-10 0 -16.5 2.5t-9.5 3t-24 23.5l-49 55q-26 -22 -42.5 -55t-29.5 -33q-19 -2 -40 11.5t-21 31.5q0 13 18 33t37 38q18 29 33 50.5t33 21.5
q28 0 46 -19t33 -35q52 -45 68.5 -65.5t10.5 -34.5z" />
    <glyph glyph-name="Ograve" unicode="&#xd2;" 
d="M208 -14q-95 11 -138.5 112.5t-43.5 237.5q0 91 30.5 189.5t51 112t29.5 13.5t25 -4.5t21 -4.5q11 0 38 4.5t35 4.5q10 0 48.5 -15.5t72 -102t33.5 -197.5q0 -110 -40 -222.5t-71 -122.5t-48 -10q-13 0 -22.5 1.5t-20.5 3.5zM216 72q25 0 56 83t31 158q0 16 -1 23
q0 85 -20.5 160t-66.5 75q-12 0 -25.5 -6t-35.5 -86t-22 -143q0 -83 28.5 -173.5t55.5 -90.5z" />
    <glyph glyph-name="Uacute" unicode="&#xda;" 
d="M218 -30q-77 0 -119 79t-56.5 187t-14.5 216q0 37 1 60.5t2 33.5q-7 25 -7 41q0 25 15 43q11 11 37 11q32 0 59 -15t27 -43q0 -11 -9 -28t-7 -26q-1 -2 -1 -8v-9q0 -104 17.5 -265t44.5 -161q36 0 57.5 152t21.5 266q0 24 -1 30q2 10 -11.5 30t-13.5 34q0 15 13.5 34.5
t58.5 19.5q23 0 44 -9.5t29.5 -26t8.5 -27.5q0 -6 -3 -14t-6 -15v-26t1 -33q0 -120 -11.5 -233.5t-53.5 -205.5t-123 -92zM252 669q-8 -3 -17 -3q-17 0 -31 9t-17 27q-3 24 12 53t36 41t34 12q17 0 31.5 -9t16.5 -23q2 -15 -16 -36t-24 -34t-11.5 -23.5t-13.5 -13.5z" />
    <glyph glyph-name="Ucircumflex" unicode="&#xdb;" 
d="M218 -30q-77 0 -119 79t-56.5 187t-14.5 216q0 37 1 60.5t2 33.5q-7 25 -7 41q0 25 15 43q11 11 37 11q32 0 59 -15t27 -43q0 -11 -9 -28t-7 -26q-1 -2 -1 -8v-9q0 -104 17.5 -265t44.5 -161q36 0 57.5 152t21.5 266q0 24 -1 30q2 10 -11.5 30t-13.5 34q0 15 13.5 34.5
t58.5 19.5q23 0 44 -9.5t29.5 -26t8.5 -27.5q0 -6 -3 -14t-6 -15v-26t1 -33q0 -120 -11.5 -233.5t-53.5 -205.5t-123 -92zM357 691q-5 -12 -18.5 -20t-28.5 -8q-10 0 -16.5 2.5t-9.5 3t-24 23.5l-49 55q-26 -22 -42.5 -55t-29.5 -33q-19 -2 -40 11.5t-21 31.5q0 13 18 33
t37 38q18 29 33 50.5t33 21.5q28 0 46 -19t33 -35q52 -45 68.5 -65.5t10.5 -34.5z" />
    <glyph glyph-name="Ugrave" unicode="&#xd9;" 
d="M218 -30q-77 0 -119 79t-56.5 187t-14.5 216q0 37 1 60.5t2 33.5q-7 25 -7 41q0 25 15 43q11 11 37 11q32 0 59 -15t27 -43q0 -11 -9 -28t-7 -26q-1 -2 -1 -8v-9q0 -104 17.5 -265t44.5 -161q36 0 57.5 152t21.5 266q0 24 -1 30q2 10 -11.5 30t-13.5 34q0 15 13.5 34.5
t58.5 19.5q23 0 44 -9.5t29.5 -26t8.5 -27.5q0 -6 -3 -14t-6 -15v-26t1 -33q0 -120 -11.5 -233.5t-53.5 -205.5t-123 -92zM259 684q-2 -15 -9.5 -20.5t-18.5 -5.5q-13 0 -24.5 4.5t-20 25.5t-10.5 24t-19.5 23t-15.5 35q3 23 30 23q15 0 38 -14t38 -42t12 -53z" />
    </font>
</defs>
</svg>
