<?xml version="1.0" standalone="no"?>
<!DOCTYPE svg PUBLIC "-//W3C//DTD SVG 1.1//EN" "http://www.w3.org/Graphics/SVG/1.1/DTD/svg11.dtd" >
<svg xmlns="http://www.w3.org/2000/svg" xmlns:xlink="http://www.w3.org/1999/xlink" version="1.1">
<metadata>
Created by FontForge 20160407 at Thu Aug 11 14:27:32 2016
 By Jimmy Wärting
Copyright (c) 1992, 1993, 2001, Pat Snyder, 62976 Ross Inlet, Coos Bay, OR 97420. All rights reserved. 
</metadata>
<defs>
<font id="MarkerFelt-Thin" horiz-adv-x="430" >
  <font-face 
    font-family="Marker Felt"
    font-weight="400"
    font-stretch="normal"
    units-per-em="1000"
    panose-1="0 0 0 0 0 0 0 0 0 0"
    ascent="800"
    descent="-200"
    x-height="566"
    cap-height="810"
    bbox="-518 -319.056 1138 1164.52"
    underline-thickness="20"
    underline-position="-142"
    unicode-range="U+0008-FB02"
  />
<missing-glyph horiz-adv-x="500" 
d="M63 0v800h375v-800h-375zM125 63h250v675h-250v-675z" />
    <glyph glyph-name=".notdef" horiz-adv-x="500" 
d="M63 0v800h375v-800h-375zM125 63h250v675h-250v-675z" />
    <glyph glyph-name="NULL" horiz-adv-x="0" 
 />
    <glyph glyph-name="NULL" horiz-adv-x="0" 
 />
    <glyph glyph-name="nonmarkingreturn" unicode="&#xd;" horiz-adv-x="250" 
 />
    <glyph glyph-name="space" unicode=" " horiz-adv-x="250" 
 />
    <glyph glyph-name="uni0008" horiz-adv-x="0" 
 />
    <glyph glyph-name="uni0009" unicode="&#x9;" horiz-adv-x="250" 
 />
    <glyph glyph-name="uni000D" horiz-adv-x="250" 
 />
    <glyph glyph-name="exclam" unicode="!" horiz-adv-x="200" 
d="M174 762q1 -4 1.5 -7t0.5 -7q0 -10 -7 -29.5t-7 -32.5v-332q0 -17 7 -41q8 -27 8 -37q0 -19 -15.5 -30.5t-39.5 -11.5q-52 0 -80 36q-9 12 -9 27q0 5 2 18.5t1 22.5q-9 124 -9 258q0 173 15 190q10 13 50 13q72 0 82 -37zM174 132q5 -12 5 -24q0 -5 -1 -12.5t-2.5 -16.5
t-2.5 -17t-1 -14q0 1 3 -30q1 -15 -7 -28q-11 -18 -41 -18q-51 0 -79 34q-7 10 -7 31q0 4 0.5 13t1.5 23q1 13 2 23t-1 18q0 3 -3 21q-3 13 1 21q7 19 45 19q68 0 87 -43z" />
    <glyph glyph-name="quotedbl" unicode="&#x22;" horiz-adv-x="310" 
d="M270 606q-1 -9 2 -23t3 -19q0 -34 -39 -34q-21 0 -42 13.5t-26 32.5q-2 10 2 25t4 23v78l-12 48q15 27 54 27q46 0 60 -33q3 -8 0 -48zM126 630q-1 -9 2 -23t3 -19q0 -34 -39 -34q-21 0 -42 13.5t-26 32.5q-2 10 2 25t4 23v78l-12 48q15 27 54 27q46 0 60 -33q3 -8 0 -48
z" />
    <glyph glyph-name="numbersign" unicode="#" horiz-adv-x="568" 
d="M490 265q-18 0 -33 9v-98q0 -8 4 -20.5t4 -17.5q0 -29 -34 -29q-22 0 -47 17q-23 16 -28 37q1 15 0.5 36.5t-2.5 50.5l-101 -20q-1 -24 6.5 -41t7.5 -18q0 -13 -19 -20q-15 -5 -29 -5q-33 0 -50 18t-7 45l-58 -7q-6 -1 -14.5 -9.5t-16.5 -5.5q-9 3 -18.5 11t-17 18.5
t-12.5 22t-5 20.5q0 20 18 20q3 0 8.5 -1t12 -2l13 -2t10.5 0l73 12q1 52 -3 78q-4 0 -27 -13q-8 -4 -14.5 -5t-13.5 -1q-12 1 -23.5 6t-20.5 12.5t-15 17t-6 18.5q0 10 7 17.5t23 9.5q11 2 18.5 2t9.5 1l65 20q1 19 -2 38t-8 38q-11 41 -11 45q0 18 28 28q11 4 23.5 6.5
t26.5 2.5q58 0 58 -35q0 -9 -11 -19.5t-11 -19.5v-59l87 20v46q0 2 -3 19q-2 11 3 20q9 20 44 20q55 0 64 -34q9 -29 -15 -51q11 1 34 9q22 9 34 9q19 0 30.5 -16.5t11.5 -35.5q0 -38 -30 -44q-3 -1 -9 0.5l-12 3t-12 2.5t-10 0l-29 -6l7 -85q2 0 8 1.5t17 3.5q13 4 25 2
q18 -4 31.5 -21t13.5 -35q0 -37 -48 -37zM342 332v77l-96 -25v-78z" />
    <glyph glyph-name="dollar" unicode="$" horiz-adv-x="530" 
d="M352 775q16 -7 16 -25q0 -27 -25 -39q-18 -8 -45 -8q-24 0 -53 8q-27 9 -30 16q-17 49 17 69q8 5 31 5q63 0 89 -26zM493 408q0 -76 -78 -179q-37 -49 -73 -72.5t-71 -23.5q-68 0 -138 42q-60 43 -58 81q1 21 51 21q40 0 76 -14q10 -9 39 -25q16 -2 48 39t32 62
q0 13 -17 13q-9 0 -76 -6q-68 -6 -101 -6q-76 0 -95 45q-1 1 -1 10q0 55 90 158q97 113 171 113q26 0 51 -10t52 -29t40 -31.5t11 -22.5q-12 -64 -81 -64q-11 0 -24 3q-14 5 -27 22q-13 19 -30 19q-19 0 -65 -51q-46 -49 -46 -72q0 -3 8 -3q15 0 99 18t131 18q82 0 82 -55z
M353 40q0 -41 -57 -60q-14 -4 -54 11q-38 14 -39 25q-5 43 17 57q12 9 39 9q32 0 61 -9q14 -5 21 -9.5t9.5 -9t2.5 -8v-6.5z" />
    <glyph glyph-name="percent" unicode="%" horiz-adv-x="700" 
d="M680 720q-5 -14 -22 -28q-21 -15 -28 -26l-336 -492q-2 -2 -31 -69q-20 -44 -43 -51q-11 -3 -22 -3q-27 0 -45.5 19t-20.5 54q-1 24 16 40l26 22l318 480l-214 -66q2 -10 3 -20t1 -21q0 -72 -44 -125q-45 -56 -112 -56q-98 0 -98 83q0 55 39 120q41 65 87 95q22 14 46 16
q16 1 26 2t14 2l288 84q12 3 37 19q20 13 35 13q4 0 12 -2q75 -20 75 -56q0 -14 -7 -34zM644 148q6 -81 -40 -130q-37 -39 -88 -42q-58 -3 -110 35q-51 39 -51 97q0 57 45 99q44 43 104 43q48 0 93 -36q46 -35 47 -66zM172 574q-10 3 -26 -30q-16 -32 -16 -54q0 -11 4 -12
q4 -2 9.5 0.5t10.5 8t9.5 12.5t6.5 15q6 19 8.5 29.5t2.5 13.5q0 14 -9 17zM529 153q-11 0 -31 -19q-24 -23 -24 -46q0 -16 14 -16q12 0 34 28t22 41q0 12 -15 12z" />
    <glyph glyph-name="ampersand" unicode="&#x26;" horiz-adv-x="560" 
d="M580 284q-8 -8 -29 -9q-14 -1 -23 -2t-14 -3q-14 -2 -28.5 -8.5t-29.5 -15.5q-154 -270 -276 -270q-66 0 -126 72q-31 37 -31 86q0 50 36 115q10 18 28.5 45.5t44.5 65.5q-23 -3 -54 6q-45 13 -54 52q-3 16 7 46.5t35 76.5q49 90 112 164q69 81 110 81q54 0 102 -78
q30 -50 30 -103q0 -19 -6 -29q-12 -19 -45 -19q-25 0 -40 12t-26 49q-9 30 -21 30q-20 0 -77 -83q-56 -83 -56 -105q0 -10 20 -10q22 0 72 30q49 30 65 30q24 1 42.5 -13t18.5 -39q0 -28 -25 -62q-2 -3 -27 -15q-24 -12 -29 -23q-53 -35 -96 -117q-44 -82 -44 -130
q0 -36 28 -36q30 0 73 43q45 45 59 86q-15 -4 -28.5 -1t-24 10.5t-16.5 19.5t-6 26q0 8 3 13q12 23 150 65q133 41 162 35q19 -4 32 -21.5t13 -37.5q0 -16 -11 -29z" />
    <glyph glyph-name="quotesingle" unicode="'" horiz-adv-x="160" 
d="M126 630q-1 -9 2 -23t3 -19q0 -34 -39 -34q-21 0 -42 13.5t-26 32.5q-2 10 2 25t4 23v78l-12 48q15 27 54 27q46 0 60 -33q3 -8 0 -48z" />
    <glyph glyph-name="parenleft" unicode="(" horiz-adv-x="260" 
d="M200 668q-8 -14 -16 -45t-16 -80q-12 -83 -12 -125q0 -97 10 -172.5t36 -129.5q2 -8 6 -17.5t13 -21.5q8 -11 13 -20.5t5 -17.5q0 -26 -22.5 -39t-49.5 -13q-49 0 -77 31q-12 13 -18 66q-42 154 -42 340q0 52 16 147q18 114 44 179q6 31 8 38q5 16 18 26q10 9 31 9
q33 0 65 -21q32 -20 32 -51q0 -5 -2 -15q-1 -7 -20 -27q-9 -10 -14 -20t-8 -21z" />
    <glyph glyph-name="parenright" unicode=")" horiz-adv-x="260" 
d="M238 386q0 -52 -16 -147q-18 -114 -44 -179q-6 -31 -8 -38q-5 -15 -16.5 -24t-32.5 -9q-34 0 -64 18q-33 21 -33 52q0 4 0.5 7t1.5 7q1 7 20 27q9 10 14 20.5t8 21.5q8 14 16 45t16 80q12 82 12 125q0 97 -9 173t-37 129q-3 15 -20 38t-17 39q0 26 24 41q20 13 48 13
q50 0 77 -33q12 -14 18 -66q42 -155 42 -340z" />
    <glyph glyph-name="asterisk" unicode="*" horiz-adv-x="465" 
d="M435 473q6 -8 6 -17q0 -16 -21 -31t-48 -15q-35 0 -81 46v-46q0 -7 4.5 -16.5t4.5 -13.5q0 -15 -16.5 -25t-32.5 -10q-29 0 -50 22q-7 7 -4 38q1 16 1.5 31.5t2.5 31.5q-19 -13 -68 -35q-6 -9 -40 -19q-24 -3 -52 8q-26 11 -26 29q0 4 3 9q4 9 21 14l29 9l94 47l-67 29
q-15 0 -39 12q-5 8 -5 16q0 20 28 41t58 21q8 0 17.5 -3t17.5 -16q9 -15 29 -27l2 55q-5 11 0 32q11 14 51 14q37 0 49 -19q5 -8 2 -38q-2 -13 -3.5 -25.5t-3.5 -25.5l35 15q10 10 39 22q10 0 20.5 -4t19 -10.5t14 -15.5t5.5 -18q0 -7 -5 -13.5t-17 -9.5q-17 -3 -22 -8
l-51 -32l66 -32q7 -2 15 -6t18 -11z" />
    <glyph glyph-name="plus" unicode="+" horiz-adv-x="440" 
d="M399 403q-8 1 -21 0.5t-30 -1.5l-72 -12l8 -64q1 -9 6.5 -25.5t5.5 -24.5q0 -22 -25 -34q-19 -10 -45 -10q-35 0 -48 15q-13 16 -18 51.5t-10 73.5l-42 -18q-18 -8 -36 -6q-22 2 -37 25t-15 50q0 17 9 34.5t25 17.5q4 0 16 -4.5t20 -2.5l50 8l-10 82q-1 6 -5 17t-4 17
q0 19 37 29q29 8 51 8q59 0 59 -27q0 -5 -5.5 -17.5t-4.5 -20.5l6 -72l44 8q7 1 29 8q16 6 27 6q12 0 23.5 -6.5t20 -16.5t14 -23t5.5 -25q0 -33 -28 -40z" />
    <glyph glyph-name="comma" unicode="," horiz-adv-x="190" 
d="M162 46q2 -10 2 -14q0 -14 -24 -44l-58 -78q-28 -38 -45 -40q-21 -1 -44 22q-24 22 -19 46q0 3 31 35q34 34 41 57q5 7 7 26t8 25t20 6q21 0 50 -13q28 -13 31 -28z" />
    <glyph glyph-name="hyphen" unicode="-" horiz-adv-x="370" 
d="M328 300q-7 -7 -19 -7q-3 0 -9.5 1t-14 2.5t-15 2t-12.5 -0.5l-108 -26q-8 -1 -31 -12q-15 -7 -28 -7q-12 0 -23.5 6.5t-20.5 16.5t-14 23t-5 25q0 20 12 34q4 4 31 4q17 0 28.5 1t18.5 3l114 30q45 12 55 12q12 0 23 -6q31 -18 31 -66q0 -26 -13 -36z" />
    <glyph glyph-name="period" unicode="." horiz-adv-x="190" 
d="M161 113q2 -14 -2 -28l-9 -28q-1 -13 -1 -25.5t-4.5 -22.5t-14.5 -16t-31 -6q-27 0 -49 11q-24 10 -26 32q0 7 5 22q5 12 7 20q1 5 1 38q-1 45 48 45q26 0 49 -11.5t27 -30.5z" />
    <glyph glyph-name="slash" unicode="/" horiz-adv-x="520" 
d="M510 738q0 -12 -20 -30q-24 -19 -30 -32l-308 -584q-7 -12 -23 -66q-12 -35 -27 -38q-24 -4 -61 15q-41 24 -41 57q2 17 14 32q10 11 15 18.5t7 9.5l330 618q2 4 4.5 13.5t6.5 26.5q6 25 21 32q12 5 23 5q32 0 60 -22q30 -26 29 -55z" />
    <glyph glyph-name="zero" unicode="0" horiz-adv-x="570" 
d="M502 396q0 -173 -49 -290q-61 -145 -179 -140q-119 5 -174 146q-42 109 -42 284q0 134 50 257q65 158 184 158q106 0 163 -141q47 -117 47 -274zM358 396q-1 65 -3 109.5t-7 70.5q-17 96 -68 96q-29 0 -54 -96q-23 -87 -24 -180q-3 -98 17 -195q22 -105 55 -105
q28 0 57 105q28 102 27 195z" />
    <glyph glyph-name="one" unicode="1" horiz-adv-x="570" 
d="M382 6q-14 -29 -66 -29q-50 0 -91 23q-45 27 -39 64q3 15 22 34q18 18 18 34l-18 444q-2 24 -45 46t-45 56q30 62 69 100q37 35 67 38q41 4 76 -23q34 -26 32 -67q0 -6 -3.5 -12.5t-7.5 -14t-7.5 -14.5t-3.5 -13l16 -528q0 -11 5 -23.5t13 -26.5q17 -28 17 -47t-9 -41z
" />
    <glyph glyph-name="two" unicode="2" horiz-adv-x="570" 
d="M532 123q16 -22 16 -43q0 -29 -29 -49t-59 -20q-14 0 -42 6q-25 6 -33 5q-23 4 -56 -1t-77 -14l-119 -24q-28 -3 -65 13q-44 18 -46 47q-2 21 24 35q30 16 36 29q73 77 167 212q145 206 145 304q0 36 -21 56q-1 1 -5 1q-15 0 -61 -38q-41 -35 -49 -47q-12 -8 -19 -39
q-7 -27 -31 -37q-8 -3 -17 -3q-30 0 -62 23q-34 25 -39 58q-2 16 30 48q16 16 33.5 29.5t36.5 24.5q112 115 192 114q147 -3 147 -152q0 -118 -89 -285q-84 -158 -188 -251q14 2 54.5 10t109.5 22q46 9 44 9q41 0 72 -43z" />
    <glyph glyph-name="three" unicode="3" horiz-adv-x="570" 
d="M518 372q2 -6 2 -12q0 -69 -112 -217q-112 -149 -180 -161q-35 -6 -102 54q-64 59 -70 90q-3 12 1.5 23t13.5 19t21 13t24 5q32 -2 62 -24q32 -23 46 -24q15 -1 82 87q67 89 67 124q0 17 -24 17q-13 0 -30.5 -12.5t-34.5 -23.5q-7 -2 -14.5 -8l-17.5 -14q-17 -16 -34 -16
q-31 0 -63 32q-35 34 -33 72q1 25 38 38q53 18 58 22q42 32 92 101q50 71 50 102q0 9 -4 13q-7 6 -47 -28q-38 -30 -69 -66q-10 -7 -27 -37q-13 -21 -33 -29q-9 -4 -22 -4q-16 0 -31.5 6.5t-28 17.5t-22.5 25t-14 29q-7 24 129 127t195 103q50 0 80 -36q30 -34 28 -84
q-3 -83 -28 -131q-17 -34 -74 -97q52 -13 80 -32q32 -22 46 -64z" />
    <glyph glyph-name="four" unicode="4" horiz-adv-x="570" 
d="M570 348q1 -14 -5 -26t-16 -21t-23 -14.5t-26 -5.5q-7 0 -21.5 4t-24.5 3q-8 -2 -21.5 -2.5t-32.5 -1.5q0 -72 -0.5 -110.5t-1.5 -43.5q0 -21 13 -53q14 -34 14 -47q0 -33 -57 -60q-6 -3 -15 -3q-35 0 -78 38q-42 39 -37 77q2 9 17 27q17 20 17 43q-1 38 -1.5 64.5
t-0.5 41.5q-48 -14 -126 -24q-9 -2 -27 -15q-14 -11 -27 -9q-27 4 -54 36q-29 35 -26 72q3 23 21 33q25 14 29 21l204 366q6 11 5 36q0 25 9 36q13 16 35 16q39 0 86 -41t47 -79q0 -19 -24 -67t-24 -79v-158q24 10 82 24q31 1 59 -22q28 -22 31 -56zM276 534l-90 -174l84 18
z" />
    <glyph glyph-name="five" unicode="5" horiz-adv-x="570" 
d="M542 720q0 -25 -19 -43t-47 -23q-13 -3 -36 8q-22 12 -36 10l-162 -22q1 -98 0 -144q56 40 132 40q24 0 46 -8t38.5 -23t26 -36t9.5 -47q0 -77 -54 -201q-46 -106 -110 -198q-62 -88 -86 -85q-47 6 -138 87q-90 82 -82 111q12 41 68 41h9t9 -1q21 -3 50 -29
q28 -25 52 -25q26 0 75 109q51 109 51 157q0 18 -13 18q-15 0 -76 -46q-61 -45 -85 -40q-16 4 -29 20t-25 32q-15 12 -31.5 25.5t-18.5 30.5q-2 16 21 36t23 36v116q0 7 -1.5 19.5t-5.5 32.5q-7 38 -7 56q0 15 4 22q11 16 72 17q56 2 84 3.5t30 1.5q25 3 57.5 8t74.5 12
q57 9 66 9q64 0 64 -87z" />
    <glyph glyph-name="six" unicode="6" horiz-adv-x="570" 
d="M504 602q-14 -39 -84 -39q-56 0 -78 27q-8 11 -8 25q0 5 1 14.5t1 14.5q0 15 -10 24q-7 31 -32 30q-23 -2 -48 -73q-26 -72 -30 -147q31 46 84 46q83 0 137 -72q51 -67 55 -162q4 -78 -45 -186q-55 -124 -129 -124q-116 0 -183 95q-67 96 -69 263q-1 207 60 343
q62 137 156 137q105 0 172 -124q53 -38 53 -74q0 -9 -3 -18zM348 242q7 31 7 67q0 91 -43 101q-22 4 -47 -46q-11 -22 -18.5 -46.5t-12.5 -51.5q-2 -14 -3.5 -28.5t-1.5 -31.5q0 -88 29 -96q27 -7 55 39q13 20 21.5 43.5t13.5 49.5z" />
    <glyph glyph-name="seven" unicode="7" horiz-adv-x="570" 
d="M524 698q-5 -20 -33 -38q-32 -20 -39 -36l-216 -486q-9 -19 -12 -98q-1 -54 -38 -68q-17 -6 -34 -6q-46 0 -84 31q-38 29 -36 67q1 27 27 48q30 25 37 40l230 514l-120 -42q-2 -1 -12.5 -6.5t-29.5 -15.5q-23 -12 -42 -8q-23 4 -46 36q-22 31 -22 64q0 24 14.5 41
t49.5 15q48 -3 58 0q59 9 169 45q92 31 101 29q38 -11 59.5 -38t21.5 -62q0 -13 -3 -26z" />
    <glyph glyph-name="eight" unicode="8" horiz-adv-x="570" 
d="M476 210q0 -64 -89 -151q-88 -85 -149 -85q-43 0 -103 54q-65 60 -65 114q0 25 9.5 56.5t33.5 67.5l81 124q-122 66 -114 198q3 61 59 132q60 73 131 90q25 6 50 6q71 0 109 -51q35 -46 35 -117q0 -56 -31 -114q-12 -25 -71 -108q60 -61 83 -98q31 -52 31 -118zM317 675
q-8 0 -18 -5t-19.5 -12.5t-18 -17.5t-13.5 -20q-18 -36 -18 -60q0 -33 32 -54q72 133 72 153q0 16 -17 16zM300 170q23 29 23 69q0 38 -23 47q-14 -20 -29.5 -40t-29.5 -40q-19 -26 -27.5 -45.5t-8.5 -31.5q0 -19 18 -19q30 0 77 60z" />
    <glyph glyph-name="nine" unicode="9" horiz-adv-x="570" 
d="M498 456q1 -104 -14.5 -189t-46.5 -154q-61 -135 -155 -135q-105 0 -172 122q-53 38 -53 74q0 9 3 18q13 39 84 39q55 0 78 -27q8 -11 8 -25q0 -5 -1 -14.5t-1 -14.5q0 -15 10 -24q7 -31 32 -30q23 2 48 73q25 72 30 147q-31 -46 -84 -46q-83 0 -137 72q-51 67 -55 162
q-2 39 9.5 85.5t35.5 100.5q57 126 129 126q116 0 183 -97q67 -96 69 -263zM330 528q2 14 3.5 28.5t1.5 31.5q0 88 -29 96q-27 7 -55 -39q-13 -20 -21.5 -43.5t-13.5 -49.5q-7 -31 -7 -67q0 -91 43 -101q22 -4 47 46q11 22 18.5 46.5t12.5 51.5z" />
    <glyph glyph-name="colon" unicode=":" horiz-adv-x="230" 
d="M191 503q2 -14 -2 -28l-9 -28q-1 -13 -1 -25.5t-4.5 -23t-14.5 -17t-31 -6.5q-27 0 -49 11q-24 13 -26 34q0 7 5 22q5 12 7 20q1 5 1 38q-1 45 48 45q26 0 49 -11.5t27 -30.5zM161 113q2 -14 -2 -28l-9 -28q-1 -13 -1 -25.5t-4.5 -22.5t-14.5 -16t-31 -6q-27 0 -49 11
q-24 10 -26 32q0 7 5 22q5 12 7 20q1 5 1 38q-1 45 48 45q26 0 49 -11.5t27 -30.5z" />
    <glyph glyph-name="semicolon" unicode=";" horiz-adv-x="190" 
d="M167 503q2 -14 -2 -28l-9 -28q-1 -13 -1 -25.5t-4.5 -23t-14.5 -17t-31 -6.5q-27 0 -49 11q-24 13 -26 34q0 7 5 22q5 12 7 20q1 5 1 38q-1 45 48 45q26 0 49 -11.5t27 -30.5zM150 34q1 -4 1 -10q0 -12 -10 -21t-19 -21l-54 -69q-12 -16 -23.5 -23t-19.5 -8
q-24 -1 -49 15q-30 19 -26 41q0 2 33 35q15 16 25 30t14 27q3 4 4.5 11.5t3 15.5t3.5 15t5 10q4 4 14 4q23 0 59 -17q34 -16 39 -35z" />
    <glyph glyph-name="less" unicode="&#x3c;" horiz-adv-x="380" 
d="M345 514q2 -19 -18 -34q-17 -14 -26 -20.5t-10 -7.5l-159 -186l174 -164q34 -31 34 -58q0 -11 -4 -20q-17 -42 -63 -42q-16 0 -37 8q-19 8 -21 19.5t-3 25.5q-2 10 -8 17l-128 116q-26 23 -39 44t-13 43q0 42 56 106q58 65 115 127q2 3 7 12t13 25q10 21 28 29q9 4 25 4
q13 0 26.5 -4t24 -10t18 -14t8.5 -16z" />
    <glyph glyph-name="equal" unicode="=" horiz-adv-x="390" 
d="M350 458q-7 -7 -19 -7q-3 0 -9.5 1t-14 2.5t-15 2t-12.5 -0.5l-108 -26q-8 -1 -31 -12q-15 -7 -28 -7q-12 0 -23.5 6.5t-20.5 16.5t-14 23t-5 25q0 20 12 34q4 4 31 4q17 0 28.5 1t18.5 3l114 30q45 12 55 12q12 0 23 -6q31 -18 31 -66q0 -26 -13 -36zM338 300
q-7 -7 -19 -7q-3 0 -9.5 1t-14 2.5t-15 2t-12.5 -0.5l-108 -26q-8 -1 -31 -12q-15 -7 -28 -7q-12 0 -23.5 6.5t-20.5 16.5t-14 23t-5 25q0 20 12 34q4 4 31 4q17 0 28.5 1t18.5 3l114 30q45 12 55 12q12 0 23 -6q31 -18 31 -66q0 -26 -13 -36z" />
    <glyph glyph-name="greater" unicode="&#x3e;" horiz-adv-x="380" 
d="M177 52q-6 -6 -8 -33q0 -18 -24 -29q-21 -8 -37 -8q-47 0 -63 42q-4 9 -4 20q0 27 34 58l174 164l-159 186q-1 1 -10 8t-26 20q-21 16 -18 34q1 8 8.5 16t18 14t24 10t26.5 4q16 0 25 -4q18 -8 28 -28q8 -17 13 -26.5t7 -11.5q8 -11 37 -42.5t80 -84.5q59 -62 59 -100
q0 -20 -13 -39.5t-37 -42.5z" />
    <glyph glyph-name="question" unicode="?" horiz-adv-x="410" 
d="M342 774q55 -43 55 -103q0 -57 -60 -160q-80 -137 -97 -181q-7 -17 -7 -28q0 -3 2 -10t1 -14q1 5 1 -4.5t1 -32.5q0 -19 -11 -26.5t-25 -7.5q-30 0 -62 26q-31 27 -34 57q-5 47 76 198q84 156 84 196q0 27 -14 27q-16 0 -45 -26.5t-65 -84.5q-6 -6 -15 -24
q-8 -18 -20 -24.5t-28 -6.5q-14 0 -27 5t-23.5 13t-16.5 19.5t-6 23.5q1 40 48 58q56 67 92 97q56 46 109 46q43 0 87 -33zM278 -14q-13 -22 -38 -22q-23 0 -47.5 17t-36.5 37q-8 14 -8 32v36q0 9 -5 24t-5 22q0 10 6.5 19t39.5 9q61 0 80 -34q8 -14 8 -32v-34
q0 -10 5.5 -28.5t5.5 -27.5q0 -8 -5 -18z" />
    <glyph glyph-name="at" unicode="@" horiz-adv-x="906" 
d="M526 24q-93 -31 -184 -31q-140 0 -220 74q-98 92 -98 278q0 182 144 319q145 136 333 136q182 0 286 -105q88 -88 88 -224q0 -116 -66 -198q-71 -89 -179 -89q-111 0 -138 120q-23 -41 -41.5 -68t-31.5 -42q-26 -29 -51.5 -44t-54.5 -15q-129 0 -129 141q0 100 66 210
q68 110 157 141q10 3 22 3t25 -4t23.5 -10.5t17 -15t6.5 -17.5q0 -6 -3 -12q-4 -10 -28 -13q-23 -3 -28 -15q-28 -13 -52.5 -44t-48.5 -81q-21 -45 -32.5 -80.5t-11.5 -61.5q0 -25 12 -25q10 0 23 16q16 16 26 27t15 17q17 22 28 49q18 50 16 76q-5 17 -6 47q8 35 62 35
q40 0 72 -17q39 -20 47 -118q7 -87 38 -87q50 0 87 58q38 59 38 133q0 89 -57 146q-68 65 -200 65q-143 0 -255 -136q-107 -128 -107 -266q0 -93 53 -145q59 -59 177 -59q58 0 129 37q12 1 33 19q19 18 39 18q25 0 51 -20t26 -44q0 -68 -118 -78z" />
    <glyph glyph-name="A" unicode="A" horiz-adv-x="620" 
d="M588 204q-7 -13 -31 -16q-1 0 -12 -0.5t-31 -1.5q8 -45 52 -112q26 -20 26 -50q0 -48 -60 -48q-56 0 -78 28q-8 10 -9 27v11t-1 12q-9 9 -54 116q-42 -6 -92 -14.5t-110 -19.5q-13 -31 -26 -84q1 -5 1.5 -9.5t0.5 -9.5q0 -26 -18 -40.5t-43 -14.5q-14 0 -27.5 5.5
t-24.5 15t-17.5 22t-6.5 26.5q0 25 23 45q75 379 182 630q-1 6 -1.5 12t-0.5 12q0 50 34 66q13 6 36 6q43 0 70 -13q36 -18 36 -54q0 -34 -18 -59q10 -85 30 -182.5t52 -209.5l41 10q11 2 19 4t13 2q13 0 21 -6q35 -27 35 -66q0 -20 -11 -40zM348 280q-16 61 -54 242
q-70 -154 -84 -266z" />
    <glyph glyph-name="B" unicode="B" horiz-adv-x="490" 
d="M471 338q0 -63 -65 -143q-7 -8 -39 -42t-91 -95q-10 -18 -19 -35.5t-19 -34.5q-26 -35 -60 -30q-67 7 -114 70q-16 20 -16 39q0 20 22 38q-5 28 -9.5 102t-9.5 196q-4 100 -5.5 168t-1.5 105q-21 33 -21 68q0 25 15 42q11 11 32 11q53 0 88 -41q97 36 158 36q69 0 92 -44
q15 -29 15 -62q0 -104 -113 -220l92 -28q22 -7 35.5 -18t21 -24.5t10 -28t2.5 -29.5zM258 668q-24 0 -92 -44q0 -5 0.5 -19.5t1.5 -39.5t1.5 -41t0.5 -24q39 33 73 81q34 47 34 71q0 16 -19 16zM292 350q-57 0 -110 -44l4 -152q143 113 143 169q0 27 -37 27z" />
    <glyph glyph-name="C" unicode="C" horiz-adv-x="450" 
d="M420 211q-94 -235 -190 -237q-116 -2 -168 118q-40 91 -42 241q-1 167 44 306q52 160 141 171q7 1 13 1h12q83 0 128 -74q33 -56 56 -178q17 -51 17 -60q0 -33 -41 -51q-8 -4 -21 -4q-30 0 -64 19q-41 23 -41 48q0 3 14 39q-1 22 -5 42.5t-11 40.5q-13 39 -32 44
q-28 7 -49 -111q-9 -49 -14.5 -102.5t-7.5 -113.5q-3 -91 10 -165q15 -87 45 -93q18 -3 43 45q12 22 22 48t18 56q-1 5 -1.5 9.5t-0.5 9.5q0 59 72 59q15 0 32 -3q49 -10 49 -49q0 -32 -28 -56z" />
    <glyph glyph-name="D" unicode="D" horiz-adv-x="490" 
d="M476 652q2 -34 -9.5 -92t-36.5 -143q-52 -179 -120 -307q-80 -150 -148 -150q-35 0 -66 30q-31 28 -31 61q0 15 9 27q-17 431 -12 586q-21 34 -21 51q0 24 27 42q25 17 50 17q23 0 40 -14q130 51 173 51q21 0 45 -11q34 -17 63 -56q34 -46 37 -92zM340 682q-11 12 -26 12
q-31 0 -122 -72q-6 -75 -6 -166q0 -130 12 -268q26 65 50.5 132t47.5 139q48 153 48 204q0 15 -4 19z" />
    <glyph glyph-name="E" unicode="E" 
d="M410 702q-22 -19 -59 -19q-16 0 -35 3q-14 -5 -27.5 -9t-24.5 -9q-56 -21 -74 -36q-6 -104 0 -238q4 3 30 8q12 21 41 21q30 0 67 -28q39 -29 39 -55q0 -7 -3 -14q-12 -31 -37 -38q-15 -5 -44 -3q-30 3 -37 -1l-56 -26q0 -91 6 -116q41 10 70 24q2 4 5 7t5 6q10 10 36 9
q27 -1 58 -32q30 -30 30 -61q0 -27 -23 -40t-77 -9l-94 -46q-6 -3 -26 -20q-14 -13 -27 -13q-6 0 -9 1q-26 8 -50 28t-46 54q-3 4 -3 12q0 1 11 40q-5 146 -6.5 300.5t2.5 319.5q-7 10 -7 20q0 33 61 42q7 1 15 -0.5t18 -6.5l25 -13l120 38q2 1 23 12q14 8 30 8q4 0 9 -0.5
t10 -1.5q21 -4 43 -35t22 -57q0 -17 -11 -26z" />
    <glyph glyph-name="F" unicode="F" horiz-adv-x="420" 
d="M416 734q1 -45 -39 -55q-2 -2 -75 -6q-7 0 -8 -1q-31 -14 -53.5 -24.5t-36.5 -15.5q-5 -45 -6 -104t4 -134l40 27q24 28 40 27q17 -1 33 -9.5t33 -23.5q34 -31 34 -63q0 -14 -6 -24q-10 -22 -55 -24q-49 -1 -67 -16q-14 -5 -26.5 -17.5t-23.5 -24.5q-7 -67 0 -188
q5 -15 5 -25q0 -31 -35 -49q-13 -7 -31 -7q-33 0 -59 19q-30 18 -36 50q-2 14 4.5 21t13.5 13q-6 436 0 644q-1 5 -1 9.5v8.5q0 52 63 52q5 0 11 -0.5t13 -1.5q21 -3 30 -8q1 -1 4.5 -4t9.5 -10q10 4 26 9t38 13q10 6 21.5 13.5t36.5 7.5q29 0 63 -25q33 -25 35 -54z" />
    <glyph glyph-name="G" unicode="G" horiz-adv-x="490" 
d="M492 294q-13 -17 -47 -19q-14 -1 -27.5 -1h-27.5q-14 -105 -49 -189q-37 -87 -81 -105q-8 -3 -16 -3q-39 0 -91 44q-28 25 -51.5 57t-40.5 70q-41 89 -41 198q2 177 49 309q57 159 155 161q72 1 119 -92q17 -35 29.5 -79t19.5 -99q16 -19 16 -44t-16 -40.5t-40 -15.5
q-28 0 -58 13q-29 13 -40 29q-6 9 -6 19q0 -7 8 39q-14 116 -32 116q-15 0 -41 -110q-27 -116 -27 -204q0 -61 20 -143q21 -79 36 -79q14 0 32 43t24 87q-23 10 -48 38q-27 30 -27 55q0 16 14 27.5t47 12.5q89 2 98 3q15 7 31.5 14.5t29.5 7.5q32 0 60 -28q30 -29 30 -59
q0 -19 -11 -33z" />
    <glyph glyph-name="H" unicode="H" horiz-adv-x="500" 
d="M438 332q-2 -40 -1.5 -97.5t3.5 -132.5q0 -5 2 -12.5t5 -15.5t5 -15t2 -11q0 -21 -34 -34q-8 -3 -18 -3q-33 0 -70 18q-44 21 -44 50q0 13 9.5 34t18.5 41v172l-134 -28v-59t1 -79t1 -67v-23q0 -12 6 -37q7 -24 7 -35q0 -20 -13.5 -32.5t-36.5 -12.5q-24 0 -49 13
t-33.5 26t-8.5 19l8 21v56.5t-1 83.5t-1 79.5v44.5l-24 43q-14 24 -10 43q2 11 12 18l20 14q-2 120 -1 200t3 122q-9 18 -9 29q0 22 31 37q13 6 37 6q78 0 95 -42q3 -8 3 -15q0 -14 -18 -42q-17 -28 -17 -45q-3 -81 -3.5 -140t1.5 -98q96 16 130 26q-5 61 -4 132.5t6 153.5
q-9 25 -9 41q0 30 37 49q7 4 23 4q34 0 68 -17q37 -20 39 -51q2 -14 -18 -35q-18 -21 -18 -37q-1 -72 -0.5 -132.5t2.5 -109.5q8 -6 16.5 -16.5t16 -21.5t12 -22t4.5 -19q0 -16 -17 -24t-32 -15z" />
    <glyph glyph-name="I" unicode="I" horiz-adv-x="240" 
d="M214 8q-9 -24 -52 -24q-6 0 -12.5 0.5t-13.5 1.5q-83 14 -96 48q-3 7 -3 14q0 21 23 42l-18 612q0 6 -2 14t-5 16t-5.5 15t-2.5 11q0 18 23 38q17 14 45 14q31 0 70 -17q44 -21 44 -51q0 -8 -21 -54l10 -606q0 -6 3 -14t6 -16.5t6 -16t3 -13.5q0 -4 -0.5 -7t-1.5 -7z" />
    <glyph glyph-name="J" unicode="J" 
d="M419 732q-1 -22 -17 -35q-15 -12 -15 -23q-4 -5 -5 -269q-3 -283 -19 -363q-4 -27 -41 -51q-36 -25 -73 -21q-48 6 -101 70q-14 17 -40 56t-67 102q-6 6 -13 11t-13 11.5t-10 16t-4 23.5q0 19 43 29q36 9 77 9q26 0 30 -4q18 -15 21 -43q5 -39 11 -49l17 -47
q9 -23 23 -25q29 -2 29 347q0 114 -3 231q0 10 -1.5 28.5t-1.5 25.5q0 43 53 54q23 5 70 -23q51 -30 50 -61z" />
    <glyph glyph-name="K" unicode="K" horiz-adv-x="560" 
d="M570 108q3 -11 3 -23q0 -42 -33 -78q-33 -35 -71 -35q-14 0 -23 4q-36 14 -48 57q-14 53 -32 67l-180 140l12 -120q2 -16 10 -39q9 -24 9 -36q0 -21 -19.5 -38.5t-47.5 -17.5q-30 0 -66 22q-38 26 -38 55q0 6 3.5 12t8 12t7.5 12t3 12l-26 590q0 6 -3.5 14.5t-7 16.5
t-6.5 15t-3 12q0 19 26 42q7 5 32 5q89 0 112 -41q6 -11 6 -21q0 -5 -3 -12t-6 -15l-6 -16t-3 -14v-244l168 298q5 13 9.5 26t9.5 26q13 27 46 27q31 0 65 -23q37 -25 32 -56q-5 -23 -19 -30q-18 -10 -23 -18l-202 -352l232 -176q21 -13 43.5 -27t28.5 -33z" />
    <glyph glyph-name="L" unicode="L" horiz-adv-x="420" 
d="M422 154q6 -12 6 -27q0 -25 -15.5 -48t-36.5 -31q-18 -7 -58 -7q-37 0 -55 -5q-15 -4 -39 -31q-21 -21 -66 -27q-15 -2 -30 3t-29 16t-24.5 26t-16.5 33q-1 4 -1.5 7t-0.5 6q0 12 14 29q15 17 14 28l-42 606q0 2 -3.5 7t-7 11.5l-7 13t-3.5 11.5q0 13 15 27q20 19 60 19
q16 0 32.5 -4t30.5 -10.5t24.5 -15t14.5 -17.5q5 -12 5 -19q0 -9 -9 -18t-8 -17l36 -552l60 24q20 8 39 17t32 9q36 0 69 -64z" />
    <glyph glyph-name="M" unicode="M" horiz-adv-x="930" 
d="M908 2q-23 -32 -67 -32q-39 0 -83 26q-39 21 -44 44q-2 10 -2 15q0 17 13 36q14 21 13 35l-30 336l-172 -388q-3 -8 -3 -19q0 -8 2.5 -25t2.5 -26q0 -22 -18 -34q-26 -18 -61 -18t-63.5 18.5t-35.5 47.5q-1 5 -1.5 8.5t-0.5 7.5q0 7 2 17t2 15q0 4 -2 12l-144 384
l14 -362q0 -7 2 -17t5 -23q6 -26 6 -37q0 -36 -55 -57q-4 -1 -8 -1.5t-9 -0.5q-31 0 -64 21q-39 23 -49 59q-2 8 -2 11q0 5 3.5 10.5t8 11.5t8.5 12t4 11l-12 570q0 7 -3 16.5t-7 19t-7 18t-3 14.5q0 9 4 18.5t14 18t25 14t38 5.5q65 0 105 -32q22 -18 22 -38q0 -5 -1 -9v-9
q0 -9 3 -16l198 -480l222 510q4 8 4 21q0 7 -1 12v12q0 22 21 39q16 13 45 13q42 0 83 -26t40 -59q-2 -17 -15 -27q-14 -11 -13 -19l42 -590q1 -10 16 -35q15 -24 15 -39q0 -10 -7 -20z" />
    <glyph glyph-name="N" unicode="N" horiz-adv-x="600" 
d="M580 72q-2 -36 -25 -60t-57 -22q-85 4 -116 82q-5 12 -6 39q-1 22 -10 39q-19 29 -35.5 56.5t-32.5 53.5q-38 64 -66 117.5t-46 96.5q-2 -51 2 -146.5t14 -237.5q0 -7 10 -27t10 -35q0 -19 -12 -32q-16 -22 -51 -22q-36 0 -71 23q-33 20 -38 51q-3 24 13 37t15 23
l-30 612q0 5 -2 15t-2 15q0 15 15.5 24t43.5 9q75 0 107 -39q9 -11 9 -24q0 -6 -2 -16t-2 -14t1 -6q8 -51 61 -157.5t149 -270.5l-12 488q0 9 -7 20t-7 17q0 13 20 33q10 12 34 12q36 0 76 -26q38 -25 40 -56q1 -19 -16 -30q-16 -10 -16 -22l14 -548q0 -15 14 -36
q7 -11 11 -19.5t3 -16.5z" />
    <glyph glyph-name="O" unicode="O" horiz-adv-x="540" 
d="M513 420q7 -132 -46 -277q-52 -141 -113 -159q-12 -4 -24 -6t-23 0l-47 6q-206 24 -227 436q-6 112 36 240q39 118 81 147q10 7 22 7q4 0 12 -1.5t16 -4t16 -4t13 -1.5q6 0 16.5 1.5t26.5 3.5q31 6 47 6q15 0 23 -4q154 -63 171 -390zM378 420q-11 125 -27 188
q-28 106 -83 106q-14 0 -32 -8q-16 -7 -43 -103q-28 -102 -28 -183q0 -103 36 -217q36 -113 69 -113q31 0 69 102q40 105 40 201v13.5t-1 13.5z" />
    <glyph glyph-name="P" unicode="P" horiz-adv-x="450" 
d="M450 756q15 -23 15 -59q0 -86 -95 -268q-99 -191 -162 -191q-17 0 -24 18q-3 -23 -3 -58q0 -30 1.5 -64.5t5.5 -73.5q0 -3 1.5 -9.5t3.5 -13.5t3.5 -13.5t1.5 -10.5q0 -17 -26 -31q-12 -6 -32 -6q-34 0 -62 15q-33 15 -38 41q-1 5 -1 12q0 15 10.5 27.5t10.5 16.5
l-18 648q0 3 -3 12t-3 14q0 17 26 28q21 8 42 8q6 0 56 -6q6 0 59 21q53 22 95 22q81 0 136 -79zM301 716q-24 0 -62 -26q-36 -25 -65 -58l4 -230q44 34 95 132q52 100 52 152q0 30 -24 30z" />
    <glyph glyph-name="Q" unicode="Q" horiz-adv-x="580" 
d="M610 -10q6 -34 -22 -56q-27 -23 -62 -18q-27 4 -65 45q-31 32 -49 51t-24 24q-11 -9 -21 -18.5t-22 -17t-28 -12.5t-37 -6q-132 -3 -197 133q-53 114 -53 281q0 133 68 271q69 137 136 137q13 0 28.5 -5t25.5 -5q14 -1 34 4.5t44 5.5q77 0 125 -115q43 -101 43 -227
q0 -51 -3 -93t-8 -74q-17 -97 -61 -175l96 -86l29 -12q18 -7 23 -32zM396 438q0 98 -18 167q-24 89 -70 89q-40 0 -84 -101q-44 -102 -44 -197q0 -112 20 -198q26 -104 74 -106q14 0 21 10t13 20l-50 42l-22 12t-14 24q-3 26 23 48t55 22q11 0 18 -4q4 -2 5.5 -10t4.5 -10
l34 -28q34 87 34 220z" />
    <glyph glyph-name="R" unicode="R" horiz-adv-x="570" 
d="M594 66q1 -4 1 -11q0 -30 -35 -51q-36 -19 -73 -19q-24 0 -37 9q-5 3 -9 9t-8 13.5t-8.5 14t-8.5 9.5l-221 148l9 -92q1 -6 15 -29q15 -23 15 -37q0 -22 -28 -40q-17 -12 -43 -12q-37 0 -69 20q-34 18 -42 50q-1 4 -1 10q0 7 4.5 13t9.5 11.5t9 10t4 9.5l-32 570
q-2 15 -11 34q-10 21 -10 32q0 26 34 42q30 14 57 14q19 0 33 -6q14 -5 19 -16.5t12 -11.5q1 -1 61 22q72 26 123 26q77 0 124 -54q13 -14 13 -42q0 -73 -84 -206q-80 -126 -165 -200l258 -180q2 -2 50 -24q28 -13 34 -36zM326 687q-25 0 -70 -42q-5 -3 -23.5 -20.5
t-50.5 -48.5l-2 -179q63 69 112 151q50 85 50 120q0 19 -16 19z" />
    <glyph glyph-name="S" unicode="S" horiz-adv-x="490" 
d="M472 166q0 -78 -50 -137q-50 -57 -122 -57q-147 0 -216 139q-75 49 -75 83q0 17 21 28q40 22 75 22q74 0 99 -88q6 -12 12 -25t13 -23.5t15.5 -17t19.5 -6.5q59 0 59 84q0 75 -27 101q-14 12 -96 46q-68 28 -108 96q-36 60 -38 129q-2 108 54 192q58 90 144 90
q99 0 146 -80q29 -48 34 -124q11 -39 11 -69q0 -18 -5 -33q-15 -37 -59 -37q-33 0 -60 24q-29 25 -37 73q-3 16 6 32q10 16 10 18t-2 4q1 3 1 10q0 30 -35 28q-33 -1 -53 -45q-16 -37 -15 -85q3 -85 112 -136q87 -41 119 -79q47 -56 47 -157z" />
    <glyph glyph-name="T" unicode="T" horiz-adv-x="480" 
d="M468 690q-11 -21 -47 -21q-48 0 -55 -3q-19 -8 -40 -17t-46 -19q-3 -77 -3 -167q0 -93 3 -187.5t8 -191.5q0 -16 10 -37q11 -24 11 -32q0 -13 -9 -23q-23 -30 -66 -30q-39 0 -73 21q-35 20 -39 47q-3 15 15 34q19 19 19 36q-4 100 -5.5 186.5t-1.5 161.5q0 90 3 144
q-2 0 -28 -10q-17 -7 -29 -7q-15 0 -29 11q-16 14 -26 22.5t-14 13.5q-16 17 -16 38q0 4 0.5 7.5t1.5 8.5q3 13 146 57q78 23 119 37t47 18q6 2 12 7t12.5 11t14 10.5t15.5 5.5q22 3 58 -29q40 -34 40 -73q0 -14 -8 -30z" />
    <glyph glyph-name="U" unicode="U" horiz-adv-x="540" 
d="M507 769q11 -20 11 -33l-12 -36l-3 -225q-2 -105 -17 -187.5t-37 -145.5q-59 -171 -177 -177q-138 -8 -196 212q-41 153 -41 380q0 42 1 73.5t3 51.5q-10 30 -10 52q0 31 20 53q14 14 45 14q38 0 70 -18q37 -21 38 -54q1 -16 -11 -36q-5 -10 -7 -17.5t-2 -14.5
q-5 -15 4 -153q5 -79 11.5 -144t14.5 -119q21 -140 47 -138q45 1 75 210q24 166 24 310q0 14 -0.5 24t-1.5 16q1 13 -15 38q-17 26 -17 42q0 17 14 37q21 30 77 30q68 0 92 -45z" />
    <glyph glyph-name="V" unicode="V" horiz-adv-x="540" 
d="M330 96q-1 -3 -1 -9q0 -7 2.5 -25t2.5 -28q0 -29 -17.5 -47.5t-42.5 -18.5q-37 0 -81 38q-44 41 -44 76q0 4 5 22q4 11 2 22l-114 570q-1 7 -21 22q-19 15 -19 32q0 45 85 45q37 0 67.5 -12t37.5 -33q2 -8 2 -12q0 -5 -2.5 -11.5t-5.5 -14t-5 -15t-1 -13.5l72 -376
l102 400q2 5 2 10v11v26q0 31 28 49q19 11 44 11q41 0 75 -22q35 -21 35 -50q0 -9 -4 -18q-5 -10 -22 -20q-17 -11 -20 -21z" />
    <glyph glyph-name="W" unicode="W" horiz-adv-x="950" 
d="M930 804q10 -16 10 -31q0 -12 -11 -32q-14 -25 -17 -35l-148 -486q-3 -11 -5 -23.5t-2 -26.5q0 -7 0.5 -16t1.5 -21t1.5 -21t0.5 -14q0 -56 -37 -78q-34 -21 -77 -21q-55 0 -95 37q-25 22 -25 59q0 6 1 15.5t2.5 20t2.5 21t1 17.5q0 19 -4 31l-86 304l-102 -354
q-3 -13 10 -29q14 -17 14 -27q-1 -80 -42 -128q-21 -24 -57 -24q-54 0 -81 42q-9 13 -9 33q-2 30 -3 39l-144 622q-2 5 -4.5 12.5t-7.5 17.5q-9 16 -9 28q0 27 31 45q25 15 56 15q32 0 54 -16q18 -13 20 -41t4 -55l72 -386l114 416q2 8 -2.5 22t-4.5 21q0 13 11 27
q19 25 70 25q61 0 88 -35q11 -14 11 -29q0 -7 -3.5 -21t-3.5 -21q0 -5 2 -13l112 -392l122 410q1 3 2 16.5t2 38.5q2 33 20 47q34 26 78 26q46 0 66 -32z" />
    <glyph glyph-name="X" unicode="X" horiz-adv-x="610" 
d="M602 50q-5 -83 -82 -83q-31 0 -62 14t-44 31q-8 11 -8 22q0 8 5.5 20.5t5.5 18.5t-3 11l-120 206l-114 -236q-6 -14 -2 -37q4 -17 -8 -29q-16 -16 -51 -16q-40 0 -77 20q-39 18 -39 48q0 6 3 14q4 12 17 19.5t17 14.5l170 332l-162 300q-3 6 -19 12q-16 8 -17 20
q-3 27 43 49q43 22 85 22q14 0 26 -5q15 -7 20 -33q3 -17 29 -76t77 -159l82 182q5 9 9 37q4 22 15 33q16 15 49 15q39 0 70 -19q34 -22 31 -54q-3 -27 -22 -36q-24 -12 -28 -20l-130 -268l190 -318q4 -7 27 -22q18 -12 17 -30z" />
    <glyph glyph-name="Y" unicode="Y" horiz-adv-x="590" 
d="M608 748q2 -31 -28 -56q-36 -30 -44 -50l-190 -478l10 -102q2 -23 3.5 -32.5t1.5 -5.5q0 -33 -39 -46q-17 -6 -36 -6q-44 0 -75 22q-35 23 -29 60q3 18 22 44q18 23 16 44l-10 110l-148 438q-5 14 -25 43q-16 25 -16 40q0 9 5 19q13 25 81 25q45 0 55 -7q33 -21 36 -51
l6 -57l94 -292l122 316l16 40t9 21q5 12 29 23q18 8 38 8q18 0 35 -5.5t30 -14.5t21.5 -22t9.5 -28z" />
    <glyph glyph-name="Z" unicode="Z" horiz-adv-x="600" 
d="M598 708q-11 -15 -42 -24t-40 -24l-326 -534h176q14 0 33 16q21 17 37 16q22 -2 41 -10.5t32.5 -22.5t21 -31t7.5 -35q0 -42 -36 -63q-9 -6 -20 -6q-14 0 -41 10q-30 8 -45 8h-264q-10 0 -32 -8q-21 -8 -30 -6q-32 6 -52 39q-18 31 -18 67q0 18 6 32q8 15 32 22
q27 10 34 22l302 500l-164 -22q-5 -1 -12 -4t-14.5 -6t-15 -5.5t-13.5 -2.5q-10 0 -23 6q-45 22 -45 86q0 31 14 45t32 14q3 0 10.5 -1t16.5 -2.5t17.5 -2.5t14.5 -1l270 24q13 2 29 16q17 16 31 14q24 -1 53 -38t29 -67q0 -12 -6 -21z" />
    <glyph glyph-name="bracketleft" unicode="[" horiz-adv-x="390" 
d="M381 113q6 -11 6 -20q0 -26 -59 -49q-24 -4 -86 -26q-10 -10 -23 -18q-21 -15 -71 -22q-15 -2 -30 3.5t-29 16t-24.5 25.5t-16.5 33q-1 4 -1.5 7t-0.5 6q0 12 14 29q15 17 14 28l-42 606q0 2 -3.5 7t-7 11.5l-7 13t-3.5 11.5q0 13 15 27q20 17 50 17q21 0 39 -7
q19 2 26 4l75 23q40 12 54 12q13 0 24 -6q31 -18 31 -66q0 -26 -13 -36q-7 -7 -19 -7q-7 0 -24 4q-16 4 -27 1q-92 -23 -92 -33l39 -581q17 4 38 10.5t46 15.5q39 14 51 14q30 0 57 -54z" />
    <glyph glyph-name="backslash" unicode="\" horiz-adv-x="522" 
d="M510 60q1 -33 -41 -57q-37 -19 -61 -15q-15 3 -27 38q-16 54 -23 66l-308 584q-6 13 -30 32q-18 17 -20 30q0 32 29 55q14 12 29 17t31 5q11 0 23 -5q15 -7 21 -32q4 -17 6.5 -26.5t4.5 -13.5l330 -618q2 -2 7 -9.5t15 -18.5q12 -15 14 -32z" />
    <glyph glyph-name="bracketright" unicode="]" horiz-adv-x="390" 
d="M360 26q-20 -18 -50 -18q-21 0 -39 7q-16 0 -26 -3l-84 -21q-44 -12 -54 -12q-14 0 -24 6q-33 19 -33 78q0 25 12 36q7 7 19 7q7 0 24 -4q15 -3 27 -1q112 27 110 35l-49 574q-27 -3 -68 -24q-42 -20 -56 -20q-28 0 -50 43q-7 13 -7 24q0 26 48 46q39 17 83 35t95 38
q29 5 59 -21q30 -24 41 -59q1 -4 1.5 -7t0.5 -7q0 -13 -15 -29q-14 -16 -13 -27l42 -606q0 -3 3.5 -8t7 -11.5l7 -13t3.5 -11.5q0 -13 -15 -26z" />
    <glyph glyph-name="asciicircum" unicode="^" horiz-adv-x="300" 
d="M289 699q3 -6 3 -15q0 -16 -8.5 -30.5t-18.5 -15.5q-11 -1 -20 10t-17 23l-73 87l-77 -90q-18 -21 -34 -21q-6 0 -13 3q-25 10 -26 37q-1 23 11.5 31t28.5 6q7 2 9 4l49 57q32 38 52 38q17 0 40 -27l54 -68q3 -5 22 -13q14 -6 18 -16z" />
    <glyph glyph-name="underscore" unicode="_" horiz-adv-x="490" 
d="M463 -128q-8 -7 -20 -7q-6 0 -23 3.5t-27 1.5l-253 -41q-6 -1 -14 -4t-16.5 -6.5t-16.5 -6t-14 -2.5q-12 0 -23 6.5t-19.5 16.5t-13.5 23t-5 25q0 19 12 34q5 5 31 5q35 2 47 3l259 45l29 7q16 4 28 4q11 0 21 -5q30 -18 30 -66q0 -26 -12 -36z" />
    <glyph glyph-name="grave" unicode="`" horiz-adv-x="210" 
d="M204 650q-3 -15 -20 -26.5t-36 -11.5q-10 0 -22 5q-1 1 -7.5 11t-18.5 30q-23 41 -46 55q-4 6 -28 16q-20 8 -20 21q0 18 20 43q19 25 39 24q20 -2 31 -11q3 -2 8 -8.5t13 -17.5l60 -76q31 -40 27 -54z" />
    <glyph glyph-name="a" unicode="a" horiz-adv-x="460" 
d="M446 42q-15 -48 -74 -48q-20 0 -32 6q-16 10 -22 44q-12 58 -24 89q-3 -55 -60 -112q-58 -55 -115 -55q-73 0 -101 96q-10 34 -10 68q0 47 23.5 87t71.5 72q38 25 77.5 46.5t79.5 44.5q4 15 4 33q0 31 -17 36q-17 6 -29 6q-21 0 -34.5 -13.5l-25.5 -25.5
q-6 -4 -13.5 -13.5t-17.5 -23.5q-16 -24 -33 -25q-13 -2 -25.5 3.5t-22 15t-15 22t-5.5 26.5q0 15 8 29q22 37 69 66q70 42 175 42q67 0 92 -64q17 -44 24 -161q5 -72 10 -124t12 -85q1 -13 17 -33q15 -20 15 -35q0 -4 -0.5 -7t-1.5 -7zM272 288q-30 -16 -59.5 -33
t-54.5 -45q-36 -41 -36 -70q0 -25 18 -50q11 -14 22 -14q13 0 27.5 15t29 43t28 67t25.5 87z" />
    <glyph glyph-name="b" unicode="b" 
d="M412 270q0 -114 -29 -187q-37 -93 -121 -93q-62 0 -108 64q1 -8 6 -23t5 -22q0 -8 -5 -13q-13 -16 -52 -16q-62 0 -74 26q-4 8 -4 17q0 10 8 25.5t8 26.5v570q0 13 -6.5 31.5t-6.5 29.5q0 12 4 23q12 36 62 36q61 0 82 -45q5 -12 5 -20q0 -13 -13 -38t-13 -41v-129
q43 66 84 66q73 0 123 -95q45 -87 45 -193zM280 270q0 61 -11 113q-13 61 -37 61q-21 0 -40 -66q-20 -63 -20 -108q0 -61 18 -121q20 -65 42 -65q49 0 49 113v37q0 13 -0.5 22t-0.5 14z" />
    <glyph glyph-name="c" unicode="c" horiz-adv-x="380" 
d="M369 166q-2 -23 -19 -45q-28 -32 -36 -50q-62 -95 -130 -95q-80 0 -123 79q-39 73 -39 184q0 126 48 221q53 104 137 104q67 0 107 -73q34 -61 34 -135q0 -20 -3 -35q-7 -34 -57 -34q-39 0 -60 22q-10 10 -10 51q0 5 0.5 12t0.5 17v29q0 45 -16 45q-17 0 -36 -99
q-10 -49 -14.5 -95t-4.5 -89q0 -100 30 -100q20 0 35 15.5t23 47.5q9 11 9 36q1 24 12.5 31.5t34.5 7.5q30 0 52 -13q26 -16 25 -39z" />
    <glyph glyph-name="d" unicode="d" 
d="M396 6q-12 -26 -74 -26q-39 0 -52 16q-5 5 -5 13q0 7 5 22t6 23q-46 -64 -108 -64q-84 0 -121 93q-29 73 -29 187q0 106 45 193q50 95 123 95q40 0 84 -66v129q0 16 -13 41t-13 38q0 8 5 20q21 45 82 45q50 0 62 -36q4 -11 4 -23q0 -11 -6.5 -29.5t-6.5 -31.5v-570
q0 -11 8 -26.5t8 -25.5q0 -9 -4 -17zM258 270q0 48 -19 108q-21 66 -41 66q-24 0 -37 -61q-11 -52 -11 -113q0 -5 -0.5 -14t-0.5 -22v-37q0 -113 49 -113q22 0 42 65q18 60 18 121z" />
    <glyph glyph-name="e" unicode="e" horiz-adv-x="380" 
d="M390 105q-8 -38 -54 -81q-9 -12 -55 -28q-55 -21 -95 -18q-75 4 -118 85q-39 75 -39 184q0 117 44 207q50 98 131 110q8 1 15.5 1.5t15.5 0.5q119 0 131 -146q6 -66 -53 -146q-65 -88 -164 -122q5 -20 9.5 -33t7.5 -19q13 -25 38 -25q23 0 49 18q22 15 30 29q3 1 8 22
q4 21 21 30q6 3 14 3q23 0 46 -24q22 -23 18 -48zM233 457q-40 0 -65 -57q-33 -77 -27 -150q47 15 87 70t40 98q0 39 -35 39z" />
    <glyph glyph-name="f" unicode="f" horiz-adv-x="360" 
d="M390 474q-9 -26 -37 -29q-14 -2 -27 -3l-26 -2l-72 -20l-1 -325q0 -27 19 -49t19 -35q0 -7 -3 -13q-14 -35 -59 -35q-29 0 -53.5 14.5t-29.5 34.5q-6 25 -6 66v312q-20 -9 -42 -6q-69 9 -69 56q0 13 9 30q6 10 36 15q23 4 38 7.5t22 5.5q1 149 26 215q33 91 130 121
q4 1 7.5 1.5t8.5 0.5q28 0 58 -18q31 -18 28 -32q-4 -20 -36 -31q-38 -14 -50 -27q-37 -44 -47 -92q-9 -36 -7 -106q6 1 49 15q14 4 26 6t23 1q25 -1 46 -21q22 -19 22 -43q0 -4 -0.5 -7t-1.5 -7z" />
    <glyph glyph-name="g" unicode="g" horiz-adv-x="420" 
d="M378 531q2 -87 9 -283q2 -70 3 -119.5t1 -79.5q0 -131 -21 -179q-21 -47 -85 -53q-81 -6 -141 42q-29 9 -38 14q-18 11 -22 34q-9 47 74 47q11 0 20.5 -1.5t19.5 -3.5q14 -3 31 -23q16 -20 32 -22q29 -2 29 82q0 17 -1.5 46t-3.5 70q-36 -62 -52 -79q-32 -33 -77 -33
q-63 0 -100 85q-35 81 -35 192q0 118 37 196q42 90 116 92q38 1 59 -16q10 -8 19 -17l18 -18q-14 36 6 54q11 11 33 11q21 0 42 -11t27 -27zM258 276q4 56 -14 110q-19 58 -52 58q-27 0 -46 -58q-19 -54 -20 -110q-1 -61 9 -110q13 -58 39 -58q22 0 51 56q29 57 33 112z" />
    <glyph glyph-name="h" unicode="h" horiz-adv-x="470" 
d="M438 84q6 -26 6 -32q0 -11 -7 -19.5t-18 -15t-24.5 -10t-27.5 -3.5q-43 0 -55 32q-5 15 -5 22q0 6 3.5 13.5t8 14.5t8 14.5t3.5 13.5q12 52 12 150q0 169 -24 174q-18 3 -58 -57q-41 -61 -70 -141q-33 -90 -28 -162q-3 -6 -3 -12q0 -9 8 -25.5t8 -26.5q0 -11 -7 -18
q-27 -39 -54 -39q-28 0 -54 43q-15 25 -15 299q0 51 1.5 163.5t3.5 291.5q0 6 -1 18.5t-1 19.5q1 10 6 18q10 21 47 21q32 0 58 -17q27 -17 21 -40q-1 -6 -9.5 -14t-8.5 -16v-322q57 129 168 136q60 4 96 -90q33 -86 33 -211q0 -97 -21 -173z" />
    <glyph glyph-name="i" unicode="i" horiz-adv-x="200" 
d="M174 750q3 -3 3 -10q0 -9 -6 -31q-8 -28 -9 -37q-1 -5 -0.5 -16t2.5 -28q0 -21 -12.5 -27.5t-31.5 -6.5q-25 0 -55 11q-34 13 -34 37q0 7 6 19.5t7 20.5q2 8 0 40q-1 25 10 34q16 12 57 12q45 0 63 -18zM187 506q0 -15 -16 -44q-15 -29 -15 -48v-294q0 -18 11 -57
q11 -38 11 -50q0 -19 -16 -29q-25 -16 -54 -16q-37 0 -54 26q-21 30 -21 190v48.5t1 69.5q1 41 1.5 70t0.5 48q0 7 -1 17l-2 20t-2 18.5t-1 13.5q0 33 24 57q10 10 37 10t54 -9q27 -8 34.5 -19t7.5 -22z" />
    <glyph glyph-name="j" unicode="j" horiz-adv-x="210" 
d="M168 600q-7 -16 -39 -16q-24 0 -44 10q-27 12 -27 32q0 6 3 17t3 15q0 6 -2 22t-2 24q0 23 12 34q16 16 42 16q21 0 40 -13t19 -34q0 -5 -2 -12.5t-4 -16.5t-3.5 -17t-1.5 -13q0 -9 4.5 -19t4.5 -16t-3 -13zM168 395v-209.5t1 -4.5q-1 -148 -26 -231q-31 -111 -103 -120
q-29 -4 -67 14q-37 16 -37 40q0 8 6 16q11 15 37 10q24 -4 33 2q32 23 32 360q0 40 -0.5 87t-1.5 103q0 8 -6 31q-6 22 -6 34q0 35 56 35q48 0 70 -22q18 -18 18 -52q0 -16 -3 -47q-3 -30 -3 -46z" />
    <glyph glyph-name="k" unicode="k" horiz-adv-x="480" 
d="M498 78q1 -5 1 -14q0 -59 -67 -80q-12 -4 -23 -4q-18 0 -33 17q-11 12 -18.5 18.5t-9.5 8.5l-180 126v-84q0 -9 5.5 -22.5t5.5 -20.5q0 -10 -11 -23q-27 -25 -72 -25q-44 0 -58 29q-6 13 -4 29q2 13 3 21.5t1 13.5v658q0 9 1 22.5t3 31.5q9 22 55 22q61 0 77 -22
q9 -12 9 -26q0 -10 -8 -34q-7 -21 -7 -36q-2 -59 0 -327l144 141q11 11 31 43q10 18 33 24q8 2 14 2q30 0 59 -22q31 -22 31 -47q0 -7 -6 -15.5t-15 -18t-19.5 -19t-19.5 -19.5l-166 -172l178 -128q2 -3 40 -16q21 -9 26 -32z" />
    <glyph glyph-name="l" unicode="l" horiz-adv-x="200" 
d="M174 -4q-20 -38 -74 -38q-51 0 -70 34q-6 10 -6 21q0 5 2 14t5 19t5 20t2 18l-4 646v54q3 13 28 21.5t53 8.5q21 0 33 -4t19 -11t9 -15t2 -16q0 -10 -8 -37t-8 -41v-600q0 -17 8 -40q4 -12 6.5 -21t2.5 -14q0 -11 -5 -19z" />
    <glyph glyph-name="m" unicode="m" horiz-adv-x="720" 
d="M706 0q-14 -36 -59 -36q-58 0 -86 39q-15 22 -15 151v53q0 17 0.5 29.5t0.5 19.5q0 71 -7 72q-15 6 -102 -280q0 -1 -1 -13t-3 -35q-3 -28 -20 -38q-13 -7 -29 -7q-15 0 -29.5 5t-27 13.5t-21.5 20t-12 24.5q-10 37 -9 146q1 80 1.5 118t0.5 35q-1 41 -6 43
q-11 -19 -21.5 -37.5t-18.5 -35.5q-20 -42 -33 -77t-14 -63q-5 -14 -1 -47q4 -30 -9 -41t-35 -11q-24 0 -48.5 13.5t-35.5 30.5q-8 13 -13 49t-5 97v236q0 5 -2.5 12.5t-5 15.5t-5 15t-2.5 12q0 9 5 17q14 20 66 20q64 0 78 -32q3 -8 3 -14q0 -5 -3 -11.5t-6.5 -14t-6.5 -15
t-3 -13.5v-114q15 32 35 71.5t44 88.5q4 9 8 19.5t10.5 19.5t17 14.5t29.5 5.5q39 0 80 -18t42 -43q1 -26 -7.5 -39.5t-8.5 -22.5l-2 -216q8 18 22.5 60.5t35.5 109.5q33 102 50 114q22 16 65 16q40 0 61.5 -11.5t21.5 -34.5q1 -61 0 -162.5t0 -245.5q0 -10 20 -27
q20 -15 20 -32q0 -10 -4 -19z" />
    <glyph glyph-name="n" unicode="n" horiz-adv-x="490" 
d="M480 64q-2 -22 -29 -37.5t-60 -15.5q-49 0 -67 31q7 307 -18 312q-25 4 -122 -276v-60q0 -35 -19 -50t-40 -15q-37 0 -77 39q-12 10 -13 151q1 -44 1 36.5v286.5q0 9 -2 24.5t-2 22.5q0 20 10 33q12 18 38 18q27 0 56 -17q30 -17 36 -31q4 -9 4 -20q0 -10 -8 -28t-8 -30
v-138q32 67 55 111t40 66q56 74 129 69q43 -3 61 -80q7 -29 11 -72t4 -100v-180q1 -6 14 -25q7 -10 6 -25z" />
    <glyph glyph-name="o" unicode="o" horiz-adv-x="410" 
d="M330 516q67 -67 67 -229q0 -124 -47 -213q-52 -98 -146 -98q-93 0 -142 88q-44 79 -44 198q0 107 34 190q36 89 92 106q30 8 60 8q76 0 126 -50zM216 468q-33 3 -57 -62q-21 -59 -21 -124q0 -48 2 -80.5t6 -52.5q13 -69 58 -77q28 -4 52 77q23 80 23 167q0 146 -63 152z
" />
    <glyph glyph-name="p" unicode="p" 
d="M412 276q0 -106 -45 -193q-49 -93 -123 -93q-41 0 -84 64v-127q0 -16 13 -41t13 -38q0 -8 -5 -20q-21 -45 -82 -45q-50 0 -62 36q-4 11 -4 23q0 11 6.5 29.5t6.5 31.5v568q0 11 -8 26.5t-8 25.5q0 9 4 17q12 28 74 28q39 0 52 -16q5 -7 5 -15q0 -7 -5 -22t-6 -23
q46 66 108 66q84 0 121 -94q29 -75 29 -188zM286 276q0 48 -1 78t-3 43q-11 65 -50 65q-23 0 -42 -63q-18 -62 -18 -123q0 -45 20 -108q19 -66 40 -66q24 0 40 61q14 54 14 113z" />
    <glyph glyph-name="q" unicode="q" 
d="M402 540q4 -8 4 -17q0 -10 -8 -25.5t-8 -26.5v-568q0 -13 6.5 -31.5t6.5 -29.5q0 -12 -4 -23q-12 -36 -62 -36q-61 0 -82 45q-5 12 -5 20q0 13 13 38t13 41v127q-43 -64 -84 -64q-74 0 -123 93q-45 87 -45 193q0 113 29 188q37 94 121 94q61 0 108 -66q-1 8 -6 23t-5 22
q0 8 5 15q13 16 52 16q62 0 74 -28zM264 276q0 31 -5 61.5t-14 61.5q-20 63 -41 63q-49 0 -49 -113v-37q0 -13 0.5 -22t0.5 -14q0 -61 11 -113q13 -61 37 -61q20 0 41 66q19 60 19 108z" />
    <glyph glyph-name="r" unicode="r" horiz-adv-x="380" 
d="M408 510q-5 -22 -38 -29q-41 -11 -51 -23l-163 -188v-152q0 -23 12 -45q13 -22 13 -34q0 -13 -7 -27q-17 -37 -69 -37q-36 0 -57 23q-14 14 -14 37q0 8 2 26t2 29v374q0 9 -8 22t-8 21q0 7 4 14q13 24 81 24q53 0 60 -25q3 -11 3 -17q0 -11 -8 -17t-8 -12l2 -36l86 91
l32 34t38 19q34 3 65 -15q32 -18 32 -47q0 -7 -1 -10z" />
    <glyph glyph-name="s" unicode="s" horiz-adv-x="370" 
d="M354 134q0 -70 -50 -120q-50 -48 -118 -48q-41 0 -89 40q-37 34 -65 81q-25 42 -22 53q10 25 69 25q25 0 38 -7q24 -14 27 -33q3 -24 10 -29q21 -32 38 -32q13 0 24.5 17.5t11.5 41.5q0 13 -5 30q-4 14 -54 46q-29 19 -50 35t-34 30q-43 47 -43 112q0 75 44 131
q43 57 112 57t107 -53q30 -43 25 -87q11 -13 11 -40q0 -15 -6 -28t-16 -23t-21.5 -15.5t-23.5 -5.5q-34 0 -59 45q-7 11 -7 32q0 9 1.5 25.5t1.5 23.5q0 26 -19 26q-29 0 -29 -57q0 -58 38 -93q17 -15 65 -40q43 -22 61 -45q27 -35 27 -95z" />
    <glyph glyph-name="t" unicode="t" horiz-adv-x="360" 
d="M344 454q-4 0 -11 2t-14.5 4.5t-14.5 4.5t-11 2q-7 0 -14 -3l-37 -19v-342q0 -18 20 -49q21 -31 17 -48q-5 -21 -29.5 -34t-52.5 -13q-53 0 -73 46q-5 12 -7 89q-1 25 -0.5 63.5t1.5 92.5q1 60 1.5 98t0.5 54q-3 -1 -8 -5t-11.5 -8.5t-14 -8t-14.5 -3.5q-12 0 -28 6
q-69 24 -69 49q0 5 3 13q7 15 25 18q27 3 35 7q11 5 32 15.5t52 27.5v87q0 10 -5.5 26.5t-5.5 24.5q0 9 5 17q25 40 70 40q51 0 72 -40q8 -18 8 -26q0 -6 -4 -12.5t-8.5 -12.5t-8 -12t-3.5 -12v-49q17 7 40 27q17 14 29 14q3 0 11 -2q63 -17 63 -76q0 -19 -11.5 -36
t-29.5 -17z" />
    <glyph glyph-name="u" unicode="u" horiz-adv-x="410" 
d="M392 488q2 -15 -6 -32q-10 -22 -12 -34q0 -105 -4 -176.5t-13 -112.5q-36 -169 -157 -169q-175 0 -175 318q0 43 3 88.5t10 93.5q-7 21 -7 41q0 30 19 49q17 17 47 17q25 0 47 -10.5t26 -24.5q1 -4 1.5 -7t0.5 -7q0 -12 -11 -42q-10 -28 -9 -46q-10 -53 -10 -141
q0 -43 3 -78.5t8 -64.5q13 -66 39 -66q42 0 55 142q4 35 5.5 91.5t1.5 134.5q0 10 -3 29t-3 28q0 24 18 33q12 5 28 5q31 0 61 -14q32 -16 37 -45z" />
    <glyph glyph-name="v" unicode="v" horiz-adv-x="440" 
d="M456 540q7 -13 7 -27q0 -19 -17 -50q-12 -20 -19 -33t-9 -18q-22 -63 -50 -142t-63 -176q-13 -65 -33 -94q-26 -37 -74 -34q-47 3 -63 19q-12 12 -12 36v21q0 18 -3 30l-102 366q-3 10 -25 39q-20 21 -15 39q11 44 70 44q7 0 13 -0.5t11 -1.5q20 -4 40 -37.5t37 -99.5
l63 -241l104 320q4 12 7.5 20t5.5 13q19 34 66 34q46 0 61 -27z" />
    <glyph glyph-name="w" unicode="w" horiz-adv-x="720" 
d="M724 546q3 -8 3 -15q0 -17 -18 -39q-23 -27 -27 -42l-110 -332q-5 -14 -5 -38v-22q1 -7 1 -12v-9q0 -36 -25 -54t-57 -18q-48 0 -80 35q-16 17 -16 41q0 17 -0.5 27.5t-1.5 15.5l-60 222l-58 -200q-4 -13 -5 -42q-1 -24 -11 -40q-38 -61 -93 -61q-18 0 -35 11
q-10 6 -15.5 16.5t-8.5 23t-4.5 26t-3.5 26.5l-88 342q-2 7 -5.5 19t-11.5 29q-12 27 -12 46q0 11 5 26q9 28 71 28q36 0 47 -10q14 -13 16 -42q1 -22 1 -34t1 -14l60 -240l84 246q1 4 1.5 7t0.5 7q0 6 -2.5 17.5t-2.5 17.5q0 22 24 34q20 11 44 11q33 0 55 -16
q28 -19 31 -52q2 -16 3 -31t2 -31l60 -240l96 288q2 8 2 13q0 8 -3 21.5t-3 20.5q0 10 4 17q15 27 79 27q60 0 71 -27z" />
    <glyph glyph-name="x" unicode="x" horiz-adv-x="410" 
d="M414 530q2 -18 -20 -32q-28 -19 -34 -30l-114 -198l96 -186l21 -31q12 -17 12 -31q0 -9 -3 -16q-17 -42 -63 -42q-18 0 -37 8q-12 6 -18.5 13t-9 15t-3 16.5t-1.5 17.5l-54 134l-60 -120q-3 -10 -6 -20.5t-8 -18.5t-12 -13.5t-19 -5.5q-28 0 -56 19q-28 22 -25 51
q1 6 5 12t8.5 11.5t8.5 10.5t6 8l88 160l-62 194q-3 10 -20 24q-17 15 -18 28q-3 23 28 41q28 15 60 15q17 0 28 -6q22 -14 27 -35.5t9 -42.5l30 -94l66 118q10 18 20 38.5t28 27.5q12 5 25 5t26.5 -4t24 -10.5t18 -14.5t8.5 -16z" />
    <glyph glyph-name="y" unicode="y" horiz-adv-x="470" 
d="M468 498q3 -21 -10 -43l-24 -41q-21 -51 -53.5 -130.5t-76.5 -191.5q-21 -54 -33 -100.5t-17 -89.5q-1 -4 -1.5 -12.5t0.5 -22.5q1 -21 -7 -33q-17 -21 -48 -21q-58 0 -74 43q-4 9 -4 19t8 22.5t10 20.5l24 124l-144 414q-2 4 -5.5 12t-10.5 21q-8 19 -8 31q0 4 0.5 7
t1.5 7q9 36 67 36q36 0 57 -12q26 -15 29 -53q3 -31 4.5 -48t2.5 -21l66 -208l102 258q1 3 9 44q4 25 21 34q10 6 23 6q30 0 58 -22q28 -21 33 -50z" />
    <glyph glyph-name="z" unicode="z" horiz-adv-x="480" 
d="M472 474q-3 -22 -24 -40q-33 -30 -36 -34l-220 -298l150 24q11 2 30 10.5t31 8.5q28 0 48 -26t20 -54q0 -25 -13.5 -39.5t-34.5 -14.5q-5 0 -29 3q-19 1 -32 0l-186 -28q-11 -1 -36 -14q-21 -11 -36 -10q-18 1 -35 8t-30 17.5t-20.5 24.5t-7.5 30q0 8 1 12q5 26 20 38
q26 23 28 26l224 310l-108 -14q-8 -1 -21.5 -6t-21.5 -5q-7 0 -19 5q-57 25 -57 69q0 25 19 47q12 15 34 15q4 0 11.5 -1t19.5 -3q10 -1 18 -1.5t15 0.5l156 18q6 1 15 3.5t18 5.5t18 5t15 2q29 0 55 -32t21 -62z" />
    <glyph glyph-name="braceleft" unicode="{" horiz-adv-x="390" 
d="M334 106q10 2 15 2q38 0 38 -49q0 -29 -17 -51q-20 -23 -49 -20q-130 13 -161 216q-6 41 -28 73q-25 40 -60 40q-53 0 -53 56q0 23 13 43.5t35 26.5q30 31 36 70q2 11 3 82q2 84 61 152q63 74 146 74q26 0 40 -20t14 -47q0 -23 -10 -40.5t-27 -17.5q-7 0 -17 5
q-34 0 -65 -34q-33 -35 -33 -65q-3 -129 -53 -213q42 -26 71 -76t37 -101q4 -25 8 -41.5t8 -25.5q15 -36 48 -39z" />
    <glyph glyph-name="bar" unicode="|" horiz-adv-x="204" 
d="M174 -4q-20 -38 -74 -38q-51 0 -70 34q-6 10 -6 21q0 5 2 14t5 19t5 20t2 18l-4 646v54q3 13 28 21.5t53 8.5q21 0 33 -4t19 -11t9 -15t2 -16q0 -10 -8 -37t-8 -41v-600q0 -17 8 -40q4 -12 6.5 -21t2.5 -14q0 -11 -5 -19z" />
    <glyph glyph-name="braceright" unicode="}" horiz-adv-x="390" 
d="M339 443q22 -6 35 -26.5t13 -43.5q0 -56 -53 -56q-35 0 -60 -40q-22 -32 -28 -73q-31 -203 -161 -216q-29 -3 -49 20q-17 22 -17 51q0 49 38 49q5 0 15 -2q33 3 48 39q8 18 15 67t38 101q29 50 71 76q-50 84 -53 213q0 30 -33 65q-31 34 -65 34q-10 -5 -17 -5
q-17 0 -27 17.5t-10 40.5q0 27 14 47t40 20q83 0 146 -74q59 -68 61 -152q1 -71 3 -82q6 -39 36 -70z" />
    <glyph glyph-name="asciitilde" unicode="~" horiz-adv-x="330" 
d="M310 725q-44 -32 -70 -26l-102 22q-18 4 -43 -16q-26 -23 -37 -23q-10 0 -19 6t-15.5 16t-10.5 21t-4 22q0 23 13 36q4 5 10 10t16 10q26 14 45 14q5 0 13 -2l108 -30q16 -5 41 20t37 22q26 -6 26 -63q0 -25 -8 -39z" />
    <glyph glyph-name="Euro" unicode="&#x20ac;" horiz-adv-x="697" 
d="M544 419q-4 0 -58 14l-219 -35q0 -14 0.5 -28.5t1.5 -28.5l157 23q32 29 44 30q18 3 41 -29q11 -16 18.5 -31t9.5 -31q3 -21 -8 -36.5t-24 -17.5q-3 -1 -58 13l-162 -26q39 -133 143 -133q41 0 70 32q25 28 30 72q20 41 70 41q31 0 56 -17.5t25 -42.5q0 -8 -1 -12
q-4 -12 -19 -25q-9 -8 -14.5 -14t-7.5 -8q-4 -7 -13 -18t-21 -29q-66 -102 -151 -102q-115 0 -194 67q-71 59 -106 168l-29 -4q-35 -27 -45 -28q-38 -6 -49 56q-1 5 -1 9.5v8.5q0 55 50 63q5 1 17 1h32h3q-2 14 -3 27.5t-2 27.5l-8 -1q-16 -13 -27 -19t-18 -8q-39 -6 -48 56
q-1 5 -1.5 9t-0.5 8q0 55 51 63q5 1 17 1.5t32 -0.5l8 1q20 145 95 229q86 95 227 95q45 0 98 -33q45 -30 65 -58q6 -9 13 -16.5t14 -13.5t12 -10l5 -4q8 -14 8 -28q0 -28 -35 -48q-32 -17 -69 -17q-44 0 -56 22q-1 2 -3 12t-4 29q-4 9 -29 24q-26 16 -43 16
q-127 0 -155 -178l188 27q31 28 44 30q19 3 41 -28q11 -16 18.5 -31t9.5 -31q3 -22 -8 -37.5t-24 -17.5z" />
    <glyph glyph-name="quotesinglbase" unicode="&#x201a;" horiz-adv-x="160" 
d="M141 1q-16 -25 -55 -25q-45 0 -59 31q-3 7 0 48l6 90q1 9 -2 23t-3 19q0 34 38 34q22 0 43 -13.5t26 -32.5q2 -10 -2 -25t-4 -23v-78z" />
    <glyph glyph-name="florin" unicode="&#x192;" horiz-adv-x="390" 
d="M390 474q-9 -26 -37 -29q-14 -2 -27 -3l-26 -2l-72 -20l-1 -453q0 -27 19 -49q19 -23 19 -35q0 -8 -3 -15q-14 -35 -59 -35q-29 0 -54 15q-24 14 -29.5 37.5t-5.5 64.5v440q-20 -9 -42 -6q-69 9 -69 56q0 13 9 30q6 10 36 15q23 4 38 7.5t22 5.5q1 149 26 215
q33 91 130 121q4 1 7.5 1.5t8.5 0.5q28 0 58 -18q31 -18 28 -32q-4 -20 -36 -31q-38 -14 -50 -27q-37 -44 -47 -92q-9 -36 -7 -106q6 1 49 15q14 4 26 6t23 1q25 -1 46 -21q22 -19 22 -43q0 -4 -0.5 -7t-1.5 -7z" />
    <glyph glyph-name="quotedblbase" unicode="&#x201e;" horiz-adv-x="310" 
d="M284 0q-15 -27 -55 -27q-45 0 -59 31q-3 7 0 48l6 90q1 9 -2 23t-3 19q0 34 38 34q22 0 43 -13.5t26 -32.5q2 -10 -2 -25t-4 -23v-78zM140 22q-15 -25 -55 -25q-46 0 -59 31q-3 7 0 48l6 90q1 9 -2 23t-3 19q0 34 38 34q22 0 43 -13.5t26 -32.5q2 -10 -2 -25t-4 -23v-78z
" />
    <glyph glyph-name="ellipsis" unicode="&#x2026;" horiz-adv-x="600" 
d="M569 113q2 -14 -2 -28l-9 -28q-1 -13 -1 -25.5t-4.5 -22.5t-14.5 -16t-31 -6q-27 0 -49 11q-24 10 -26 32q0 7 5 22q5 12 7 20q1 5 1 38q-1 45 48 45q26 0 49 -11.5t27 -30.5zM369 113q2 -14 -2 -28l-9 -28q-1 -13 -1 -25.5t-4.5 -22.5t-14.5 -16t-31 -6q-27 0 -49 11
q-24 10 -26 32q0 7 5 22q5 12 7 20q1 5 1 38q-1 45 48 45q26 0 49 -11.5t27 -30.5zM169 113q2 -14 -2 -28l-9 -28q-1 -13 -1 -25.5t-4.5 -22.5t-14.5 -16t-31 -6q-27 0 -49 11q-24 10 -26 32q0 7 5 22q5 12 7 20q1 5 1 38q-1 45 48 45q26 0 49 -11.5t27 -30.5z" />
    <glyph glyph-name="dagger" unicode="&#x2020;" 
d="M408 370q-7 -7 -20 -7q-3 0 -9 1t-13.5 2l-15 2t-12.5 0l-95 -15v-219q0 -18 11 -57q11 -38 11 -50q0 -20 -16 -29q-25 -16 -54 -16q-38 0 -54 24q-19 30 -21 161q0 13 0.5 54.5t1.5 113.5q-6 -1 -29 -11q-15 -7 -26 -7q-12 0 -23 6.5t-19.5 17t-13.5 23t-5 24.5
q0 20 12 34q46 4 105 12q1 59 1 89v32q5 45 22 70q8 11 32 11q22 0 46 -9q25 -8 33.5 -20t8.5 -29q0 -12 -7 -46q-4 -20 -6 -39.5t-4 -37.5q13 3 25.5 6t25.5 5q46 9 71 9q13 0 19 -3q31 -18 31 -66q0 -26 -13 -36z" />
    <glyph glyph-name="daggerdbl" unicode="&#x2021;" horiz-adv-x="450" 
d="M428 370q-7 -7 -20 -7q-3 0 -9 1t-13.5 2l-15 2t-12.5 0l-95 -15v-219q0 -18 11 -57q11 -38 11 -50q0 -20 -16 -29q-25 -16 -54 -16q-38 0 -54 24q-19 30 -21 161q0 13 0.5 54.5t1.5 113.5q-6 -1 -29 -11q-15 -7 -26 -7q-12 0 -23 6.5t-19.5 17t-13.5 23t-5 24.5
q0 20 12 34q46 4 105 12v36.5t1 33.5q-10 -1 -37 -11q-26 -9 -37 -9q-12 0 -23 6.5t-19 16.5t-13 22.5t-5 24.5q0 20 12 34l126 16q7 137 28 167q8 11 32 11q23 0 47 -8.5t32 -20.5q13 -17 2 -126l39 9q28 6 45 6q25 0 39 -23q13 -19 13 -47q0 -26 -13 -36q-60 -4 -136 -12
q-2 -23 -4 -40t-3 -29q13 3 25.5 6t25.5 5q46 9 71 9q13 0 19 -3q31 -18 31 -66q0 -26 -13 -36z" />
    <glyph glyph-name="circumflex" unicode="&#x2c6;" horiz-adv-x="310" 
d="M252 604q-4 0 -7 0.5t-7 1.5q-3 1 -5.5 1.5t-6 2.5t-9.5 7t-15 16l-49 55q-26 -23 -45 -60q-13 -26 -27 -28q-9 0 -20 3t-20 9t-15 14t-6 17q0 22 55 71q8 11 14.5 22t14.5 22q19 28 37 28q27 0 41 -15l38 -39q36 -38 57 -59.5t21 -32.5q0 -14 -15.5 -25t-30.5 -11z" />
    <glyph glyph-name="perthousand" unicode="&#x2030;" horiz-adv-x="890" 
d="M880 170q6 -80 -41 -130q-36 -39 -87 -42q-60 -4 -109 33q-53 41 -53 99q0 57 45 99q44 43 105 43q48 0 94 -37q45 -35 46 -65zM664 720q-5 -14 -23 -28q-20 -16 -27 -26l-336 -492q-2 -2 -31 -69q-20 -44 -43 -51q-11 -3 -22 -3q-27 0 -46 19t-20 54q-2 28 15 40l27 22
l318 480l-214 -66q2 -10 3 -20t1 -21q0 -72 -44 -125q-47 -56 -112 -56q-99 0 -99 83q0 55 39 120q41 66 88 95q22 14 46 16q16 1 26 2t14 2l288 84q5 2 14.5 6.5t22.5 12.5q19 13 35 13q4 0 12 -2q74 -20 74 -56q0 -13 -6 -34zM577 173q6 -81 -40 -130q-37 -40 -88 -43
q-29 -1 -56.5 7t-53.5 28q-51 40 -51 98q0 57 45 99q44 43 104 43q48 0 94 -37q45 -35 46 -65zM765 175q-12 0 -31 -19q-25 -22 -25 -47q0 -16 15 -16q12 0 33 28q22 28 22 42q0 12 -14 12zM156 574q-11 3 -27 -30q-16 -32 -16 -54q0 -10 5 -12q4 -2 9.5 0.5t10.5 8
t9.5 12.5t6.5 15q6 19 8.5 29.5t2.5 13.5q0 14 -9 17zM462 178q-11 0 -31 -19q-24 -23 -24 -47q0 -16 14 -16q12 0 34 28t22 41t-15 13z" />
    <glyph glyph-name="S_caroncmb" unicode="&#x160;" horiz-adv-x="499" 
d="M484 140q0 -67 -51 -119q-50 -50 -125 -50q-152 0 -223 122q-76 42 -76 73q0 13 22 23q42 20 77 20q75 0 101 -77q6 -11 12.5 -22t13.5 -20t16 -15t21 -6q59 0 59 74q0 65 -27 89q-14 9 -99 39q-68 24 -110 84q-20 29 -30 56t-10 56q-1 92 50 148q62 65 148 65
q104 0 148 -57q17 -21 26.5 -43t15.5 -45q5 -17 8 -32t3 -28q0 -17 -5 -29q-15 -32 -61 -32q-34 0 -61 21q-31 22 -37 64q-5 14 5 28q10 13 10 15t-1 4q1 3 1 9q0 25 -36 24q-35 -1 -55 -40q-17 -33 -16 -74q5 -75 116 -118q45 -17 74.5 -35t47.5 -36q48 -48 48 -136z
M359 865q16 0 32.5 -9.5t16.5 -21.5q0 -20 -81 -80q-10 -10 -19 -18t-19 -16q-16 -13 -42 -13q-21 0 -39 24q-8 10 -14.5 19t-15.5 19q-56 44 -56 64q0 7 6 13.5t15.5 11.5t20.5 8t20 3q13 -1 27 -25q18 -31 48 -52l50 49q10 10 16.5 14t8.5 5q12 5 25 5z" />
    <glyph glyph-name="guilsinglleft" unicode="&#x2039;" horiz-adv-x="280" 
d="M254 453q2 -15 -13 -25q-13 -10 -19.5 -15.5t-7.5 -6.5l-120 -139l131 -123q26 -24 26 -44q0 -8 -3 -15q-14 -33 -47 -33q-26 0 -37.5 12.5t-8.5 29.5q-2 7 -6 12l-96 87q-40 35 -40 66q0 32 42 79l87 95q4 4 15 28q8 18 21 22q7 3 19 3q19 0 37.5 -10.5t19.5 -22.5z" />
    <glyph glyph-name="OE" unicode="&#x152;" horiz-adv-x="770" 
d="M749 702q-22 -19 -59 -19q-16 0 -35 3l-63 -17q-33 -9 -54 -18t-30 -17q-6 -104 0 -238q12 8 55 18t54 6q32 -10 59 -31q30 -26 30 -49q0 -7 -3 -14q-18 -43 -68 -43q-8 0 -21.5 1t-18.5 1q-7 0 -10 -1l-77 -24q0 -91 6 -116q17 3 40 8.5t51 13.5q2 4 5 7t5 6q10 10 36 9
t57 -32q31 -30 31 -60q0 -27 -23 -40.5t-77 -9.5l-94 -46q-6 -3 -26 -20q-14 -13 -27 -13q-44 0 -87 57q-27 -32 -51 -40.5t-47 -5.5l-47 6q-206 24 -227 436q-6 112 36 240q39 118 81 147q10 7 22 7q4 0 12 -1.5t16 -4t16 -4t13 -1.5q6 0 16.5 1.5t26.5 3.5q31 6 47 6
q38 0 84 -44q17 11 42 14q7 1 15 -0.5t18 -6.5l25 -13l120 38q3 1 22 12q14 8 31 8q4 0 9 -0.5t10 -1.5q21 -4 43 -35t22 -56q0 -18 -11 -27zM378 420q-11 125 -27 188q-28 106 -83 106q-14 0 -32 -8q-16 -7 -43 -103q-28 -102 -28 -183q0 -103 36 -217q36 -113 69 -113
q31 0 69 102q40 105 40 201v13.5t-1 13.5z" />
    <glyph glyph-name="quoteleft" unicode="&#x2018;" horiz-adv-x="228" 
d="M176 710q-17 -12 -28.5 -21t-16.5 -16q-12 -15 -16 -49q-5 -36 -19 -52q-9 -9 -21 -9q-25 0 -49 27q-12 13 -12 33q0 41 45 100q41 53 67 63q21 8 38 8q47 0 47 -38v-8t-3 -9t-10.5 -12t-21.5 -17z" />
    <glyph glyph-name="quoteright" unicode="&#x2019;" horiz-adv-x="252" 
d="M208 754q12 -14 12 -33q0 -42 -45 -100q-41 -53 -67 -63q-21 -8 -38 -8q-47 0 -47 38v8t3 9t10.5 12t21.5 17q17 12 28.5 21t17.5 17q9 11 14 48q4 35 20 52q9 9 21 9q25 0 49 -27z" />
    <glyph glyph-name="quotedblleft" unicode="&#x201c;" horiz-adv-x="378" 
d="M336 708q-17 -12 -28.5 -21t-16.5 -16q-12 -15 -16 -49q-5 -36 -19 -52q-9 -9 -21 -9q-25 0 -49 27q-12 13 -12 33q0 41 45 100q41 53 67 63q21 8 38 8q47 0 47 -38v-8t-3 -9t-10.5 -12t-21.5 -17zM176 710q-17 -12 -28.5 -21t-16.5 -16q-12 -15 -16 -49q-5 -36 -19 -52
q-9 -9 -21 -9q-25 0 -49 27q-12 13 -12 33q0 41 45 100q41 53 67 63q21 8 38 8q47 0 47 -38v-8t-3 -9t-10.5 -12t-21.5 -17z" />
    <glyph glyph-name="quotedblright" unicode="&#x201d;" horiz-adv-x="396" 
d="M368 752q12 -14 12 -33q0 -42 -45 -100q-41 -53 -67 -63q-21 -8 -38 -8q-47 0 -47 38v8t3 9t10.5 12t21.5 17q17 12 28.5 21t17.5 17q9 11 14 48q4 35 20 52q9 9 21 9q25 0 49 -27zM208 754q12 -14 12 -33q0 -42 -45 -100q-41 -53 -67 -63q-21 -8 -38 -8q-47 0 -47 38v8
t3 9t10.5 12t21.5 17q17 12 28.5 21t17.5 17q9 11 14 48q4 35 20 52q9 9 21 9q25 0 49 -27z" />
    <glyph glyph-name="bullet" unicode="&#x2022;" horiz-adv-x="644" 
d="M110 331q0 42 16 79.5t43.5 65t65 43.5t79.5 16t79.5 -16t65 -43.5t43.5 -65t16 -79.5t-16 -79.5t-43.5 -65t-65 -43.5t-79.5 -16t-79.5 16t-65 43.5t-43.5 65t-16 79.5z" />
    <glyph glyph-name="endash" unicode="&#x2013;" horiz-adv-x="500" 
d="M438 306q-7 -7 -20 -7q-3 0 -9 1t-13.5 2l-15 2t-12.5 0l-210 -32q-6 -1 -14 -4t-16.5 -6.5t-16.5 -6t-14 -2.5q-12 0 -23 6.5t-19.5 17t-13.5 23t-5 24.5q0 20 12 34q3 3 30 5l48 3l216 36l30 7q15 4 27 4q11 0 21 -5q31 -18 31 -66q0 -26 -13 -36z" />
    <glyph glyph-name="emdash" unicode="&#x2014;" horiz-adv-x="1000" 
d="M960 354q-8 -7 -21 -7q-6 0 -22.5 3t-26.5 2l-732 -80q-6 -1 -14.5 -4t-17 -6.5t-16.5 -6t-13 -2.5q-24 0 -43 25q-18 22 -18 46q0 20 12 34q4 4 30 6q21 1 33 1t15 1l738 84l31 6q9 2 15.5 3.5t11.5 1.5q10 0 20 -5q31 -18 31 -66q0 -26 -13 -36z" />
    <glyph glyph-name="tilde" unicode="&#x2dc;" horiz-adv-x="340" 
d="M319 698q-44 -32 -70 -26l-102 22q-17 4 -42 -16q-26 -23 -37 -23q-19 0 -34.5 18.5t-15.5 37.5q0 20 13 33q8 9 26 20q26 14 46 14q4 0 12 -2l108 -30q17 -5 40 20q24 24 33 24q13 0 24 -23q7 -17 7 -35q0 -20 -8 -34z" />
    <glyph glyph-name="trademark" unicode="&#x2122;" horiz-adv-x="864" 
d="M837 321q-14 -20 -40 -20q-12 0 -25 4.5t-24 11t-19 14t-9 13.5q-1 3 -1 9q0 9 8.5 21t7.5 21l-18 202l-103 -233q-3 -7 0 -34q3 -22 -11 -31t-36 -9q-52 0 -59 40q-2 10 0 20t0 16l-86 231l14 -213q1 -8 4.5 -23.5t3.5 -22.5q0 -23 -33 -35q-6 -2 -10 -2q-21 0 -45 18
t-24 38q0 7 7 14t7 13l-13 338q0 8 -6 21t-6 19q0 11 11 22.5t37 11.5q41 0 63 -19q14 -11 13 -21q0 -16 2 -22l119 -288l133 306q2 7 1 26q0 14 13 24q11 8 27 8q28 0 51 -16q25 -15 23 -35q0 -10 -8.5 -16.5t-8.5 -11.5l25 -354q0 -3 3 -8.5t6.5 -12t6.5 -13t3 -10.5
q0 -7 -4 -12zM303 734q-7 -13 -28 -13q-27 0 -33 -2l-52 -21q-1 -23 -1.5 -47.5t-0.5 -51.5q0 -57 2 -113.5t5 -115.5q1 -8 6.5 -21.5t5.5 -19.5q0 -7 -5 -15q-14 -18 -40 -18q-23 0 -43 12.5t-24 29.5q-1 4 2.5 9.5t7.5 10.5t7.5 10.5t3.5 11.5q-7 207 -3 295
q-33 -10 -34 -10q-10 0 -17 6q-21 16 -27 25q-9 13 -6 29q2 9 88 35q46 14 70.5 21.5t27.5 9.5q7 3 15.5 12t18.5 10q13 1 36 -18q23 -20 23 -43q0 -8 -5 -18z" />
    <glyph glyph-name="s_caroncmb" unicode="&#x161;" horiz-adv-x="370" 
d="M354 134q0 -70 -50 -120q-50 -48 -118 -48q-41 0 -89 40q-37 34 -65 81q-25 42 -22 53q10 25 69 25q25 0 38 -7q24 -14 27 -33q3 -24 10 -29q21 -32 38 -32q13 0 24.5 17.5t11.5 41.5q0 13 -5 30q-4 14 -54 46q-29 19 -50 35t-34 30q-43 47 -43 112q0 75 44 131
q43 57 112 57t107 -53q30 -43 25 -87q11 -13 11 -40q0 -15 -6 -28t-16 -23t-21.5 -15.5t-23.5 -5.5q-34 0 -59 45q-7 11 -7 32q0 9 1.5 25.5t1.5 23.5q0 26 -19 26q-29 0 -29 -57q0 -58 38 -93q17 -15 65 -40q43 -22 61 -45q27 -35 27 -95zM291 740q15 0 30.5 -11t15.5 -25
q0 -11 -21 -32.5t-57 -59.5l-38 -39q-8 -8 -18.5 -11.5t-22.5 -3.5q-18 0 -37 28q-8 11 -14.5 22t-14.5 22q-55 49 -55 71q0 9 6 17t15 14t20 9t20 3q13 -1 27 -28q19 -38 45 -60l49 55q18 21 24 23t12.5 4t13.5 2z" />
    <glyph glyph-name="guilsinglright" unicode="&#x203a;" horiz-adv-x="280" 
d="M215 362q19 -17 29 -33t10 -33q0 -33 -43 -80q-21 -23 -42 -47t-43 -47q-2 -2 -6 -9.5t-10 -18.5q-8 -17 -18.5 -21t-20.5 -4q-20 0 -38 10.5t-20 22.5q-1 13 13 25l28 22l119 139l-131 123q-25 24 -25 44q0 7 3 15q12 33 47 33q26 0 37.5 -13t8.5 -29q0 -8 6 -12z" />
    <glyph glyph-name="oe" unicode="&#x153;" horiz-adv-x="670" 
d="M652 105q-8 -39 -54 -81q-8 -13 -54 -28q-56 -21 -96 -18q-70 5 -111 73q-51 -75 -133 -75q-93 0 -142 88q-44 79 -44 198q0 107 34 190q36 89 92 106q30 8 60 8q103 0 149 -82q47 71 113 80q8 2 15.5 2h15.5q119 0 131 -146q6 -68 -52 -147q-64 -86 -165 -121
q11 -41 18 -53q13 -24 37 -24q35 0 58 26l30 49q16 27 34 27q24 0 47 -24q23 -23 17 -48zM496 457q-41 0 -66 -57q-33 -77 -27 -150q47 14 88 71q40 53 40 96q0 40 -35 40zM216 468q-33 3 -57 -62q-21 -59 -21 -124q0 -48 2 -80.5t6 -52.5q13 -69 58 -77q28 -4 52 77
q23 80 23 167q0 146 -63 152z" />
    <glyph glyph-name="Ydieresis" unicode="&#x178;" horiz-adv-x="511" 
d="M389 755q1 -2 -7 -41q0 -17 -10 -44q-8 -8 -28 -8q-52 0 -53 33q0 7 3 16q2 4 3 7t2 6.5t1 9.5v18q0 33 36 33q47 0 53 -30zM251 775q2 -9 -1.5 -19.5t-6.5 -21.5q1 -15 -9 -43q-8 -8 -27 -8q-52 0 -55 33q-1 6 3.5 16.5t5.5 12.5q1 3 1.5 10t-0.5 18q-1 32 34 32
q49 0 55 -30zM486 598q1 -22 -22 -44q-29 -26 -35 -40l-152 -383l8 -81q2 -19 3 -26.5t1 -4.5q0 -26 -31 -36q-12 -4 -29 -4q-35 0 -61 17t-22 47q1 13 18 36q13 19 12 35l-8 88l-118 350q-2 5 -7 13.5t-13 21.5q-13 19 -13 32q0 8 4 15q11 20 64 20q36 0 45 -6
q13 -9 19.5 -19.5t9 -21.5t3 -22.5t1.5 -22.5l75 -234l98 253q8 20 16.5 39.5t26.5 27.5q13 6 30 6q29 0 52.5 -16t24.5 -40z" />
    <glyph glyph-name="nonbreakingspace" unicode="&#xa0;" horiz-adv-x="250" 
 />
    <glyph glyph-name="exclamdown" unicode="&#xa1;" horiz-adv-x="200" 
d="M164 619q-7 -19 -46 -19q-67 0 -86 43q-5 12 -5 24q0 4 1 12t2 17t2.5 17t1.5 14q-2 -2 -3 30q-2 17 7 30q10 18 41 18q52 0 79 -36q7 -10 7 -31q0 -4 -0.5 -12.5t-1.5 -22.5q-1 -13 -2 -23.5t1 -18.5q0 -2 3 -21q2 -13 -1 -21zM170 437q4 -63 6 -127t2 -131
q0 -172 -14 -188q-11 -12 -50 -12q-71 0 -82 34q-1 4 -1.5 7t-0.5 7q0 10 7 29.5t7 32.5v332q0 14 -8 41q-7 25 -7 37q0 19 15.5 31t39.5 12q52 0 80 -37q8 -11 8 -27q0 -5 -1.5 -18.5t-0.5 -22.5z" />
    <glyph glyph-name="cent" unicode="&#xa2;" horiz-adv-x="375" 
d="M280 548q0 -30 -68 -53q-15 -3 -50 12q-35 17 -36 35q-2 21 22 39q20 16 46 16q13 0 26.5 -5t28.5 -13q31 -18 31 -31zM346 95q-2 -20 -36 -39q-34 -59 -130 -59q-70 0 -107 66q-33 58 -33 148q0 96 36 167q39 76 100 76q69 0 97 -30q9 -11 16 -29.5t11 -46.5
q20 -42 20 -67q0 -46 -65 -46q-57 0 -57 34q0 8 4 25q2 19 1 21q-3 12 -18 11q-14 0 -27 -36q-13 -35 -13 -84q10 -117 45 -117q21 4 39 33q5 12 23 27q21 8 36 8q28 0 43.5 -18t14.5 -44zM261 -96q0 -29 -68 -52q-17 -5 -50 11q-34 16 -35 35q-5 21 21 39q22 16 46 16
q25 0 56 -17q30 -18 30 -32z" />
    <glyph glyph-name="sterling" unicode="&#xa3;" horiz-adv-x="536" 
d="M114 460q0 2 22 2l60 304q7 35 42 50.5t90 10.5h5l41 -4q95 -24 103 -125q2 -15 -2 -24q-7 -21 -27 -31.5t-42 -4.5q-19 5 -30 20.5t-11 38.5q3 15 -25 22q-11 -1 -16.5 -2.5t-10.5 -7.5q-4 -12 -16.5 -71.5t-33.5 -174.5q18 2 32 2h29q21 1 39.5 0t34.5 -6
q22 -6 33 -30.5t7 -50.5q-11 -60 -65 -40q-7 4 -17 4q-12 3 -27.5 4.5t-34.5 -0.5l-56 -5l-41 -200q16 2 30 3t29 1q30 0 56.5 -6t52.5 -20h-1q28 -3 44 28l-1 -2q7 30 29.5 41.5t45.5 3.5q54 -18 39 -77q-41 -101 -138 -120q-20 0 -43 3.5t-48 8.5q-30 8 -55 8
q-16 0 -33 -5l-39 -11q-21 -3 -40.5 -4t-38.5 0q-42 12 -52.5 32t-4.5 44q2 9 7 15.5t11 14.5q5 8 11.5 15.5t10.5 16.5l-1 -2q11 57 21.5 106t20.5 104q-11 -1 -20.5 -0.5t-20.5 0.5h-14q-18 0 -28.5 16.5t-10.5 33.5q0 13 3 28.5t11 26.5q6 4 20 7.5t28 6t25 3t11 -0.5z
" />
    <glyph glyph-name="yen" unicode="&#xa5;" horiz-adv-x="630" 
d="M608 748q1 -25 -22 -45q-34 -30 -55 -73q35 10 54 -1q30 -18 30 -66q0 -26 -12 -36l-118 -13l-43 -108l25 7q43 12 55 12t23 -6q31 -18 31 -66q0 -26 -13 -36q-7 -7 -19 -7q-7 0 -24 4q-15 3 -27 1l-97 -26l-38 -94q-6 -14 -8 -26t-2 -22q0 -1 2 -22l6 -63
q2 -23 3.5 -32.5t1.5 -5.5q0 -33 -39 -46q-17 -6 -36 -6q-44 0 -75 22q-35 23 -29 60q4 34 21 48q13 12 13 52q0 15 -1.5 36.5t-3.5 50.5q-1 0 -40 -14q-27 -9 -43 -9q-12 0 -23 6.5t-19.5 16.5t-13.5 22.5t-5 24.5q0 20 12 34q23 2 48.5 5.5t54.5 8.5l-32 93
q-27 -11 -37 -11q-12 0 -23.5 6.5t-20 16.5t-14 23t-5.5 25q0 21 13 34q2 2 54 5l-55 162q-5 14 -25 43q-16 25 -16 40q0 9 5 19q13 25 81 25q45 0 55 -7q33 -21 36 -51l6 -57l46 -143l117 29l53 138l16 40t9 21q5 12 29 23q18 8 38 8q18 0 35 -5.5t30 -14.5t21.5 -22
t9.5 -28zM323 474l-42 -10l17 -54z" />
    <glyph glyph-name="brokenbar" unicode="&#xa6;" horiz-adv-x="452" 
d="M294 -159q-19 -37 -74 -37q-51 0 -70 33q-6 10 -6 22t7 33t7 37l-4 234v53q3 13 28 21t53 8q21 0 33 -4t19 -10.5t9 -14.5t2 -16q0 -9 -8 -36t-8 -41v-187q0 -13 8 -39q9 -26 9 -36t-5 -20zM290 421q-19 -37 -74 -37q-51 0 -70 34q-6 10 -6 22q0 11 7 32t7 37l-4 235
q-1 13 -0.5 22.5t0.5 16.5v13q3 14 28 22t53 8q21 0 33 -4t19 -11t9 -15t2 -15q0 -10 -8 -37t-8 -40v-188q0 -17 8 -40q4 -12 6.5 -21t2.5 -14q0 -10 -5 -20z" />
    <glyph glyph-name="section" unicode="&#xa7;" horiz-adv-x="370" 
d="M354 134q0 -70 -50 -120q-50 -48 -118 -48q-64 0 -121 66q-49 58 -49 94q3 7 11 13.5t19 12t23.5 8.5t24.5 3q13 0 23 -5q24 -14 27 -33q3 -24 10 -29q21 -32 38 -32q13 0 24.5 17.5t11.5 41.5q0 15 -5 28.5t-34 33.5q-15 10 -30 18.5t-29.5 19.5t-28 26t-25.5 37
q-14 26 -22 56t-10 64q7 57 42 101q-45 49 -45 113q0 75 44 131q43 57 112 57t107 -53q30 -41 25 -87q11 -13 11 -39q0 -15 -6 -28.5t-16 -23t-21.5 -15t-23.5 -5.5q-33 0 -59 44q-7 11 -7 33q0 4 0.5 11l1 14t1 13.5t0.5 9.5q0 26 -19 26q-27 0 -27 -45q0 -30 10 -60
t24 -39q152 -99 150 -181q-2 -83 -49 -128q55 -39 55 -121zM203 313q19 12 19 37q0 12 -5 26t-12.5 27t-17 23.5t-18.5 16.5q-6 -15 -6 -36q0 -58 38 -93z" />
    <glyph glyph-name="dieresis" unicode="&#xa8;" horiz-adv-x="280" 
d="M255 804q1 -3 -7 -41q0 -17 -10 -44q-8 -9 -27 -9q-53 0 -54 34q0 7 4 15l5 14q1 2 0.5 9.5t-0.5 18.5q-2 32 37 32q46 0 52 -29zM117 824q2 -10 -1 -20.5t-7 -20.5q1 -16 -9 -43q-8 -9 -27 -9q-52 0 -55 34q0 6 3 14q6 13 6 15q1 4 1 28q-2 32 35 32q48 0 54 -30z" />
    <glyph glyph-name="copyright" unicode="&#xa9;" horiz-adv-x="612" 
d="M585 419q0 -173 -77 -291q-60 -93 -132 -116q-11 -4 -22 -6t-22 0l-44 6q-124 17 -194 119q-73 107 -73 288q0 105 65 230q57 111 100 130q9 4 21 4q9 0 26 -3.5t26 -3.5q5 0 15.5 1t24.5 3q15 2 26 3.5t18 1.5q13 0 21 -3q91 -27 155 -133q66 -107 66 -230zM484 420
q0 111 -54 206q-59 104 -138 104q-17 0 -30 -4q-46 -13 -92 -110q-48 -101 -48 -196q0 -104 37 -191q28 -70 76 -119q41 -41 69 -41q53 0 107 72q73 100 73 279zM424 338q-2 -16 -13 -32q-10 -12 -16.5 -20.5t-8.5 -13.5q-44 -68 -91 -68q-55 0 -86 57q-27 51 -27 129
q0 88 33 154q37 72 95 72q46 0 75 -51q24 -44 24 -96q0 -7 -0.5 -13t-1.5 -11q-5 -24 -40 -24q-29 0 -42 16q-7 7 -7 34v9t1 13v21q0 31 -11 31t-25 -68q-7 -34 -10 -66t-3 -62q0 -71 21 -71q14 0 24.5 10.5t15.5 33.5q6 6 6 25q0 16 8.5 21.5t24.5 5.5q21 0 38 -9.5
t16 -26.5z" />
    <glyph glyph-name="ordfeminine" unicode="&#xaa;" horiz-adv-x="450" 
d="M375 433q-11 -38 -55 -38q-16 0 -24 7q-13 8 -17 32q-9 42 -18 67q-2 -41 -45 -84q-44 -42 -86 -42q-55 0 -76 73q-7 25 -7 51q0 70 71 120l118 68q3 13 3 24q0 12 -4 18.5t-9 9.5t-11.5 3.5t-10.5 0.5q-16 0 -26 -10t-19 -17.5t-23 -29.5q-11 -17 -25 -19
q-19 -2 -35 13.5t-16 36.5q0 11 6 22q49 81 183 81q49 0 69 -48q7 -16 11 -45.5t7 -74.5q3 -54 7.5 -93t9.5 -64q1 -5 5 -11.5t8 -13.5t7.5 -13.5t3.5 -12.5q0 -3 -2 -11zM245 618q-23 -13 -45 -25.5t-41 -33.5q-27 -32 -27 -52q0 -18 14 -38q7 -10 16 -10q19 0 42 43.5
t41 115.5z" />
    <glyph glyph-name="guillemotleft" unicode="&#xab;" horiz-adv-x="440" 
d="M419 453q2 -14 -14 -25q-13 -9 -19.5 -15t-7.5 -7l-119 -139l131 -123q25 -24 25 -44q0 -8 -3 -15q-14 -33 -47 -33q-26 0 -37.5 12.5t-8.5 29.5q-2 7 -6 12l-96 87q-19 17 -29 33t-10 33q0 32 42 79q22 24 43 48t43 47q2 2 6 9.5t10 18.5q8 17 20 22q9 3 19 3
q20 0 38 -10.5t20 -22.5zM254 453q2 -15 -13 -25q-13 -10 -19.5 -15.5t-7.5 -6.5l-120 -139l131 -123q26 -24 26 -44q0 -8 -3 -15q-14 -33 -47 -33q-26 0 -37.5 12.5t-8.5 29.5q-2 7 -6 12l-96 87q-40 35 -40 66q0 32 42 79l87 95q4 4 15 28q8 18 21 22q7 3 19 3
q19 0 37.5 -10.5t19.5 -22.5z" />
    <glyph glyph-name="logicalnot" unicode="&#xac;" horiz-adv-x="478" 
d="M447 210q-5 -11 -26 -19.5t-43 -8.5q-40 0 -49 26q-4 7 -2 21q1 16 0 23q-2 8 -5.5 19t-7.5 26l-166 -25q-6 -1 -14 -4t-16.5 -6.5t-16.5 -6t-14 -2.5q-12 0 -23 6.5t-19.5 17t-13.5 23t-5 24.5q0 20 12 34q3 3 30 5l48 3l216 36l30 7q15 4 27 4q11 0 21 -5
q28 -17 29 -62q1 -19 1 -37v-37q1 -7 5.5 -22.5t4.5 -23.5q0 -9 -3 -16z" />
    <glyph glyph-name="softhyphen" unicode="&#xad;" horiz-adv-x="370" 
d="M328 300q-7 -7 -19 -7q-3 0 -9.5 1t-14 2.5t-15 2t-12.5 -0.5l-108 -26q-8 -1 -31 -12q-15 -7 -28 -7q-12 0 -23.5 6.5t-20.5 16.5t-14 23t-5 25q0 20 12 34q4 4 31 4q17 0 28.5 1t18.5 3l114 30q45 12 55 12q12 0 23 -6q31 -18 31 -66q0 -26 -13 -36z" />
    <glyph glyph-name="registered" unicode="&#xae;" horiz-adv-x="612" 
d="M585 419q0 -173 -77 -291q-60 -93 -132 -116q-11 -4 -22 -6t-22 0l-44 6q-124 17 -194 119q-73 107 -73 288q0 105 65 230q57 111 100 130q9 4 21 4q9 0 26 -3.5t26 -3.5q5 0 15.5 1t24.5 3q15 2 26 3.5t18 1.5q13 0 21 -3q91 -27 155 -133q66 -107 66 -230zM484 420
q0 111 -54 206q-59 104 -138 104q-17 0 -30 -4q-46 -13 -92 -110q-48 -101 -48 -196q0 -104 37 -191q28 -70 76 -119q41 -41 69 -41q53 0 107 72q73 100 73 279zM421 270q2 -8 -2 -14.5t-11 -11.5t-16.5 -8t-18.5 -3q-12 0 -17 4q-4 9 -15 22l-72 57l3 -41q0 -3 7 -13t7 -17
q0 -10 -13 -19q-8 -5 -19 -5q-16 0 -31.5 9t-18.5 23q-2 10 5 16t7 9l-15 256q0 6 -4.5 15.5t-4.5 14.5q0 4 1 6q10 19 39 19q15 1 20 -6.5t10 -8.5q1 -2 27 9q31 12 55 12q35 0 56 -24q6 -8 6 -19q0 -32 -38 -93q-34 -55 -74 -90l89 -72q4 -4 22 -11q13 -6 16 -16zM327 541
q-17 0 -64 -50l-1 -79q14 14 26.5 30.5t23.5 35.5q22 37 22 54q0 9 -7 9z" />
    <glyph glyph-name="macron" unicode="&#xaf;" horiz-adv-x="450" 
d="M404 651q-6 0 -23 4t-27 2l-210 -32q-6 -1 -14.5 -4t-17 -6.5t-16.5 -6t-13 -2.5q-12 0 -23 6.5t-20 17t-14 23t-5 24.5q0 20 13 34q3 3 30 5l48 3l216 36l30 7q15 4 27 4q11 0 21 -5q30 -18 30 -66q0 -26 -10.5 -35t-21.5 -9z" />
    <glyph glyph-name="degree" unicode="&#xb0;" horiz-adv-x="230" 
d="M195 794q18 -27 18 -78q0 -72 -32 -130q-37 -64 -92 -55q-75 12 -75 118q0 63 27 119q29 58 64 62q58 7 90 -36zM134 779q-16 4 -33 -26q-16 -28 -21 -62q-7 -41 -7 -62q0 -41 23 -49q17 -5 39 49t22 101q0 43 -23 49z" />
    <glyph glyph-name="plusminus" unicode="&#xb1;" horiz-adv-x="440" 
d="M399 403q-8 1 -21 0.5t-30 -1.5l-72 -12q2 -14 6 -38.5t11 -58.5q30 8 41 8q13 0 24 -6q30 -18 30 -66q0 -26 -12 -36q-7 -7 -19 -7q-2 0 -8.5 1t-16.5 3q-15 4 -26 1l-108 -26q-8 -1 -31 -12q-17 -7 -29 -7t-23 6.5t-20 17t-14 23t-5 24.5q0 20 12 34l82 9q-8 15 -12 46
t-5.5 47.5t-2.5 18.5l-42 -18q-18 -8 -36 -6q-22 2 -37 25t-15 50q0 17 9 34.5t25 17.5q4 0 16 -4.5t20 -2.5l50 8l-10 82q-1 6 -5 17t-4 17q0 18 36 29q24 7 51 7q62 0 62 -32q0 -7 -4.5 -24t-4.5 -24l3 -56l44 8q7 1 29 8q16 6 27 6q12 0 23.5 -6.5t20 -16.5t14 -23
t5.5 -25q0 -33 -28 -40z" />
    <glyph glyph-name="twosuperior" unicode="&#xb2;" horiz-adv-x="403" 
d="M334 398q11 -14 11 -30q0 -11 -6 -20.5t-15 -16t-20 -10.5t-21 -4q-14 0 -30 3q-12 5 -14 3q-14 2 -33 -1t-44 -8l-69 -14q-23 -2 -45 9q-16 8 -24.5 16t-9.5 19q0 21 19 31q16 7 18 15q20 20 47 54.5t53 70.5q40 57 64 105t24 74q0 12 -3.5 22t-14.5 11
q-5 -2 -10.5 -4.5t-16.5 -11.5h1q-13 -11 -20.5 -18.5l-9.5 -9.5q-4 -4 -7 -18q-4 -19 -26 -28q-6 -3 -12 -3q-11 0 -21.5 4t-21.5 11q-24 19 -27 40q0 7 5.5 16.5t14.5 19.5t20.5 19.5t23.5 16.5q34 38 64 53.5t55 14.5q49 -1 75 -35t26 -82q0 -37 -14 -81t-40 -92
q-21 -39 -43 -71.5t-48 -58.5q27 5 35.5 6t12.5 1.5t12 2.5t34 9q28 0 51 -30z" />
    <glyph glyph-name="threesuperior" unicode="&#xb3;" 
d="M344 543q1 -2 1 -8q0 -46 -70 -141q-71 -99 -113 -106q-21 -4 -64 36q-39 38 -44 58q-3 16 9.5 28.5t28.5 11.5q20 -2 39 -16q20 -14 29 -15q9 -2 51 57q42 58 42 80q0 11 -15 11q-9 0 -20 -8.5t-20 -14.5q-9 -4 -20.5 -14.5t-21.5 -10.5q-19 0 -40 21q-22 21 -20 47
q0 15 24 24q16 5 25 9t11 6q27 21 60 66q33 46 33 71q-2 7 -4 10.5t-3 5.5q-5 3 -30 -19q-23 -20 -42 -42q-3 -3 -7.5 -9t-9.5 -16q-7 -14 -21 -19q-4 -1 -7 -1.5t-7 -0.5q-20 0 -37 15.5t-23 35.5q-4 15 81 82t122 67q30 0 50 -29t18 -61q-2 -53 -18 -86q-11 -21 -46 -63
q34 -8 50 -21q21 -14 29 -41z" />
    <glyph glyph-name="acute" unicode="&#xb4;" horiz-adv-x="210" 
d="M201 760q0 -24 -21 -49l-35 -43l-18 -39q-13 -27 -23.5 -32t-24.5 -5q-22 0 -39 10.5t-17 26.5q0 5 2 11q26 65 100 144q9 9 25 9q18 0 34.5 -10t16.5 -23z" />
    <glyph glyph-name="mu" unicode="&#xb5;" horiz-adv-x="440" 
d="M425 48q1 -19 -26 -43q-28 -23 -53 -23q-14 0 -22 6.5t-12 14.5q-8 17 -26 3q-17 -12 -66 -12q-28 0 -51 17l-33 32q3 -35 3 -53q0 -67 -29 -93q-11 -8 -28 -8q-42 0 -58 33q-9 18 -9 82q0 84 10.5 205.5t32.5 284.5q-7 21 -7 41q0 30 19 49q17 17 47 17q25 0 47 -10.5
t26 -24.5q1 -4 1.5 -7t0.5 -7q0 -12 -11 -42q-10 -28 -9 -46q-5 -30 -8 -70t-3 -91q0 -189 51 -189q42 0 55 142q4 35 5.5 91.5t1.5 134.5q0 10 -3 29t-3 28q0 24 18 33q12 5 28 5q31 0 61 -14q32 -16 37 -45q2 -15 -6 -32q-10 -22 -12 -34q0 -233 -25 -320q54 -73 56 -84z
" />
    <glyph glyph-name="paragraph" unicode="&#xb6;" horiz-adv-x="470" 
d="M452 47q-2 -12 -11 -22t-21.5 -17.5t-27 -11.5t-27.5 -4q-22 0 -32 10q-16 22 -16 34q0 7 7.5 17t7.5 19q4 37 5.5 70t1.5 62q0 33 -3 56q-17 -9 -50 -2v-154q0 -12 8 -38q8 -24 8 -34q0 -8 -5 -20q-20 -35 -57 -35q-35 0 -55 31q-6 10 -6 23q0 5 2 13.5t4.5 18.5
t4.5 19.5t2 15.5l-1 228q-68 80 -121 175q-58 107 -58 174q0 31 13 48q59 83 160 83q31 0 60 -7q16 1 47 -11q30 -11 45 -12q64 11 94 -2q25 -10 25 -26q0 -5 -2.5 -13.5t-2.5 -11.5l-1 -627l4 -16q2 -6 1 -14t-3 -19zM343 619q-26 31 -57 47v-266q25 -22 42 -22q7 0 12 5z
M189 698q-55 3 -55 -46q0 -50 56 -139z" />
    <glyph glyph-name="periodcentered" unicode="&#xb7;" horiz-adv-x="190" 
d="M166 460q1 -12 -3 -28q-8 -26 -8 -28q-1 -12 -1 -25t-4.5 -23.5t-14.5 -17t-31 -6.5q-27 0 -49 11q-24 13 -26 34q-1 10 5 21q3 8 4.5 13t2.5 8q1 4 1.5 13t-0.5 25q-1 46 48 46q26 0 49 -12t27 -31z" />
    <glyph glyph-name="cedilla" unicode="&#xb8;" horiz-adv-x="190" 
d="M162 46q2 -10 2 -14q0 -14 -24 -44l-58 -78q-28 -38 -45 -40q-21 -1 -44 22q-24 22 -19 46q0 3 31 35q34 34 41 57q5 7 7 26t8 25t20 6q21 0 50 -13q28 -13 31 -28z" />
    <glyph glyph-name="onesuperior" unicode="&#xb9;" horiz-adv-x="386" 
d="M345 354q-14 -29 -66 -29q-50 0 -91 23q-45 27 -39 64q3 15 22 34q18 18 18 34l-18 444q-2 24 -45 46t-45 56q30 62 69 100q37 35 67 38q41 4 76 -23q34 -26 32 -67q0 -6 -3.5 -12.5t-7.5 -14t-7.5 -14.5t-3.5 -13l16 -528q0 -11 5 -23.5t13 -26.5q17 -28 17 -47t-9 -41z
" />
    <glyph glyph-name="ordmasculine" unicode="&#xba;" horiz-adv-x="450" 
d="M310 775q50 -52 50 -172q0 -93 -35 -160q-39 -75 -109 -75t-107 67q-33 58 -33 149q0 40 7 75.5t19 67.5q26 66 69 79q11 3 22.5 5t22.5 2q56 0 94 -38zM225 739q-25 1 -43 -47q-16 -42 -16 -93q0 -70 6 -100q10 -52 44 -57q21 -3 39 58q17 60 17 125q0 109 -47 114z" />
    <glyph glyph-name="guillemotright" unicode="&#xbb;" horiz-adv-x="440" 
d="M385 362q19 -17 29 -33t10 -33q0 -33 -43 -80q-21 -23 -42 -47t-43 -47q-2 -2 -6 -9.5t-10 -18.5q-8 -17 -18.5 -21t-20.5 -4q-20 0 -38 10.5t-20 22.5q-1 13 13 25l28 22l119 139l-131 123q-25 24 -25 44q0 7 3 15q12 33 47 33q26 0 37.5 -13t8.5 -29q0 -8 6 -12z
M220 362q40 -35 40 -66q0 -33 -43 -80l-86 -94q-4 -4 -15 -28q-8 -18 -21 -22q-8 -3 -19 -3q-19 0 -37.5 10.5t-19.5 22.5q-2 15 13 25q13 10 19.5 15.5t7.5 6.5l120 139l-131 123q-26 24 -26 44q0 7 3 15q13 33 47 33q26 0 38 -13t8 -29q1 -8 6 -12z" />
    <glyph glyph-name="onehalf" unicode="&#xbd;" horiz-adv-x="696" 
d="M206 315q-11 -18 -42 -18q-29 0 -51 12q-28 16 -24 42q1 6 5 11.5t9 11.5q6 6 6 10l-9 221q0 7 -17 13q-27 14 -29 40q18 33 38 53q22 20 40 22q24 2 44 -14.5t20 -39.5q0 -5 -2 -9t-4 -9q-4 -7 -4 -9l8 -263q0 -7 7 -20q3 -8 6.5 -15t3.5 -14q0 -12 -5 -24v-1zM468 691
q21 -21 21 -53q0 -13 -15 -31q-18 -18 -19 -24q-49 -124 -100 -247l-102 -246q-1 -4 -5 -17t-9 -36q-9 -35 -26 -40h1q-20 -6 -48 15q-31 22 -31 56q1 16 11 32v-1l15 24l-1 -1l216 520q1 3 3 11t4 22q5 23 18 32q15 5 21 5q25 0 46 -21zM645 88q9 -15 9 -26q0 -21 -18 -34
t-37 -13q-12 0 -25 4h1q-11 3 -15 3q-18 1 -67 -8l-63 -13q-17 -2 -37 8q-30 10 -30 33q-3 15 20 30q12 5 13 8q18 20 40.5 48.5t45.5 60.5q74 104 74 150q0 12 -7 20q-4 -2 -9.5 -6.5t-13.5 -11.5q-11 -8 -16.5 -13.5t-7.5 -8.5q-4 -4 -8 -17v1q-5 -20 -22 -26
q-5 -2 -7.5 -2h-4.5q-18 0 -38 14q-11 8 -18 17.5t-7 19.5q0 6 4.5 14t12.5 16.5t18.5 17t21.5 14.5q29 32 56 45t49 13q86 -2 86 -87q0 -31 -12.5 -69.5t-35.5 -80.5q-35 -65 -77 -109q31 3 45 5t19.5 3.5t7 3t7.5 3.5q26 0 46 -26v-1z" />
    <glyph glyph-name="questiondown" unicode="&#xbf;" horiz-adv-x="410" 
d="M217 627q-61 0 -80 34q-8 14 -8 32v34q0 11 -6 29t-6 27q0 11 6 20q13 22 38 22q23 0 47.5 -17t36.5 -39q8 -14 8 -32v-36q0 -9 5 -24t5 -22q0 -10 -6.5 -19t-39.5 -9zM395 181q-1 -40 -48 -58q-54 -64 -93 -97q-56 -44 -108 -44q-44 0 -87 31q-56 42 -56 103
q0 57 61 160q80 138 97 181q7 18 7 28q0 4 -2 10.5t-1 13.5q-1 -5 -1 4.5t-1 32.5q0 19 11 26.5t25 7.5q30 0 62 -27q31 -25 34 -56q4 -46 -77 -198q-83 -154 -83 -196q0 -26 14 -26q30 0 110 110q6 6 15 26q8 16 20 22.5t28 6.5q14 0 27 -5t23.5 -13t16.5 -19.5t6 -23.5z
" />
    <glyph glyph-name="Agrave" unicode="&#xc0;" horiz-adv-x="498" 
d="M313 714q-5 -36 -48 -36q-10 0 -17 3q-11 5 -17 19q-5 13 -8.5 20l-4.5 9q-2 4 -25 30q-12 13 -10 29q2 14 16.5 23t32.5 9q12 0 23 -6q30 -17 47 -49q14 -28 11 -51zM470 163q-6 -10 -24 -11.5t-35 -2.5q6 -39 42 -90q21 -15 21 -40q0 -38 -49 -38q-45 0 -62 22
q-5 7 -7 22v9t-1 9q-7 7 -43 93q-65 -9 -162 -27q-10 -24 -20 -67q2 -10 2 -15q0 -44 -50 -44q-23 0 -41.5 16t-18.5 38q0 20 18 37q60 304 146 504q-1 5 -1.5 10t-0.5 10q0 40 27 52q12 5 28 5q32 0 56 -11q30 -15 30 -43q0 -26 -15 -47q15 -138 66 -314q61 13 59 13
q9 0 16 -5q28 -21 28 -53q0 -17 -9 -32zM278 224q-7 26 -17.5 74t-25.5 120q-28 -62 -45 -115t-22 -98z" />
    <glyph glyph-name="Aacute" unicode="&#xc1;" horiz-adv-x="501" 
d="M347 788q2 -16 -10 -29q-25 -28 -26 -30l-12 -29q-6 -14 -17 -19q-8 -3 -17 -3q-44 0 -48 36q-3 23 11 51q17 32 47 49q10 6 23 6q18 0 32.5 -9t16.5 -23zM470 163q-6 -10 -24 -11.5t-35 -2.5q6 -39 42 -90q21 -15 21 -40q0 -38 -49 -38q-45 0 -62 22q-5 7 -7 22v9t-1 9
q-7 7 -43 93q-65 -9 -162 -27q-10 -24 -20 -67q2 -10 2 -15q0 -44 -50 -44q-23 0 -41.5 16t-18.5 38q0 20 18 37q60 304 146 504q-1 5 -1.5 10t-0.5 10q0 40 27 52q12 5 28 5q32 0 56 -11q30 -15 30 -43q0 -26 -15 -47q15 -138 66 -314q61 13 59 13q9 0 16 -5q28 -21 28 -53
q0 -17 -9 -32zM278 224q-7 26 -17.5 74t-25.5 120q-28 -62 -45 -115t-22 -98z" />
    <glyph glyph-name="Acircumflex" unicode="&#xc2;" horiz-adv-x="501" 
d="M345 656q-8 0 -14.5 2t-13.5 4q-1 1 -22 23l-49 55q-26 -23 -45 -60q-13 -26 -27 -28q-9 0 -20 3t-20 9t-15 14t-6 17q0 20 55 71l14 22t15 22q19 28 37 28q12 0 22.5 -3.5t18.5 -11.5l38 -39q38 -39 59.5 -60.5t21.5 -31.5q0 -15 -17 -25.5t-32 -10.5zM470 163
q-6 -10 -24 -11.5t-35 -2.5q6 -39 42 -90q21 -15 21 -40q0 -38 -49 -38q-45 0 -62 22q-5 7 -7 22v9t-1 9q-7 7 -43 93q-65 -9 -162 -27q-10 -24 -20 -67q2 -10 2 -15q0 -44 -50 -44q-23 0 -41.5 16t-18.5 38q0 20 18 37q60 304 146 504q-1 5 -1.5 10t-0.5 10q0 40 27 52
q12 5 28 5q32 0 56 -11q30 -15 30 -43q0 -26 -15 -47q15 -138 66 -314q61 13 59 13q9 0 16 -5q28 -21 28 -53q0 -17 -9 -32zM278 224q-7 26 -17.5 74t-25.5 120q-28 -62 -45 -115t-22 -98z" />
    <glyph glyph-name="Atilde" unicode="&#xc3;" horiz-adv-x="494" 
d="M384 702q-44 -32 -70 -26l-102 22q-18 4 -43 -18q-26 -21 -36 -21q-9 0 -18 5t-16 13t-11.5 18t-4.5 20q0 19 13 33q6 7 26 19q25 15 45 15q5 0 13 -2l108 -30q18 -5 40 19q24 24 32 24q15 0 25 -22q7 -18 7 -36q0 -19 -8 -33zM470 163q-6 -10 -24 -11.5t-35 -2.5
q6 -39 42 -90q21 -15 21 -40q0 -38 -49 -38q-45 0 -62 22q-5 7 -7 22v9t-1 9q-7 7 -43 93q-65 -9 -162 -27q-10 -24 -20 -67q2 -10 2 -15q0 -44 -50 -44q-23 0 -41.5 16t-18.5 38q0 20 18 37q60 304 146 504q-1 5 -1.5 10t-0.5 10q0 40 27 52q12 5 28 5q32 0 56 -11
q30 -15 30 -43q0 -26 -15 -47q15 -138 66 -314q61 13 59 13q9 0 16 -5q28 -21 28 -53q0 -17 -9 -32zM278 224q-7 26 -17.5 74t-25.5 120q-28 -62 -45 -115t-22 -98z" />
    <glyph glyph-name="Adieresis" unicode="&#xc4;" horiz-adv-x="498" 
d="M395 749q1 -2 -7 -41q0 -17 -10 -44q-8 -8 -28 -8q-52 0 -53 33q0 7 3 16q2 4 3 7t2 6.5t1 9.5v18q0 33 36 33q47 0 53 -30zM257 769q2 -9 -1.5 -19.5t-6.5 -21.5q1 -15 -9 -43q-8 -8 -27 -8q-52 0 -55 33q-1 6 3.5 16.5t5.5 12.5q1 3 1.5 10t-0.5 18q-1 32 34 32
q49 0 55 -30zM470 163q-6 -10 -24 -11.5t-35 -2.5q6 -39 42 -90q21 -15 21 -40q0 -38 -49 -38q-45 0 -62 22q-5 7 -7 22v9t-1 9q-7 7 -43 93q-65 -9 -162 -27q-10 -24 -20 -67q2 -10 2 -15q0 -44 -50 -44q-23 0 -41.5 16t-18.5 38q0 20 18 37q60 304 146 504q-1 5 -1.5 10
t-0.5 10q0 40 27 52q12 5 28 5q32 0 56 -11q30 -15 30 -43q0 -26 -15 -47q15 -138 66 -314q61 13 59 13q9 0 16 -5q28 -21 28 -53q0 -17 -9 -32zM278 224q-7 26 -17.5 74t-25.5 120q-28 -62 -45 -115t-22 -98z" />
    <glyph glyph-name="Aring" unicode="&#xc5;" horiz-adv-x="498" 
d="M342 781q0 -40 -32 -72t-72 -32q-29 0 -50.5 21t-21.5 52q0 39 30 71q31 33 73 33q32 0 52.5 -21.5t20.5 -51.5zM470 163q-6 -10 -24 -11.5t-35 -2.5q6 -39 42 -90q21 -15 21 -40q0 -38 -49 -38q-45 0 -62 22q-5 7 -7 22v9t-1 9q-7 7 -43 93q-65 -9 -162 -27
q-10 -24 -20 -67q2 -10 2 -15q0 -44 -50 -44q-23 0 -41.5 16t-18.5 38q0 20 18 37q60 304 146 504q-1 5 -1.5 10t-0.5 10q0 40 27 52q12 5 28 5q32 0 56 -11q30 -15 30 -43q0 -26 -15 -47q15 -138 66 -314q61 13 59 13q9 0 16 -5q28 -21 28 -53q0 -17 -9 -32zM275 805
q-17 0 -42 -24q-24 -23 -24 -42q0 -24 23 -24q26 0 49 30q17 23 17 37q0 23 -23 23zM278 224q-7 26 -17.5 74t-25.5 120q-28 -62 -45 -115t-22 -98z" />
    <glyph glyph-name="AE" unicode="&#xc6;" horiz-adv-x="740" 
d="M720 709q-16 -13 -65 -19q-78 -9 -92 -12q-56 -12 -90 -42q-7 -103 0 -238q12 9 58 21q47 12 57 8q36 -12 62 -36q28 -27 24 -58q-6 -34 -54 -37q-16 -2 -32 -2.5t-32 -2.5l-56 -26q0 -91 10 -115q38 10 66 23l10 14q10 10 36 8q27 -1 58 -32q30 -29 30 -60
q0 -27 -23 -40.5t-77 -9.5q-5 -2 -24.5 -14.5t-53.5 -34.5q-44 -25 -67 -25q-27 0 -64 25q-35 25 -43 53q-2 11 5 30l12 33l-2 43l-3 7q-42 -6 -92 -14.5t-110 -19.5q-13 -31 -26 -84q1 -5 1.5 -9.5t0.5 -9.5q0 -26 -18 -40.5t-43 -14.5q-14 0 -27.5 5.5t-24.5 15t-17.5 22
t-6.5 26.5q0 25 23 45q75 379 182 630q-1 6 -1.5 12t-0.5 12q0 50 34 66q19 8 36 8q21 0 60 -15q40 -15 62 -15q9 0 14 1q14 2 33 -7q15 -6 25 -13l120 38q3 1 22 12q14 8 31 8q4 0 9 -0.5t10 -1.5q21 -4 43 -35t22 -56q0 -18 -11 -27zM328 280q-16 61 -54 242
q-70 -154 -84 -266z" />
    <glyph glyph-name="Ccedilla" unicode="&#xc7;" horiz-adv-x="453" 
d="M420 211q-10 -24 -32 -57.5t-57 -78.5q-72 -91 -94 -85q-9 2 -45 -86q-36 -89 -43 -86q-11 3 -21 6t-20 7q-29 13 -40 47q-2 9 29 63q31 55 29 58q-51 45 -80 149q-13 45 -19 91t-7 94q-1 85 10 161t34 145q52 160 141 171q7 1 13 1h12q83 0 128 -74q33 -56 56 -178
q17 -51 17 -60q0 -33 -41 -51q-8 -4 -21 -4q-30 0 -64 19q-41 23 -41 48q0 3 14 39q-1 22 -5 42.5t-11 40.5q-13 39 -32 44q-28 7 -49 -111q-9 -49 -14.5 -102.5t-7.5 -113.5q-3 -91 10 -165q15 -87 45 -93q18 -3 43 45q12 22 22 48t18 56q-1 5 -1.5 9.5t-0.5 9.5
q0 59 72 59q15 0 32 -3q49 -10 49 -49q0 -32 -28 -56z" />
    <glyph glyph-name="Egrave" unicode="&#xc8;" horiz-adv-x="360" 
d="M205 684q-5 -27 -28 -27q-10 0 -25 6q-11 5 -17 19q-5 13 -8.5 20l-4.5 9q-2 4 -25 30q-12 13 -10 29q5 23 30 23q15 0 30 -9q30 -17 47 -49q14 -28 11 -51zM328 562q-25 -21 -75 -13q-11 -4 -21.5 -7t-20.5 -7q-45 -16 -59 -29q-5 -78 0 -191q3 2 24 7q9 16 33 16
t53 -22q31 -22 31 -44q0 -5 -2 -11q-14 -34 -47 -34h-47l-45 -21q0 -70 5 -92q14 4 28 8.5t28 10.5l8 10q7 9 29 7q21 -1 46 -26q24 -23 24 -48q0 -16 -11 -27q-20 -17 -69 -12l-75 -37q-2 -1 -7 -5t-13 -11q-11 -10 -22 -10q-43 0 -85 66q-4 6 7 42q-6 150 -6 263
q0 89 3 233q-6 7 -6 16q0 26 49 33q10 1 26 -6l20 -10q20 7 43.5 14.5t52.5 16.5l18 9q10 7 24 7q4 0 7.5 -0.5t8.5 -1.5q18 -3 34 -28q17 -25 17 -45q0 -13 -8 -21z" />
    <glyph glyph-name="Eacute" unicode="&#xc9;" horiz-adv-x="360" 
d="M257 776q2 -16 -10 -29q-25 -28 -26 -30l-12 -29q-6 -14 -17 -19q-8 -3 -17 -3q-44 0 -48 36q-3 23 11 51q17 32 47 49q10 6 23 6q18 0 32.5 -9t16.5 -23zM328 562q-25 -21 -75 -13q-11 -4 -21.5 -7t-20.5 -7q-45 -16 -59 -29q-5 -78 0 -191q3 2 24 7q9 16 33 16t53 -22
q31 -22 31 -44q0 -5 -2 -11q-14 -34 -47 -34h-47l-45 -21q0 -70 5 -92q14 4 28 8.5t28 10.5l8 10q7 9 29 7q21 -1 46 -26q24 -23 24 -48q0 -16 -11 -27q-20 -17 -69 -12l-75 -37q-2 -1 -7 -5t-13 -11q-11 -10 -22 -10q-43 0 -85 66q-4 6 7 42q-6 150 -6 263q0 89 3 233
q-6 7 -6 16q0 26 49 33q10 1 26 -6l20 -10q20 7 43.5 14.5t52.5 16.5l18 9q10 7 24 7q4 0 7.5 -0.5t8.5 -1.5q18 -3 34 -28q17 -25 17 -45q0 -13 -8 -21z" />
    <glyph glyph-name="Ecircumflex" unicode="&#xca;" horiz-adv-x="363" 
d="M279 686q-8 0 -14.5 2t-13.5 4q-1 1 -22 23l-49 55q-26 -23 -45 -60q-13 -26 -27 -28q-9 0 -20 3t-20 9t-15 14t-6 17q0 20 55 71l14 22t15 22q19 28 37 28q12 0 22.5 -3.5t18.5 -11.5l38 -39q38 -39 59.5 -60.5t21.5 -31.5q0 -15 -17 -25.5t-32 -10.5zM328 562
q-25 -21 -75 -13q-11 -4 -21.5 -7t-20.5 -7q-45 -16 -59 -29q-5 -78 0 -191q3 2 24 7q9 16 33 16t53 -22q31 -22 31 -44q0 -5 -2 -11q-14 -34 -47 -34h-47l-45 -21q0 -70 5 -92q14 4 28 8.5t28 10.5l8 10q7 9 29 7q21 -1 46 -26q24 -23 24 -48q0 -16 -11 -27
q-20 -17 -69 -12l-75 -37q-2 -1 -7 -5t-13 -11q-11 -10 -22 -10q-43 0 -85 66q-4 6 7 42q-6 150 -6 263q0 89 3 233q-6 7 -6 16q0 26 49 33q10 1 26 -6l20 -10q20 7 43.5 14.5t52.5 16.5l18 9q10 7 24 7q4 0 7.5 -0.5t8.5 -1.5q18 -3 34 -28q17 -25 17 -45q0 -13 -8 -21z
" />
    <glyph glyph-name="Edieresis" unicode="&#xcb;" horiz-adv-x="363" 
d="M317 767q1 -2 -7 -41q0 -17 -10 -44q-8 -8 -28 -8q-52 0 -53 33q0 7 3 16q2 4 3 7t2 6.5t1 9.5v18q0 33 36 33q47 0 53 -30zM179 787q2 -9 -1.5 -19.5t-6.5 -21.5q1 -15 -9 -43q-8 -8 -27 -8q-52 0 -55 33q-1 6 3.5 16.5t5.5 12.5q1 3 1.5 10t-0.5 18q-1 32 34 32
q49 0 55 -30zM328 562q-25 -21 -75 -13q-11 -4 -21.5 -7t-20.5 -7q-45 -16 -59 -29q-5 -78 0 -191q3 2 24 7q9 16 33 16t53 -22q31 -22 31 -44q0 -5 -2 -11q-14 -34 -47 -34h-47l-45 -21q0 -70 5 -92q14 4 28 8.5t28 10.5l8 10q7 9 29 7q21 -1 46 -26q24 -23 24 -48
q0 -16 -11 -27q-20 -17 -69 -12l-75 -37q-2 -1 -7 -5t-13 -11q-11 -10 -22 -10q-43 0 -85 66q-4 6 7 42q-6 150 -6 263q0 89 3 233q-6 7 -6 16q0 26 49 33q10 1 26 -6l20 -10q20 7 43.5 14.5t52.5 16.5l18 9q10 7 24 7q4 0 7.5 -0.5t8.5 -1.5q18 -3 34 -28q17 -25 17 -45
q0 -13 -8 -21z" />
    <glyph glyph-name="Igrave" unicode="&#xcc;" horiz-adv-x="209" 
d="M163 702q-5 -27 -28 -27q-10 0 -25 6q-11 5 -17 19q-5 13 -8.5 20l-4.5 9q-2 4 -25 30q-12 13 -10 29q5 23 30 23q15 0 30 -9q30 -17 47 -49q14 -28 11 -51zM171 6q-9 -25 -62 -17q-79 12 -79 49q0 17 18 34l-14 490q1 10 -6 24t-7 21q0 14 19 30q13 11 36 11
q26 0 56 -14q35 -17 35 -40q0 -2 -17 -44l8 -484q0 -10 7.5 -25t7.5 -24q0 -3 -2 -11z" />
    <glyph glyph-name="Iacute" unicode="&#xcd;" horiz-adv-x="206" 
d="M191 788q2 -16 -10 -29q-25 -28 -26 -30l-12 -29q-6 -14 -17 -19q-8 -3 -17 -3q-44 0 -48 36q-3 23 11 51q17 32 47 49q10 6 23 6q18 0 32.5 -9t16.5 -23zM171 6q-9 -25 -62 -17q-79 12 -79 49q0 17 18 34l-14 490q1 10 -6 24t-7 21q0 14 19 30q13 11 36 11q26 0 56 -14
q35 -17 35 -40q0 -2 -17 -44l8 -484q0 -10 7.5 -25t7.5 -24q0 -3 -2 -11z" />
    <glyph glyph-name="Icircumflex" unicode="&#xce;" horiz-adv-x="289" 
d="M254 677q-8 0 -14.5 2t-13.5 4q-1 1 -22 23l-49 55q-26 -23 -45 -60q-13 -26 -27 -28q-9 0 -20 3t-20 9t-15 14t-6 17q0 20 55 71l14 22t15 22q19 28 37 28q12 0 22.5 -3.5t18.5 -11.5l38 -39q38 -39 59.5 -60.5t21.5 -31.5q0 -15 -17 -25.5t-32 -10.5zM248 -6
q-9 -27 -62 -19q-79 12 -79 49q0 17 18 34l-14 490q1 10 -6 24t-7 21q0 14 19 30q13 11 36 11q26 0 56 -14q35 -17 35 -40q0 -2 -17 -44l8 -484q0 -10 7.5 -25t7.5 -24q0 -2 -0.5 -4t-1.5 -5z" />
    <glyph glyph-name="Idieresis" unicode="&#xcf;" horiz-adv-x="245" 
d="M269 761q1 -2 -7 -41q0 -17 -10 -44q-8 -8 -28 -8q-52 0 -53 33q0 7 3 16q2 4 3 7t2 6.5t1 9.5v18q0 33 36 33q47 0 53 -30zM131 781q2 -9 -1.5 -19.5t-6.5 -21.5q1 -15 -9 -43q-8 -8 -27 -8q-52 0 -55 33q-1 6 3.5 16.5t5.5 12.5q1 3 1.5 10t-0.5 18q-1 32 34 32
q49 0 55 -30zM213 6q-9 -25 -62 -17q-79 12 -79 49q0 17 18 34l-14 490q1 10 -6 24t-7 21q0 14 19 30q13 11 36 11q26 0 56 -14q35 -17 35 -40q0 -2 -17 -44l8 -484q0 -10 7.5 -25t7.5 -24q0 -3 -2 -11z" />
    <glyph glyph-name="Uni00D0" unicode="&#xd0;" horiz-adv-x="490" 
d="M474 654q4 -68 -46 -237q-26 -91 -55 -167.5t-64 -141.5q-80 -150 -148 -150q-34 0 -65 30q-32 29 -32 61q0 15 9 27l-12 361h-39q-25 -19 -46 -19q-46 0 -44 66q0 11 6 23t17 25q18 22 39 22q8 0 49 -27h17q-1 43 -0.5 78t1.5 61q-20 35 -20 50q0 25 26 43q25 17 50 17
q23 0 40 -14q129 51 172 51q22 0 46 -11q16 -8 31.5 -22t30.5 -34q34 -46 37 -92zM287 473q0 -24 -14 -38.5t-31 -14.5q-15 0 -54 17h-3q1 -122 12 -249q26 65 50.5 132t47.5 139q48 154 48 206q0 15 -4 19q-11 12 -26 12q-32 0 -122 -72q-2 -23 -3 -47.5t-2 -49.5h7
q29 17 39 17q24 0 41 -32q17 -29 14 -39z" />
    <glyph glyph-name="Ntilde" unicode="&#xd1;" horiz-adv-x="495" 
d="M384 702q-44 -32 -70 -26l-102 22q-18 4 -43 -18q-26 -21 -36 -21q-9 0 -18 5t-16 13t-11.5 18t-4.5 20q0 19 13 33q6 7 26 19q25 15 45 15q5 0 13 -2l108 -30q18 -5 40 19q24 24 32 24q15 0 25 -22q7 -18 7 -36q0 -19 -8 -33zM464 58q-2 -29 -20.5 -48.5t-45.5 -17.5
q-67 4 -92 66q-3 7 -5 31q-2 21 -8 31q-15 23 -28.5 45t-26.5 43q-30 51 -52.5 93.5t-36.5 77.5q-2 -42 1.5 -118t11.5 -189q0 -3 2.5 -8.5t5.5 -13t5.5 -15t2.5 -13.5q0 -15 -10 -25q-14 -18 -40 -18q-15 0 -30 4.5t-27.5 13t-21 19t-9.5 22.5q-3 19 9 30q13 10 13 18
l-24 490q0 4 -1.5 12t-1.5 11q0 12 12.5 19.5t35.5 7.5q60 0 85 -31q7 -7 7 -19q0 -5 -1.5 -12.5t-1.5 -10.5q0 -5 1 -6q9 -83 168 -342l-10 390q0 7 -5.5 16t-5.5 14q0 10 16 26q9 9 27 9q29 0 61 -21q30 -19 32 -44q1 -14 -13 -24q-13 -9 -13 -17l12 -439q0 -12 11 -29
q12 -17 11 -28z" />
    <glyph glyph-name="Ograve" unicode="&#xd2;" horiz-adv-x="436" 
d="M410 336q5 -108 -37 -221q-41 -110 -90 -127q-10 -3 -28.5 -3.5t-46.5 3.5q-166 18 -182 348q-4 89 29 192q32 96 65 118q8 5 17 5q8 0 23 -4.5t23 -4.5q12 0 35 4q13 2 22 3.5t15 1.5q11 0 19 -3q122 -49 136 -312zM302 336q-8 102 -21 151q-23 84 -66 84q-13 0 -26 -6
t-34 -83q-23 -84 -23 -146q0 -83 28 -173q28 -91 56 -91q27 0 59 93q33 94 27 171zM229 704q-5 -27 -28 -27q-10 0 -25 6q-11 5 -17 19q-5 13 -8.5 20l-4.5 9q-2 4 -25 30q-11 13 -10 29q5 23 30 23q15 0 30 -9q30 -17 47 -49q14 -28 11 -51z" />
    <glyph glyph-name="Oacute" unicode="&#xd3;" horiz-adv-x="438" 
d="M329 782q2 -16 -10 -29q-25 -28 -26 -30l-12 -29q-6 -14 -17 -19q-8 -3 -17 -3q-44 0 -48 36q-3 23 11 51q17 32 47 49q10 6 23 6q18 0 32.5 -9t16.5 -23zM410 336q5 -108 -37 -221q-41 -110 -90 -127q-10 -3 -28.5 -3.5t-46.5 3.5q-166 18 -182 348q-4 89 29 192
q32 96 65 118q8 5 17 5q8 0 23 -4.5t23 -4.5q12 0 35 4q13 2 22 3.5t15 1.5q11 0 19 -3q122 -49 136 -312zM302 336q-8 102 -21 151q-23 84 -66 84q-13 0 -26 -6t-34 -83q-23 -84 -23 -146q0 -83 28 -173q28 -91 56 -91q27 0 59 93q33 94 27 171z" />
    <glyph glyph-name="Ocircumflex" unicode="&#xd4;" horiz-adv-x="440" 
d="M285 671q-8 0 -14.5 2t-13.5 4q-1 1 -22 23l-49 55q-26 -23 -45 -60q-13 -26 -27 -28q-9 0 -20 3t-20 9t-15 14t-6 17q0 20 55 71l14 22t15 22q19 28 37 28q12 0 22.5 -3.5t18.5 -11.5l38 -39q38 -39 59.5 -60.5t21.5 -31.5q0 -15 -17 -25.5t-32 -10.5zM410 336
q5 -108 -37 -221q-41 -110 -90 -127q-10 -3 -28.5 -3.5t-46.5 3.5q-166 18 -182 348q-4 89 29 192q32 96 65 118q8 5 17 5q8 0 23 -4.5t23 -4.5q12 0 35 4q13 2 22 3.5t15 1.5q11 0 19 -3q122 -49 136 -312zM302 336q-8 102 -21 151q-23 84 -66 84q-13 0 -26 -6t-34 -83
q-23 -84 -23 -146q0 -83 28 -173q28 -91 56 -91q27 0 59 93q33 94 27 171z" />
    <glyph glyph-name="Otilde" unicode="&#xd5;" horiz-adv-x="436" 
d="M354 696q-44 -32 -70 -26l-102 22q-18 4 -43 -18q-26 -21 -36 -21q-9 0 -18 5t-16 13t-11.5 18t-4.5 20q0 19 13 33q6 7 26 19q25 15 45 15q5 0 13 -2l108 -30q18 -5 40 19q24 24 32 24q15 0 25 -22q7 -18 7 -36q0 -19 -8 -33zM410 336q5 -108 -37 -221
q-41 -110 -90 -127q-10 -3 -28.5 -3.5t-46.5 3.5q-166 18 -182 348q-4 89 29 192q32 96 65 118q8 5 17 5q8 0 23 -4.5t23 -4.5q12 0 35 4q13 2 22 3.5t15 1.5q11 0 19 -3q122 -49 136 -312zM302 336q-8 102 -21 151q-23 84 -66 84q-13 0 -26 -6t-34 -83q-23 -84 -23 -146
q0 -83 28 -173q28 -91 56 -91q27 0 59 93q33 94 27 171z" />
    <glyph glyph-name="Odieresis" unicode="&#xd6;" horiz-adv-x="445" 
d="M341 761q1 -2 -7 -41q0 -17 -10 -44q-8 -8 -28 -8q-52 0 -53 33q0 7 3 16q2 4 3 7t2 6.5t1 9.5v18q0 33 36 33q47 0 53 -30zM203 781q2 -9 -1.5 -19.5t-6.5 -21.5q1 -15 -9 -43q-8 -8 -27 -8q-52 0 -55 33q-1 6 3.5 16.5t5.5 12.5q1 3 1.5 10t-0.5 18q-1 32 34 32
q49 0 55 -30zM410 336q5 -108 -37 -221q-41 -110 -90 -127q-10 -3 -28.5 -3.5t-46.5 3.5q-166 18 -182 348q-4 89 29 192q32 96 65 118q8 5 17 5q8 0 23 -4.5t23 -4.5q12 0 35 4q13 2 22 3.5t15 1.5q11 0 19 -3q122 -49 136 -312zM302 336q-8 102 -21 151q-23 84 -66 84
q-13 0 -26 -6t-34 -83q-23 -84 -23 -146q0 -83 28 -173q28 -91 56 -91q27 0 59 93q33 94 27 171z" />
    <glyph glyph-name="Oslash" unicode="&#xd8;" horiz-adv-x="540" 
d="M513 420q7 -132 -46 -277q-52 -141 -113 -159q-12 -4 -24 -6t-23 0l-47 6q-206 24 -227 436q-6 112 36 240q39 118 81 147q10 7 22 7q4 0 12 -1.5t16 -4t16 -4t13 -1.5q6 0 16.5 1.5t26.5 3.5q31 6 47 6q15 0 23 -4q154 -63 171 -390zM364 542q-27 172 -96 172
q-14 0 -32 -8q-16 -7 -43 -103q-28 -102 -28 -183q0 -15 1 -31.5t3 -34.5zM378 414q-29 -31 -76 -75t-111 -102q39 -147 79 -147q33 0 73 112q41 117 35 212z" />
    <glyph glyph-name="Ugrave" unicode="&#xd9;" horiz-adv-x="435" 
d="M259 684q-5 -27 -28 -27q-10 0 -25 6q-11 5 -17 19q-5 13 -8.5 20l-4.5 9q-2 4 -25 30q-12 13 -10 29q5 23 30 23q15 0 30 -9q30 -17 47 -49q14 -28 11 -51zM406 615q8 -16 8 -26l-9 -29l-3 -180q-2 -84 -14 -150t-29 -117q-47 -137 -141 -141q-112 -6 -158 169
q-17 61 -24.5 136.5t-7.5 168.5q0 67 3 100q-8 26 -8 41q0 27 16 43q11 11 36 11q31 0 58.5 -15.5t28.5 -42.5q1 -13 -8 -28.5t-8 -25.5q-7 -24 11 -228q19 -217 50 -215q36 1 60 167q10 67 15 128.5t5 118.5q0 12 -0.5 20.5t-1.5 13.5q1 10 -12 30q-14 20 -14 34
q0 13 11 29q16 25 62 25q55 0 74 -37z" />
    <glyph glyph-name="Uacute" unicode="&#xda;" horiz-adv-x="440" 
d="M317 776q2 -16 -10 -29q-25 -28 -26 -30l-12 -29q-6 -14 -17 -19q-8 -3 -17 -3q-44 0 -48 36q-3 23 11 51q17 32 47 49q10 6 23 6q18 0 32.5 -9t16.5 -23zM406 615q8 -16 8 -26l-9 -29l-3 -180q-2 -84 -14 -150t-29 -117q-47 -137 -141 -141q-112 -6 -158 169
q-17 61 -24.5 136.5t-7.5 168.5q0 67 3 100q-8 26 -8 41q0 27 16 43q11 11 36 11q31 0 58.5 -15.5t28.5 -42.5q1 -13 -8 -28.5t-8 -25.5q-7 -24 11 -228q19 -217 50 -215q36 1 60 167q10 67 15 128.5t5 118.5q0 12 -0.5 20.5t-1.5 13.5q1 10 -12 30q-14 20 -14 34
q0 13 11 29q16 25 62 25q55 0 74 -37z" />
    <glyph glyph-name="Ucircumflex" unicode="&#xdb;" horiz-adv-x="438" 
d="M310 663q-8 0 -14.5 2t-13.5 4q-1 1 -22 23l-49 55q-26 -23 -45 -60q-13 -26 -27 -28q-9 0 -20 3t-20 9t-15 14t-6 17q0 20 55 71l14 22t15 22q19 28 37 28q12 0 22.5 -3.5t18.5 -11.5l38 -39q38 -39 59.5 -60.5t21.5 -31.5q0 -15 -17 -25.5t-32 -10.5zM406 615
q8 -16 8 -26l-9 -29l-3 -180q-2 -84 -14 -150t-29 -117q-47 -137 -141 -141q-112 -6 -158 169q-17 61 -24.5 136.5t-7.5 168.5q0 67 3 100q-8 26 -8 41q0 27 16 43q11 11 36 11q31 0 58.5 -15.5t28.5 -42.5q1 -13 -8 -28.5t-8 -25.5q-7 -24 11 -228q19 -217 50 -215
q36 1 60 167q10 67 15 128.5t5 118.5q0 12 -0.5 20.5t-1.5 13.5q1 10 -12 30q-14 20 -14 34q0 13 11 29q16 25 62 25q55 0 74 -37z" />
    <glyph glyph-name="Udieresis" unicode="&#xdc;" horiz-adv-x="435" 
d="M335 761q1 -2 -7 -41q0 -17 -10 -44q-8 -8 -28 -8q-52 0 -53 33q0 7 3 16q2 4 3 7t2 6.5t1 9.5v18q0 33 36 33q47 0 53 -30zM197 781q2 -9 -1.5 -19.5t-6.5 -21.5q1 -15 -9 -43q-8 -8 -27 -8q-52 0 -55 33q-1 6 3.5 16.5t5.5 12.5q1 3 1.5 10t-0.5 18q-1 32 34 32
q49 0 55 -30zM406 615q8 -16 8 -26l-9 -29l-3 -180q-2 -84 -14 -150t-29 -117q-47 -137 -141 -141q-112 -6 -158 169q-17 61 -24.5 136.5t-7.5 168.5q0 67 3 100q-8 26 -8 41q0 27 16 43q11 11 36 11q31 0 58.5 -15.5t28.5 -42.5q1 -13 -8 -28.5t-8 -25.5q-7 -24 11 -228
q19 -217 50 -215q36 1 60 167q10 67 15 128.5t5 118.5q0 12 -0.5 20.5t-1.5 13.5q1 10 -12 30q-14 20 -14 34q0 13 11 29q16 25 62 25q55 0 74 -37z" />
    <glyph glyph-name="Y_acutecmb" unicode="&#xdd;" horiz-adv-x="601" 
d="M618 680q2 -29 -28 -52q-37 -28 -45 -46l-194 -435l10 -93q2 -21 4 -30t2 -5q0 -30 -40 -42q-15 -6 -35 -6q-23 0 -42 5.5t-35 15.5q-36 21 -29 55q1 12 22 39q18 20 16 40l-10 101l-151 399q-2 5 -8.5 15t-17.5 25q-8 11 -11.5 20.5t-3.5 16.5q0 9 5 17q13 21 83 21
q43 0 55 -5q34 -19 37 -46l6 -53l95 -265l124 289l25 54q7 14 29 21q10 4 19.5 5t19.5 1q19 0 36.5 -5t31 -13t21.5 -19.5t9 -24.5zM434 859q0 -23 -21 -45q-17 -20 -25.5 -29t-9.5 -11l-18 -37q-12 -25 -23.5 -29t-24.5 -4q-24 0 -41 9.5t-17 23.5q0 4 2 12q25 58 101 132
q8 7 26 7t34.5 -9t16.5 -20z" />
    <glyph glyph-name="Uni00DE" unicode="&#xde;" horiz-adv-x="450" 
d="M32 653l-7 77q0 3 -1.5 9.5t-3.5 13.5t-3.5 13.5t-1.5 10.5q0 18 26 32q12 6 32 6q33 0 62 -15q34 -17 38 -42q1 -5 1 -11q0 -15 -10.5 -27.5t-10.5 -16.5v-71q10 2 58 21q53 22 95 22q80 0 136 -78q15 -23 15 -58q0 -87 -95 -266q-99 -189 -162 -189q-17 0 -24 18
q-3 -23 -3 -58q-1 -40 6 -116q0 -3 1.5 -9t3.5 -13t3.5 -13.5t1.5 -10.5q0 -18 -26 -32q-13 -5 -32 -5q-32 0 -62 14q-34 17 -38 42q-1 4 -1 12q0 7 3.5 14t7 13t7 10t3.5 6l-16 592h-1zM293 558q-24 0 -62 -26q-36 -25 -65 -58l4 -228q44 33 95 131q52 98 52 151
q0 30 -24 30z" />
    <glyph glyph-name="germandbls" unicode="&#xdf;" horiz-adv-x="495" 
d="M475 292q0 -93 -71 -159q-57 -52 -140 -75q-8 -2 -12 -2q-20 0 -37 17q-27 28 -27 56q0 24 18 40.5t42 16.5q17 0 30 -10q30 16 56 51t26 65q0 42 -34 58q-29 8 -57.5 17t-57.5 17q-49 15 -49 56q0 54 61 87q85 46 85 107q0 19 -7 36q-14 33 -63 33q-39 0 -67 -22
q-33 -26 -34 -68q-5 -96 15 -266q21 -188 21 -265q0 -23 -6 -42.5t-16.5 -34.5t-24.5 -23.5t-29 -8.5q-21 0 -42 15q-24 18 -24 44q0 36 31 52q2 42 -18 230q-21 196 -21 284q0 96 21 128q13 20 34.5 36t48 27.5t56.5 18t62 6.5q79 0 132 -39q58 -43 58 -125q0 -56 -40 -109
q-40 -54 -91 -76q70 -7 118 -51q53 -50 53 -122z" />
    <glyph glyph-name="agrave" unicode="&#xe0;" horiz-adv-x="454" 
d="M285 628q2 -6 2 -11q0 -16 -17 -26.5t-39 -10.5q-14 0 -24.5 5t-23.5 32l-18 39l-35 43q-21 25 -21 49q0 13 16.5 23t34.5 10q16 0 25 -9q74 -79 100 -144zM446 42q-15 -48 -74 -48q-20 0 -32 6q-16 10 -22 44q-12 58 -24 89q-3 -55 -60 -112q-58 -55 -115 -55
q-73 0 -101 96q-10 34 -10 68q0 47 23.5 87t71.5 72q38 25 77.5 46.5t79.5 44.5q4 15 4 33q0 31 -17 36q-17 6 -29 6q-21 0 -34.5 -13.5l-25.5 -25.5q-6 -4 -13.5 -13.5t-17.5 -23.5q-16 -24 -33 -25q-13 -2 -25.5 3.5t-22 15t-15 22t-5.5 26.5q0 15 8 29q22 37 69 66
q70 42 175 42q67 0 92 -64q17 -44 24 -161q5 -72 10 -124t12 -85q1 -13 17 -33q15 -20 15 -35q0 -4 -0.5 -7t-1.5 -7zM272 288q-30 -16 -59.5 -33t-54.5 -45q-36 -41 -36 -70q0 -25 18 -50q11 -14 22 -14q13 0 27.5 15t29 43t28 67t25.5 87z" />
    <glyph glyph-name="aacute" unicode="&#xe1;" horiz-adv-x="454" 
d="M373 760q0 -24 -21 -49l-35 -43l-18 -39q-13 -27 -23.5 -32t-24.5 -5q-22 0 -39 10.5t-17 26.5q0 5 2 11q26 65 100 144q9 9 25 9q18 0 34.5 -10t16.5 -23zM446 42q-15 -48 -74 -48q-20 0 -32 6q-16 10 -22 44q-12 58 -24 89q-3 -55 -60 -112q-58 -55 -115 -55
q-73 0 -101 96q-10 34 -10 68q0 47 23.5 87t71.5 72q38 25 77.5 46.5t79.5 44.5q4 15 4 33q0 31 -17 36q-17 6 -29 6q-21 0 -34.5 -13.5l-25.5 -25.5q-6 -4 -13.5 -13.5t-17.5 -23.5q-16 -24 -33 -25q-13 -2 -25.5 3.5t-22 15t-15 22t-5.5 26.5q0 15 8 29q22 37 69 66
q70 42 175 42q67 0 92 -64q17 -44 24 -161q5 -72 10 -124t12 -85q1 -13 17 -33q15 -20 15 -35q0 -4 -0.5 -7t-1.5 -7zM272 288q-30 -16 -59.5 -33t-54.5 -45q-36 -41 -36 -70q0 -25 18 -50q11 -14 22 -14q13 0 27.5 15t29 43t28 67t25.5 87z" />
    <glyph glyph-name="acircumflex" unicode="&#xe2;" horiz-adv-x="454" 
d="M320 614q-7 0 -13.5 2t-13.5 4q-1 1 -22 23l-49 55q-26 -23 -45 -60q-13 -26 -27 -28q-9 0 -20 3t-20 9t-15 14t-6 17q0 20 55 71l14 22t15 22q19 28 37 28q12 0 22.5 -3.5t18.5 -11.5l38 -39q36 -38 57 -59.5t21 -32.5q0 -14 -15.5 -25t-31.5 -11zM446 42
q-15 -48 -74 -48q-20 0 -32 6q-16 10 -22 44q-12 58 -24 89q-3 -55 -60 -112q-58 -55 -115 -55q-73 0 -101 96q-10 34 -10 68q0 47 23.5 87t71.5 72q38 25 77.5 46.5t79.5 44.5q4 15 4 33q0 31 -17 36q-17 6 -29 6q-21 0 -34.5 -13.5l-25.5 -25.5q-6 -4 -13.5 -13.5
t-17.5 -23.5q-16 -24 -33 -25q-13 -2 -25.5 3.5t-22 15t-15 22t-5.5 26.5q0 15 8 29q22 37 69 66q70 42 175 42q67 0 92 -64q17 -44 24 -161q5 -72 10 -124t12 -85q1 -13 17 -33q15 -20 15 -35q0 -4 -0.5 -7t-1.5 -7zM272 288q-30 -16 -59.5 -33t-54.5 -45q-36 -41 -36 -70
q0 -25 18 -50q11 -14 22 -14q13 0 27.5 15t29 43t28 67t25.5 87z" />
    <glyph glyph-name="atilde" unicode="&#xe3;" horiz-adv-x="454" 
d="M384 666q-44 -32 -70 -26l-102 22q-18 4 -43 -18q-26 -21 -36 -21q-21 0 -36 23q-14 20 -14 41q0 23 13 37q6 7 26 19q25 15 45 15q5 0 13 -2l108 -30q19 -5 42 20q25 25 36 22q26 -6 26 -64q0 -24 -8 -38zM446 42q-15 -48 -74 -48q-20 0 -32 6q-16 10 -22 44
q-12 58 -24 89q-3 -55 -60 -112q-58 -55 -115 -55q-73 0 -101 96q-10 34 -10 68q0 47 23.5 87t71.5 72q38 25 77.5 46.5t79.5 44.5q4 15 4 33q0 31 -17 36q-17 6 -29 6q-21 0 -34.5 -13.5l-25.5 -25.5q-6 -4 -13.5 -13.5t-17.5 -23.5q-16 -24 -33 -25q-13 -2 -25.5 3.5
t-22 15t-15 22t-5.5 26.5q0 15 8 29q22 37 69 66q70 42 175 42q67 0 92 -64q17 -44 24 -161q5 -72 10 -124t12 -85q1 -13 17 -33q15 -20 15 -35q0 -4 -0.5 -7t-1.5 -7zM272 288q-30 -16 -59.5 -33t-54.5 -45q-36 -41 -36 -70q0 -25 18 -50q11 -14 22 -14q13 0 27.5 15t29 43
t28 67t25.5 87z" />
    <glyph glyph-name="adieresis" unicode="&#xe4;" horiz-adv-x="454" 
d="M366 698q2 -10 -1.5 -22t-6.5 -23q0 -1 -1 -7.5t-2 -18.5q-2 -15 -9 -23.5t-30 -8.5q-22 0 -40 9.5t-19 26.5q0 9 4 18q2 5 3 9.5t2 6.5q1 3 1 30q0 37 40 37q20 0 38 -9.5t21 -24.5zM213 707q2 -12 -2 -22l-8 -24v-7.5t-1 -17.5q-1 -14 -8.5 -22.5t-30.5 -8.5t-39 9
q-20 10 -21 27q-2 8 3 17l7 16q1 2 0.5 10t-0.5 21q-1 36 39 36q21 0 39.5 -9.5t21.5 -24.5zM446 42q-15 -48 -74 -48q-20 0 -32 6q-16 10 -22 44q-12 58 -24 89q-3 -55 -60 -112q-58 -55 -115 -55q-73 0 -101 96q-10 34 -10 68q0 47 23.5 87t71.5 72q38 25 77.5 46.5
t79.5 44.5q4 15 4 33q0 31 -17 36q-17 6 -29 6q-21 0 -34.5 -13.5l-25.5 -25.5q-6 -4 -13.5 -13.5t-17.5 -23.5q-16 -24 -33 -25q-13 -2 -25.5 3.5t-22 15t-15 22t-5.5 26.5q0 15 8 29q22 37 69 66q70 42 175 42q67 0 92 -64q17 -44 24 -161q5 -72 10 -124t12 -85
q1 -13 17 -33q15 -20 15 -35q0 -4 -0.5 -7t-1.5 -7zM272 288q-30 -16 -59.5 -33t-54.5 -45q-36 -41 -36 -70q0 -25 18 -50q11 -14 22 -14q13 0 27.5 15t29 43t28 67t25.5 87z" />
    <glyph glyph-name="aring" unicode="&#xe5;" horiz-adv-x="454" 
d="M355 726q0 -50 -40 -90t-90 -40q-37 0 -63.5 26t-26.5 65q0 48 36 87q40 42 93 42q40 0 65.5 -26.5t25.5 -63.5zM446 42q-15 -48 -74 -48q-20 0 -32 6q-16 10 -22 44q-12 58 -24 89q-3 -55 -60 -112q-58 -55 -115 -55q-73 0 -101 96q-10 34 -10 68q0 47 23.5 87t71.5 72
q38 25 77.5 46.5t79.5 44.5q4 15 4 33q0 31 -17 36q-17 6 -29 6q-21 0 -34.5 -13.5l-25.5 -25.5q-6 -4 -13.5 -13.5t-17.5 -23.5q-16 -24 -33 -25q-13 -2 -25.5 3.5t-22 15t-15 22t-5.5 26.5q0 15 8 29q22 37 69 66q70 42 175 42q67 0 92 -64q17 -44 24 -161q5 -72 10 -124
t12 -85q1 -13 17 -33q15 -20 15 -35q0 -4 -0.5 -7t-1.5 -7zM272 756q-22 0 -53 -30q-30 -29 -30 -53q0 -30 28 -30q33 0 62 38q20 28 20 45q0 30 -27 30zM272 288q-30 -16 -59.5 -33t-54.5 -45q-36 -41 -36 -70q0 -25 18 -50q11 -14 22 -14q13 0 27.5 15t29 43t28 67
t25.5 87z" />
    <glyph glyph-name="ae" unicode="&#xe6;" horiz-adv-x="660" 
d="M646 119q-8 -39 -54 -81q-8 -12 -55 -30q-28 -9 -51.5 -13.5t-43.5 -2.5q-97 6 -137 129l-11 22q-3 -55 -60 -112q-58 -55 -115 -55q-73 0 -101 96q-10 34 -10 68q0 47 23.5 87t71.5 72q38 25 77.5 46.5t79.5 44.5q4 15 4 33q0 31 -17 36q-17 6 -29 6q-21 0 -34.5 -13.5
l-25.5 -25.5q-6 -4 -13.5 -13.5t-17.5 -23.5q-16 -24 -33 -25q-13 -2 -25.5 3.5t-22 15t-15 22t-5.5 26.5q0 15 8 29q22 37 69 66q70 42 175 42q59 0 83 -50q43 53 99 60q8 2 15.5 2h15.5q119 0 131 -146q6 -67 -53 -147q-64 -87 -164 -121q10 -39 17 -53q13 -24 38 -24
q23 0 49 18q22 15 30 29q3 1 8 22q4 19 21 30q6 3 14 3q23 0 46 -24q22 -23 18 -48zM489 471q-40 0 -65 -57q-33 -77 -27 -150q47 15 87 70t40 97q0 40 -35 40zM272 298q-30 -16 -59.5 -33t-54.5 -45q-36 -41 -36 -70q0 -25 18 -50q11 -14 22 -14q13 0 27.5 15t29 43t28 67
t25.5 87z" />
    <glyph glyph-name="ccedilla" unicode="&#xe7;" horiz-adv-x="376" 
d="M369 166q-2 -23 -19 -45q-28 -32 -36 -50q-46 -73 -98 -90q-6 -2 -65 -82q-61 -82 -66 -82q-17 0 -38 27q-29 36 -33 38q-5 3 48 60q53 58 49 58q-84 88 -84 256q0 123 47 212q51 96 133 96q67 0 107 -73q34 -61 34 -135q0 -20 -3 -35q-7 -34 -57 -34q-39 0 -60 22
q-10 10 -10 51q0 5 0.5 12t0.5 17v29q0 45 -16 45q-17 0 -36 -99q-10 -49 -14.5 -95t-4.5 -89q0 -100 30 -100q20 0 35 15.5t23 47.5q9 11 9 36q1 24 12.5 31.5t34.5 7.5q30 0 52 -13q26 -16 25 -39z" />
    <glyph glyph-name="egrave" unicode="&#xe8;" horiz-adv-x="378" 
d="M282 643q2 -6 2 -11q0 -16 -17 -26.5t-39 -10.5q-14 0 -24.5 5t-23.5 32l-18 39l-35 43q-21 25 -21 49q0 13 16.5 23t34.5 10q16 0 25 -9q74 -79 100 -144zM390 105q-8 -38 -54 -81q-9 -12 -55 -28q-55 -21 -95 -18q-75 4 -118 85q-39 75 -39 184q0 117 44 207
q50 98 131 110q8 1 15.5 1.5t15.5 0.5q119 0 131 -146q6 -66 -53 -146q-65 -88 -164 -122q5 -20 9.5 -33t7.5 -19q13 -25 38 -25q23 0 49 18q22 15 30 29q3 1 8 22q4 21 21 30q6 3 14 3q23 0 46 -24q22 -23 18 -48zM233 457q-40 0 -65 -57q-33 -77 -27 -150q47 15 87 70
t40 98q0 39 -35 39z" />
    <glyph glyph-name="eacute" unicode="&#xe9;" horiz-adv-x="378" 
d="M373 760q0 -24 -21 -49l-35 -43l-18 -39q-13 -27 -23.5 -32t-24.5 -5q-22 0 -39 10.5t-17 26.5q0 5 2 11q26 65 100 144q9 9 25 9q18 0 34.5 -10t16.5 -23zM390 105q-8 -38 -54 -81q-9 -12 -55 -28q-55 -21 -95 -18q-75 4 -118 85q-39 75 -39 184q0 117 44 207
q50 98 131 110q8 1 15.5 1.5t15.5 0.5q119 0 131 -146q6 -66 -53 -146q-65 -88 -164 -122q5 -20 9.5 -33t7.5 -19q13 -25 38 -25q23 0 49 18q22 15 30 29q3 1 8 22q4 21 21 30q6 3 14 3q23 0 46 -24q22 -23 18 -48zM233 457q-40 0 -65 -57q-33 -77 -27 -150q47 15 87 70
t40 98q0 39 -35 39z" />
    <glyph glyph-name="ecircumflex" unicode="&#xea;" horiz-adv-x="378" 
d="M320 614q-7 0 -13.5 2t-13.5 4q-1 1 -22 23l-49 55q-26 -23 -45 -60q-13 -26 -27 -28q-9 0 -20 3t-20 9t-15 14t-6 17q0 20 55 71l14 22t15 22q19 28 37 28q12 0 22.5 -3.5t18.5 -11.5l38 -39q36 -38 57 -59.5t21 -32.5q0 -14 -15.5 -25t-31.5 -11zM390 105
q-8 -38 -54 -81q-9 -12 -55 -28q-55 -21 -95 -18q-75 4 -118 85q-39 75 -39 184q0 117 44 207q50 98 131 110q8 1 15.5 1.5t15.5 0.5q119 0 131 -146q6 -66 -53 -146q-65 -88 -164 -122q5 -20 9.5 -33t7.5 -19q13 -25 38 -25q23 0 49 18q22 15 30 29q3 1 8 22q4 21 21 30
q6 3 14 3q23 0 46 -24q22 -23 18 -48zM233 457q-40 0 -65 -57q-33 -77 -27 -150q47 15 87 70t40 98q0 39 -35 39z" />
    <glyph glyph-name="edieresis" unicode="&#xeb;" horiz-adv-x="378" 
d="M342 698q2 -10 -1.5 -22t-6.5 -23q0 -1 -1 -7.5t-2 -18.5q-2 -15 -9 -23.5t-30 -8.5q-22 0 -40 9.5t-19 26.5q0 9 4 18q2 5 3 9.5t2 6.5q1 3 1 30q0 37 40 37q20 0 38 -9.5t21 -24.5zM189 707q2 -12 -2 -22l-8 -24v-7.5t-1 -17.5q-1 -14 -8.5 -22.5t-30.5 -8.5t-39 9
q-20 10 -21 27q-2 8 3 17l7 16q1 2 0.5 10t-0.5 21q-1 36 39 36q21 0 39.5 -9.5t21.5 -24.5zM390 105q-8 -38 -54 -81q-9 -12 -55 -28q-55 -21 -95 -18q-75 4 -118 85q-39 75 -39 184q0 117 44 207q50 98 131 110q8 1 15.5 1.5t15.5 0.5q119 0 131 -146q6 -66 -53 -146
q-65 -88 -164 -122q5 -20 9.5 -33t7.5 -19q13 -25 38 -25q23 0 49 18q22 15 30 29q3 1 8 22q4 21 21 30q6 3 14 3q23 0 46 -24q22 -23 18 -48zM233 457q-40 0 -65 -57q-33 -77 -27 -150q47 15 87 70t40 98q0 39 -35 39z" />
    <glyph glyph-name="igrave" unicode="&#xec;" horiz-adv-x="204" 
d="M183 640q2 -6 2 -11q0 -16 -17 -26.5t-39 -10.5q-14 0 -24.5 5t-23.5 32l-18 39l-35 43q-21 25 -21 49q0 13 16.5 23t34.5 10q16 0 25 -9q74 -79 100 -144zM187 506q0 -15 -16 -44q-15 -29 -15 -48v-294q0 -18 11 -57q11 -38 11 -50q0 -19 -16 -29q-25 -16 -54 -16
q-37 0 -54 26q-21 30 -21 190v48.5t1 69.5q1 41 1.5 70t0.5 48q0 7 -1 17l-2 20t-2 18.5t-1 13.5q0 33 24 57q10 10 37 10t54 -9q27 -8 34.5 -19t7.5 -22z" />
    <glyph glyph-name="iacute" unicode="&#xed;" horiz-adv-x="210" 
d="M211 760q0 -24 -21 -49l-35 -43l-18 -39q-13 -27 -23.5 -32t-24.5 -5q-22 0 -39 10.5t-17 26.5q0 5 2 11q26 65 100 144q9 9 25 9q18 0 34.5 -10t16.5 -23zM187 506q0 -15 -16 -44q-15 -29 -15 -48v-294q0 -18 11 -57q11 -38 11 -50q0 -19 -16 -29q-25 -16 -54 -16
q-37 0 -54 26q-21 30 -21 190v48.5t1 69.5q1 41 1.5 70t0.5 48q0 7 -1 17l-2 20t-2 18.5t-1 13.5q0 33 24 57q10 10 37 10t54 -9q27 -8 34.5 -19t7.5 -22z" />
    <glyph glyph-name="icircumflex" unicode="&#xee;" horiz-adv-x="343" 
d="M271 621q-7 0 -13.5 2t-13.5 4q-1 1 -22 23l-49 55q-26 -23 -45 -60q-13 -26 -27 -28q-9 0 -20 3t-20 9t-15 14t-6 17q0 20 55 71l14 22t15 22q19 28 37 28q12 0 22.5 -3.5t18.5 -11.5l38 -39q36 -38 57 -59.5t21 -32.5q0 -14 -15.5 -25t-31.5 -11zM264 520
q0 -15 -16 -44q-15 -29 -15 -48v-294q0 -18 11 -57q11 -38 11 -50q0 -20 -16 -29q-25 -16 -54 -16q-38 0 -54 24q-21 33 -21 192v48.5t1 69.5q1 41 1.5 70t0.5 48q0 7 -1 17l-2 20t-2 18.5t-1 13.5q0 33 24 57q10 10 37 10t54 -9q27 -8 34.5 -19t7.5 -22z" />
    <glyph glyph-name="idieresis" unicode="&#xef;" horiz-adv-x="312" 
d="M288 692q2 -10 -1.5 -22t-6.5 -23l-3 -26q-2 -15 -9 -23.5t-30 -8.5q-22 0 -40 9.5t-19 26.5q0 9 4 18q2 5 3 9.5t2 6.5q1 3 1 30q0 37 40 37q20 0 38 -9.5t21 -24.5zM135 701q2 -12 -2 -22q-4 -11 -5.5 -18t-2.5 -10q-1 -4 -1 -21q-1 -14 -8.5 -22.5t-30.5 -8.5t-39 9
q-20 10 -21 27q-2 8 3 17l7 16q1 2 0.5 10t-0.5 21q-1 36 39 36q21 0 39.5 -9.5t21.5 -24.5zM235 512q0 -15 -16 -44q-15 -29 -15 -48v-294q0 -18 11 -57q11 -38 11 -50q0 -19 -16 -29q-25 -16 -54 -16q-37 0 -54 26q-21 30 -21 190v48.5t1 69.5q1 41 1.5 70t0.5 48
q0 7 -1 17l-2 20t-2 18.5t-1 13.5q0 33 24 57q10 10 37 10t54 -9q27 -8 34.5 -19t7.5 -22z" />
    <glyph glyph-name="Uni00F0" unicode="&#xf0;" horiz-adv-x="417" 
d="M346 676q14 -18 13.5 -38t-12.5 -29q-11 -13 -51 -23l-44 -36q37 -42 65 -96q22 6 38.5 3.5t27 -11t16 -21.5t5.5 -28q0 -28 -38 -54q13 -53 13 -112q0 -92 -37 -150q-51 -78 -161 -78q-74 0 -113 63q-31 49 -31 109q0 83 54 143q40 43 132 93q-20 40 -42 69l-64 -56
q-17 -24 -33 -32q-36 -15 -61 39q-6 18 -1 48q6 23 25 32q7 1 37 0l36 29q-16 7 -29.5 12.5t-26.5 10.5q-44 14 -48 49q0 25 16.5 44.5t42.5 19.5q4 -5 13 -8q30 -10 57 -24t51 -31l48 40q9 32 17 38q17 14 51 5q27 -10 34 -20zM280 245q0 34 -7 63q-68 -38 -85 -54
q-39 -36 -39 -85q0 -70 48 -70q31 0 55 37q28 44 28 109z" />
    <glyph glyph-name="ntilde" unicode="&#xf1;" horiz-adv-x="492" 
d="M384 666q-44 -32 -70 -26l-102 22q-18 4 -43 -18q-26 -21 -36 -21q-21 0 -36 23q-14 20 -14 41q0 23 13 37q6 7 26 19q25 15 45 15q5 0 13 -2l108 -30q19 -5 42 20q25 25 36 22q26 -6 26 -64q0 -24 -8 -38zM480 64q-2 -22 -29 -37.5t-60 -15.5q-49 0 -67 31
q7 307 -18 312q-25 4 -122 -276v-60q0 -35 -19 -50t-40 -15q-37 0 -77 39q-12 10 -13 151q1 -44 1 36.5v286.5q0 9 -2 24.5t-2 22.5q0 20 10 33q12 18 38 18q27 0 56 -17q30 -17 36 -31q4 -9 4 -20q0 -10 -8 -28t-8 -30v-138q32 67 55 111t40 66q56 74 129 69q43 -3 61 -80
q7 -29 11 -72t4 -100v-180q1 -6 14 -25q7 -10 6 -25z" />
    <glyph glyph-name="ograve" unicode="&#xf2;" horiz-adv-x="414" 
d="M285 628q2 -6 2 -11q0 -16 -17 -26.5t-39 -10.5q-14 0 -24.5 5t-23.5 32l-18 39l-35 43q-21 25 -21 49q0 13 16.5 23t34.5 10q16 0 25 -9q74 -79 100 -144zM330 516q67 -67 67 -229q0 -124 -47 -213q-52 -98 -146 -98q-93 0 -142 88q-44 79 -44 198q0 107 34 190
q36 89 92 106q30 8 60 8q76 0 126 -50zM216 468q-33 3 -57 -62q-21 -59 -21 -124q0 -48 2 -80.5t6 -52.5q13 -69 58 -77q28 -4 52 77q23 80 23 167q0 146 -63 152z" />
    <glyph glyph-name="oacute" unicode="&#xf3;" horiz-adv-x="410" 
d="M211 617q-3 -1 -9 -1q-19 0 -43 12q-25 12 -26 22q-3 15 46 82q45 60 62 74q10 9 25 9q22 0 45 -20q22 -19 22 -38q0 -16 -21 -28l-30 -17q-4 -6 -8 -13q-4 -6 -10 -15.5t-14 -21.5q-26 -41 -39 -45zM207 -12q-81 9 -130 100q-48 85 -48 205q0 88 37 181q38 95 78 95
q8 0 21.5 -3.5t21.5 -3.5q10 0 30.5 4t30.5 4q15 0 24 -4q61 -24 96 -93q36 -72 36 -180q0 -67 -11.5 -123t-36.5 -103q-45 -85 -102 -85q-9 0 -18 2t-29 4zM214 475q-33 0 -48 -78q-9 -48 -9 -104q0 -26 3 -56t10 -62q16 -87 45 -87q31 0 49 87q15 72 12 117
q-12 183 -62 183z" />
    <glyph glyph-name="ocircumflex" unicode="&#xf4;" horiz-adv-x="414" 
d="M320 614q-7 0 -13.5 2t-13.5 4q-1 1 -22 23l-49 55q-26 -23 -45 -60q-13 -26 -27 -28q-9 0 -20 3t-20 9t-15 14t-6 17q0 20 55 71l14 22t15 22q19 28 37 28q12 0 22.5 -3.5t18.5 -11.5l38 -39q36 -38 57 -59.5t21 -32.5q0 -14 -15.5 -25t-31.5 -11zM330 516
q67 -67 67 -229q0 -124 -47 -213q-52 -98 -146 -98q-93 0 -142 88q-44 79 -44 198q0 107 34 190q36 89 92 106q30 8 60 8q76 0 126 -50zM216 468q-33 3 -57 -62q-21 -59 -21 -124q0 -48 2 -80.5t6 -52.5q13 -69 58 -77q28 -4 52 77q23 80 23 167q0 146 -63 152z" />
    <glyph glyph-name="otilde" unicode="&#xf5;" horiz-adv-x="414" 
d="M360 648q-44 -32 -70 -26l-102 22q-18 4 -43 -18q-26 -21 -36 -21q-21 0 -36 23q-14 20 -14 41q0 23 13 37q6 7 26 19q25 15 45 15q5 0 13 -2l108 -30q19 -5 42 20q25 25 36 22q26 -6 26 -64q0 -24 -8 -38zM330 516q67 -67 67 -229q0 -124 -47 -213q-52 -98 -146 -98
q-93 0 -142 88q-44 79 -44 198q0 107 34 190q36 89 92 106q30 8 60 8q76 0 126 -50zM216 468q-33 3 -57 -62q-21 -59 -21 -124q0 -48 2 -80.5t6 -52.5q13 -69 58 -77q28 -4 52 77q23 80 23 167q0 146 -63 152z" />
    <glyph glyph-name="odieresis" unicode="&#xf6;" horiz-adv-x="414" 
d="M366 698q2 -10 -1.5 -22t-6.5 -23q0 -1 -1 -7.5t-2 -18.5q-2 -15 -9 -23.5t-30 -8.5q-22 0 -40 9.5t-19 26.5q0 9 4 18q2 5 3 9.5t2 6.5q1 3 1 30q0 37 40 37q20 0 38 -9.5t21 -24.5zM213 707q2 -12 -2 -22l-8 -24v-7.5t-1 -17.5q-1 -14 -8.5 -22.5t-30.5 -8.5t-39 9
q-20 10 -21 27q-2 8 3 17l7 16q1 2 0.5 10t-0.5 21q-1 36 39 36q21 0 39.5 -9.5t21.5 -24.5zM330 516q67 -67 67 -229q0 -124 -47 -213q-52 -98 -146 -98q-93 0 -142 88q-44 79 -44 198q0 107 34 190q36 89 92 106q30 8 60 8q76 0 126 -50zM216 468q-33 3 -57 -62
q-21 -59 -21 -124q0 -48 2 -80.5t6 -52.5q13 -69 58 -77q28 -4 52 77q23 80 23 167q0 146 -63 152z" />
    <glyph glyph-name="divide" unicode="&#xf7;" horiz-adv-x="370" 
d="M259 525q1 -3 1 -8t-4.5 -11.5t-6.5 -15.5q-1 -13 -1 -25.5t-4.5 -23t-14.5 -17t-31 -6.5q-27 0 -49 11q-24 13 -26 34q0 9 10 49q10 41 13 44q12 12 37 12q26 0 49 -12t27 -31zM328 300q-7 -7 -19 -7q-3 0 -9.5 1t-14 2.5t-15 2t-12.5 -0.5l-108 -26q-8 -1 -31 -12
q-15 -7 -28 -7q-12 0 -23.5 6.5t-20.5 17t-14 23t-5 24.5q0 20 12 34q4 4 31 4q17 0 28.5 1t18.5 3l114 30q45 12 55 12q12 0 23 -6q31 -18 31 -66q0 -26 -13 -36zM250 208q1 -3 1 -8t-4.5 -11.5t-6.5 -15.5q-1 -13 -1 -25.5t-4 -23t-14.5 -17t-31.5 -6.5q-27 0 -50 12
t-25 33q0 5 11 49q10 42 12 44q12 12 37 12q26 0 49 -12t27 -31z" />
    <glyph glyph-name="oslash" unicode="&#xf8;" horiz-adv-x="420" 
d="M330 516q67 -67 67 -229q0 -124 -47 -213q-52 -98 -146 -98q-93 0 -142 88q-44 79 -44 198q0 107 34 190q36 89 92 106q30 8 60 8q76 0 126 -50zM268 404q-18 61 -52 64q-39 4 -62 -89q-16 -63 -16 -122q23 24 55 60.5t75 86.5zM278 273q-34 -34 -54.5 -56.5t-29.5 -34.5
q-12 -17 -23.5 -30t-19.5 -23q15 -51 53 -57q25 -4 47 60q21 61 27 141z" />
    <glyph glyph-name="ugrave" unicode="&#xf9;" horiz-adv-x="414" 
d="M285 628q2 -6 2 -11q0 -16 -17 -26.5t-39 -10.5q-14 0 -24.5 5t-23.5 32l-18 39l-35 43q-21 25 -21 49q0 13 16.5 23t34.5 10q16 0 25 -9q74 -79 100 -144zM402 488q2 -15 -6 -32q-10 -22 -12 -34q0 -105 -4 -176.5t-13 -112.5q-36 -169 -157 -169q-175 0 -175 318
q0 43 3 88.5t10 93.5q-7 21 -7 41q0 30 19 49q17 17 47 17q25 0 47 -10.5t26 -24.5q1 -4 1.5 -7t0.5 -7q0 -12 -11 -42q-10 -28 -9 -46q-10 -53 -10 -141q0 -43 3 -78.5t8 -64.5q13 -66 39 -66q42 0 55 142q4 35 5.5 91.5t1.5 134.5q0 10 -3 29t-3 28q0 24 18 33q12 5 28 5
q31 0 61 -14q32 -16 37 -45z" />
    <glyph glyph-name="uacute" unicode="&#xfa;" horiz-adv-x="414" 
d="M373 760q0 -24 -21 -49l-35 -43l-18 -39q-13 -27 -23.5 -32t-24.5 -5q-22 0 -39 10.5t-17 26.5q0 5 2 11q26 65 100 144q9 9 25 9q18 0 34.5 -10t16.5 -23zM402 488q2 -15 -6 -32q-10 -22 -12 -34q0 -105 -4 -176.5t-13 -112.5q-36 -169 -157 -169q-175 0 -175 318
q0 43 3 88.5t10 93.5q-7 21 -7 41q0 30 19 49q17 17 47 17q25 0 47 -10.5t26 -24.5q1 -4 1.5 -7t0.5 -7q0 -12 -11 -42q-10 -28 -9 -46q-10 -53 -10 -141q0 -43 3 -78.5t8 -64.5q13 -66 39 -66q42 0 55 142q4 35 5.5 91.5t1.5 134.5q0 10 -3 29t-3 28q0 24 18 33q12 5 28 5
q31 0 61 -14q32 -16 37 -45z" />
    <glyph glyph-name="ucircumflex" unicode="&#xfb;" horiz-adv-x="414" 
d="M320 614q-7 0 -13.5 2t-13.5 4q-1 1 -22 23l-49 55q-26 -23 -45 -60q-13 -26 -27 -28q-9 0 -20 3t-20 9t-15 14t-6 17q0 20 55 71l14 22t15 22q19 28 37 28q12 0 22.5 -3.5t18.5 -11.5l38 -39q36 -38 57 -59.5t21 -32.5q0 -14 -15.5 -25t-31.5 -11zM402 488q2 -15 -6 -32
q-10 -22 -12 -34q0 -105 -4 -176.5t-13 -112.5q-36 -169 -157 -169q-175 0 -175 318q0 43 3 88.5t10 93.5q-7 21 -7 41q0 30 19 49q17 17 47 17q25 0 47 -10.5t26 -24.5q1 -4 1.5 -7t0.5 -7q0 -12 -11 -42q-10 -28 -9 -46q-10 -53 -10 -141q0 -43 3 -78.5t8 -64.5
q13 -66 39 -66q42 0 55 142q4 35 5.5 91.5t1.5 134.5q0 10 -3 29t-3 28q0 24 18 33q12 5 28 5q31 0 61 -14q32 -16 37 -45z" />
    <glyph glyph-name="udieresis" unicode="&#xfc;" horiz-adv-x="414" 
d="M366 698q2 -10 -1.5 -22t-6.5 -23q0 -1 -1 -7.5t-2 -18.5q-2 -15 -9 -23.5t-30 -8.5q-22 0 -40 9.5t-19 26.5q0 9 4 18q2 5 3 9.5t2 6.5q1 3 1 30q0 37 40 37q20 0 38 -9.5t21 -24.5zM213 707q2 -12 -2 -22l-8 -24v-7.5t-1 -17.5q-1 -14 -8.5 -22.5t-30.5 -8.5t-39 9
q-20 10 -21 27q-2 8 3 17l7 16q1 2 0.5 10t-0.5 21q-1 36 39 36q21 0 39.5 -9.5t21.5 -24.5zM402 488q2 -15 -6 -32q-10 -22 -12 -34q0 -105 -4 -176.5t-13 -112.5q-36 -169 -157 -169q-175 0 -175 318q0 43 3 88.5t10 93.5q-7 21 -7 41q0 30 19 49q17 17 47 17
q25 0 47 -10.5t26 -24.5q1 -4 1.5 -7t0.5 -7q0 -12 -11 -42q-10 -28 -9 -46q-10 -53 -10 -141q0 -43 3 -78.5t8 -64.5q13 -66 39 -66q42 0 55 142q4 35 5.5 91.5t1.5 134.5q0 10 -3 29t-3 28q0 24 18 33q12 5 28 5q31 0 61 -14q32 -16 37 -45z" />
    <glyph glyph-name="y_acutecmb" unicode="&#xfd;" horiz-adv-x="470" 
d="M365 750q0 -23 -21 -48q-34 -40 -35 -43l-18 -39q-12 -26 -23 -31t-25 -5q-22 0 -39 10.5t-17 25.5q0 5 2 11q13 32 38 67.5t62 75.5q9 9 25 9q18 0 34.5 -10t16.5 -23zM468 497q3 -21 -10 -43l-24 -39q-21 -50 -53.5 -129t-76.5 -190q-21 -54 -33 -100.5t-17 -88.5
q-1 -4 -1.5 -12.5t0.5 -22.5q1 -20 -7 -32q-17 -21 -48 -21q-58 0 -74 42q-4 9 -4 20q0 10 8 22t10 20l24 123l-144 409q-4 11 -16 33q-8 19 -8 31q0 4 0.5 7t1.5 7q9 36 67 36q36 0 57 -12q26 -15 29 -53q3 -31 4.5 -47.5t2.5 -20.5l66 -206l102 255q1 3 9 44q4 23 21 34
q10 6 23 6q30 0 58 -22q28 -21 33 -50z" />
    <glyph glyph-name="Uni00FE" unicode="&#xfe;" 
d="M412 273q0 -106 -45 -191q-49 -92 -123 -92q-41 0 -84 64v-127q0 -15 13 -40t13 -38q0 -8 -5 -20q-21 -44 -82 -44q-50 0 -62 36q-4 11 -4 23q0 11 6.5 29t6.5 31l1 832q0 11 -8 26t-8 25q0 9 4 17q12 28 74 28q39 0 52 -16q5 -7 4 -39q1 8 0.5 6.5t-1.5 -12.5
q-2 -23 -3 -281q39 62 101 62q85 0 121 -92q29 -71 29 -187zM286 273q0 97 -4 120q-11 65 -50 65q-23 0 -42 -63q-18 -62 -18 -122q0 -44 20 -107q20 -65 40 -65q24 0 40 61q14 53 14 111z" />
    <glyph glyph-name="ydieresis" unicode="&#xff;" horiz-adv-x="468" 
d="M366 704q2 -10 -1.5 -22t-6.5 -23q0 -1 -1 -7.5t-2 -18.5q-2 -15 -9 -23.5t-30 -8.5q-22 0 -40 9.5t-19 26.5q0 9 4 18q2 5 3 9.5t2 6.5q1 3 1 30q0 37 40 37q20 0 38 -9.5t21 -24.5zM213 713q2 -12 -2 -22l-8 -24v-7.5t-1 -17.5q-1 -14 -8.5 -22.5t-30.5 -8.5t-39 9
q-20 10 -21 27q-2 8 3 17l7 16q1 2 0.5 10t-0.5 21q-1 36 39 36q21 0 39.5 -9.5t21.5 -24.5zM468 498q3 -21 -10 -43l-24 -41q-21 -51 -53.5 -130.5t-76.5 -191.5q-21 -54 -33 -100.5t-17 -89.5q-1 -4 -1.5 -12.5t0.5 -22.5q1 -21 -7 -33q-17 -21 -48 -21q-58 0 -74 43
q-4 9 -4 19t8 22.5t10 20.5l24 124l-144 414q-2 4 -5.5 12t-10.5 21q-8 19 -8 31q0 4 0.5 7t1.5 7q9 36 67 36q36 0 57 -12q26 -15 29 -53q3 -31 4.5 -48t2.5 -21l66 -208l102 258q1 3 9 44q4 25 21 34q10 6 23 6q30 0 58 -22q28 -21 33 -50z" />
    <glyph glyph-name="controlNULL" horiz-adv-x="0" 
 />
    <glyph glyph-name="controlBS" horiz-adv-x="0" 
 />
    <glyph glyph-name="controlHT" horiz-adv-x="250" 
 />
    <glyph glyph-name="controlCR" horiz-adv-x="250" 
 />
    <glyph glyph-name="controlGS" horiz-adv-x="0" 
 />
    <glyph glyph-name="notequal" unicode="&#x2260;" horiz-adv-x="435" 
d="M398 417q-23 3 -71 -3q-24 -2 -39 -4t-21 -3l-16 -56q45 7 75.5 10t47.5 4q16 -8 23 -22.5t8 -36.5q0 -31 -32 -39q-33 6 -146 -8q0 -3 -3 -40q-8 -33 -23 -44q-22 -17 -51 -17q-38 0 -53 27q-2 5 22 56q-48 -15 -64 -8q-42 19 -42 59q0 17 12 31q4 4 31 4q58 -1 74 2
l15 4l13 49l-22 -8q-12 -4 -23 -4q-26 0 -42.5 6.5t-27 15.5t-14.5 20.5t-4 22.5q0 18 12 30q4 4 31 4q60 -2 74 3l41 9q2 11 6.5 26.5t9.5 35.5q8 28 21 37t36 9q25 0 45 -10.5t20 -27.5q0 -10 -32 -56q67 16 93 17q31 -16 28 -52q8 -38 -12 -43z" />
    <glyph glyph-name="infinity" unicode="&#x221e;" horiz-adv-x="734" 
d="M713 363q0 -34 -47 -78q-50 -47 -95 -47q-20 0 -46 6.5t-56 24.5l-102 60q-53 -89 -164 -84q-52 3 -109 44q-61 43 -75 97q-4 17 -4 37q0 52 42 81q38 26 97 26q47 0 94 -22q11 -5 33 -18.5t56 -35.5q51 46 81 62q44 23 97 23t125 -66q73 -66 73 -110zM614 345
q0 28 -61 71q-29 20 -68 20q-38 0 -49 -20q130 -90 160 -90q18 0 18 19zM282 378q-127 62 -146 62q-15 0 -15 -14q0 -16 16.5 -34.5t35.5 -25.5q33 -16 58 -16q32 0 51 28z" />
    <glyph glyph-name="lessequal" unicode="&#x2264;" horiz-adv-x="370" 
d="M331 643q3 -17 -18 -33q-35 -28 -36 -29l-160 -185l175 -165q34 -31 34 -57q0 -12 -4 -21q-16 -43 -63 -43q-10 0 -19 1t-19 6q-18 8 -20 21t-3 27q-2 11 -8 16l-128 117q-26 23 -39.5 44t-13.5 43q0 42 57 105q58 65 115 127q2 4 7 13t13 25q10 20 28 28q12 5 25 5
t26.5 -4t24 -10t18 -14t8.5 -17zM339 0q-8 -5 -19 -5q-7 0 -24 4q-8 1 -15 1h-12l-108 -26q-8 -1 -31 -12q-15 -7 -28 -7q-12 0 -23.5 6.5t-20 16.5t-14 22t-5.5 24q0 20 12 34q4 4 31 4q17 0 28.5 1t18.5 3l114 30q45 12 55 12q12 0 23 -6q31 -18 31 -66q0 -26 -13 -36z
" />
    <glyph glyph-name="greaterequal" unicode="&#x2265;" horiz-adv-x="370" 
d="M175 190q-6 -6 -8 -31q0 -23 -24 -33q-19 -8 -37 -8q-45 0 -63 44q-4 9 -4 20q0 27 34 58l175 164l-159 186q-2 4 -36 29q-21 15 -18 33q1 9 8 17t18 14t24 10t27 4q13 0 25 -5q18 -8 28 -28q8 -17 13 -26.5t7 -11.5q8 -11 37 -42t80 -85q59 -62 59 -100q0 -20 -13 -39
t-37 -42zM328 28q-7 -7 -18 -7q-2 0 -8.5 1t-16.5 3q-16 4 -27 1l-108 -26q-10 0 -31 -10q-15 -7 -28 -7q-12 0 -23.5 6t-20 16t-14 22.5t-5.5 24.5q0 20 12 34q4 4 31 4q17 0 28.5 1t18.5 3l114 30q46 12 55 12q12 0 23 -6q31 -18 31 -66q0 -26 -13 -36z" />
    <glyph glyph-name="partialdiff" unicode="&#x2202;" horiz-adv-x="370" 
d="M333 213q0 -82 -39 -139q-50 -71 -148 -71q-66 0 -100 57q-27 43 -27 97q0 74 48 127q34 38 111 79q-19 86 -94 109q-39 12 -39 51q0 23 14.5 40t38.5 17q5 0 9 -0.5t9 -1.5q110 -33 164 -165q26 5 45 -13.5t19 -43.5t-23 -42q12 -50 12 -101zM223 213q0 27 -4 47
q-25 -14 -40.5 -24.5t-21.5 -15.5q-28 -25 -28 -63q0 -52 34 -52q23 0 40 27q20 32 20 81z" />
    <glyph glyph-name="summation" unicode="&#x2211;" horiz-adv-x="480" 
d="M423 21q-127 0 -296 -21q-5 -1 -9.5 -1h-9.5q-40 0 -62.5 20.5t-22.5 54.5q0 20 8 40t22 41l96 140q54 80 106 136l-128 136q-45 47 -72 83.5t-39 62.5q-30 73 42 86q62 11 139 17t171 6q50 0 50 -62q0 -25 -12.5 -44t-32.5 -19q-7 0 -11 1q-39 10 -89 10q-17 0 -46 -2
t-71 -6q35 -38 88 -94.5t122 -133.5q14 -15 14 -36q0 -22 -17 -39q-45 -61 -96 -131.5t-109 -152.5q35 5 73.5 9t81.5 7q32 2 59 5t48 8q4 1 11 1q21 0 33 -17t12 -41q0 -26 -14 -45t-39 -19z" />
    <glyph glyph-name="product" unicode="&#x220f;" horiz-adv-x="560" 
d="M549 738q-11 -20 -45 -20h-5.5t-8.5 1h-15q-16 0 -28 -5l-29 -16v-556q0 -8 1.5 -18t6.5 -24q4 -13 6.5 -22.5t2.5 -15.5q0 -29 -27 -48q-24 -18 -55 -18q-36 0 -52 27q-6 10 -6 23q0 5 2 14t5 19t5 20t2 18l-1 551l-46 -16l-1 -549q0 -16 10 -37q11 -24 11 -32
q0 -13 -9 -25q-22 -28 -58 -28q-16 0 -31.5 5.5t-28.5 15t-21.5 22t-11.5 26.5q-3 15 15 34q19 19 19 36q-4 100 -5.5 186.5t-1.5 161.5q0 90 3 144q-2 0 -28 -10q-17 -7 -29 -7q-15 0 -29 11q-18 13 -35 29q-12 10 -12 27q0 8 3 20q3 13 186 70q195 61 207 69q10 4 25 19
q12 13 29 15q22 2 53 -22q36 -29 36 -63q0 -16 -9 -32z" />
    <glyph glyph-name="pi" horiz-adv-x="560" 
d="M549 502q-11 -20 -45 -20h-14q-5 1 -9 1h-6q-16 0 -28 -5l-29 -16v-320q0 -8 1.5 -18t6.5 -24q4 -13 6.5 -22.5t2.5 -15.5q0 -29 -27 -48q-24 -18 -55 -18q-36 0 -52 27q-6 10 -6 23q0 5 2 14t5 19t5 20t2 18l-1 314l-46 -15l-1 -313q0 -16 10 -37q11 -24 11 -32
q0 -13 -9 -25q-22 -28 -58 -28q-16 0 -31.5 5.5t-28.5 15t-21.5 22t-11.5 26.5q-3 15 15 34q19 19 19 36q-2 56 -3 119.5t-1 136.5l-28 -11q-18 -6 -29 -6q-15 0 -29 11q-18 13 -35 29q-12 10 -12 27q0 6 3 20q3 13 186 70q195 61 207 69q10 4 25 19q12 13 29 15
q23 2 53 -23q36 -29 36 -62q0 -16 -9 -32z" />
    <glyph glyph-name="integral" unicode="&#x222b;" horiz-adv-x="330" 
d="M306 787q-4 -19 -34 -30q-42 -15 -52 -22q-54 -39 -54 -166q0 -21 -6 -238q-3 -109 -2.5 -186t-0.5 -122l-2 -109q-1 -26 -2.5 -50t-7.5 -33q-4 -6 -10 -10q-29 -21 -68 0q-24 13 -38.5 35.5t-8.5 40.5q4 11 11 24.5t17 29.5l6 400q2 146 7.5 237.5t19.5 129.5
q29 82 123 113q10 2 17 2q27 0 58 -17q30 -17 27 -29z" />
    <glyph glyph-name="Omegagreek" unicode="&#x2126;" horiz-adv-x="680" 
d="M660 74q19 -16 19 -51q0 -38 -22 -50q-7 -4 -15 -4q-4 0 -11 2.5t-15 5.5t-15.5 5.5t-12.5 2.5q-10 1 -21.5 1t-25.5 -2q-17 -2 -28.5 -3t-16.5 -1q-23 0 -43 7q-17 1 -37 21q-17 20 -19 40q-1 16 19 36q19 19 18 32q6 10 6 112q0 82 -5 152t-15 130q-25 160 -80 160
q-64 0 -98 -165q-25 -125 -25 -289q0 -82 6 -106q-1 -9 24 -46t25 -57q0 -14 -12 -24q-18 -15 -66 -15q-14 0 -30 1.5t-33 3.5q-8 -1 -38 -9q-29 -8 -40 -8q-12 0 -22.5 6.5t-18.5 16t-12.5 21.5t-4.5 24q0 41 34 41q5 0 17 -1t17 -1q25 0 30 14l3 225q2 105 17 187.5
t37 145.5q60 173 177 179q137 8 196 -214q41 -153 41 -380q0 -42 -1 -73.5t-3 -51.5q4 -12 26 -12q6 0 18.5 1t18.5 1q26 0 37 -11z" />
    <glyph glyph-name="radical" unicode="&#x221a;" horiz-adv-x="480" 
d="M462 412q0 -14 -17 -28q-22 -18 -27 -26l-159 -253l-35 -64q-29 -41 -57 -41q-13 0 -26 7.5t-16 28.5q-3 29 -8 37l-50 102q-2 5 -27 34q-14 19 -11 38q3 25 23 44t43 19q11 0 20 -4q5 -2 14 -27q6 -17 10.5 -28.5t6.5 -16.5l36 -67l145 235q5 11 11 21.5t11 21.5
q16 22 39 22q25 0 49 -18q25 -18 25 -37z" />
    <glyph glyph-name="approxequal" unicode="&#x2248;" horiz-adv-x="370" 
d="M314 383q-44 -32 -70 -26l-102 22q-18 4 -43 -18q-24 -21 -36 -21q-19 0 -34 18t-15 37t12 34q7 8 27 19q25 15 45 15q6 0 12 -2l108 -30q17 -5 41 19t32 24q15 0 24 -23q7 -17 7 -35q0 -19 -8 -33zM348 243q-44 -32 -70 -26l-102 22q-19 4 -44 -18q-24 -21 -36 -21
q-19 0 -34 18t-15 37q0 20 13 34q8 9 26 19q26 14 45 14q9 0 13 -1l108 -30q16 -5 40 19t32 24q15 0 24 -23q8 -19 8 -35q0 -19 -8 -33z" />
    <glyph glyph-name="Deltagreek" unicode="&#x2206;" horiz-adv-x="510" 
d="M496 102q-11 -29 -51 -29q-20 0 -39 6l-281 -38q-6 -1 -14.5 -4t-17 -6.5t-16.5 -6t-13 -2.5q-12 0 -23 6.5t-19.5 17t-13.5 23t-5 24.5q0 20 12 34q10 9 20 19.5t14 23.5l111 400q3 12 3 30v21q0 26 12 38q18 18 63 19q49 3 75 -35q10 -14 17.5 -38t14.5 -57
q14 -43 42.5 -122t70.5 -196q4 -10 27 -53q15 -30 15 -51q0 -13 -4 -24zM346 172l-94 290q-14 -57 -35.5 -136t-50.5 -181z" />
    <glyph glyph-name="lozenge" unicode="&#x25ca;" horiz-adv-x="417" 
d="M361 469q38 -35 38 -67q0 -33 -42 -79q-21 -23 -42 -47t-43 -47q-5 -9 -9.5 -18t-10.5 -16.5t-14 -12.5t-20 -5q-19 0 -37 8q-21 11 -22 25l1 14q1 7 -5 13l-97 87q-37 34 -37 67q0 32 42 79q21 23 42 47t43 47q4 9 8.5 18t10.5 16.5t14 12.5t20 5q20 0 38.5 -9t20.5 -24
l-1 -14q-1 -7 6 -13zM319 396l-122 114l-97 -113l122 -114z" />
    <glyph glyph-name="fraction" unicode="&#x2044;" horiz-adv-x="410" 
d="M392 778q1 -14 -15 -33q-20 -24 -24 -37l-202 -628q-2 -6 -4.5 -23.5t-6.5 -46.5q-4 -36 -20 -42q-8 -2 -17 -2q-29 0 -59 14q-33 16 -37 42q-2 16 8 33q16 27 17 32l218 666q1 4 2 14.5t2 27.5q1 24 14.5 34.5t35.5 10.5q15 0 30 -4.5t27 -13t20.5 -20t10.5 -24.5z" />
    <glyph glyph-name="fi" unicode="&#xfb01;" horiz-adv-x="450" 
d="M426 811q3 -3 3 -10q0 -9 -6 -31q-8 -28 -9 -37q1 5 1 -6.5v-38.5q0 -20 -12 -26.5t-32 -6.5q-26 0 -54 11q-35 14 -35 37q0 7 6 19t7 19q-74 -44 -69 -211l61 16q22 6 40 8.5t32 2.5q47 0 66 -28q7 -10 7 -22q0 -15 -16 -44q-15 -29 -15 -48v-294q0 -18 11 -57
q11 -38 11 -50q0 -19 -16 -29q-25 -16 -55 -16q-36 0 -53 26q-21 31 -21 190q0 20 0.5 55.5t1.5 89.5q2 80 0 104l-52 -14l-1 -325q0 -27 19 -49t19 -35q0 -7 -3 -13q-14 -35 -59 -35q-14 0 -27.5 4t-25 10.5t-19.5 15.5t-11 19q-6 25 -6 66v312q-20 -9 -42 -6q-69 9 -69 56
q0 13 9 30q6 10 36 15q23 4 38 7.5t22 5.5q1 149 26 215q33 91 130 121q3 1 15 1q31 0 85 -9q55 -8 62 -15z" />
    <glyph glyph-name="fl" unicode="&#xfb02;" horiz-adv-x="490" 
d="M460 -4q-20 -38 -75 -38q-50 0 -69 34q-6 10 -6 21q0 5 2 14t5 19t5 20t2 18l-2 359q-11 0 -94 -23l-1 -325q0 -27 19 -49t19 -35q0 -7 -3 -13q-14 -35 -59 -35q-14 0 -27.5 4t-25 10.5t-19.5 15.5t-11 19q-6 25 -6 66v312q-20 -9 -42 -6q-69 9 -69 56q0 13 9 30
q6 10 36 15q23 4 38 7.5t22 5.5q1 149 26 215q33 91 130 121q4 1 7.5 1.5t8.5 0.5q39 0 73 -29q21 7 48 7q21 0 33 -4t19 -11t9 -15t2 -16q0 -10 -8 -37t-8 -41v-600q0 -17 8 -40q4 -12 6.5 -21t2.5 -14q0 -11 -5 -19zM320 730v9t-1 12q-26 -9 -39 -23q-37 -44 -47 -92
q-9 -36 -7 -106q5 1 16.5 4.5t31.5 9.5q27 9 47 8z" />
    <glyph glyph-name="apple" unicode="&#xf8ff;" horiz-adv-x="790" 
d="M561 790q0 -51 -34 -103q-33 -54 -82 -71q-17 -5 -51 -8q2 165 164 203q3 -11 3 -21zM749 202q-10 -30 -25 -61.5t-36 -63.5q-64 -96 -129 -96q-26 0 -73 16q-48 14 -73 14q-26 0 -71 -15q-45 -17 -67 -17q-89 0 -162 149q-62 130 -62 231q0 102 48 174q55 85 151 85
q31 0 84 -15q54 -15 74 -15q21 0 75 17t83 17q92 0 159 -82q-39 -35 -57 -60q-33 -47 -33 -103q0 -55 31 -106q33 -54 83 -69z" />
    <glyph glyph-name="dotlessi" unicode="&#x131;" horiz-adv-x="200" 
d="M187 506q0 -15 -16 -44q-15 -29 -15 -48v-294q0 -18 11 -57q11 -38 11 -50q0 -19 -16 -29q-25 -16 -54 -16q-37 0 -54 26q-21 30 -21 190v48.5t1 69.5q1 41 1.5 70t0.5 48q0 7 -1 17l-2 20t-2 18.5t-1 13.5q0 33 24 57q10 10 37 10t54 -9q27 -8 34.5 -19t7.5 -22z" />
    <glyph glyph-name="breve" unicode="&#x2d8;" horiz-adv-x="380" 
d="M361 720q0 -14 -7 -27q-50 -135 -160 -135q-126 0 -169 156q-1 5 -1.5 8.5t-0.5 6.5q0 23 16 39t39 16q28 0 45 -24l10 -23q14 -74 61 -81q32 -5 57 65q1 23 17 38.5t38 15.5q23 0 39 -16t16 -39z" />
    <glyph glyph-name="dotaccent" unicode="&#x2d9;" horiz-adv-x="190" 
d="M161 728q2 -14 -2 -28l-9 -28q-1 -12 -1 -25t-4.5 -23.5t-14.5 -17t-31 -6.5q-27 0 -49 11q-24 13 -26 34q0 9 5 21q3 8 4.5 13t2.5 8q1 5 1 39q-1 45 48 45q26 0 49 -12t27 -31z" />
    <glyph glyph-name="ring" unicode="&#x2da;" horiz-adv-x="210" 
d="M193 733q0 -40 -32 -72t-72 -32q-30 0 -50 20q-23 23 -23 53q0 38 30 71q31 33 74 33q32 0 52.5 -21.5t20.5 -51.5zM126 757q-17 0 -42 -24q-25 -22 -25 -42q0 -24 24 -24q26 0 49 30q16 22 16 36q0 24 -22 24z" />
    <glyph glyph-name="hungarumlaut" unicode="&#x2dd;" horiz-adv-x="340" 
d="M249 607l-16 -47q-12 -5 -22 -5q-27 0 -52 23q-23 23 -18 49q2 10 26 41l54 72q2 2 5.5 9.5t8.5 18.5q8 18 19 22q6 3 13 3q10 0 20.5 -6.5t19 -16t13.5 -22t5 -24.5q0 -9 -3 -16q-2 -8 -14 -18.5t-16 -17.5zM192 730q-3 -10 -15 -20.5t-16 -16.5l-43 -66l-16 -47
q-12 -5 -22 -5q-27 0 -52 23q-23 23 -18 49q2 10 26 41l54 72q2 2 5.5 9.5t8.5 19.5q8 17 19 21q6 3 13 3q11 0 21.5 -6.5t18.5 -16t13 -22t5 -24.5q0 -6 -2 -14z" />
    <glyph glyph-name="ogonek" unicode="&#x2db;" horiz-adv-x="333" 
d="M294 -165q0 -23 -16 -39t-39 -16q-4 0 -7 0.5t-7 1.5q-17 -3 -32 -3q-48 0 -79 21q-36 25 -36 74q0 79 65 126q9 43 55 43q22 0 38.5 -16.5t16.5 -36.5q0 -23 -16.5 -39t-38.5 -16q-4 0 -10 -4t-11 -9.5t-9 -12t-4 -10.5q0 -32 30 -33q16 24 45 24q23 0 39 -16t16 -39z
" />
    <glyph glyph-name="caron" unicode="&#x2c7;" horiz-adv-x="310" 
d="M252 782q15 0 30.5 -11t15.5 -25q0 -11 -21 -32.5t-57 -59.5l-38 -39q-14 -15 -41 -15q-18 0 -37 28q-8 11 -14.5 22t-14.5 22q-55 49 -55 71q0 9 6 17t15 14t20 9t20 3q13 -1 27 -28q19 -38 45 -60l49 55q18 21 24 23t12.5 4t13.5 2z" />
    <glyph glyph-name="gravecmb" unicode="&#x300;" horiz-adv-x="0" 
d="M-4 650q-3 -15 -20 -26.5t-36 -11.5q-9 0 -22 5q-1 1 -7.5 11t-18.5 30q-23 41 -46 55q-4 6 -28 16q-20 8 -20 21q0 17 20 43q9 13 19 18.5t19.5 5.5t17.5 -3.5t14 -7.5q2 -2 7 -8.5t14 -17.5l60 -76q31 -40 27 -54z" />
    <glyph glyph-name="acutecmb" unicode="&#x301;" horiz-adv-x="0" 
d="M-7 760q0 -24 -21 -49q-34 -40 -35 -43l-18 -39q-13 -27 -23.5 -32t-24.5 -5q-22 0 -39 10.5t-17 26.5q0 3 2 11q25 63 100 144q9 9 25 9q18 0 34.5 -10t16.5 -23z" />
    <glyph glyph-name="circumflexcmb" unicode="&#x302;" horiz-adv-x="0" 
d="M-56 604q-7 0 -13.5 2t-12.5 4t-24 23l-49 55q-26 -23 -45 -60q-14 -27 -27 -28q-9 0 -20 3t-20 9t-15 14t-6 17q0 22 55 71q8 11 14.5 22t14.5 22q19 28 37 28q12 0 22.5 -3.5t18.5 -11.5l38 -39q36 -38 57 -59.5t21 -32.5q0 -14 -15.5 -25t-30.5 -11z" />
    <glyph glyph-name="tildecmb" unicode="&#x303;" horiz-adv-x="0" 
d="M-19 698q-44 -32 -70 -26l-102 22q-18 3 -42 -16q-14 -11 -23 -17t-14 -6q-19 0 -34.5 18.5t-15.5 37.5q0 20 13 33q8 9 26 20q26 14 46 14q2 0 12 -2l108 -30q17 -5 40 20q22 24 33 24q13 0 24 -23q7 -15 7 -35t-8 -34z" />
    <glyph glyph-name="macroncmb" unicode="&#x304;" horiz-adv-x="0" 
d="M-44 651q-6 0 -23 4t-27 2l-210 -32q-12 -2 -31 -10.5t-30 -8.5q-12 0 -23 6.5t-20 17t-14 23t-5 24.5q0 21 13 34q4 4 30 5l48 3l216 36l30 7q8 2 14.5 3t12.5 1q9 0 21 -5q30 -18 30 -66q0 -26 -10.5 -35t-21.5 -9z" />
    <glyph glyph-name="brevecmb" unicode="&#x306;" horiz-adv-x="0" 
d="M-17 720q0 -14 -7 -27q-50 -135 -160 -135q-126 0 -169 156q-1 5 -1.5 8.5t-0.5 6.5q0 23 16 39t39 16q28 0 45 -24l10 -23q13 -73 61 -81q32 -5 57 65q1 23 17 38.5t38 15.5q23 0 39 -16t16 -39z" />
    <glyph glyph-name="dotaccentcmb" unicode="&#x307;" horiz-adv-x="0" 
d="M-27 728q3 -13 -2 -28l-9 -28q-1 -6 -1 -12v-13q0 -19 -10 -33t-40 -14q-28 0 -49 11q-24 12 -26 34q0 8 5 21l7 21q1 5 1 39q-2 45 48 45q26 0 49.5 -12t26.5 -31z" />
    <glyph glyph-name="dieresiscmb" unicode="&#x308;" horiz-adv-x="0" 
d="M-161 824q2 -10 -1 -20.5t-7 -20.5q1 -16 -9 -43q-8 -9 -27 -9q-52 0 -55 34q0 6 3 14q6 13 6 15q1 4 1 28q-2 32 35 32q48 0 54 -30zM-23 804q1 -2 -7 -41q0 -18 -10 -44q-8 -9 -27 -9q-53 0 -54 34q0 6 4 15.5t5 13.5q1 2 0.5 9.5t-0.5 18.5q-2 32 37 32q46 0 52 -29z
" />
    <glyph glyph-name="ringcmb" unicode="&#x30a;" horiz-adv-x="0" 
d="M-82 757q-17 0 -42 -24q-25 -22 -25 -42q0 -24 24 -24q26 0 49 30q16 22 16 36q0 24 -22 24zM-15 733q0 -40 -32 -72t-72 -32q-30 0 -50 20q-23 23 -23 53q0 38 30 71q31 33 74 33q32 0 52.5 -21.5t20.5 -51.5z" />
    <glyph glyph-name="hungarumlautcmb" unicode="&#x30b;" horiz-adv-x="0" 
d="M-146 730q-3 -10 -15 -20.5t-16 -16.5l-43 -66l-16 -47q-13 -5 -22 -5q-28 0 -52 23q-23 23 -18 49q1 8 26 41l54 72q2 2 5.5 9.5t8.5 19.5q7 16 19 21q6 3 13 3q11 0 21.5 -6.5t18.5 -16t13 -22t5 -24.5q0 -4 -2 -14zM-89 607l-16 -47q-13 -5 -22 -5q-28 0 -52 23
q-23 23 -18 49q1 8 26 41l54 72q2 2 5.5 9.5t8.5 18.5q7 17 19 22q6 3 13 3q10 0 20.5 -6.5t19 -16t13.5 -22t5 -24.5q0 -8 -2.5 -16t-14.5 -19q-6 -5 -10 -9.5t-6 -7.5z" />
    <glyph glyph-name="caroncmb" unicode="&#x30c;" horiz-adv-x="0" 
d="M-56 782q15 0 30.5 -11t15.5 -25q0 -11 -21 -32.5t-57 -59.5l-38 -39q-8 -8 -18.5 -11.5t-22.5 -3.5q-18 0 -37 28q-8 11 -14.5 22t-14.5 22q-55 49 -55 71q0 9 6 17t15 14t20 9t20 3q13 -1 27 -28q19 -38 45 -60l49 55q18 21 24 23t12.5 4t13.5 2z" />
    <glyph glyph-name="cedillacmb" unicode="&#x327;" horiz-adv-x="0" 
d="M-37 -164q0 -23 -16 -39t-39 -16q-4 0 -7 0.5t-7 1.5q-17 -3 -32 -3q-48 0 -79 21q-36 25 -36 74q0 80 65 125q9 43 55 43q22 0 38.5 -16t16.5 -36q0 -23 -16.5 -39t-38.5 -16q-4 0 -10 -4t-11 -9.5t-9 -12t-4 -10.5q0 -32 30 -33q16 24 45 24q23 0 39 -16t16 -39z" />
    <glyph glyph-name="ogonekcmb" unicode="&#x328;" horiz-adv-x="0" 
d="M-8 738q0 -12 -20 -30q-22 -18 -30 -32l-308 -584q-3 -6 -8.5 -22.5l-14.5 -43.5q-10 -34 -27 -37q-25 -5 -61 14q-41 23 -41 57q1 16 14 32q10 11 15 18.5t7 9.5l330 618q4 6 11 40q6 24 21 32q13 5 23 5q32 0 60 -22q31 -26 29 -55z" />
    <glyph glyph-name="soliduslongoverlaycmb" unicode="&#x338;" horiz-adv-x="0" 
d="M-26 46q1 -5 1.5 -8.5t0.5 -5.5q0 -8 -6.5 -18.5t-17.5 -24.5q-15 -20 -29.5 -39t-28.5 -39q-29 -39 -45 -40q-18 -1 -45 22q-23 22 -19 46q0 3 32 35q16 17 26.5 30t14.5 26q3 4 4.5 11.5l3 15t3 14.5t4.5 10q6 6 20 6q25 0 50 -13q28 -12 31 -28z" />
    <glyph glyph-name="Schwa" unicode="&#x18f;" horiz-adv-x="484" 
d="M318 392q-1 31 -3 75.5t-8 104.5q-14 132 -42 134q-19 1 -41 -30q-21 -30 -21 -62v-9t1 -8q2 -7 7.5 -20.5t5.5 -19.5q0 -23 -33 -41t-70 -18q-67 0 -64 56q0 13 20 59q17 51 31.5 88.5t34.5 60.5q54 61 160 55q78 -5 123 -146q38 -123 38 -285q0 -184 -56 -293
q-60 -116 -174 -110q-57 3 -107 90q-45 78 -66 183q-41 46 -36 78q4 21 27.5 33.5t52.5 12.5q23 0 40 -7q3 0 47.5 4.5t132.5 14.5zM176 276q10 -59 30 -112q24 -62 43 -63q29 -2 50 90q5 24 9.5 49.5t6.5 53.5z" />
    <glyph glyph-name="OI" unicode="&#x1a2;" horiz-adv-x="785" 
d="M485 572v-397q-18 -35 -37 -66.5t-39 -57.5q-56 -75 -96 -75q-143 0 -216 136q-63 115 -63 298q0 156 43 276q44 123 102 127q12 1 28 -6t29 -7q11 0 43 6q31 7 54 7q63 0 121 -115l123 61q-11 17 -11 23t4 14t11.5 14.5t16 11.5t17.5 5q37 0 75 -20q46 -25 46 -66
q0 -14 -18 -29v-810q23 -29 23 -55q0 -49 -73 -49q-44 0 -79 23q-30 21 -30 44q0 13 19 50v705zM345 627l-31 55q-21 28 -52 28q-43 0 -69 -92q-22 -81 -22 -205q0 -131 25 -221q27 -102 74 -102q22 0 75 93v444z" />
    <glyph glyph-name="oi" unicode="&#x1a3;" horiz-adv-x="616" 
d="M514 -196q-18 0 -34.5 5t-29.5 13t-20.5 18.5t-7.5 22.5q0 10 14 38v515l-68 -16v-282q-14 -25 -29 -48t-32 -43q-45 -53 -75 -53q-107 0 -162 97q-48 84 -48 214q0 110 33 193q34 87 82 87q11 0 23 -4.5t18 -4.5t15 1.5t18.5 3l19 3t15.5 1.5q47 0 91 -72l93 27
q-2 6 -2 10q0 16 16 30t33 14q29 0 59 -15q40 -21 40 -57q0 -13 -12 -26v-583q16 -23 16 -42q0 -47 -66 -47zM240 421q-8 15 -18 30.5t-25 15.5q-51 0 -49 -194t54 -194q8 0 38 52v290z" />
    <glyph glyph-name="Zstroke" unicode="&#x1b5;" horiz-adv-x="650" 
d="M484 473q34 24 50 24q26 2 47 -39q19 -34 21 -68q1 -27 -15 -43.5t-33 -17.5t-60 16l-147 -5l-126 -204h165q11 0 32 15q20 16 38 16q50 0 82 -35q27 -32 27 -73q0 -30 -16.5 -50t-46.5 -20q-15 0 -42 10q-29 9 -44 9h-264q-7 0 -31 -8q-21 -9 -32 -7q-36 8 -56 42
q-19 31 -19 69q0 45 42 59q25 8 31 19l93 152l-42 -1q-31 -20 -51 -22q-49 -1 -52 71q-2 45 21 80q19 30 43 32q10 0 54 -33l107 4l125 204l-152 -20q-4 0 -11.5 -3.5t-15.5 -7.5t-16.5 -7.5t-14.5 -3.5q-33 0 -55 31q-19 28 -19 65q0 65 52 65q4 0 12 -1t16.5 -2.5
t16.5 -2.5t13 -1l270 23q9 2 28 16q20 15 33 14q28 -1 58 -39t30 -70q0 -14 -7 -24q-11 -16 -43 -26q-32 -11 -39 -22l-113 -182z" />
    <glyph glyph-name="zstroke" unicode="&#x1b6;" horiz-adv-x="518" 
d="M138 219q-23 -14 -38 -14q-50 -2 -50 63q0 33 15.5 59t41.5 27q12 0 43 -22l63 3l68 106q-14 -1 -27 -2t-27 -3q-19 -2 -36.5 -11t-29.5 -9q-30 0 -48 24t-18 54q0 56 51 56q6 0 19 -2.5t20 -1.5q26 -1 53 -1h53q64 0 95 25q17 11 32 11q28 0 51 -30q23 -29 23 -58
q0 -15 -6 -22q-8 -12 -32 -20q-23 -8 -25 -11l-65 -100h9q25 16 39 16q21 1 41 -29q19 -30 21 -56q1 -23 -14 -38.5t-33 -15.5q-16 -1 -45 11l-93 -3l-81 -122h90q1 0 6 3.5t12 7t15 7t16 3.5q43 0 68 -28q22 -25 22 -58q0 -25 -14 -41q-16 -19 -44 -19q-6 0 -14 2t-16.5 5
t-16.5 5t-13 2h-185q-2 0 -7 -2t-12 -4.5t-14.5 -4t-13.5 -0.5q-31 6 -48 34q-15 25 -15 54q0 34 23 45l30 14z" />
    <glyph glyph-name="schwa" unicode="&#x259;" horiz-adv-x="435" 
d="M355 71q-46 -81 -140 -81q-50 0 -99 64q-45 60 -59 125q-31 37 -27 62q7 46 75 46q16 0 31 -5l123 11l2 39q1 17 1 30.5v24.5q-2 77 -20 77q-17 0 -30 -13t-13 -29q-2 -4 2.5 -15t6.5 -23q0 -12 -8 -22.5t-20.5 -18t-29 -12t-33.5 -4.5q-68 0 -65 56q1 9 15 44
q39 147 198 147q130 0 130 -339q0 -91 -40 -164zM183 184q17 -80 29 -80q25 0 43 87z" />
    <glyph glyph-name="EgraveCyrillic" unicode="&#x400;" 
d="M276 134q13 12 35 12q35 0 67 -28q33 -27 33 -56t-34 -42q-8 -3 -31 -3q-26 -1 -46 -6q-135 -35 -147 -35q-24 0 -67 31q-41 32 -41 55q0 -2 2.5 11.5t2.5 28.5v640q0 3 -2.5 10t-2.5 10q0 39 63 39q42 0 56 -17l120 18q5 2 9.5 5t9.5 5q19 10 34 10q32 0 59 -32
q24 -29 24 -60q0 -18 -10 -28q-21 -21 -55 -24l-46 -3q-21 -2 -51 -6.5t-68 -12.5v-242q18 3 40 13q16 6 31 6q33 0 70 -26q36 -26 36 -55q0 -9 -3 -16q-17 -39 -55 -40l-63 -2l-56 -11v-167q20 4 41.5 8.5t44.5 9.5zM196 817q-14 4 -39 45q-32 50 -33 50l-29 17
q-21 12 -21 28q0 19 22 38q23 20 45 20q14 0 25 -9q17 -14 62 -74q49 -67 46 -82q-1 -10 -26 -22q-24 -12 -43 -12q-6 0 -9 1z" />
    <glyph glyph-name="IOCyrillic" unicode="&#x401;" 
d="M343 868q-11 -33 -39 -36q-21 -2 -38 7q-20 9 -22 26l5 15t5 22v15q3 23 40 23q56 0 56 -35q0 -13 -7 -37zM188 877q-10 -34 -38 -37q-21 -2 -40 7.5t-21 26.5q2 5 5 14t5 22v15q4 24 41 24q56 0 56 -35q0 -10 -8 -37zM276 134q13 12 35 12q35 0 67 -28q33 -27 33 -56
t-34 -42q-8 -3 -31 -3q-26 -1 -46 -6q-135 -35 -147 -35q-24 0 -67 31q-41 32 -41 55q0 -2 2.5 11.5t2.5 28.5v640q0 3 -2.5 10t-2.5 10q0 39 63 39q42 0 56 -17l120 18q5 2 9.5 5t9.5 5q19 10 34 10q32 0 59 -32q24 -29 24 -60q0 -18 -10 -28q-21 -21 -55 -24l-46 -3
q-21 -2 -51 -6.5t-68 -12.5v-242q18 3 40 13q16 6 31 6q33 0 70 -26q36 -26 36 -55q0 -9 -3 -16q-17 -39 -55 -40l-63 -2l-56 -11v-167q20 4 41.5 8.5t44.5 9.5z" />
    <glyph glyph-name="DJECyrillic" unicode="&#x402;" horiz-adv-x="738" 
d="M323 484q20 22 33 35.5t20 19.5q40 29 84 29q232 0 232 -294q0 -145 -60 -229q-53 -72 -127 -72q-116 0 -109 85q3 39 105 39q20 0 36 55q16 54 16 121q0 73 -22 117q-26 53 -75 53q-33 0 -72 -59q-16 -23 -30.5 -47t-30.5 -47v-207q1 -1 2 -1q23 -29 23 -56
q0 -48 -73 -48q-43 0 -79 22q-30 21 -30 44q0 10 17 46v579l-65 -5q-30 -24 -49 -25q-50 -5 -56 69q-2 23 2.5 43t14.5 37q19 33 41 34q9 1 56 -29l261 23q33 26 49 27q25 1 49 -37q21 -35 24 -67q2 -26 -13 -44t-32 -19q-19 -2 -61 13l-81 -7v-198z" />
    <glyph glyph-name="GjeCyrillic" unicode="&#x403;" horiz-adv-x="525" 
d="M180 643v-571q18 -33 18 -59q0 -33 -60 -33q-38 0 -77 19q-39 16 -39 33q0 18 18 50v599q-17 29 -17 47q0 49 73 49q24 0 48 -8l234 29q34 24 50 25q25 1 48 -39q21 -36 22 -68q1 -26 -14.5 -43t-32.5 -18q-19 -1 -61 15zM259 817q-3 -1 -9 -1q-19 0 -43 12
q-25 12 -26 22q-3 15 46 82q45 60 62 74q10 9 25 9q25 0 46 -20q20 -20 20 -38q0 -16 -20 -28l-30 -17q-4 -6 -8 -13q-4 -6 -10 -15.5t-14 -21.5q-26 -41 -39 -45z" />
    <glyph glyph-name="IECyrillic" unicode="&#x404;" horiz-adv-x="559" 
d="M306 465q37 23 51 23q26 0 46 -41q18 -36 18 -69q0 -26 -16 -42.5t-34 -16.5q-19 0 -59 18h-132q4 -94 29 -163q28 -82 73 -82q31 0 69 29q30 22 47 49q4 31 15 48q8 12 25 14q14 1 31.5 -9t33 -25t25.5 -32.5t8 -31.5q0 -9 -3 -13q-11 -17 -44 -33q-34 -42 -84 -76
q-66 -43 -120 -43q-127 0 -197 159q-55 125 -55 280q0 119 74 249q88 153 213 153q54 0 97 -43q21 -21 57 -78q26 -13 34 -24t8 -25q0 -31 -38 -58q-27 -20 -50 -20q-26 0 -47 29q-6 7 -14 50q-30 41 -53 41q-52 0 -89 -72q-31 -58 -45 -145h126z" />
    <glyph glyph-name="DzeCyrillic" unicode="&#x405;" horiz-adv-x="490" 
d="M482 176q0 -61 -34 -117q-47 -78 -138 -78q-147 0 -216 140q-75 49 -75 83q0 13 32 30t64 20q35 4 64 -34l44 -72q25 -40 51 -40q67 0 67 70q0 38 -17.5 70t-53.5 54l-133 80q-71 60 -73 168q-1 81 40 162q56 107 158 107q75 0 127 -58q53 -58 53 -133q0 -7 1.5 -17
t4 -20t4 -18.5t1.5 -13.5q0 -70 -60 -70q-38 0 -69 28q-32 29 -32 69q0 5 2.5 11t5.5 13t5.5 13.5t2.5 12.5q-4 55 -36 55q-21 0 -44 -38q-24 -41 -24 -88q0 -101 112 -153q55 -26 104 -87q62 -76 62 -149z" />
    <glyph glyph-name="ICyrillic" unicode="&#x406;" horiz-adv-x="240" 
d="M197 78q18 -33 18 -59q0 -33 -60 -33q-39 0 -77 17q-39 18 -39 35q0 18 18 50v629q-17 29 -17 47q0 49 73 49q44 0 79 -23q30 -21 30 -44q0 -13 -25 -62v-606z" />
    <glyph glyph-name="YiCyrillic" unicode="&#x407;" horiz-adv-x="313" 
d="M227 78q18 -33 18 -59q0 -33 -60 -33q-39 0 -77 17q-39 18 -39 35q0 18 18 50v629q-17 29 -17 47q0 49 73 49q44 0 79 -23q30 -21 30 -44q0 -13 -25 -62v-606zM278 868q-11 -33 -39 -36q-20 -2 -39 7t-21 26l5 15t5 22v15q5 23 40 23q57 0 57 -35q0 -10 -8 -37zM123 877
q-10 -34 -38 -37q-21 -2 -40 7.5t-21 26.5q7 12 11 36q-2 13 0 15q3 24 40 24q56 0 56 -35q0 -10 -8 -37z" />
    <glyph glyph-name="JeCyrillic" unicode="&#x408;" horiz-adv-x="489" 
d="M290 717q-17 29 -17 46q0 49 73 49q46 0 77 -22q32 -23 32 -45q0 -12 -25 -61v-348q0 -143 -38 -245q-40 -106 -104 -106q-68 0 -122 50q-20 18 -38 42.5t-35 56.5l-32 61q-40 40 -40 64q0 12 40 24t79 12q33 0 44 -11q14 -14 14 -26q0 -4 -3.5 -14.5t-1.5 -17.5
q35 -107 52 -107q46 0 46 174z" />
    <glyph glyph-name="LjeCyrillic" unicode="&#x409;" horiz-adv-x="1085" 
d="M804 19q-15 -33 -60 -33q-39 0 -77 17q-39 18 -39 35q0 18 18 50v585l-203 -14v-230q0 -160 -21 -268q-34 -178 -123 -178q-54 0 -108 46q-20 17 -39 39t-36 51l-32 55l-33 32q-14 14 -19.5 25.5t-5.5 21.5q0 15 35 32q35 16 72 16q30 0 44 -14q17 -17 41 -97
q22 -72 34 -72q18 0 32 39q19 51 19 154v406q-17 29 -17 46q0 49 73 49q48 0 82 -25l212 15q19 10 49 10q44 0 79 -23q30 -21 30 -44q0 -12 -25 -61v-166q47 44 96 44q79 0 129 -95q43 -85 43 -205q0 -114 -38 -189q-42 -83 -115 -83q-45 0 -97 29zM871 435q-34 0 -59 -52
q-26 -54 -26 -118t24 -113q26 -50 57 -50q25 0 38 49q12 43 12 109q0 69 -12 120q-13 55 -34 55z" />
    <glyph glyph-name="NjeCyrillic" unicode="&#x40a;" horiz-adv-x="835" 
d="M547 19q-15 -33 -60 -33q-39 0 -77 17q-39 18 -39 35q0 18 18 50v290l-200 -33v-267q17 -34 17 -59q0 -33 -60 -33q-39 0 -77 17q-39 18 -39 35q0 19 19 50v629q-17 29 -17 46q0 49 73 49q46 0 77 -22q32 -23 32 -45q0 -12 -25 -61v-211l200 33v215q-15 34 -15 57
q0 16 8 22q15 10 27 12h36q18 0 35 -2.5t33 -9.5q41 -18 41 -55q0 -12 -25 -61v-166q47 44 96 44q81 0 129 -95q43 -85 43 -205q0 -111 -38 -189q-42 -83 -115 -83q-45 0 -97 29zM614 435q-32 0 -59 -52q-26 -54 -26 -118t24 -113q26 -50 57 -50q25 0 38 49q12 43 12 109
q0 69 -12 120q-13 55 -34 55z" />
    <glyph glyph-name="TsheCyrillic" unicode="&#x40b;" horiz-adv-x="703" 
d="M500 798q35 22 51 22q26 0 46 -41q18 -36 18 -69q0 -26 -16 -42.5t-34 -16.5q-20 0 -59 19h-135v-227q21 47 55 81q43 42 90 42q150 0 150 -303q0 -83 -12 -185l-4 1q20 -32 20 -52q0 -48 -73 -48q-46 0 -79 21q-32 22 -30 45q3 30 31 51q15 124 15 221q0 110 -26 110
q-32 0 -84 -82q-53 -86 -53 -145v-122q17 -34 17 -59q0 -33 -60 -33q-34 0 -76 17q-40 19 -40 35q0 19 19 50v582h-111q-32 -20 -52 -20q-49 0 -49 73q0 46 22 77q23 32 45 32q11 0 54 -34h360z" />
    <glyph glyph-name="KjeCyrillic" unicode="&#x40c;" horiz-adv-x="714" 
d="M369 817q-3 -1 -9 -1q-19 0 -43 12q-25 12 -26 22q-3 15 46 82q45 60 62 74q10 9 25 9q23 0 46 -21q20 -20 20 -37q0 -16 -20 -28l-30 -17q-4 -6 -8 -13q-4 -6 -10 -15.5t-14 -21.5q-26 -41 -39 -45zM203 340v-262q18 -33 18 -59q0 -33 -60 -33q-39 0 -77 17
q-39 18 -39 35q0 18 18 50v629q-17 29 -17 47q0 49 73 49q45 0 79 -23q30 -21 30 -44q0 -13 -25 -62v-216h85q68 49 115 131q46 81 90 162l12 31q13 25 38 25q31 0 68 -28q46 -35 40 -74q-3 -23 -55 -40l-69 -128q-22 -41 -51.5 -71t-64.5 -52q35 -28 63 -57t50 -60
q14 -20 37.5 -61t57.5 -104q3 -4 9.5 -7.5t13.5 -6t12.5 -5t7.5 -3.5q16 -13 16 -33q0 -25 -24 -53q-39 -46 -86 -46q-19 0 -29 9q-6 6 -13 29q-8 27 -10 29q-34 67 -55.5 106.5t-30.5 53.5q-20 32 -48.5 63t-65.5 62h-113z" />
    <glyph glyph-name="IgraveCyrillic" unicode="&#x40d;" horiz-adv-x="614" 
d="M152 -6q-8 -3 -18 -3q-30 0 -65 19q-33 19 -33 36q0 18 19 49v629q-17 31 -17 47q0 49 73 49q44 0 79 -23q30 -21 30 -44q0 -13 -25 -62v-383q23 45 72 154.5t124 286.5q-4 11 -4 20q0 48 70 48q42 0 76 -19q36 -20 36 -47q0 -13 -25 -62v-626q17 -34 17 -58
q0 -33 -60 -33q-36 0 -76 18q-40 16 -40 34t19 49v389q-71 -156 -195 -414q-2 -7 -5 -13t-5 -12q-13 -21 -47 -29zM306 817q-14 4 -39 45q-32 50 -33 50l-29 17q-21 12 -21 28q0 19 22 38q23 20 45 20q14 0 25 -9q17 -14 62 -74q49 -67 46 -82q-1 -10 -26 -22
q-24 -12 -43 -12q-6 0 -9 1z" />
    <glyph glyph-name="UshortCyrillic" unicode="&#x40e;" horiz-adv-x="767" 
d="M187 690q-3 10 -25 43q-16 22 -16 40q0 10 7.5 18.5t19.5 14.5t28 9.5t33 3.5q83 0 89 -60l6 -57l94 -292l141 365q8 22 28 32t48 10q19 0 37 -5.5t31.5 -15t21.5 -22.5t8 -28q0 -25 -32 -54q-37 -34 -45 -50q-18 -46 -35.5 -90t-34.5 -86q-42 -102 -76 -185.5
t-69 -146.5l-54 -96q-23 -41 -49 -59t-48 -18q-92 0 -180 72q-84 69 -84 126q0 39 51 39q28 0 58 -10q27 -7 35 -14q3 -2 31 -44q22 -33 40 -33q54 0 89 155zM606 978q0 -14 -7 -27q-50 -135 -160 -135q-126 0 -169 156q-2 10 -2 16q0 23 17 38.5t39 15.5q27 0 44 -24
l10 -23q14 -74 61 -81q32 -5 57 65q1 54 54 54q23 0 39.5 -15t16.5 -40z" />
    <glyph glyph-name="DzheCyrillic" unicode="&#x40f;" horiz-adv-x="663" 
d="M35 35q1 21 18 50v629q-17 31 -17 47q0 49 73 49q45 0 79 -23q30 -21 30 -44q0 -13 -25 -62v-561l220 18v588q-17 34 -17 58q0 34 60 34q35 0 76 -18q40 -18 40 -35q0 -18 -19 -49v-562q7 3 14 3q27 0 47 -35q21 -35 21 -73q0 -55 -46 -58q-15 0 -45 9q-5 -2 -30 0t-71 1
l-69 -1v-115q18 -33 18 -59q0 -34 -60 -34q-38 0 -77 19q-39 18 -39 34q0 18 18 50v96q-23 -12 -91 -12q-114 0 -108 56z" />
    <glyph glyph-name="ACyrillic" unicode="&#x410;" horiz-adv-x="724" 
d="M627 347q16 -3 29 -12.5t22 -23t14 -29.5t5 -32q0 -52 -68 -52h-10t-14 1q-7 1 -11.5 1h-6.5q12 -41 21 -70t15 -46q33 -36 33 -61t-50 -39q-23 -6 -47 -6q-58 0 -64 22q-12 45 -10 57q-8 22 -18.5 54.5t-23.5 75.5l-225 -35q-10 -30 -27 -95q7 -37 -0.5 -59t-33.5 -22
q-8 0 -16.5 2t-18.5 5q-17 6 -34 15.5t-33 23.5q-31 30 -27 46q6 18 33 42q31 122 96 323q31 94 58.5 171t51.5 138q-8 39 -2 50q14 26 44 26q8 0 23.5 -2t23.5 -2q19 -1 36 -3.5t32 -7.5q35 -12 40 -29q3 -11 -9 -66q16 -78 39.5 -173t55.5 -210q48 28 77 22zM407 312
q-16 60 -31.5 119t-29.5 119q-17 -50 -39.5 -116t-48.5 -150z" />
    <glyph glyph-name="BeCyrillic" unicode="&#x411;" horiz-adv-x="513" 
d="M286 435q-33 0 -58 -52q-26 -54 -26 -118q0 -30 6.5 -56.5t17 -45.5t25 -30t31.5 -11q26 0 39 46q12 40 12 102q0 67 -13 113q-13 52 -34 52zM320 799q35 22 51 22q26 0 46 -41q18 -36 18 -69q0 -26 -16.5 -42.5t-33.5 -16.5q-21 0 -60 19h-123v-183q47 74 95 74
q81 0 129 -95q43 -85 43 -205q0 -111 -38 -189q-42 -83 -115 -83q-45 0 -114 88q17 -43 17 -59q0 -33 -60 -33q-39 0 -77 17q-39 18 -39 35q0 19 19 50v633q-16 33 -16 57q0 16 8 22q8 5 15 8.5t13 4.5q-1 -1 37 -1q42 0 69 -13h132z" />
    <glyph glyph-name="VeCyrillic" unicode="&#x412;" horiz-adv-x="614" 
d="M195 78q8 -5 18 -5q57 0 140 84q88 89 88 172q0 47 -48 47q-66 0 -198 -78v-220zM92 -2q-56 27 -56 40q0 19 19 50v629q-17 29 -17 46q0 49 73 49q36 0 56.5 -6t28.5 -6q-1 0 17 3.5t56 10.5q76 15 131 15q125 0 153 -73q11 -30 11 -59q0 -120 -172 -232q33 6 54 6
q113 0 130 -110q3 -21 3 -42q0 -136 -113 -249q-113 -111 -243 -111q-73 0 -131 39zM195 440q228 148 228 255q0 28 -53 28q-38 0 -91 -17q-51 -17 -84 -42v-224z" />
    <glyph glyph-name="GheCyrillic" unicode="&#x413;" horiz-adv-x="525" 
d="M180 653v-581q18 -33 18 -59q0 -33 -60 -33q-38 0 -77 19q-39 16 -39 33q0 18 18 50v609q-17 29 -17 47q0 49 73 49q24 0 48 -8l234 29q34 24 50 25q25 1 48 -39q21 -36 22 -68q1 -26 -14.5 -43t-32.5 -18q-19 -1 -61 15z" />
    <glyph glyph-name="DeCyrillic" unicode="&#x414;" horiz-adv-x="965" 
d="M608 128v544h-175q3 -164 0 -181q0 -127 -74 -363h249zM915 -102q17 -34 17 -59q0 -34 -60 -34q-37 0 -76 19q-40 18 -40 34q0 19 19 50v92h-589v-102q17 -34 17 -59q0 -34 -60 -34q-38 0 -77 19q-39 18 -39 34q0 19 19 50v157q-17 29 -17 46q0 49 73 49q54 0 89 -32h18
q82 216 83 423l1 166q-17 29 -17 46q0 49 73 49q30 0 59 -12h205q18 12 51 12q44 0 79 -23q30 -21 30 -44q0 -12 -25 -61v-556h14q14 32 69 32q46 0 77 -22q32 -23 32 -45q0 -12 -25 -61v-134z" />
    <glyph glyph-name="IeCyrillic" unicode="&#x415;" 
d="M276 134q13 12 35 12q35 0 67 -28q33 -27 33 -56t-34 -42q-8 -3 -31 -3q-26 -1 -46 -6q-135 -35 -147 -35q-24 0 -67 31q-41 32 -41 55q0 -2 2.5 11.5t2.5 28.5v640q0 3 -2.5 10t-2.5 10q0 39 63 39q42 0 56 -17l120 18q5 2 9.5 5t9.5 5q19 10 34 10q32 0 59 -32
q24 -29 24 -60q0 -18 -10 -28q-21 -21 -55 -24l-46 -3q-21 -2 -51 -6.5t-68 -12.5v-242q18 3 40 13q16 6 31 6q33 0 70 -26q36 -26 36 -55q0 -9 -3 -16q-17 -39 -55 -40l-63 -2l-56 -11v-167q20 4 41.5 8.5t44.5 9.5z" />
    <glyph glyph-name="ZheCyrillic" unicode="&#x416;" horiz-adv-x="1097" 
d="M483 468v249q-17 29 -17 47q0 49 73 49q44 0 79 -23q30 -21 30 -44q0 -13 -25 -62v-216h65q68 49 115 131q46 81 90 162q3 8 6 15.5t5 15.5q13 25 39 25q31 0 68 -28q45 -34 39 -74q-3 -23 -54 -40l-69 -128q-22 -41 -51.5 -71t-64.5 -52q35 -28 63 -57t50 -60
q14 -20 37.5 -61t57.5 -104q3 -4 9.5 -7.5t13.5 -6t12.5 -5t7.5 -3.5q16 -13 16 -33q0 -25 -24 -53q-39 -46 -86 -46q-19 0 -29 9q-6 6 -13 29q-8 27 -10 29q-34 67 -55.5 106.5t-30.5 53.5q-20 32 -48.5 63t-65.5 62h-93v-262q18 -33 18 -59q0 -33 -60 -33q-39 0 -77 17
q-39 18 -39 35q0 18 18 50v252h-92q-37 -31 -65.5 -62t-48.5 -63q-9 -14 -30.5 -53.5t-55.5 -106.5q-7 -25 -23 -58q-11 -9 -30 -9q-46 0 -85 46q-24 28 -24 53q0 20 16 33q17 5 43 22q34 63 57.5 104t37.5 61q22 31 50 60t63 57q-35 22 -64.5 52t-51.5 71l-69 128
q-52 17 -55 40q-6 39 40 74q37 28 68 28q25 0 38 -25l12 -31q43 -81 90 -162q47 -82 115 -131h64z" />
    <glyph glyph-name="ZeCyrillic" unicode="&#x417;" horiz-adv-x="521" 
d="M187 458q49 41 99 106q52 67 52 92q0 11 -11 11q-8 0 -99 -51l-29 -23q-18 -15 -34 -15q-19 0 -36.5 8t-30.5 23t-20.5 36t-7.5 47q0 23 31 29q58 9 59 10l82 48q33 20 61.5 28.5t52.5 8.5q55 0 83 -35t28 -92q0 -29 -7 -59.5t-20 -59.5t-31.5 -55t-41.5 -46
q124 -34 124 -97q0 -90 -115 -241q-113 -150 -178 -150q-38 0 -106 56q-68 59 -68 91q0 29 18 45t45 16q11 0 21 -2t19 -8l34 -22q19 -14 33 -15q15 -2 79 83q65 86 65 123q0 18 -16 18q-18 0 -67 -33q-50 -32 -62 -32q-20 0 -38.5 7t-32.5 19.5t-23 30t-9 38.5q0 18 35 32
q47 19 62 30z" />
    <glyph glyph-name="ICyrillic2" unicode="&#x418;" horiz-adv-x="614" 
d="M152 -6q-8 -3 -18 -3q-30 0 -65 19q-33 19 -33 36q0 18 19 49v629q-17 31 -17 47q0 49 73 49q44 0 79 -23q30 -21 30 -44q0 -13 -25 -62v-383q59 113 107.5 215t88.5 196q-4 11 -4 20q0 48 70 48q42 0 76 -19q36 -20 36 -47q0 -13 -25 -62v-606q17 -34 17 -57
q0 -34 -60 -34q-36 0 -76 18t-40 34q0 18 19 49v369q-71 -141 -195 -384q-2 -7 -5 -13t-5 -12q-13 -21 -47 -29z" />
    <glyph glyph-name="IshortCyrillic" unicode="&#x419;" horiz-adv-x="614" 
d="M152 -6q-8 -3 -18 -3q-30 0 -65 19q-33 19 -33 36q0 18 19 49v629q-17 31 -17 47q0 49 73 49q44 0 79 -23q30 -21 30 -44q0 -13 -25 -62v-383q59 113 107.5 215t88.5 196q-4 11 -4 20q0 48 70 48q42 0 76 -19q36 -20 36 -47q0 -13 -25 -62v-606q17 -34 17 -57
q0 -34 -60 -34q-36 0 -76 18t-40 34q0 18 19 49v369q-71 -141 -195 -384q-2 -7 -5 -13t-5 -12q-13 -21 -47 -29zM476 978q0 -14 -7 -27q-50 -135 -160 -135q-126 0 -169 156q-2 10 -2 16q0 23 17 38.5t39 15.5q27 0 44 -24l10 -23q14 -74 61 -81q32 -5 57 65q1 54 54 54
q23 0 39.5 -15t16.5 -40z" />
    <glyph glyph-name="KaCyrillic" unicode="&#x41a;" horiz-adv-x="714" 
d="M203 340v-262q18 -33 18 -59q0 -33 -60 -33q-39 0 -77 17q-39 18 -39 35q0 18 18 50v629q-17 29 -17 47q0 49 73 49q45 0 79 -23q30 -21 30 -44q0 -13 -25 -62v-216h85q68 49 115 131q46 81 90 162l12 31q13 25 38 25q31 0 68 -28q46 -35 40 -74q-3 -23 -55 -40l-69 -128
q-22 -41 -51.5 -71t-64.5 -52q35 -28 63 -57t50 -60q14 -20 37.5 -61t57.5 -104q3 -4 9.5 -7.5t13.5 -6t12.5 -5t7.5 -3.5q16 -13 16 -33q0 -25 -24 -53q-39 -46 -86 -46q-19 0 -29 9q-6 6 -13 29q-8 27 -10 29q-34 67 -55.5 106.5t-30.5 53.5q-20 32 -48.5 63t-65.5 62
h-113z" />
    <glyph glyph-name="ElCyrillic" unicode="&#x41b;" horiz-adv-x="858" 
d="M252 118q18 0 32 39q19 51 19 154v406q-17 29 -17 46q0 49 73 49q48 0 82 -25l212 15q19 10 49 10q44 0 79 -23q30 -21 30 -44q0 -12 -25 -61v-606q18 -42 18 -59q0 -33 -60 -33q-39 0 -77 17q-39 18 -39 35q0 18 18 50v585l-203 -14v-230q0 -160 -21 -268
q-34 -178 -123 -178q-54 0 -108 46q-20 17 -39 39t-36 51l-32 55l-33 32q-14 14 -19.5 25.5t-5.5 21.5q0 15 35 32q35 16 72 16q30 0 44 -14q17 -17 41 -97q22 -72 34 -72z" />
    <glyph glyph-name="EmCyrillic" unicode="&#x41c;" horiz-adv-x="915" 
d="M384 12q-3 10 -3.5 24.5t0.5 34.5l-167 408v-406q18 -33 18 -59q0 -33 -60 -33q-38 0 -77 19q-39 16 -39 33q0 18 18 50v629q-17 29 -17 46q0 49 73 49q16 0 31 -3q20 5 35 5q60 0 73 -34q4 -10 -12 -62l213 -521l213 521q-16 52 -12 62q13 34 73 34q5 0 10.5 -0.5
t10.5 -1.5h11q46 0 77 -22q32 -23 32 -45q0 -12 -25 -62v-605q17 -34 17 -59q0 -33 -60 -33q-37 0 -76 19q-40 16 -40 33q0 19 19 50v382l-161 -394q2 -46 -4 -63q-12 -29 -82 -29q-80 0 -89 33z" />
    <glyph glyph-name="EnCyrillic" unicode="&#x41d;" horiz-adv-x="610" 
d="M389 373l-200 -30v-265q17 -34 17 -59q0 -33 -60 -33q-39 0 -77 17q-39 18 -39 35q0 19 19 50v629q-17 29 -17 46q0 49 73 49q46 0 77 -22q32 -23 32 -45q0 -12 -25 -61v-213l200 30v220q-15 34 -15 57q0 16 8 22q15 10 27 12h36q18 0 35 -2.5t33 -9.5q41 -18 41 -55
q0 -12 -25 -61v-606q18 -42 18 -59q0 -33 -60 -33q-39 0 -77 17q-39 18 -39 35q0 18 18 50v285z" />
    <glyph glyph-name="OCyrillic" unicode="&#x41e;" horiz-adv-x="540" 
d="M168 813q16 0 31.5 -5t29.5 -5q6 0 16.5 1.5t26.5 3.5q31 6 45 6q16 0 25 -4q80 -33 127 -129q49 -102 49 -261q0 -199 -68 -332q-58 -114 -126 -114q-10 0 -17 3q-1 0 -47 6q-102 12 -169 137q-66 126 -66 300q0 126 43 255q46 138 100 138zM268 714q-52 0 -82 -126
q-21 -89 -21 -168t27 -191q34 -139 78 -139q48 0 83 141q15 61 21 108t4 81q-17 294 -110 294z" />
    <glyph glyph-name="PeCyrillic" unicode="&#x41f;" horiz-adv-x="610" 
d="M445 812q36 2 68 -12q41 -18 41 -55q0 -12 -25 -61v-606q18 -42 18 -59q0 -33 -60 -33q-39 0 -77 17q-39 18 -39 35q0 18 18 50v588l-200 -31v-557q17 -54 17 -69q0 -33 -60 -33q-39 0 -77 17q-39 18 -39 35q0 19 19 50v629q-17 29 -17 46q0 49 73 49q58 0 93 -35l123 21
q35 6 65.5 9.5t58.5 4.5z" />
    <glyph glyph-name="ErCyrillic" unicode="&#x420;" horiz-adv-x="492" 
d="M177 78q18 -33 18 -59q0 -33 -60 -33q-39 0 -77 17q-39 18 -39 35q0 18 18 50v629q-17 29 -17 46q0 49 73 49q37 0 72 -18q99 41 151 41q46 0 74 -19q3 -2 29 -28l28 -27q18 -26 18 -59q0 -94 -91 -264q-96 -181 -166 -181q-10 0 -31 24v-203zM177 405q23 0 85 107
q64 110 64 168q0 37 -29 37q-40 0 -120 -80v-232z" />
    <glyph glyph-name="EsCyrillic" unicode="&#x421;" horiz-adv-x="450" 
d="M220 683q-26 -2 -42 -98q-15 -90 -15 -211q0 -116 15 -191q17 -86 46 -85q25 1 47 59q9 25 14 46t4 38q-2 31 24 48q20 16 53 16q30 0 52.5 -14t23.5 -37q0 -13 -11 -30q-14 -21 -15 -27q-20 -71 -62 -136q-52 -79 -110 -81q-111 -5 -172 113q-52 101 -52 312
q0 170 43 278q53 131 152 134q84 3 131 -69q37 -59 57 -144q17 -46 19 -59q1 -55 -62 -55q-37 0 -71 19q-33 19 -35 42q0 5 13 40q-7 94 -47 92z" />
    <glyph glyph-name="TeCyrillic" unicode="&#x422;" horiz-adv-x="556" 
d="M343 680v-626q18 -33 18 -57q0 -34 -60 -34q-37 0 -77 18q-39 18 -39 34q0 17 18 49v592l-80 -14q-28 -25 -48 -28q-48 -7 -60 65q-1 5 -1 9.5v9.5q0 62 59 73q5 1 17.5 1h32.5l292 42q31 28 47 30q26 5 52 -33q25 -34 29 -65q4 -26 -9.5 -45t-30.5 -21q-6 -1 -61 13z
" />
    <glyph glyph-name="UCyrillic" unicode="&#x423;" horiz-adv-x="767" 
d="M187 690q-3 10 -25 43q-16 22 -16 40q0 10 7.5 18.5t19.5 14.5t28 9.5t33 3.5q83 0 89 -60l6 -57l94 -292l141 365q8 22 28 32t48 10q19 0 37 -5.5t31.5 -15t21.5 -22.5t8 -28q0 -25 -32 -54q-37 -34 -45 -50q-18 -46 -35.5 -90t-34.5 -86q-42 -102 -76 -185.5
t-69 -146.5l-54 -96q-23 -41 -49 -59t-48 -18q-92 0 -180 72q-84 69 -84 126q0 39 51 39q28 0 58 -10q27 -7 35 -14q3 -2 31 -44q22 -33 40 -33q54 0 89 155z" />
    <glyph glyph-name="EfCyrillic" unicode="&#x424;" horiz-adv-x="728" 
d="M437 78q18 -33 18 -59q0 -33 -60 -33q-39 0 -77 17q-39 18 -39 35q0 18 18 50v78q-45 -48 -97 -48q-78 0 -121 82q-39 73 -39 185q0 118 44 208q48 97 126 97q43 0 87 -60v87q-17 29 -17 46q0 49 73 49q44 0 79 -23q30 -21 30 -44q0 -12 -25 -61v-62q45 68 93 68
q78 0 126 -97q44 -90 44 -208q0 -112 -39 -185q-43 -82 -121 -82q-57 0 -103 54v-94zM229 567q-25 0 -38 -58q-12 -51 -12 -127q0 -70 10 -116q10 -52 28 -52q6 0 12 6q14 14 35 80t21 103q0 42 -18 101q-20 63 -38 63zM511 567q-19 0 -38 -63q-18 -59 -18 -101
q0 -37 21 -103t35 -80q6 -6 12 -6q18 0 28 52q10 46 10 116q0 76 -12 127q-13 58 -38 58z" />
    <glyph glyph-name="HaCyrillic" unicode="&#x425;" horiz-adv-x="628" 
d="M191 78q0 -27 -6 -66q-14 -27 -63 -27q-31 0 -62 15q-47 24 -47 58q0 11 4 19q7 13 37 34l165 303l-153 265q-30 17 -38 32q-6 9 -6 21q0 32 44 58q32 19 68 19q44 0 58 -24q4 -11 9 -66l92 -168l97 196q-1 37 6 53q7 13 44 13q48 0 85 -19q38 -20 38 -41q0 -26 -46 -59
l-142 -276l184 -318q32 -20 44 -42q5 -8 5 -15q0 -22 -37 -43q-42 -22 -91 -22q-30 0 -36 11q-9 16 -9 51l-134 246z" />
    <glyph glyph-name="TseCyrillic" unicode="&#x426;" horiz-adv-x="611" 
d="M303 -32q-128 0 -192 141q-50 110 -63 304q-2 37 -3.5 106.5t-1.5 174.5q-11 39 -11 60q0 72 73 72q39 0 74 -23t37 -55q1 -14 -12 -39q-13 -22 -11 -40q-8 -43 -8 -119t6 -146t19 -134q30 -150 79 -150q54 0 91 187q16 79 23.5 155.5t7.5 151.5q0 39 -3 62q1 16 -18 47
t-19 46q0 34 27 54q25 17 60 17q20 0 38.5 -5.5t33 -16t23.5 -26t9 -34.5l-14 -42q-1 -83 -2.5 -146.5t-5.5 -109.5q-8 -106 -24 -189.5t-41 -145.5q42 -5 68 -32q35 -35 35 -95q0 -85 -66 -143q-59 -51 -125 -51q-72 0 -72 61q0 21 64 57q65 35 65 52q0 18 -42 33
q-44 -39 -99 -39z" />
    <glyph glyph-name="cheCyrillic" unicode="&#x427;" horiz-adv-x="528" 
d="M354 726q-17 36 -17 47q0 49 73 49q45 0 79 -23q30 -21 30 -44q0 -13 -25 -62v-616q18 -33 18 -59q0 -33 -60 -33q-39 0 -77 17q-39 18 -39 35q0 18 18 50v290q-59 -132 -166 -132q-89 0 -125 131q-30 111 -30 354q0 8 -8 22t-8 22q0 17 30 31q31 14 65 14q73 0 73 -57
q0 -3 -7 -24q-6 -21 -6 -32q0 -308 43 -308q52 0 99 132q40 114 40 196z" />
    <glyph glyph-name="ShaCyrillic" unicode="&#x428;" horiz-adv-x="959" 
d="M398 694q-12 46 -12 60q0 72 74 72q38 0 73 -23t37 -55q1 -14 -12 -39q-13 -22 -11 -40q0 -229 9 -325q20 -224 87 -224q59 0 94 221q13 84 19 167t6 168q1 16 -18 47t-19 46q0 34 27 54q25 17 60 17q20 0 38.5 -5.5t33 -16t23.5 -26t9 -34.5l-13 -42q-3 -299 -29 -444
q-55 -304 -216 -304q-124 0 -194 151q-70 -151 -167 -151q-129 0 -193 141q-50 110 -63 304q-2 34 -3 104t-1 177q-12 37 -12 60q0 72 74 72q39 0 74 -23q34 -22 36 -55q1 -14 -12 -39q-12 -25 -11 -40q0 -115 2 -194t6 -124q19 -229 89 -231q115 -1 115 574z" />
    <glyph glyph-name="ShchaCyrillic" unicode="&#x429;" horiz-adv-x="959" 
d="M833 119q88 -43 88 -121q0 -85 -66 -143q-59 -51 -125 -51q-72 0 -72 61q0 21 64 57q65 35 65 52t-31 29q-44 -35 -98 -35q-124 0 -194 151q-70 -151 -167 -151q-129 0 -193 141q-50 110 -63 304q-2 34 -3 104t-1 177q-12 37 -12 60q0 72 74 72q39 0 74 -23
q34 -22 36 -55q1 -14 -12 -39q-12 -25 -11 -40q-8 -43 -8 -119q0 -150 26 -280q30 -150 79 -150q42 0 75 122q14 51 24 111.5t17 133.5q-1 16 -1 67.5v139.5q-12 37 -12 60q0 72 74 72q38 0 73 -23t37 -55q1 -14 -12 -39q-13 -22 -11 -40q-8 -43 -8 -119t6 -146t19 -134
q31 -150 79 -150q54 0 91 187q16 79 23.5 155.5t7.5 151.5q0 39 -3 62q1 16 -18 47t-19 46q0 34 27 54q25 17 60 17q20 0 38.5 -5.5t33 -16t23.5 -26t9 -34.5l-13 -42q-1 -189 -9 -278q-15 -205 -61 -319z" />
    <glyph glyph-name="HardSignCyrillic" unicode="&#x42a;" horiz-adv-x="699" 
d="M486 435q-33 0 -58 -52q-26 -54 -26 -118q0 -30 6.5 -56.5t17 -45.5t25 -30t31.5 -11q26 0 39 46q12 40 12 102q0 67 -13 113q-13 52 -34 52zM419 39q-15 -53 -60 -53q-39 0 -77 17q-39 18 -39 35q0 19 19 50v583h-129q-39 -19 -60 -19q-17 0 -33.5 16.5t-16.5 42.5
q0 33 18 69q20 41 46 41q16 0 51 -22h115l1 1q15 15 63 15q37 0 65 -11q32 -14 32 -35q0 -25 -12 -65v-196q46 54 95 54q81 0 129 -95q43 -85 43 -205q0 -111 -38 -189q-42 -83 -115 -83q-45 0 -97 49z" />
    <glyph glyph-name="YeruCyrillic" unicode="&#x42b;" horiz-adv-x="700" 
d="M643 78q17 -34 17 -59q0 -33 -60 -33q-39 0 -77 17q-39 18 -39 35q0 19 19 50v629q-17 29 -17 46q0 49 73 49q46 0 77 -22q32 -23 32 -45q0 -12 -25 -61v-606zM286 435q-33 0 -58 -52q-26 -54 -26 -118q0 -30 6.5 -56.5t17 -45.5t25 -30t31.5 -11q26 0 39 46
q12 40 12 102q0 67 -13 113q-13 52 -34 52zM225 748q0 -11 -12 -45q-11 -35 -11 -39v-156q46 54 95 54q81 0 129 -95q43 -85 43 -205q0 -111 -38 -189q-42 -83 -115 -83q-45 0 -97 49q-15 -53 -60 -53q-39 0 -77 17q-39 18 -39 35q0 19 19 50v623q0 4 -10 25q-9 22 -9 37
q0 16 10 26q16 16 55 16q42 0 79 -19q38 -20 38 -48z" />
    <glyph glyph-name="SoftSignCyrillic" unicode="&#x42c;" horiz-adv-x="504" 
d="M286 435q-33 0 -58 -52q-26 -54 -26 -118q0 -30 6.5 -56.5t17 -45.5t25 -30t31.5 -11q26 0 39 46q12 40 12 102q0 67 -13 113q-13 52 -34 52zM225 748q0 -11 -12 -45q-11 -35 -11 -39v-156q46 54 95 54q81 0 129 -95q43 -85 43 -205q0 -111 -38 -189q-42 -83 -115 -83
q-45 0 -97 49q-15 -53 -60 -53q-39 0 -77 17q-39 18 -39 35q0 19 19 50v623q0 4 -10 25q-9 22 -9 37q0 16 10 26q16 16 55 16q42 0 79 -19q38 -20 38 -48z" />
    <glyph glyph-name="ECyrillic" unicode="&#x42d;" horiz-adv-x="559" 
d="M380 465q-14 87 -45 145q-38 72 -89 72q-23 0 -53 -41q-3 -18 -14 -50q-21 -29 -47 -29q-23 0 -50 20q-38 27 -38 58q0 14 8 25t34 24q36 57 57 78q43 43 97 43q124 0 213 -153q74 -130 74 -249q0 -155 -55 -280q-70 -159 -197 -159q-54 0 -120 43q-50 34 -84 76
q-33 16 -44 33q-3 4 -3 13q-2 14 8 31.5t25.5 32.5t33 25t31.5 9q17 -2 25 -14q10 -17 15 -48q17 -27 47 -49q38 -29 69 -29q45 0 73 82q25 69 29 163h-132q-41 -18 -59 -18t-34 16.5t-16 42.5q0 33 18 69q20 41 46 41q14 0 51 -23h126z" />
    <glyph glyph-name="YuCyrillic" unicode="&#x42e;" horiz-adv-x="812" 
d="M196 336v-258q17 -34 17 -59q0 -33 -60 -33q-39 0 -77 17q-39 18 -39 35q0 19 19 50v629q-17 29 -17 46q0 49 73 49q46 0 77 -22q32 -23 32 -45q0 -12 -25 -61v-218l91 15q12 121 51 222q44 110 89 110q16 0 32 -5t29 -5q7 0 17.5 1.5t25.5 3.5q31 6 46 6t24 -4
q80 -33 127 -129q49 -102 49 -261q0 -199 -68 -332q-58 -114 -126 -114q-10 0 -17 3q-1 0 -47 6q-90 10 -155 114q-64 104 -77 254zM527 714q-51 0 -81 -126q-11 -45 -16.5 -86.5t-5.5 -81.5q0 -39 7 -86.5t21 -104.5q34 -139 77 -139q49 0 84 141q15 61 20.5 108t3.5 81
q-17 294 -110 294z" />
    <glyph glyph-name="YaCyrillic" unicode="&#x42f;" horiz-adv-x="616" 
d="M386 798q31 14 55 14q46 0 77 -22q32 -23 32 -45q0 -12 -25 -61v-606q17 -34 17 -59q0 -33 -60 -33q-39 0 -77 17q-39 18 -39 35q0 19 19 50v182l-194 -231q-3 -20 -6.5 -33t-9 -20t-13.5 -9.5t-20 -2.5q-52 0 -92 33q-22 19 -22 47q0 9 2 16.5t8.5 14.5t18.5 15t33 18
q38 45 83 98t97 117q-92 67 -134 110q-81 82 -81 152q0 99 62 167q57 62 128 62q57 0 141 -26zM385 621q-41 65 -105 65q-33 0 -55.5 -21t-22.5 -57q0 -51 73 -112q68 -58 110 -58v183z" />
    <glyph glyph-name="aCyrillic" unicode="&#x430;" horiz-adv-x="529" 
d="M300 295q-26 -5 -79 -46q-68 -53 -68 -101q0 -20 12 -38q15 -22 31 -22q35 0 72 100q31 78 32 107zM288 568q144 0 144 -181v-218q0 -30 33 -55l37 -29q5 -12 5 -21q0 -33 -37 -58q-36 -24 -72 -24q-21 0 -31 10q-16 15 -16 33q-1 15 -1 23.5t-1 10.5q-3 8 -30 46
q-4 -26 -56 -75q-59 -56 -109 -56q-60 0 -98 62q-31 50 -31 104q0 88 114 168q48 35 162 88q0 5 1 10v11q0 40 -50 40q-36 0 -73 -40q-35 -56 -41 -56q-29 0 -69 32q-39 33 -39 55q0 15 16 30t50 26q38 33 86.5 48.5t105.5 15.5z" />
    <glyph glyph-name="beCyrillic" unicode="&#x431;" horiz-adv-x="611" 
d="M330 445q-57 0 -88 -69q-25 -51 -25 -110q0 -52 26 -109q32 -68 78 -68q42 0 72 67q28 60 28 139q0 65 -22 105q-24 45 -69 45zM322 -24q-132 0 -212 141q-69 118 -69 258q0 240 85 343q74 89 221 89q22 0 46.5 -1.5t51.5 -5.5q4 9 25 27q14 7 32 7q32 0 61 -24
q28 -24 28 -51q0 -24 -19 -40q-29 -26 -85 -26q-10 0 -26 1t-38 3t-38.5 3t-27.5 1q-65 0 -106 -29q-29 -22 -50 -75q-21 -55 -20 -112q64 81 143 81q133 0 190 -103q38 -70 38 -174q0 -121 -48 -206q-61 -107 -182 -107z" />
    <glyph glyph-name="veCyrillic" unicode="&#x432;" horiz-adv-x="460" 
d="M345 341q80 -6 93 -85q1 -7 1.5 -14t0.5 -15q0 -97 -83 -177q-84 -79 -181 -79q-54 0 -100 29l1 -1q-47 29 -47 40q0 15 13 37v412q-12 21 -12 35q0 47 66 47q18 0 35 -3t25 -3t17.5 1.5t21.5 3.5q60 12 103 12q98 0 122 -58q9 -23 9 -45q0 -71 -85 -137zM171 334
q130 85 130 143q0 9 -17 9q-22 0 -64 -15q-41 -14 -49 -22v-115zM171 76q31 3 83 50q59 54 59 107q0 19 -22 19q-23 0 -68 -20q-17 -8 -30.5 -14.5t-21.5 -13.5v-128z" />
    <glyph glyph-name="gheCyrillic" unicode="&#x433;" horiz-adv-x="409" 
d="M338 457q-13 -1 -45 10l-130 -16v-391q13 -23 13 -43q0 -36 -57 -36q-31 0 -64 18q-33 16 -33 31t13 37v418q-11 22 -11 35q0 47 66 47q17 0 35 -5l156 18q27 17 40 18q22 1 42 -29q20 -29 22 -56q2 -23 -13 -39t-34 -17z" />
    <glyph glyph-name="deCyrillic" unicode="&#x434;" horiz-adv-x="720" 
d="M562 126q16 9 43 9q18 0 34 -5t29 -13t20.5 -18.5t7.5 -22.5q0 -11 -17 -45v-83q12 -24 12 -43q0 -37 -57 -37q-31 0 -64 18t-33 32t14 37v45h-383v-52q12 -24 12 -43q0 -37 -57 -37q-30 0 -63 18t-33 32q0 15 13 37v98q-12 21 -12 35q0 47 66 47q38 0 66 -19
q50 135 52 267l1 107q-12 22 -12 35q0 48 66 48q23 0 45 -8h136q18 8 40 8q36 0 63.5 -18t27.5 -42q0 -9 -17 -45v-342zM341 450q1 -45 0.5 -72t-0.5 -36q-1 -42 -12 -98.5t-34 -130.5h139v337h-93z" />
    <glyph glyph-name="ieCyrillic" unicode="&#x435;" horiz-adv-x="435" 
d="M213 566q67 0 113 -64q37 -50 53 -125q31 -36 26 -62q-8 -45 -73 -45q-16 0 -31 5l-140 -11q1 -174 54 -174q6 0 14.5 13.5t8.5 41.5q0 1 -4 10t-4 16q0 12 7.5 22t20.5 17.5t29 12t33 4.5q67 0 63 -55q0 -5 -3 -16t-11 -27q-11 -35 -23 -60.5t-28 -42.5
q-43 -43 -125 -43q-80 0 -126 106q-36 85 -36 184q0 122 37 197q46 96 145 96zM255 371q-20 83 -43 83q-41 0 -48 -91z" />
    <glyph glyph-name="zheCyrillic" unicode="&#x436;" horiz-adv-x="811" 
d="M766 24q-32 -36 -72 -36q-18 0 -30 9q-3 3 -6 9t-5.5 13t-4.5 12.5t-3 7.5q-15 34 -28.5 58.5t-24.5 41.5q-29 42 -80 83h-44v-157q12 -24 12 -42q0 -36 -57 -36q-28 0 -63 16q-33 18 -33 32q0 15 13 37v150h-45q-51 -42 -79 -83q-11 -17 -24.5 -41.5t-28.5 -58.5
q-2 -8 -7 -18.5t-13 -23.5q-12 -9 -29 -9q-31 0 -62 25q-30 27 -30 56q0 19 16 32q6 2 12.5 4.5t14.5 6.5q20 37 35 61t23 35q34 50 76 83q-20 14 -37 32t-30 41l-48 84q-44 17 -44 45q0 27 31 51t60 24q33 0 47 -39l1 -5l58 -101q17 -29 36 -50t41 -37h26v147
q-12 22 -12 35q0 47 66 47q18 0 34.5 -5t29 -13t20 -18.5t7.5 -22.5q0 -10 -17 -44v-126h25q22 16 41.5 37t36.5 50l58 101q14 44 47 44q28 0 60 -24t32 -51q0 -28 -44 -45l-48 -84q-13 -23 -30 -41t-37 -32q42 -33 76 -83q16 -23 57 -96q8 -1 28 -11q16 -13 16 -34
q0 -20 -20 -43z" />
    <glyph glyph-name="zeCyrillic" unicode="&#x437;" horiz-adv-x="409" 
d="M228 436q-11 -5 -25 -13.5t-33 -19.5q-26 -20 -43 -20q-34 0 -58 25t-24 65q0 26 27 31l45 8l56 31q24 14 46 20t41 6q45 0 68 -27.5t23 -72.5q0 -78 -55 -139q73 -25 73 -70q0 -64 -84 -170q-81 -105 -135 -105q-32 0 -85 41q-53 42 -53 71q0 54 58 54q25 0 42 -11
q25 -17 33 -18l4 -2q6 0 47 59q42 59 38 63l-3 2q-4 0 -11 -7l-15 -11q-22 -17 -37 -22.5t-22 -5.5q-32 0 -58 20q-29 23 -29 57q0 21 28 33q44 18 45 19q65 53 96 109z" />
    <glyph glyph-name="iCyrillic" unicode="&#x438;" horiz-adv-x="458" 
d="M416 56q12 -24 12 -42q0 -36 -57 -36q-30 0 -63 18q-33 15 -33 30t13 37v181l-108 -201q-13 -45 -65 -45q-15 0 -30 4.5t-27 11.5t-19.5 16t-7.5 18q0 15 13 37v411q-12 22 -12 35q0 47 66 47q18 0 34.5 -5t29 -13t20 -18.5t7.5 -22.5q0 -10 -17 -44v-193q32 60 58 113.5
t48 101.5q-1 4 -1.5 7t-0.5 6q0 47 65 47q18 0 34.5 -4.5t29 -12t20.5 -18.5t8 -24q0 -16 -17 -45v-397z" />
    <glyph glyph-name="iShortCyrillic" unicode="&#x439;" horiz-adv-x="458" 
d="M416 56q12 -24 12 -42q0 -36 -57 -36q-30 0 -63 18q-33 15 -33 30t13 37v181l-108 -201q-13 -45 -65 -45q-15 0 -30 4.5t-27 11.5t-19.5 16t-7.5 18q0 15 13 37v411q-12 22 -12 35q0 47 66 47q18 0 34.5 -5t29 -13t20 -18.5t7.5 -22.5q0 -10 -17 -44v-193q32 60 58 113.5
t48 101.5q-1 4 -1.5 7t-0.5 6q0 47 65 47q18 0 34.5 -4.5t29 -12t20.5 -18.5t8 -24q0 -16 -17 -45v-397zM405 741q0 -14 -7 -27q-50 -135 -160 -135q-126 0 -169 156q-3 9 -3 17q0 23 17.5 38.5t39.5 15.5q28 0 44 -25l10 -23q14 -74 61 -81q31 -4 57 65q1 54 54 54
q23 0 39.5 -14.5t16.5 -40.5z" />
    <glyph glyph-name="kaCyrillic" unicode="&#x43a;" horiz-adv-x="524" 
d="M484 27q-30 -36 -72 -36q-18 0 -30 9q-3 3 -6 9.5t-5.5 13t-4.5 12.5t-3 8q-29 66 -53 99q-29 42 -80 83h-58v-156q12 -24 12 -43q0 -36 -57 -36q-29 0 -63 17q-33 18 -33 32q0 15 13 37v411q-12 21 -12 35q0 47 66 47q18 0 34.5 -5t29 -13t20 -18.5t7.5 -22.5
q0 -11 -17 -45v-126h39q22 16 41.5 37t36.5 50l58 101q13 45 47 45q29 0 60 -25q32 -24 32 -50q0 -29 -44 -46l-48 -84q-13 -23 -30 -40.5t-37 -31.5q22 -18 40.5 -39t35.5 -44q16 -23 57 -96q9 -3 28 -12q16 -13 16 -33q0 -21 -20 -44z" />
    <glyph glyph-name="elCyrillic" unicode="&#x43b;" horiz-adv-x="616" 
d="M431 37q0 15 13 37v370l-112 -7v-140q0 -101 -20 -187q-30 -123 -96 -123q-54 0 -105 54q-17 16 -54 72l-26 26q-21 21 -21 41q0 10 7.5 18.5t20 14.5t28.5 9t32 3q30 0 42 -12q12 -9 29 -59q15 -44 16 -44q19 0 19 109v266q-11 22 -11 37q0 44 65 44q37 0 62 -16l140 10
q17 7 40 7q35 0 61.5 -17t26.5 -45q0 -20 -16 -42v-397q13 -27 13 -41q0 -36 -50 -36q-35 0 -69 15q-35 17 -35 33z" />
    <glyph glyph-name="emCyrillic" unicode="&#x43c;" horiz-adv-x="680" 
d="M629 65q12 -24 12 -42q0 -36 -57 -36q-28 0 -63 16q-33 18 -33 32q0 15 13 37v178l-83 -192q2 -31 -4 -44q-12 -28 -71 -28q-72 0 -78 39q-1 7 -1.5 15t0.5 18l-87 202v-195q12 -24 12 -42q0 -36 -57 -36q-28 0 -63 16q-33 18 -33 32q0 15 13 37v411q-12 21 -12 35
q0 28 28 37q8 2 22.5 3t37.5 2q13 0 22.5 0.5t16.5 0.5h13q23 -4 37 -27q5 -9 -7 -46l134 -309l133 309q-11 36 -7 46q14 32 74 32q20 0 39 -4.5t33.5 -12t23.5 -19t9 -24.5q0 -18 -17 -44v-397z" />
    <glyph glyph-name="enCyrillic" unicode="&#x43d;" horiz-adv-x="472" 
d="M414 67q12 -30 12 -42q0 -36 -57 -36q-28 0 -63 16q-33 18 -33 32q0 15 13 37v170l-111 -16v-161q13 -23 13 -42q0 -36 -57 -36q-29 0 -64 16q-33 18 -33 32q0 15 13 37v411q-11 22 -11 35q0 47 66 47q18 0 34 -5t29 -13t20.5 -18.5t7.5 -22.5q0 -13 -18 -44v-122l111 16
v132q-8 24 -8 39q0 35 36 38q42 3 73 -8q45 -15 45 -51q0 -7 -18 -44v-397z" />
    <glyph glyph-name="oCyrillic" unicode="&#x43e;" horiz-adv-x="437" 
d="M207 -12q-81 9 -130 100q-48 85 -48 205q0 88 37 181q38 95 78 95q8 0 21.5 -3.5t21.5 -3.5q10 0 30.5 4t30.5 4q15 0 24 -4q61 -24 96 -93q36 -72 36 -180q0 -67 -11.5 -123t-36.5 -103q-45 -85 -102 -85q-9 0 -18 2t-29 4zM214 475q-33 0 -48 -78q-9 -48 -9 -104
q0 -26 3 -56t10 -62q16 -87 45 -87q31 0 49 87q15 72 12 117q-12 183 -62 183z" />
    <glyph glyph-name="peCyrillic" unicode="&#x43f;" horiz-adv-x="458" 
d="M413 67q12 -29 12 -42q0 -36 -57 -36q-29 0 -63 17q-33 18 -33 32t13 36v372l-111 -17v-356q13 -35 13 -48q0 -36 -57 -36q-30 0 -64 17q-33 18 -33 32t13 36v411q-11 24 -11 35q0 47 66 47q41 0 70 -23q27 5 69 11t99 12q14 2 28.5 -1.5t28.5 -10.5q35 -17 35 -47
q0 -17 -18 -44v-397z" />
    <glyph glyph-name="erCyrillic" unicode="&#x440;" horiz-adv-x="461" 
d="M254 -20q-33 0 -76 48v-103q0 -14 13 -40t13 -39q0 -29 -32 -52q-31 -22 -68 -22q-70 0 -70 68q0 6 2 15t4.5 18t4.5 17t2 11v569q0 4 -2.5 10.5t-5.5 14t-5.5 14.5t-2.5 12q0 25 27 42q22 13 57 13q28 0 48 -10.5t20 -29.5q0 -4 -1 -9q43 39 90 39q78 0 121 -82
q38 -73 38 -183q0 -127 -46 -220q-51 -101 -131 -101zM242 453q-54 0 -54 -146q0 -76 16 -134q16 -63 38 -63q21 0 38 63q16 57 16 133q0 147 -54 147z" />
    <glyph glyph-name="esCyrillic" unicode="&#x441;" horiz-adv-x="409" 
d="M218 -19q-85 0 -128 65q-23 36 -37.5 81.5t-19.5 102.5q-2 14 -2 27v26q0 94 32 176q42 102 126 110q35 3 71.5 -12.5t57.5 -45.5q42 -63 50 -137q1 -20 0 -36q-2 -19 -23 -29.5t-47 -10.5q-27 0 -38 11q-18 18 -21 57q-3 29 -4 44.5t-2 18.5q-8 29 -39 29q-14 0 -24 -54
q-9 -53 -9 -124q0 -82 12 -134q13 -61 39 -61t48 40q20 37 20 62q0 48 57 48q26 0 46 -13t22 -35q1 -8 -19 -53q-72 -155 -168 -153z" />
    <glyph glyph-name="teCyrillic" unicode="&#x442;" horiz-adv-x="419" 
d="M370 456q-10 -1 -46 9l-53 -7v-402q12 -26 12 -44q0 -38 -57 -38q-31 0 -63 19q-33 16 -33 32t13 39v372l-35 -6q-22 -19 -37 -20q-27 -4 -43.5 18t-16.5 53q0 59 53 68q4 1 13.5 1h23.5l199 29q26 21 37 22q22 3 47 -27q21 -27 26 -55q4 -24 -9 -42t-31 -21z" />
    <glyph glyph-name="uCyrillic" unicode="&#x443;" horiz-adv-x="609" 
d="M557 461q-11 -11 -27 -30l-190 -448q-55 -130 -119 -130q-69 0 -136 55q-64 52 -64 98q0 38 54 38q51 0 71 -15q2 -2 7 -9t13 -19q17 -22 21 -22q15 0 49 84q30 73 36 100q-10 33 -19.5 64t-19.5 60q-23 69 -42.5 120t-36.5 85q-14 30 -14 36q0 21 24 34.5t55 13.5
q70 0 75 -56q1 -7 2 -16t2 -22l50 -173l86 227q15 39 66 39q33 0 59 -18.5t26 -47.5q0 -23 -28 -48z" />
    <glyph glyph-name="efCyrillic" unicode="&#x444;" horiz-adv-x="704" 
d="M414 -113q17 -34 17 -58q0 -29 -55 -29q-37 0 -74 18q-37 16 -37 30q0 18 19 49v153q-52 -55 -102 -55q-79 0 -121 86q-39 79 -34 196q5 118 47 197q46 87 118 87q41 0 92 -71v226q-17 31 -17 46q0 44 68 44q45 0 76 -22q28 -19 28 -41q0 -11 -25 -61v-202q52 81 98 81
q71 0 118 -87q42 -79 47 -197q4 -116 -35 -196q-42 -86 -120 -86q-56 0 -108 62v-170zM533 119q14 47 15 125t-11 136q-15 67 -44 67q-19 0 -40 -64q-21 -63 -21 -107q0 -39 21 -106t36 -82q8 -8 16 -8q17 0 28 39zM211 447q-29 0 -44 -67q-12 -58 -11 -136q1 -40 4 -71
t10 -54q10 -39 29 -39q7 0 15 8q16 15 37 82t21 106q0 44 -21 107q-21 64 -40 64z" />
    <glyph glyph-name="haCyrillic" unicode="&#x445;" horiz-adv-x="484" 
d="M304 288l121 -200q41 -26 41 -48q0 -20 -33 -38q-30 -14 -68 -14q-39 0 -46 12q-4 5 -4 43l-81 142l-62 -102q0 -62 -3 -66q-13 -25 -50 -25q-35 0 -68 21q-32 23 -32 50q0 28 34 50l115 189l-97 149q-22 13 -29 24.5t-7 23.5q0 27 32 47t68 20q38 0 53 -24q4 -7 4 -28
q-1 -19 -1 -26.5t0 -3.5l46 -79l62 102q-2 25 6 39q10 19 58 19q35 0 56 -10q27 -14 27 -33q0 -7 -5 -19q-17 -31 -29 -39z" />
    <glyph glyph-name="tseCyrillic" unicode="&#x446;" horiz-adv-x="463" 
d="M335 -121q-24 -8 -47 -8q-65 0 -65 54q0 26 44 40t44 23q0 7 -10 16q-32 -24 -71 -24q-137 0 -179 188q-18 85 -18 293q-8 27 -8 42q0 62 66 62q34 0 63 -20q30 -20 30 -47q0 -6 -3 -13t-6 -13.5t-5.5 -13.5t-1.5 -13q-8 -38 -8 -101q0 -89 14 -156q17 -77 46 -77
q33 0 54 103q17 88 17 182q0 34 -3 54q1 7 -13 29q-13 20 -13 34q0 30 24 47q21 15 52 15q34 0 60.5 -19t27.5 -53l-10 -28q-1 -125 -13.5 -219t-35.5 -160q25 -7 46 -39q22 -32 21 -57q-6 -86 -99 -121z" />
    <glyph glyph-name="cheCyrillic2" unicode="&#x447;" horiz-adv-x="450" 
d="M388 55q12 -24 12 -43q0 -36 -57 -36q-31 0 -64 18q-32 17 -32 31q0 15 13 37v167q-58 -70 -102 -70q-73 0 -102 98q-21 75 -21 239q0 1 -6 11t-6 19t7.5 16.5t19.5 13.5t27 9.5t30 3.5q64 0 64 -51q0 -7 -4.5 -19t-4.5 -19v-100.5t1 -46.5q1 -43 14 -43q34 0 59 79
q23 68 24 121q-12 25 -12 35q0 46 66 46q18 0 34.5 -4.5t29 -12.5t20 -18.5t7.5 -22.5q0 -11 -17 -45v-413z" />
    <glyph glyph-name="shaCyrillic" unicode="&#x448;" horiz-adv-x="708" 
d="M666 487q-2 -201 -21 -295q-40 -206 -166 -206q-83 0 -135 84q-49 -84 -117 -84q-139 0 -179 192q-18 84 -18 295q-8 27 -8 42q0 62 66 62q34 0 63 -20q30 -20 30 -47q0 -6 -3 -13t-6 -13.5t-5.5 -13t-1.5 -11.5q0 -75 1.5 -126.5t3.5 -80.5q3 -34 6 -57.5t7 -36.5
q12 -42 34 -42q44 -2 58 118q4 32 5.5 91.5t1.5 147.5q-8 34 -8 42q0 62 66 62q35 0 64 -20t29 -47q0 -6 -3 -13t-6 -13.5t-5.5 -13t-1.5 -11.5q0 -151 6 -212q6 -68 13 -91q10 -40 33 -40q40 0 57 137q12 90 12 211q0 7 -13 26q-13 20 -13 35q0 29 22 45t53 16q34 0 60 -17
q28 -20 29 -54z" />
    <glyph glyph-name="shchaCyrillic" unicode="&#x449;" horiz-adv-x="708" 
d="M614 89q26 -9 43 -38q18 -29 17 -51q-6 -86 -99 -121q-24 -8 -47 -8q-65 0 -65 54q0 26 44 40t44 23q0 6 -8 14q-30 -16 -64 -16q-83 0 -135 84q-49 -84 -117 -84q-139 0 -179 192q-18 84 -18 295q-8 27 -8 42q0 62 66 62q34 0 63 -20q30 -20 30 -47q0 -6 -3 -13
t-6 -13.5t-5.5 -13t-1.5 -11.5q0 -75 1.5 -126.5t3.5 -80.5q3 -34 6 -57.5t7 -36.5q12 -42 34 -42q44 -2 58 118q4 32 5.5 91.5t1.5 147.5q-8 34 -8 42q0 62 66 62q35 0 64 -20t29 -47q0 -6 -3 -13t-6 -13.5t-5.5 -13t-1.5 -11.5q0 -151 6 -212q6 -68 13 -91q10 -40 33 -40
q40 0 57 137q12 90 12 211q0 7 -13 26q-13 20 -13 35q0 29 22 45t53 16q34 0 60 -17q28 -20 29 -54l-10 -28q-2 -127 -6 -182q-5 -69 -17 -122.5t-29 -93.5z" />
    <glyph glyph-name="hardSignCyrillic" unicode="&#x44a;" horiz-adv-x="526" 
d="M184 554q20 10 57 10q74 0 74 -43q0 -18 -9 -46v-96q27 18 52 18q63 0 101 -68q34 -59 34 -146q0 -81 -30 -135q-34 -60 -92 -60q-27 0 -62 23q-17 -26 -48 -26q-29 0 -63 17q-33 18 -33 32q0 15 13 37v370h-72q-27 -13 -45 -13t-34 15.5t-16 38.5q0 26 18 55
q19 33 42 33q14 0 40 -16h73zM306 185q0 -37 15 -61q14 -20 26 -20q32 0 31 90q-1 35 -8.5 62.5t-19.5 27.5q-14 0 -27 -27q-17 -32 -17 -72z" />
    <glyph glyph-name="yeruCyrillic" unicode="&#x44b;" horiz-adv-x="545" 
d="M227 -10q-34 0 -53 34q-23 -36 -57 -36q-32 0 -64 16q-32 17 -32 32t13 37v415q-11 24 -11 39q0 42 55 42q36 0 67 -19q32 -18 32 -43q0 -15 -7.5 -31t-7.5 -19v-82q27 24 52 24q64 0 101 -67q34 -61 34 -147q0 -80 -30 -135q-34 -60 -92 -60zM233 196q0 36 -7.5 63
t-19.5 27q-13 0 -28 -26q-16 -31 -16 -73q0 -37 15 -61q12 -19 26 -19q32 0 30 89zM510 66q13 -23 13 -42q0 -36 -57 -36q-29 0 -64 16q-33 18 -33 32q0 15 13 37v411q-11 22 -11 35q0 47 66 47q18 0 34 -5t29 -13t20.5 -18.5t7.5 -22.5q0 -13 -18 -44v-397z" />
    <glyph glyph-name="softSignCyrillic" unicode="&#x44c;" horiz-adv-x="375" 
d="M35 553q16 16 52 16t63 -15q31 -16 31 -45q0 -10 -9 -32q-8 -22 -8 -24v-71q27 18 52 18q63 0 101 -68q34 -61 34 -146q0 -41 -7 -74.5t-23 -61.5q-32 -59 -92 -59q-27 0 -62 23q-17 -26 -48 -26q-29 0 -63 17q-33 18 -33 32t13 36v412q-9 28 -9 44t8 24zM164 188
q0 -38 14 -59.5t28 -21.5q32 0 30 89q-1 36 -8.5 63.5t-19.5 27.5q-14 0 -27 -27q-17 -32 -17 -72z" />
    <glyph glyph-name="eCyrillic" unicode="&#x44d;" horiz-adv-x="432" 
d="M215 -14q-80 0 -153 82q-26 14 -33 25q-5 8 -5 18q0 26 28 51q28 27 56 27q22 0 32 -19q7 -11 10 -31q33 -43 67 -43q45 0 56 135h-74q-29 -12 -45 -12q-18 0 -34 15t-16 38q0 26 19 57t41 31q13 0 40 -15h67q-24 115 -76 115q-10 0 -23 -18q-6 -28 -12 -37
q-20 -24 -45 -24q-22 0 -44 16q-33 22 -33 50q0 27 34 43q55 84 118 84q98 0 162 -109q54 -90 54 -173q0 -105 -40 -192q-52 -114 -151 -114z" />
    <glyph glyph-name="yuCyrillic" unicode="&#x44e;" horiz-adv-x="590" 
d="M373 -14q-34 5 -63 23.5t-53 53.5q-44 67 -58 165l-36 -6v-156q13 -23 13 -43q0 -35 -57 -35q-29 0 -64 16q-33 18 -33 32q0 15 13 37v411q-11 22 -11 35q0 47 66 47q18 0 34 -5t29 -13t20.5 -18.5t7.5 -22.5q0 -13 -18 -44v-125l36 5q11 83 43 152q35 71 69 71
q8 0 21.5 -3t20.5 -3q6 0 14.5 1t17.5 2.5t17 2.5t13 1q14 0 23 -4q63 -24 98 -94t35 -179q0 -132 -49 -225q-46 -86 -101 -86q-9 0 -18.5 2.5t-29.5 4.5zM381 472q-33 0 -48 -78q-9 -48 -9 -104q0 -26 3 -56t10 -62q16 -87 45 -87q31 0 49 88q15 70 12 117q-14 182 -62 182
z" />
    <glyph glyph-name="yaCyrillic" unicode="&#x44f;" horiz-adv-x="443" 
d="M394 67q12 -24 12 -43q0 -36 -57 -36q-30 0 -64 17q-32 18 -32 32q0 15 13 37v78l-106 -120q-6 -28 -14 -38q-11 -12 -34 -12q-45 0 -75 24q-21 16 -21 42q0 17 10 28.5t39 25.5q43 47 72 79t43 49q-145 102 -145 178q0 71 47 121q45 46 101 46q41 0 98 -16q22 8 39 8
q36 0 63.5 -17.5t27.5 -41.5q0 -10 -17 -44v-397zM266 421q-24 34 -55 34q-18 0 -30.5 -11.5t-12.5 -26.5q0 -24 36 -55q32 -29 62 -41v100z" />
    <glyph glyph-name="egraveCyrillic" unicode="&#x450;" horiz-adv-x="435" 
d="M213 575q67 0 113 -64q37 -50 53 -125q31 -36 26 -62q-8 -45 -73 -45q-16 0 -31 5l-140 -11q1 -174 54 -174q6 0 14.5 13.5t8.5 41.5q0 1 -4 10t-4 16q0 12 7.5 22t20.5 17.5t29 12t33 4.5q67 0 63 -55q0 -5 -3 -16t-11 -27q-11 -35 -23 -60.5t-28 -42.5
q-42 -43 -125 -43q-80 0 -126 106q-36 85 -36 184q0 122 37 197q46 96 145 96zM255 380q-20 83 -43 83q-41 0 -48 -91zM211 605q-14 4 -39 45q-32 50 -33 50q0 1 -29 18q-20 12 -20 27q0 18 21 38q22 21 45 21q15 0 25 -10q17 -14 62 -74q49 -67 46 -82q-1 -10 -26 -22
q-24 -12 -43 -12q-6 0 -9 1z" />
    <glyph glyph-name="ioCyrillic" unicode="&#x451;" horiz-adv-x="435" 
d="M213 575q67 0 113 -64q37 -50 53 -125q31 -36 26 -62q-8 -45 -73 -45q-16 0 -31 5l-140 -11q1 -174 54 -174q6 0 14.5 13.5t8.5 41.5q0 1 -4 10t-4 16q0 12 7.5 22t20.5 17.5t29 12t33 4.5q67 0 63 -55q0 -5 -3 -16t-11 -27q-11 -35 -23 -60.5t-28 -42.5
q-42 -43 -125 -43q-80 0 -126 106q-36 85 -36 184q0 122 37 197q46 96 145 96zM255 380q-20 83 -43 83q-41 0 -48 -91zM343 638q-11 -33 -39 -36q-21 -2 -38 7q-20 9 -22 26l5 15t5 22v15q3 23 40 23q56 0 56 -35q0 -13 -7 -37zM188 647q-10 -34 -38 -37q-21 -2 -40 7.5
t-21 26.5q2 5 5 14t5 22v15q4 24 41 24q56 0 56 -35q0 -10 -8 -37z" />
    <glyph glyph-name="djeCyrillic" unicode="&#x452;" horiz-adv-x="561" 
d="M129 593v119q-16 32 -16 47q0 49 73 49q43 0 72 -23q24 -20 24 -44q0 -13 -25 -62v-76l57 5q25 16 38 18q23 2 44 -27q22 -28 24 -55q2 -23 -12.5 -39.5t-32.5 -18.5q-16 -1 -46 9l-72 -6v-112q12 14 46 25q28 9 55 9q177 0 177 -211q0 -215 -135 -215q-96 0 -92 62
q3 28 25 35q11 4 43 4q31 0 32 112q2 101 -53 101q-19 0 -57 -20q-41 -23 -41 -43v-158q17 -25 17 -43q0 -46 -66 -46q-18 0 -34 4.5t-29 12.5t-20.5 18.5t-7.5 22.5q0 10 12 34v397l-25 -2q-22 -14 -39 -16q-26 -2 -40 18t-14 50q0 31 14.5 55.5t38.5 26.5q12 1 45 -19z
" />
    <glyph glyph-name="gjeCyrillic" unicode="&#x453;" horiz-adv-x="414" 
d="M342 438q-15 -2 -45 9l-130 -16v-364q13 -23 13 -42q0 -36 -57 -36q-29 0 -64 16q-33 18 -33 32q0 15 13 37v392q-12 21 -12 34q0 47 67 47q17 0 35 -5l156 19q25 15 40 17q21 1 42 -29t22 -55q2 -24 -13 -39.5t-34 -16.5zM231 650q-26 -41 -39 -45q-3 -1 -9 -1
q-19 0 -43 12q-25 12 -26 22q-3 15 46 82q45 60 62 74q10 10 25 10q22 0 45 -21q22 -19 22 -38q0 -15 -21 -27l-30 -18q-4 -6 -8 -13q-4 -6 -10 -15.5t-14 -21.5z" />
    <glyph glyph-name="ieCyrillic2" unicode="&#x454;" horiz-adv-x="432" 
d="M369 64q-73 -82 -153 -82q-99 0 -151 115q-40 86 -40 192q0 42 14 84.5t40 87.5q66 110 162 110q62 0 118 -84q34 -16 34 -44t-33 -50q-22 -16 -44 -16q-26 0 -45 25q-6 9 -12 36q-13 19 -23 19q-52 0 -76 -116h67q27 15 40 15q22 0 41 -31q19 -29 19 -56q0 -24 -16 -39
t-34 -15q-17 0 -45 12h-73q9 -134 55 -134q34 0 67 43q9 50 42 50q17 0 39 -13q45 -27 45 -66q0 -10 -4 -17q-8 -12 -34 -26z" />
    <glyph glyph-name="dzeCyrillic" unicode="&#x455;" horiz-adv-x="403" 
d="M235 -12q-111 0 -163 98q-56 35 -56 65q0 11 27 28q29 18 54 19q30 3 52 -22q10 -11 33 -48q16 -27 27 -27q32 0 32 32q0 45 -49 75q-23 14 -46.5 27.5t-46.5 27.5q-51 42 -52 118q0 58 30 114q44 80 124 80q59 0 105 -43t46 -99q0 -8 4 -23t4 -23q0 -61 -53 -61
q-15 0 -29.5 6t-25.5 16.5t-18 25t-7 31.5q0 9 6 19.5t5 12.5q-2 24 -30 24q-9 0 -19 -21q-14 -25 -14 -49q0 -58 70 -89q41 -18 79 -62q46 -53 46 -108q0 -44 -26 -85q-37 -59 -109 -59z" />
    <glyph glyph-name="iCyrillic2" unicode="&#x456;" horiz-adv-x="207" 
d="M166 64q12 -24 12 -42q0 -36 -57 -36q-29 0 -63 17q-33 18 -33 32t13 36v412q-12 21 -12 34q0 47 66 47q18 0 34.5 -4.5t29.5 -13t20.5 -19t7.5 -22.5q0 -11 -18 -44v-397zM156 683q12 -24 12 -43q0 -36 -47 -36q-29 0 -58 17q-28 18 -28 32q0 15 13 37v35q-12 21 -12 35
q0 47 56 47q35 0 58.5 -17.5t23.5 -41.5q0 -12 -18 -45v-20z" />
    <glyph glyph-name="yiCyrillic" unicode="&#x457;" horiz-adv-x="296" 
d="M206 64q12 -24 12 -42q0 -36 -57 -36q-29 0 -63 17q-33 18 -33 32t13 36v412q-12 21 -12 34q0 47 66 47q18 0 34.5 -4.5t29.5 -13t20.5 -19t7.5 -22.5q0 -11 -18 -44v-397zM273 638q-11 -33 -39 -36q-21 -2 -38 7q-20 9 -22 26l5 15t5 22v15q3 23 40 23q56 0 56 -35
q0 -13 -7 -37zM118 647q-10 -34 -38 -37q-21 -2 -40 7.5t-21 26.5q2 5 5 14t5 22v15q4 24 41 24q56 0 56 -35q0 -10 -8 -37z" />
    <glyph glyph-name="jeCyrillic" unicode="&#x458;" horiz-adv-x="489" 
d="M286 475q-15 28 -15 44q0 46 68 46q42 0 73 -22q28 -19 28 -41q0 -9 -23 -57v-324q0 -133 -36 -226q-37 -100 -96 -100q-62 0 -114 48q-36 33 -67 91l-30 57q-38 36 -38 59q0 11 38 22q39 11 73 11q31 0 42.5 -11t11.5 -23q0 -4 -3.5 -14t-1.5 -16q32 -98 49 -98
q45 0 43 160zM406 683q12 -24 12 -43q0 -36 -47 -36q-29 0 -58 17q-28 18 -28 32q0 15 13 37v35q-12 21 -12 35q0 47 56 47q35 0 58.5 -17.5t23.5 -41.5q0 -12 -18 -45v-20z" />
    <glyph glyph-name="ljeCyrillic" unicode="&#x459;" horiz-adv-x="813" 
d="M207 483q-12 22 -12 35q0 47 66 47q36 0 62 -16l140 9q15 7 39 7q18 0 34 -5t29 -13t20.5 -18.5t7.5 -22.5q0 -11 -18 -44v-88q26 25 52 25q71 0 113 -68q38 -61 38 -146q0 -79 -35 -135q-37 -60 -103 -60q-33 0 -53 23q-8 -15 -18 -20q-12 -6 -39 -6q-28 0 -63 16
q-33 18 -33 33q0 14 13 36v371l-112 -8v-139q0 -102 -20 -187q-30 -124 -96 -124q-83 0 -159 126l-3 5q-14 14 -29 29.5t-15 33.5q0 19 28 32q27 13 60 13q30 0 42 -12q13 -11 20 -60q7 -43 15 -43q29 0 29 108v266zM575 187q0 -41 16 -69q14 -26 26 -26q8 0 15.5 8.5t13 22
t8.5 31t3 35.5q0 17 -3.5 33.5t-9.5 31.5q-12 31 -25 31t-27 -26q-17 -32 -17 -72z" />
    <glyph glyph-name="njeCyrillic" unicode="&#x45a;" horiz-adv-x="650" 
d="M414 5q-17 -17 -47 -17q-29 0 -64 16q-33 18 -33 32q0 15 13 37v173l-110 -17v-163q12 -24 12 -42q0 -36 -57 -36q-32 0 -64 16q-32 17 -32 32t13 37v411q-12 21 -12 35q0 47 66 47q18 0 34.5 -5t29 -13t20 -18.5t7.5 -22.5t-17 -44v-120l110 17v129q-8 24 -8 39
q0 35 36 38q38 3 74 -8q44 -15 44 -51q0 -13 -18 -44v-79q27 15 52 15q71 0 113 -67q38 -61 38 -146q0 -80 -34 -135q-37 -61 -103 -61q-29 0 -63 15zM411 187q0 -40 16 -68q14 -26 26 -26q15 0 27 31q13 30 13 66q0 35 -13 65q-12 31 -24 31q-13 0 -28 -26q-17 -32 -17 -73
z" />
    <glyph glyph-name="tsheCyrillic" unicode="&#x45b;" horiz-adv-x="561" 
d="M547 20q0 -41 -62 -41q-20 0 -36.5 5t-29.5 13.5t-20 18.5t-7 19q0 14 16 40v123q0 101 -53 101q-19 0 -57 -20q-41 -23 -41 -43v-158q17 -25 17 -43q0 -46 -66 -46q-18 0 -34 4.5t-29 12.5t-20.5 18.5t-7.5 22.5q0 10 12 34v397l-25 -2q-22 -14 -39 -16q-26 -2 -40 18
t-14 50q0 31 14.5 55.5t38.5 26.5q12 1 45 -19l20 2v119q-16 32 -16 47q0 49 73 49q43 0 72 -23q24 -20 24 -44q0 -13 -25 -62v-76l57 5q25 16 38 18q23 2 44 -27q22 -28 24 -55q2 -23 -12.5 -39.5t-32.5 -18.5q-16 -1 -46 9l-72 -6v-112q12 14 46 25q28 9 55 9
q177 0 177 -211v-150q12 -17 12 -30z" />
    <glyph glyph-name="kjeCyrillic" unicode="&#x45c;" horiz-adv-x="535" 
d="M489 24q-32 -36 -71 -36q-19 0 -30 10q-7 3 -12 21q-4 15 -8 21q-29 66 -53 99q-30 44 -79 83h-59v-156q13 -23 13 -43q0 -36 -57 -36q-30 0 -64 17q-33 18 -33 32t13 36v412q-12 21 -12 35q0 46 67 46q18 0 34 -4.5t29 -12.5t20.5 -18.5t7.5 -22.5t-18 -45v-126h40
q22 16 42 37t36 50l57 101q15 45 48 45q29 0 60 -25q31 -24 31 -50q0 -29 -44 -46l-48 -84q-13 -23 -29.5 -41t-36.5 -32q22 -17 40.5 -38t35.5 -44q16 -23 57 -96q9 -3 27 -12q17 -14 17 -33q0 -22 -21 -44zM311 650q-26 -41 -39 -45q-3 -1 -9 -1q-19 0 -43 12
q-25 12 -26 22q-3 15 46 82q45 60 62 74q10 10 25 10q22 0 45 -21q22 -19 22 -38q0 -15 -21 -27l-30 -18q-4 -6 -8 -13q-4 -6 -10 -15.5t-14 -21.5z" />
    <glyph glyph-name="igraveCyrillic" unicode="&#x45d;" horiz-adv-x="481" 
d="M423 59q12 -24 12 -42q0 -36 -57 -36q-31 0 -64 18q-32 15 -32 30t13 37v192l-108 -219q-13 -44 -65 -44q-31 0 -58 15q-27 16 -27 34q0 15 13 37v411q-11 24 -11 35q0 47 66 47q18 0 34 -4.5t29 -13t20.5 -19t7.5 -22.5q0 -11 -18 -44v-191q11 23 38 81t69 152
q-1 4 -1.5 7t-0.5 6q0 47 64 47q18 0 34.5 -4.5t29.5 -12t21 -18.5t8 -24q0 -11 -17 -45v-410zM231 605q-14 4 -39 45q-32 50 -33 50q0 1 -29 18q-20 12 -20 27q0 18 21 38q22 21 45 21q15 0 25 -10q17 -14 62 -74q49 -67 46 -82q-1 -10 -26 -22q-24 -12 -43 -12q-6 0 -9 1z
" />
    <glyph glyph-name="uShortCyrillic" unicode="&#x45e;" horiz-adv-x="711" 
d="M172 454q-2 5 -8 15.5t-16 24.5q-15 22 -15 37q0 19 25 31.5t57 12.5q77 0 83 -57l6 -53l87 -271l131 339q19 39 71 39q18 0 34 -5t29 -14t20.5 -21t7.5 -26q0 -23 -30 -50q-34 -31 -42 -47q-17 -43 -33 -83.5t-32 -79.5q-38 -94 -70.5 -171.5t-64.5 -136.5
q-38 -73 -74.5 -107.5t-65.5 -34.5q-86 0 -168 58q-77 56 -77 107q0 36 47 36q23 0 53 -8q25 -7 33 -14l30 -31q20 -20 36 -20q51 0 83 123zM575 741q0 -14 -7 -27q-50 -135 -160 -135q-126 0 -169 156q-3 9 -3 17q0 23 17.5 38.5t39.5 15.5q28 0 44 -25l10 -23
q14 -74 61 -81q31 -4 57 65q1 54 54 54q23 0 39.5 -14.5t16.5 -40.5z" />
    <glyph glyph-name="dzheCyrillic" unicode="&#x45f;" horiz-adv-x="503" 
d="M400 -6q-16 1 -32.5 1.5t-35.5 -0.5l-33 -1v-60q12 -24 12 -43q0 -37 -57 -37q-30 0 -63 18t-33 32q0 15 13 37v44q-8 -1 -17 -1.5t-19 -0.5q-103 0 -103 48q0 18 13 38v415q-12 21 -12 35q0 47 66 47q18 0 34 -5t29 -13t20.5 -18.5t7.5 -22.5q0 -11 -17 -45v-361l123 9
v382q-12 24 -12 43q0 37 57 37q31 0 63 -18q33 -18 33 -32q0 -15 -13 -37v-358q12 -2 22.5 -10t18 -20t12 -26.5t4.5 -29.5q0 -50 -46 -53q-7 0 -15.5 1t-19.5 5z" />
    <glyph glyph-name="YatCyrillic" unicode="&#x462;" horiz-adv-x="740" 
d="M402 702q28 16 40 16q23 0 40 -35q17 -36 17 -64q0 -23 -14.5 -38t-30.5 -15q-17 0 -56 18h-71v-132q73 51 186 51q158 0 188 -120q6 -26 6 -51q0 -126 -114 -237q-113 -110 -242 -110q-72 0 -128 41q-14 10 -27.5 20t-27.5 21q-2 8 -2 12q0 10 7 18l13 19v468h-63
q-29 -20 -48 -20q-45 0 -45 66q0 41 21 71q19 27 40 27q9 0 50 -26h45v28q-17 32 -17 46q0 49 74 49q82 0 99 -18q10 -10 10 -25t-13 -37q-12 -23 -12 -29v-14h75zM327 100q64 6 146 80q91 82 91 171q0 46 -54 46q-39 0 -97 -27q-51 -23 -86 -51v-219z" />
    <glyph glyph-name="yatCyrillic" unicode="&#x463;" horiz-adv-x="616" 
d="M345 748q0 -9 -19 -66h66q28 16 40 16q23 0 40 -35q17 -36 17 -64q0 -23 -14.5 -38t-30.5 -15q-17 0 -56 18h-66v-146q46 54 95 54q81 0 129 -80q43 -71 43 -173q0 -94 -38 -159q-42 -70 -115 -70q-45 0 -97 49q-15 -53 -60 -53q-39 0 -77 17q-39 18 -39 35q0 19 19 50
v476h-69q-29 -20 -48 -20q-45 0 -45 66q0 41 21 71q19 27 40 27q9 0 50 -26h51v29q0 4 -10 25q-9 22 -9 37q0 16 10 26q16 16 55 16q42 0 79 -19q38 -20 38 -48zM406 345q-17 0 -32 -8t-26.5 -23t-18.5 -35t-7 -44q0 -49 23.5 -81t56.5 -32q25 0 39 33q12 28 12 73
q0 23 -3.5 44t-9.5 37.5t-15 26t-19 9.5z" />
    <glyph glyph-name="YusCyrillic" unicode="&#x46a;" horiz-adv-x="997" 
d="M178 688q-33 15 -44 32q-7 10 -7 23q0 31 41 58q37 23 75 23q39 0 53 -20q3 -5 3 -21l427 23q17 14 40 14q28 0 57 -19q41 -27 41 -58q0 -13 -7 -23q-11 -17 -45 -32l-156 -241q151 -67 253 -305q8 -4 19 -9t24 -13q16 -13 16 -33q0 -25 -24 -53q-39 -46 -86 -46
q-19 0 -29 9q-6 6 -13 29q-8 27 -10 29l-63 127q-17 35 -36 61t-38 43q-48 45 -107 52v-260q18 -33 18 -59q0 -33 -60 -33q-39 0 -77 17q-39 18 -39 35q0 18 18 50v250q-58 -7 -106 -52q-18 -17 -37 -43t-36 -61l-63 -127q-4 -13 -9.5 -27.5t-13.5 -30.5q-11 -9 -29 -9
q-47 0 -86 46q-24 28 -24 53q0 20 16 33q5 4 15.5 9.5t27.5 12.5q32 71 67 127q89 136 190 179zM696 702l-362 -19l140 -215h70z" />
    <glyph glyph-name="yusCyrillic" unicode="&#x46b;" horiz-adv-x="740" 
d="M695 25q-32 -36 -72 -36q-19 0 -30 10q-7 3 -12 21t-7 20q-33 73 -54 105q-40 60 -89 74v-153q12 -24 12 -42q0 -36 -57 -36q-28 0 -63 16q-33 18 -33 32q0 15 13 37v146q-48 -14 -88 -74q-21 -32 -54 -105q-3 -18 -19 -41q-13 -10 -30 -10q-31 0 -62 25q-30 25 -30 56
q0 19 16 32q7 5 29 14q67 147 169 199l-97 143q-25 12 -33 24t-8 24q0 27 32 48q33 21 68 21q41 0 49 -27l280 14q13 9 33 9q30 0 57 -21q27 -20 27 -45q0 -12 -7 -22q-9 -13 -34 -25l-98 -144q103 -53 167 -198q20 -8 28 -14q17 -14 17 -33q0 -21 -20 -44zM283 453l79 -116
h33l86 126z" />
    <glyph glyph-name="FitaCyrillic" unicode="&#x472;" horiz-adv-x="540" 
d="M168 813q16 0 31.5 -5t29.5 -5q6 0 16.5 1.5t26.5 3.5q31 6 45 6q16 0 25 -4q80 -33 127 -129q49 -102 49 -261q0 -199 -68 -332q-58 -114 -126 -114q-10 0 -17 3q-1 0 -47 6q-102 12 -169 137q-66 126 -66 300q0 126 43 255q46 138 100 138zM372 497q-25 217 -104 217
q-45 0 -73 -91q-10 -33 -17 -72.5t-11 -85.5zM172 336q14 -95 36 -161q28 -85 62 -85q40 0 72 101q13 41 21.5 85t12.5 92z" />
    <glyph glyph-name="fitaCyrillic" unicode="&#x473;" horiz-adv-x="440" 
d="M201 -9q-80 9 -129 99q-48 87 -48 206q0 87 36 179q37 97 79 97q8 0 21.5 -3.5t21.5 -3.5q10 0 30.5 4t30.5 4q14 0 23 -4q63 -24 97 -93q36 -72 36 -180q0 -135 -49 -226q-45 -85 -101 -85q-9 0 -18.5 2t-29.5 4zM209 477q-41 0 -54 -135l110 17q-15 118 -56 118z
M159 228q19 -138 51 -138q42 0 58 154z" />
    <glyph glyph-name="IzhitsaCyrillic" unicode="&#x474;" horiz-adv-x="745" 
d="M384 64q11 -35 6 -52q-3 -11 -30.5 -18t-60.5 -7t-60.5 7t-30.5 18q-5 17 6 52l-160 640q-24 25 -28 41q-1 3 -1 9q0 38 58 53q16 4 36 4q32 0 55.5 -12.5t27.5 -28.5q2 -12 -10 -66l107 -427l85 346q18 72 65 113q17 16 39 28t49 19l62 15q45 16 49 16q10 0 17 -4
q64 -42 64 -83q0 -8 -2 -16.5t-7.5 -15t-16 -11t-27.5 -4.5q-16 0 -29 3q-16 -1 -30 -2.5t-27 -5.5q-59 -15 -68 -52z" />
    <glyph glyph-name="izhitsaCyrillic" unicode="&#x475;" horiz-adv-x="564" 
d="M468 451q-20 1 -42 -6q-28 -9 -31 -23l-96 -368q7 -26 3 -39q-1 -5 -8.5 -9.5t-18.5 -8.5t-24.5 -6.5t-26.5 -2.5q-14 0 -27 2.5t-24 6.5t-18.5 8.5t-8.5 9.5q-5 13 3 39l-110 418q-22 22 -22 42q0 23 26 37q22 13 56 13q62 0 71 -37q3 -9 -5 -48l59 -264l45 214
q20 96 132 120q5 2 12.5 3.5t15.5 3.5q36 11 40 11q10 0 19 -6q53 -32 53 -71q0 -45 -73 -39z" />
    <glyph glyph-name="SemisoftSignCyrillic" unicode="&#x48c;" horiz-adv-x="740" 
d="M502 702q28 16 40 16q23 0 40 -35q17 -36 17 -64q0 -23 -14.5 -38t-30.5 -15q-17 0 -56 18h-171v-162q73 51 186 51q158 0 188 -120q6 -26 6 -51q0 -120 -110 -221q-108 -99 -235 -99q-78 0 -139 44q-14 10 -27.5 20t-27.5 21q-2 8 -2 12q0 10 7 18l13 19v468h-53
q-29 -20 -48 -20q-45 0 -45 66q0 41 21 71q19 27 40 27q3 0 7.5 -2.5t9.5 -6.5l23 -17h45v28q-17 32 -17 46q0 49 74 49q82 0 99 -18q10 -10 10 -25t-13 -37q-12 -23 -12 -29v-14h175zM327 100q73 8 146 60q91 64 91 151q0 46 -54 46q-39 0 -97 -27q-51 -23 -86 -51v-179z
" />
    <glyph glyph-name="semisoftSignCyrillic" unicode="&#x48d;" horiz-adv-x="533" 
d="M344 489q24 11 32 11q21 0 39 -29q9 -14 12.5 -27t3.5 -24q0 -22 -14.5 -36t-31.5 -14q-15 0 -43 12h-101v-70q53 25 117 25q121 0 144 -92q4 -15 4 -36q0 -87 -82 -160q-79 -72 -174 -72q-60 0 -106 36q-11 8 -22 16.5t-22 18.5q-5 17 12 40v294h-18q-22 -13 -38 -13
q-46 0 -46 58q0 31 17.5 55.5t39.5 24.5q7 0 33 -18h12q-12 21 -12 35q0 47 67 47q65 0 80 -17q11 -11 11 -25q0 -15 -15 -40h101zM318 234q-15 -4 -34.5 -11t-42.5 -17v-115q46 10 88 41q48 37 48 82q0 25 -32 25q-12 0 -27 -5z" />
    <glyph glyph-name="GheUpturnCyrillic" unicode="&#x490;" horiz-adv-x="525" 
d="M349 774v38q-17 31 -17 47q0 49 73 49q44 0 79 -23q30 -21 30 -44q0 -13 -25 -62v-43q8 -23 9 -40q1 -26 -14.5 -43t-32.5 -18q-19 -1 -61 15l-210 -27v-551q18 -33 18 -59q0 -33 -60 -33q-38 0 -77 19q-39 16 -39 33q0 18 18 50v579q-17 29 -17 47q0 49 73 49
q24 0 48 -8z" />
    <glyph glyph-name="gheUpturnCyrillic" unicode="&#x491;" horiz-adv-x="415" 
d="M383 511q2 -8 4 -14.5t2 -13.5q1 -23 -14 -39t-33 -17q-13 -1 -45 10l-130 -16v-353q12 -24 12 -42q0 -37 -57 -37q-29 0 -63 17q-33 18 -33 32q0 15 13 37v380q-12 21 -12 35q0 47 66 47q17 0 35 -5l127 15v9q-12 22 -12 35q0 47 66 47q18 0 34.5 -4.5t29.5 -13
t20.5 -19t7.5 -22.5t-18 -45v-23z" />
    <glyph glyph-name="GheStrokeCyrillic" unicode="&#x492;" horiz-adv-x="625" 
d="M365 500q34 22 51 22q25 0 46 -40q18 -38 18 -70q0 -26 -16.5 -42.5t-33.5 -16.5q-21 0 -60 19h-80v-300q18 -33 18 -59q0 -33 -60 -33q-38 0 -77 19q-39 16 -39 33q0 18 18 50v290h-33q-32 -20 -51 -20q-49 0 -49 73q0 46 22 77q23 32 45 32q10 0 53 -34h13v191
q-17 29 -17 47q0 49 73 49q24 0 48 -8l234 29q34 24 50 25q25 1 48 -39q21 -36 22 -68q1 -26 -14.5 -43t-32.5 -18q-19 -1 -61 15l-210 -27v-153h75z" />
    <glyph glyph-name="gheStrokeCyrillic" unicode="&#x493;" horiz-adv-x="484" 
d="M112 474q-12 21 -12 35q0 47 66 47q17 0 35 -5l157 18q25 16 39 18q23 2 43 -29q20 -29 22 -56q1 -23 -14 -39t-33 -17q-14 -1 -45 10l-130 -16v-75h33q27 15 40 15q22 0 41 -31t19 -57q0 -23 -16 -38t-34 -15q-16 0 -46 12h-37v-182q12 -24 12 -43q0 -36 -57 -36
q-29 0 -63 17q-33 18 -33 32q0 15 13 37v175h-4q-23 -13 -40 -13q-50 0 -50 63q0 17 5 32.5t14 27.5t20 19t23 7q10 0 32 -14v101z" />
    <glyph glyph-name="ZheDescenderCyrillic" unicode="&#x496;" horiz-adv-x="1155" 
d="M1138 -2q0 -86 -64 -141q-55 -49 -120 -49q-69 0 -69 57q0 21 64 57q65 35 65 52q0 10 -11 18q-41 -13 -64 5q-6 6 -13 29q-8 27 -10 29q-34 67 -55.5 106.5t-30.5 53.5q-20 32 -48.5 63t-65.5 62h-93v-262q18 -33 18 -59q0 -33 -60 -33q-39 0 -77 17q-39 18 -39 35
q0 18 18 50v252h-92q-37 -31 -65.5 -62t-48.5 -63q-9 -14 -30.5 -53.5t-55.5 -106.5q-7 -25 -23 -58q-11 -9 -30 -9q-46 0 -85 46q-24 28 -24 53q0 20 16 33q17 5 43 22q34 63 57.5 104t37.5 61q22 31 50 60t63 57q-35 22 -64.5 52t-51.5 71l-69 128q-52 17 -55 40
q-6 39 40 74q37 28 68 28q25 0 38 -25l12 -31q43 -81 90 -162q47 -82 115 -131h64v249q-17 29 -17 47q0 49 73 49q44 0 79 -23q30 -21 30 -44q0 -13 -25 -62v-216h65q68 49 115 131q46 81 90 162q3 8 6 15.5t5 15.5q13 25 39 25q31 0 68 -28q45 -34 39 -74q-3 -23 -54 -40
l-69 -128q-22 -41 -51.5 -71t-64.5 -52q35 -28 63 -57t50 -60q14 -20 37.5 -61t57.5 -104q7 -9 41 -28q36 -21 52 -39q26 -32 26 -77z" />
    <glyph glyph-name="zheDescenderCyrillic" unicode="&#x497;" horiz-adv-x="850" 
d="M724 -130q-24 -8 -46 -8q-63 0 -63 52q0 25 45 47l46 22q-32 -5 -48 9q-8 4 -12 21q-2 8 -4 13.5t-3 7.5q-16 34 -29 59t-24 42q-29 41 -80 83h-44v-158q12 -24 12 -43q0 -36 -57 -36q-31 0 -64 18q-32 17 -32 31q0 15 13 37v151h-45q-51 -42 -79 -83q-11 -17 -24.5 -42
t-28.5 -59q-2 -8 -7 -19t-13 -23q-11 -10 -29 -10q-31 0 -63 26q-30 27 -30 55q0 19 17 33q12 4 27 12q20 37 34.5 61t22.5 36q34 50 76 83q-20 14 -35.5 32.5t-29 39.5t-25.5 43t-24 43q-44 17 -44 46q0 26 31 50q31 25 60 25q33 0 47 -39l1 -5l57 -102q17 -29 36.5 -50.5
t41.5 -37.5h26v149q-12 21 -12 35q0 47 66 47q18 0 34.5 -5t29 -13t20 -18.5t7.5 -22.5q0 -11 -17 -45v-127h25q22 16 41.5 37.5t36.5 50.5l57 102q15 44 48 44q29 0 60 -25q32 -24 32 -50q0 -29 -44 -46l-48 -85q-13 -23 -30 -41t-37 -32q42 -35 76 -84q16 -23 57 -96
q8 -5 19 -11.5t24 -14.5q43 -30 43 -80q0 -48 -31 -85q-28 -33 -67 -47z" />
    <glyph glyph-name="ZeDescenderCyrillic" unicode="&#x498;" horiz-adv-x="521" 
d="M146 -190q-79 36 -79 84q0 19 18 36q7 5 17 5q18 0 74 -18q57 -18 78 -18q30 0 30 26q0 14 -29 31q-33 19 -37 29q-9 -4 -20 -4q-38 0 -106 56q-68 59 -68 91q0 29 18 45t45 16q11 0 21 -2t19 -8l34 -22q19 -14 33 -15q15 -2 79 83q65 86 65 123q0 18 -16 18
q-18 0 -67 -33q-50 -32 -62 -32q-20 0 -38.5 7t-32.5 19.5t-23 30t-9 38.5q0 18 35 32q47 19 62 30q49 41 99 106q52 67 52 92q0 11 -11 11q-8 0 -99 -51l-29 -23q-18 -15 -34 -15q-19 0 -36.5 8t-30.5 23t-20.5 36t-7.5 47q0 23 31 29q58 9 59 10l82 48q33 20 61.5 28.5
t52.5 8.5q55 0 83 -35t28 -92q0 -29 -7 -59.5t-20 -59.5t-31.5 -55t-41.5 -46q124 -34 124 -97q0 -53 -53 -147q-47 -84 -114 -157q-4 -25 3 -32l62 -48q39 -38 39 -72q0 -40 -49 -80q-56 -47 -134 -47q-53 0 -99 21z" />
    <glyph glyph-name="zeDescenderCyrillic" unicode="&#x499;" horiz-adv-x="392" 
d="M150 192q-29 0 -56 21q-32 23 -32 58q0 20 29 32l45 20q20 16 32.5 27t17.5 16q30 31 45 77q-21 -11 -57 -33q-27 -21 -44 -21q-34 0 -58 21t-24 60q0 26 27 31l46 8l56 32q24 14 46 20t41 6q45 0 69 -30q21 -27 21 -71q0 -79 -54 -140q73 -25 73 -71q0 -40 -41 -113
q-37 -65 -84 -115l34 -35q35 -40 35 -76q0 -32 -27 -63q-32 -35 -89 -35q-54 0 -104 29q-49 28 -49 61q0 16 11.5 26.5t27.5 10.5q7 0 24.5 -4.5t45.5 -12.5q10 -3 16.5 -4t11.5 -1q13 0 13 11q0 5 -19 24q-20 20 -26 20q-32 0 -85 41q-52 42 -52 71q0 55 58 55q32 0 55 -18
q11 -10 34 -13q6 -2 47 59q42 59 37 64q-2 2 -39 -20q-40 -25 -58 -25z" />
    <glyph glyph-name="KaDescenderCyrillic" unicode="&#x49a;" horiz-adv-x="761" 
d="M665 118q73 -28 73 -120q0 -85 -64 -143q-56 -51 -120 -51q-69 0 -69 61q0 21 64 57q65 35 65 52q0 9 -11 18q-41 -13 -64 5q-6 6 -13 29q-8 27 -10 29q-34 67 -55.5 106.5t-30.5 53.5q-20 32 -48.5 63t-65.5 62h-113v-262q18 -33 18 -59q0 -33 -60 -33q-39 0 -77 17
q-39 18 -39 35q0 18 18 50v629q-17 29 -17 47q0 49 73 49q45 0 79 -23q30 -21 30 -44q0 -13 -25 -62v-216h85q68 49 115 131q46 81 90 162l12 31q13 25 38 25q31 0 68 -28q46 -35 40 -74q-3 -23 -55 -40l-69 -128q-22 -41 -51.5 -71t-64.5 -52q35 -28 63 -57t50 -60
q14 -20 37.5 -61t57.5 -104q3 -5 9.5 -8t13.5 -6t13.5 -5t9.5 -5z" />
    <glyph glyph-name="kaDescenderCyrillic" unicode="&#x49b;" horiz-adv-x="587" 
d="M410 -156q-55 0 -55 57q0 28 45 50l46 23q-40 -7 -58 9q-3 3 -6 9.5t-5.5 13.5t-4.5 13t-3 8q-15 35 -28.5 61t-24.5 43q-29 45 -80 88h-59v-165q13 -25 13 -45q0 -38 -57 -38q-32 0 -64 19q-33 18 -33 33t13 38v433q-11 24 -11 36q0 49 66 49q18 0 34 -5t29 -13.5
t20.5 -19.5t7.5 -23q0 -13 -18 -47v-133h40q22 17 42 39.5t36 52.5l57 106q15 47 48 47q28 0 60 -26q31 -25 31 -53q0 -31 -44 -48l-47 -88q-13 -24 -30 -43t-37 -34q42 -36 76 -87q8 -12 22.5 -37t34.5 -63q11 -4 27 -13q59 -24 59 -96q0 -58 -43 -104q-42 -47 -99 -47z
" />
    <glyph glyph-name="KaStrokeCyrillic" unicode="&#x49c;" horiz-adv-x="769" 
d="M410 512q42 44 79 113l74 136l12 31q13 25 38 25q31 0 68 -28q46 -35 40 -74q-3 -23 -55 -40l-69 -128q-22 -41 -51.5 -71t-64.5 -52q35 -28 63 -57t50 -60q14 -20 37.5 -61t57.5 -104q3 -4 9.5 -7.5t13.5 -6t12.5 -5t7.5 -3.5q16 -13 16 -33q0 -25 -24 -53
q-39 -46 -86 -46q-19 0 -29 9q-6 6 -13 29q-8 27 -10 29q-32 64 -52 101.5t-28 48.5q-37 60 -96 115v-113q17 -36 17 -58q0 -29 -55 -29q-35 0 -74 17q-37 18 -37 31q0 17 19 48v124h-77v-262q18 -33 18 -59q0 -33 -60 -33q-39 0 -77 17q-39 18 -39 35q0 18 18 50v629
q-17 29 -17 47q0 49 73 49q45 0 79 -23q30 -21 30 -44q0 -13 -25 -62v-216h77v140q-17 31 -17 45q0 44 68 44q44 0 75 -22q29 -20 29 -40q0 -11 -25 -60v-63z" />
    <glyph glyph-name="kaStrokeCyrillic" unicode="&#x49d;" horiz-adv-x="579" 
d="M295 49q-33 0 -64 15t-31 23q0 5 5 27q6 19 6 26v89h-49v-165q12 -26 12 -45q0 -37 -57 -37q-31 0 -64 18q-32 18 -32 33q0 16 13 38v423q-12 22 -12 36q0 50 66 50q18 0 34.5 -5t29 -14t20 -20t7.5 -23q0 -11 -17 -47v-122h49v89q0 4 -2.5 11t-5.5 13.5t-5.5 12
t-2.5 7.5q0 34 55 34q39 0 65 -19q24 -17 24 -31q0 -2 -8 -16q-10 -17 -10 -30v-11q16 22 38 61l37 66q15 47 48 47q28 0 60 -26t32 -53q0 -31 -44 -48l-48 -83q-12 -21 -29.5 -38.5t-37.5 -32.5q42 -36 76 -87q8 -13 22.5 -38t34.5 -63q12 -3 27 -13q17 -14 17 -35t-20 -46
q-34 -37 -72 -37q-19 0 -30 10q-8 6 -12 21q-2 10 -4 15.5t-3 7.5q-45 103 -92 153v-55q0 -9 9 -31q9 -23 9 -34q0 -21 -44 -21z" />
    <glyph glyph-name="KaBashkirCyrillic" unicode="&#x4a0;" horiz-adv-x="939" 
d="M233 674h-130q-29 -20 -48 -20q-45 0 -45 66q0 41 21 71q19 27 40 27q9 0 50 -26h106q19 21 62 21q45 0 79 -23q30 -21 30 -44q0 -13 -25 -62v-216h155q68 49 115 131q46 81 90 162l12 31q13 25 38 25q31 0 68 -28q46 -35 40 -74q-3 -23 -55 -40l-69 -128
q-22 -41 -51.5 -71t-64.5 -52q35 -28 63 -57t50 -60q14 -20 37.5 -61t57.5 -104q3 -4 9.5 -7.5t13.5 -6t12.5 -5t7.5 -3.5q16 -13 16 -33q0 -25 -24 -53q-39 -46 -86 -46q-19 0 -29 9q-6 6 -13 29q-8 27 -10 29q-34 67 -55.5 106.5t-30.5 53.5q-20 32 -48.5 63t-65.5 62
h-183v-262q18 -33 18 -59q0 -33 -60 -33q-39 0 -77 17q-39 18 -39 35q0 18 18 50v586z" />
    <glyph glyph-name="kaBashkirCyrillic" unicode="&#x4a1;" horiz-adv-x="697" 
d="M657 15q-33 -38 -72 -38q-19 0 -30 10q-3 3 -6 9.5t-5.5 14t-4.5 13t-3 7.5q-15 35 -28.5 61.5t-24.5 43.5q-29 45 -80 88h-107v-165q12 -26 12 -45q0 -38 -57 -38q-32 0 -64 19q-32 18 -32 32q0 16 13 39v391h-72q-22 -13 -39 -13q-45 0 -45 61q0 16 4.5 31t12.5 26.5
t18 18.5t22 7q10 0 39 -18h64q19 14 50 14q18 0 34.5 -5t29 -13.5t20 -20t7.5 -23.5q0 -10 -17 -46v-133h88q22 17 42 39.5t36 52.5l57 106q15 47 48 47q28 0 60 -26t32 -53q0 -31 -44 -48l-48 -88q-25 -46 -67 -77q42 -36 76 -87q8 -12 22.5 -37.5t34.5 -63.5q10 -2 27 -12
q17 -14 17 -35t-20 -46z" />
    <glyph glyph-name="EnDescenderCyrillic" unicode="&#x4a2;" horiz-adv-x="610" 
d="M387 -191q-67 0 -67 56q0 16 31 34l57 33q41 23 41 43q0 10 -11 19q-67 18 -67 44q0 18 18 50v285l-200 -30v-265q17 -34 17 -59q0 -33 -60 -33q-39 0 -77 17q-39 18 -39 35q0 19 19 50v629q-17 29 -17 46q0 49 73 49q46 0 77 -22q32 -23 32 -45q0 -12 -25 -61v-213
l200 30v220q-15 34 -15 57q0 16 8 22q15 10 27 12h36q18 0 35 -2.5t33 -9.5q41 -18 41 -55q0 -12 -25 -61v-585q44 -33 44 -101q0 -72 -57 -131q-57 -58 -129 -58z" />
    <glyph glyph-name="enDescenderCyrillic" unicode="&#x4a3;" horiz-adv-x="463" 
d="M288 -153q-61 0 -61 54q0 18 28 37q11 6 22 12.5t20 11.5t14.5 9t5.5 5t-1 2q-22 8 -38 21t-16 23q0 16 13 39v178l-110 -16v-170q12 -26 12 -44q0 -38 -57 -38q-32 0 -64 19q-32 17 -32 32q0 16 13 39v432q-12 22 -12 37q0 49 66 49q18 0 34.5 -5t29 -14t20 -20t7.5 -23
q0 -11 -17 -47v-128l110 17v139q-8 26 -8 41q0 37 36 40q20 2 38.5 -0.5t35.5 -8.5q44 -17 44 -53q0 -13 -18 -47v-398q31 -28 31 -78q0 -58 -44 -102q-44 -45 -102 -45z" />
    </font>
</defs>
</svg>
